<svg xmlns="http://www.w3.org/2000/svg" viewBox="0 0 715.63 171.63"><defs><style>.cls-1{fill:#463026;}</style></defs><g id="Layer_2" data-name="Layer 2"><g id="Layer_1-2" data-name="Layer 1"><path class="cls-1" d="M402.21,35.26a1.42,1.42,0,0,1-.54-.36,1.31,1.31,0,0,0-1.73-.48,7.05,7.05,0,0,1-1.49.78,11.18,11.18,0,0,0-1.74.65c-1.85.78-3.88,1.8-5.85,2.63-.36.12-.66.12-.78.36a4.52,4.52,0,0,0-1.55,1c-.3.36-.3.36-.6,0-1,.54-1.91,1-3.05,1.55a26.36,26.36,0,0,1-3,1.14,16,16,0,0,1-3.83.71c-.59.36-1.37,0-2-.18a.83.83,0,0,1-.48-1.13,18.71,18.71,0,0,1,2.69-4.18.61.61,0,0,1,.54-.24c1,0,1.91.18,2.69.18a4.27,4.27,0,0,0,1.73-.18,11.37,11.37,0,0,0,5.56-2.21l.83-.54c1.2-.48,1.68-1.55,2.45-2.51a1.87,1.87,0,0,0,.12-2.33,5,5,0,0,0-.95-1.32c-.06-.11-.42-.17-.66-.23s-.42,0-.54-.18a1.72,1.72,0,0,0-2.15.18c-.54.23-1.25.29-1.79.53h0a23.28,23.28,0,0,0-5.43,2c-.47.24-1.07.54-1.55.84a29.15,29.15,0,0,0-4.78,3.17c-1.07.71-2,1.49-3.11,2.21a19,19,0,0,1-2.33,1.67,19,19,0,0,1-5,2.45,5.06,5.06,0,0,1-1.19.24c-.06.06-.3,0-.42-.18a1.54,1.54,0,0,0,.12-.3,22,22,0,0,0,1.79-2.69,16,16,0,0,1,1.14-1.91.49.49,0,0,1,.6-.24,1.37,1.37,0,0,0,.65.12c.24,0,.36-.12.54-.3A28.17,28.17,0,0,1,369,33.48a3.86,3.86,0,0,0,.84-3.22c0-.48-.6-.36-.36-.9V29.3c-.66,0-1.07-.06-1.43-.72-.12-.06-.3,0-.48,0a5.52,5.52,0,0,0-2.87.72,17.19,17.19,0,0,0-1.73,1,4.57,4.57,0,0,0-1.73.95,3.21,3.21,0,0,1-1.44,1,3.3,3.3,0,0,0-1.73,1c-.06.12-.18.18-.36.3a4.9,4.9,0,0,0-1.85,1l-5.26,4.3a7.6,7.6,0,0,0-.66.78c-.42.24-.77.3-.89.77l-2.81,2.51a10.86,10.86,0,0,1-1.79,1.44l-.06.18c-.12-.18-.12-.24-.12-.3.18-.6.59-1.38.77-2.15a2.2,2.2,0,0,0,.24-1.08c.12-.42.78-.6.48-1.13a17.68,17.68,0,0,0,1.26-2.1,5.18,5.18,0,0,0,.41-.71.64.64,0,0,0-.24-.36c-.12,0-.12.06-.17.3,0-.24-.12-.3-.12-.3h-.18V37a2.13,2.13,0,0,0,.06.42,1.88,1.88,0,0,1-.48.11,3.16,3.16,0,0,1-.9,1.56v-.9H345c0,.18,0,.48-.24.6,0,.3,0,.48-.35.66a.46.46,0,0,1-.36.53c0,.24.18.66-.42.42,0,.12-.06.36-.06.54.18.12.18.36.24.6h.24c0-.24,0-.48.36-.6v-.12a.46.46,0,0,1,.35-.48.54.54,0,0,1-.35.6c0,.18,0,.6-.18.66a.79.79,0,0,0-.18.6s-.06,0-.06.12a.21.21,0,0,0-.18-.12,2,2,0,0,0-.06-.6h-.18a.3.3,0,0,1-.06.18c0,.12,0,.24-.18.24a.62.62,0,0,1-.06-.24v-.18c-.48.18-.3.48-.42.89.12.06.24.06.24.12v.24c-.12,0-.12-.06-.24-.06v-.3c-.06.06-.18.06-.18.12a17.81,17.81,0,0,1-1.13,3.29,1.25,1.25,0,0,0,0,1.55c.36.54.77,1.2,1.43,1.26a1.35,1.35,0,0,0,.6-.06c.48-.3,1-.72,1.43-1.08.18-.71,1-.71,1.26-1.19,1.55-1.44,3.17-2.75,4.6-4.3a16.5,16.5,0,0,1,2.63-2.45c1.79-1.32,3.34-2.63,5.14-4a3,3,0,0,0,.41-.53h-.53c.12-.3.42-.3.65-.3.06-.12.18-.12.3-.3v.3a8.92,8.92,0,0,0,2.69-1.44,4.09,4.09,0,0,0,.3-.42h-.54a.19.19,0,0,0-.06-.17,1.43,1.43,0,0,0-1.55.77c.12.18.18.18.18.24s-.06,0-.18.18v-.42c-.18,0-.36.18-.6.42a.43.43,0,0,0-.36.24.84.84,0,0,0-.59.24,13.77,13.77,0,0,0-2,1.49c-.12,0-.17.24-.35.42-.6,0-1,.6-1.5.84a18.13,18.13,0,0,1-2,1.49c-1.49,1.2-2.81,2.45-4.36,3.82-.18.06-.36.36-.72.3a6.94,6.94,0,0,1,1.62-1.85c1.49-1.37,3.1-2.63,4.72-4a24.39,24.39,0,0,1,2.62-2,10.43,10.43,0,0,1,2.69-1.74A24.36,24.36,0,0,1,364,30.55c.72-.24,1.44-.77,2.16-1,.11,0,.23,0,.29.18l-.06.18a4.57,4.57,0,0,0-1.19.65c-.36.12-.48.18-.48.48h.6v.42c.18.06.3.18.18.36-.18.42-.78.78-.84,1.19a5,5,0,0,1-.89,1.86c-1.14,1.73-2.45,3.46-3.71,5.31a2.07,2.07,0,0,1-.42.72,2.31,2.31,0,0,0,1.5,3,9.44,9.44,0,0,0,5.73-1.14A7.79,7.79,0,0,1,368.4,42a26,26,0,0,1,2.86-1.8,29.8,29.8,0,0,1,3-2.39c.47-.34.88-.67,1.31-1a13.21,13.21,0,0,0-1.31,2.26l-.42.78a4.87,4.87,0,0,0,0,2.63,4,4,0,0,0,1.25,2,3.26,3.26,0,0,0,1.56.89,4.27,4.27,0,0,0,3.23.3c.23-.3.47-.3.83-.42a16.48,16.48,0,0,0,5.86-2c1.25-.59,2.57-1.19,3.88-1.73,1.26-.72,2.75-1,3.94-1.85.06-.12.3-.12.48-.24,1.44-.6,2.93-1.14,4.42-1.79a11.12,11.12,0,0,1,2.87-1c.06,0,.36-.06.36-.18C402.87,36.15,402.63,35.5,402.21,35.26Zm-45.64,1.15c-.18.12-.06,0-.12-.06A.21.21,0,0,1,356.57,36.41Zm32.2-5.81c.36,0,.66-.06.71-.3s.3-.42.48-.24.48.36.3.66a1.24,1.24,0,0,1-.18.83,3.62,3.62,0,0,1-1.49,1.79,12.68,12.68,0,0,1-4.18,2.16,19.39,19.39,0,0,1-2,.77c-.47.12-1.19.18-1.73.3v-.12a1.59,1.59,0,0,0-.77.12c-.18,0-.54.18-.72,0s.3-.54.36-.6l1.61-1.55A23.13,23.13,0,0,1,385,31.79,8.43,8.43,0,0,1,388.77,30.6Z"/><path class="cls-1" d="M333.74,13.29v-.06h-.48v.12C333.44,13.35,333.56,13.29,333.74,13.29Z"/><path class="cls-1" d="M319.76,18.07c-.18,0-.24.06-.24.12S319.76,18.13,319.76,18.07Z"/><path class="cls-1" d="M334.94,13.23c.11.24.29.12.47.12l.06-.06a.06.06,0,0,0-.06-.06Z"/><path class="cls-1" d="M322.21,17.35h.36v-.24C322.45,17.11,322.21,17.05,322.21,17.35Z"/><path class="cls-1" d="M332.37,13.59h.41l.12-.06-.12-.06C332.55,13.35,332.43,13.35,332.37,13.59Z"/><path class="cls-1" d="M331.65,13.23h-.54a.06.06,0,0,0-.06.06.06.06,0,0,1,.06.06C331.35,13.35,331.47,13.47,331.65,13.23Z"/><path class="cls-1" d="M330.75,14.66c0-.06,0-.12-.18-.06C330.63,14.66,330.63,14.66,330.75,14.66Z"/><path class="cls-1" d="M319.1,18.42h.42v-.23C319.34,18.19,319.1,18.19,319.1,18.42Z"/><path class="cls-1" d="M319,18.42a.58.58,0,0,0-.6.48h.36Z"/><path class="cls-1" d="M325.79,17.29c0-.06.12-.06.12-.18h-.18C325.73,17.23,325.73,17.23,325.79,17.29Z"/><path class="cls-1" d="M332,13.7c0,.06.06.12.18.06s.06-.06.12-.17-.12.11-.24.11Z"/><polygon class="cls-1" points="331.11 13.88 331.05 13.88 331.11 14 331.11 13.88"/><path class="cls-1" d="M322.69,17.11h.36C322.81,16.93,322.81,16.93,322.69,17.11Z"/><path class="cls-1" d="M338.28,11.43l.12-.12c-.12,0-.24-.12-.3,0a.64.64,0,0,0-.36.12,11.53,11.53,0,0,1-1.43.24.46.46,0,0,1-.06.18h.3A4.09,4.09,0,0,0,338.28,11.43Z"/><path class="cls-1" d="M340.19,11.67h-.71a.06.06,0,0,0-.06.06l.06.12C339.72,11.85,340,11.91,340.19,11.67Z"/><path class="cls-1" d="M334.7,12.21v.06a2.45,2.45,0,0,0,1.55-.42A2.37,2.37,0,0,0,334.7,12.21Z"/><path class="cls-1" d="M345.45,11l.24-.24c0-.12.12-.12.18-.18a.6.6,0,0,1-.18-.06c-.66.06-1.31.12-2,.24a28.64,28.64,0,0,1-3.41.65.26.26,0,0,1-.06.18,11.87,11.87,0,0,0,2.51-.3A10.32,10.32,0,0,1,345.45,11Z"/><polygon class="cls-1" points="340.19 11.61 340.19 11.67 340.25 11.61 340.19 11.61"/><path class="cls-1" d="M318.27,19.08a.27.27,0,0,1,.17.06V18.9C318.38,19,318.27,19,318.27,19.08Z"/><path class="cls-1" d="M322.15,18.9h-.42v.24C321.91,19.14,322.15,19.14,322.15,18.9Z"/><path class="cls-1" d="M340.19,11h-.71l-.06.06a.06.06,0,0,0,.06.06C339.72,11.19,340,11.31,340.19,11Z"/><polygon class="cls-1" points="317.49 21.77 317.73 21.53 317.49 21.53 317.49 21.77"/><path class="cls-1" d="M335.41,12.75c-.18,0-.36-.06-.47.18h.47l.06-.12A.06.06,0,0,0,335.41,12.75Z"/><rect class="cls-1" x="334.88" y="12.93" width="0.06" height="0.06"/><path class="cls-1" d="M334.1,13.05c.06,0,.06.12.06.12h.78c-.06-.12-.06-.12-.06-.18h-.72A.06.06,0,0,1,334.1,13.05Z"/><polygon class="cls-1" points="335.95 12.63 335.89 12.63 335.95 12.69 335.95 12.63"/><path class="cls-1" d="M332.19,13.17l2.39-.72c.06,0,.06-.06.12-.18a2.85,2.85,0,0,0-.72,0l-2.15.72c-.12,0-.12.06-.18.18A1.62,1.62,0,0,0,332.19,13.17Z"/><path class="cls-1" d="M330.22,14.12l-.12.12C330.22,14.24,330.27,14.3,330.22,14.12Z"/><path class="cls-1" d="M330,13.59a2.09,2.09,0,0,0-1.44.47A3,3,0,0,0,330,13.7Z"/><polygon class="cls-1" points="327.41 14.42 327.41 14.54 327.53 14.42 327.41 14.42"/><path class="cls-1" d="M328.48,14.06c0,.06-.06.06-.12.06s.06.12.06.12S328.48,14.12,328.48,14.06Z"/><path class="cls-1" d="M328.06,14.36c-.12,0-.12-.06-.12-.06-.23,0-.35-.06-.41.12h.41S327.94,14.36,328.06,14.36Z"/><path class="cls-1" d="M329.8,14.36c0,.06.06.06.18.06s.06-.06.06-.12h-.18A.06.06,0,0,0,329.8,14.36Z"/><path class="cls-1" d="M324.6,16.21H325V16C324.84,16,324.66,16,324.6,16.21Z"/><path class="cls-1" d="M324.06,16.69a.26.26,0,0,1,.06-.18C324.06,16.51,323.94,16.51,324.06,16.69Z"/><path class="cls-1" d="M327.41,14.54h-.36c-.06,0-.24,0-.24.12C327.05,14.66,327.29,14.84,327.41,14.54Z"/><path class="cls-1" d="M324.12,15.86c-.24,0-.48-.12-.6.11a.76.76,0,0,0,.36.06C323.94,16,324.12,16,324.12,15.86Z"/><path class="cls-1" d="M324.18,16.45h.42v-.18C324.42,16.27,324.18,16.21,324.18,16.45Z"/><path class="cls-1" d="M326.21,14.78c0,.06,0,.06-.12.12C326.21,14.9,326.33,14.9,326.21,14.78Z"/><path class="cls-1" d="M326.09,15h-.3s-.06,0-.06.12a.6.6,0,0,1,.18.06C326,15.08,326,15,326.09,15Z"/><path class="cls-1" d="M325,15.38c-.18,0-.36,0-.42.24C324.72,15.62,325,15.62,325,15.38Z"/><path class="cls-1" d="M325.43,15.32c-.05-.12-.17-.18-.23-.12a.45.45,0,0,1-.18.18.89.89,0,0,0,.36-.06Z"/><path class="cls-1" d="M326.75,14.78c-.12,0-.18,0-.12.06S326.75,14.78,326.75,14.78Z"/><path class="cls-1" d="M326.27,15.5a.36.36,0,0,0,.24-.06h-.3Z"/><path class="cls-1" d="M326.81,14.66c-.06,0-.06.12-.06.12h.06Z"/><path class="cls-1" d="M326.51,16h.18s-.12-.05-.12-.11a.21.21,0,0,1-.12.06C326.45,16,326.45,16,326.51,16Z"/><path class="cls-1" d="M317.31,20V19.8a.21.21,0,0,0-.18.12A.6.6,0,0,1,317.31,20Z"/><path class="cls-1" d="M320.65,17.53a.05.05,0,0,0,0,.06h0Z"/><path class="cls-1" d="M320.18,17.77c.18,0,.36,0,.42-.18C320.42,17.59,320.3,17.59,320.18,17.77Z"/><path class="cls-1" d="M320.71,17.47a.06.06,0,0,0-.06.06h.18Z"/><path class="cls-1" d="M316.35,20.52c-.06,0-.06.06-.12.18h.18A.46.46,0,0,1,316.35,20.52Z"/><path class="cls-1" d="M319.76,18c.12,0,.36.06.42-.18C320,17.83,319.82,17.83,319.76,18Z"/><rect class="cls-1" x="317.31" y="19.74" width="0.06" height="0.06"/><path class="cls-1" d="M323.4,16c-.12,0-.3-.06-.35.18C323.22,16.27,323.4,16.27,323.4,16Z"/><path class="cls-1" d="M330.63,13.47h-.24c-.12,0-.29,0-.29.12h.41Z"/><path class="cls-1" d="M317.37,19.74h.12a.21.21,0,0,1-.06-.12A.19.19,0,0,0,317.37,19.74Z"/><path class="cls-1" d="M330.57,14.12s0,.12.06.12.12-.12,0-.12S330.57,14.12,330.57,14.12Z"/><path class="cls-1" d="M323.05,16.27c-.18,0-.36-.06-.48.18C322.81,16.45,323,16.51,323.05,16.27Z"/><polygon class="cls-1" points="330.1 14.3 330.1 14.24 330.04 14.3 330.1 14.3"/><path class="cls-1" d="M323.4,16.93c0-.12,0-.18-.06-.12S323.4,16.81,323.4,16.93Z"/><path class="cls-1" d="M322.15,16.69v.06a.06.06,0,0,1,.06-.06Z"/><path class="cls-1" d="M322.57,16.51c-.12,0-.3-.06-.36.18C322.33,16.69,322.51,16.69,322.57,16.51Z"/><path class="cls-1" d="M320.89,18h.36C321.13,17.77,321.07,17.77,320.89,18Z"/><path class="cls-1" d="M322.15,17.35s-.12.12-.18.12a.3.3,0,0,0,.18.06Z"/><polygon class="cls-1" points="322.15 16.75 321.97 16.75 322.03 16.81 322.15 16.75"/><path class="cls-1" d="M324.6,15.62c-.18,0-.42-.12-.48.24C324.36,15.86,324.48,15.86,324.6,15.62Z"/><path class="cls-1" d="M330.93,35.39c0,.18,0,.42-.18.48v.84c.6-.36.6-1.14,1.08-1.67.12-.06.18-.3.18-.48a6.67,6.67,0,0,1,.42-1,1.85,1.85,0,0,0,.06-.54.64.64,0,0,0-.36.12c-.12.24.06.54-.24.72,0,.12,0,.36-.24.42a.65.65,0,0,1-.48.66C331.17,35.1,331.17,35.33,330.93,35.39Z"/><path class="cls-1" d="M342.94,18.13c.78-.84,1.38-1.74,2.21-2.51a2,2,0,0,0,.42-.78c0-.84,0-1-.66-1.49a1.11,1.11,0,0,0-.83-.42c-.12,0-.3-.18-.42-.24s-.12-.24-.12-.42c.42.24.78-.06,1.19-.06.12-.36.36-.12.6-.12h.6c.18-.12.18-.12.06-.18s-.36-.18-.06-.24a2.89,2.89,0,0,1,.72,0,.06.06,0,0,1,.06.06l-.06.12-.12.06c0,.06,0,.18.12.18h.59c.06,0,.18-.18.24-.24s-.18-.18-.18-.24.12-.18.18-.18a1.08,1.08,0,0,1,.84.24.68.68,0,0,0,.36.18.27.27,0,0,0,.24-.18c-.06-.12-.06-.3.18-.24s.47.18.59.12a1.14,1.14,0,0,1,1.08.06c.18.06.3,0,.48-.3s.24-.41.54-.23a2.85,2.85,0,0,0,.65.11,6.19,6.19,0,0,0,1,0,4.1,4.1,0,0,1,.83.23c.12-.35.12-.35.3-.29h.48a4.85,4.85,0,0,1,1-.06.21.21,0,0,1,.12.06.19.19,0,0,1-.12.06.61.61,0,0,0-.36.17l.24.12a1.43,1.43,0,0,1,.54.18.23.23,0,0,0,.23-.3c-.06-.17-.23-.29.06-.29a9.09,9.09,0,0,0,2.57-.24h.06c.06.06.18.06.18.12s0,.18-.12.24a.77.77,0,0,0-.3,0c-.06,0-.06.12-.12.12a.21.21,0,0,1,.12.06c.3,0,.72.06.78-.29s.3-.48.72-.3a5.52,5.52,0,0,0,.54-.18c.12-.06.29.18.41.18s.12.06.12.06,0,.06-.12.06h-.29a2.19,2.19,0,0,1-.84.12c-.12,0-.24.12-.12.17a.26.26,0,0,0,.06.18h.36a1.32,1.32,0,0,0,1.37-.59.52.52,0,0,1,.54-.24l.66.12a4.5,4.5,0,0,0,1.31.27v.44h-.24a1.63,1.63,0,0,0-.06-.47c-.59.18-.89.71-1.19,1.25v.18h.3c-.06.24-.06.3-.3.3v-.3a.91.91,0,0,0-.9,1l.42-.3a2.47,2.47,0,0,0,.48-.18v.48a4.43,4.43,0,0,0,.83-.72c.18-.18.24-.3.42-.3a2.6,2.6,0,0,1-.06.3h-.18c-.3.66-.3,1.13-.71,1.55a1.83,1.83,0,0,1-.42.6c-.3.36-.54.3-.78,0a3.33,3.33,0,0,0,.36-.48,2.22,2.22,0,0,0,.12-.71,2,2,0,0,1-.54.41v-.65A2.06,2.06,0,0,0,361,14.78h.3c0,.24-.06.24-.06.3s-.12-.06-.24-.3A3.44,3.44,0,0,0,360,16a.28.28,0,0,0-.18.3.89.89,0,0,0,.54-.24v.54a2.71,2.71,0,0,1,.66-.18v.48h.3a.12.12,0,0,1,.12-.12s0,.12.11.12h.12a1,1,0,0,0,.54-.9,4.94,4.94,0,0,1,1.79-1,2.28,2.28,0,0,0,.84-1.32,1.7,1.7,0,0,1,.36-1.13,1.65,1.65,0,0,0,.42-.54c-.48-.18-.48-.18-1,.06l.06-.06h-.06a2.25,2.25,0,0,1,.06-.6c.12-.12.42-.18.6-.3a.33.33,0,0,1,.06-.19l.24,0v.15a.65.65,0,0,1,.42.12.93.93,0,0,0,.41,0,.2.2,0,0,1,.07-.16l.35-.07c.06,0,.24-.06.36-.06a21.06,21.06,0,0,1,3.35.06l1.31.07c-.3.32-.59.63-.9.94-1.13,1-2.15,2-3.34,3.05A32,32,0,0,1,364.21,18c-1,.77-1.73,1.55-2.75,2.21a2.46,2.46,0,0,1-1,.77,21.36,21.36,0,0,0-1.79,1.32,6.89,6.89,0,0,0-1.14,1.07c-.48.48-.95,0-1.49.3a1.35,1.35,0,0,1-.48,1,1.78,1.78,0,0,1-.18.24c-.6-.36-.6.66-1.08.42v-.66c-.59.24-1,.54-1,1.13-.42.18-.48.54-.72.72-.06.06-.24.06-.42.12a2.6,2.6,0,0,0-.06-.3c-.53.48-.89,1.26-1.73,1.5,0,0-.12.29,0,.29.18.3-.12.72.3.9.18,0,.18.36.24.54a.21.21,0,0,1,.24.24,2.59,2.59,0,0,0,1.49-.54,6.15,6.15,0,0,1,1.79-.84l.6-.3a39.81,39.81,0,0,0,5.26-3.46c1.08-.72,2.15-1.55,3.11-2.33,1.25-1,2.45-1.85,3.64-2.87a36.23,36.23,0,0,0,3.11-3l1.55-1.73a7.54,7.54,0,0,1,1.67-1.67c.64-.59,1.28-1.2,1.85-1.84a13.45,13.45,0,0,1,1.86.22,1.59,1.59,0,0,0,.6.18,12,12,0,0,1,2,.3l1.19.3c1.08.54,2.27.6,3.35,1.14.12.12.3,0,.36-.12a1.4,1.4,0,0,0,.18-1.38c-.18-.24-.24-.66-.42-.95-.06-.06-.12-.24-.24-.3a9.56,9.56,0,0,0-3.76-1.38A7.18,7.18,0,0,1,379,9a7.81,7.81,0,0,0-1.13-.23h0a34.63,34.63,0,0,0,3.12-5.85,3.23,3.23,0,0,1,.06-.48.77.77,0,0,0-.06-.42c-.95-1-1.67-2-3.16-2-1.26-.06-2.51-.06-3.29.9a4.63,4.63,0,0,0-1,.83,5.52,5.52,0,0,1-.71.6,3.73,3.73,0,0,0-1.14.84A26.4,26.4,0,0,1,369,5.58c-1.5,1.59-2.33,2.12-2.63,2.57h-2.09a1.62,1.62,0,0,0-.54,0,3.58,3.58,0,0,1-1.43.18c-1.37,0-2.75,0-4.12.06a24.42,24.42,0,0,1-2.93.12c-.12,0-.12,0-.18.12a6.63,6.63,0,0,1-1.13.12,5.12,5.12,0,0,0-1.86.17,26,26,0,0,0-3.7.48,7,7,0,0,0-2.21.3.45.45,0,0,0-.24.12,6.7,6.7,0,0,0,1.55,0,11.86,11.86,0,0,1,3.23-.36c.24,0,.48-.06.6-.06a4,4,0,0,1,1.13-.18c.48,0,1-.3,1.5-.06A6.23,6.23,0,0,1,355.79,9c.66-.06,1.31-.12,2-.12a32.28,32.28,0,0,1,3.29-.11h1.61a5,5,0,0,0,1.61-.06c.66-.18,1.08.23,1.62.06h.53l-.11.22c-2.56,0-5.1,0-7.59.19-1.08.12-2.1.06-3.11.24s-2.15.06-3.29.18a10,10,0,0,1-2.69.36h-.29a12.72,12.72,0,0,1-2.63.36c-.06,0-.24,0-.3.06s-.06.12-.06.12a.06.06,0,0,0,.06.06h1.67v.24a2.4,2.4,0,0,0-1.13.06,3.81,3.81,0,0,1-1.38.18c0,.06.06.12.12.17s.12.12.18.12-.18.06-.24.06a3.46,3.46,0,0,0-.84-.18c-.18,0-.29,0-.41.18-.36,0-.66.06-1.08.06-.06,0-.06.12-.12.12a.06.06,0,0,0,.06.06l.18.12a.22.22,0,0,0-.18.12,2.51,2.51,0,0,0-1.31-.18c-.06,0-.12.06-.12.18s.12.06.24.06.06,0,.06.06-.18.12-.18,0-.06-.06-.12-.12a3.81,3.81,0,0,0-1.86.3c-.17,0,.06.06.06.12s.06.12.06.12-.06.06-.12.06a2.11,2.11,0,0,1-.83-.18c-.3,0-.42.12-.48.48v.18c-.06,0-.06,0-.18-.12a.56.56,0,0,0-.54-.3h-.36v.24h.54a.06.06,0,0,0,.06.06c-.06,0-.06.12-.06.12h-.54v-.18h-.23A2.48,2.48,0,0,0,336,13a.09.09,0,0,0,0,.18c.24.12.18.12-.06.18,0,.12-.06.18-.18.24.24.11.66-.12.54.41a.81.81,0,0,0,.54,0c.18-.18.42-.41.54-.41a2.23,2.23,0,0,0,1.25-.24,12.46,12.46,0,0,0,1.61-.3,5.33,5.33,0,0,1,1.38-.06h.77l-.23.3c-.24.41-.54.71-.78,1.07a33.33,33.33,0,0,1-2,2.93c-1,1.31-1.8,2.75-2.75,4.12-.66.9-1.08,1.73-1.62,2.57-.71,1.08-1.31,2.15-2,3.23l-2.27,4c-.77,1.44-1.61,2.93-2.33,4.42l-.36,1a40.64,40.64,0,0,0-1.91,5.67.73.73,0,0,0,0,.78c.06.06,0,.18-.12.24a.43.43,0,0,0-.18.36c0,.72,0,1.49.06,2.15a3,3,0,0,0,.3,1.2h.06V46a12.9,12.9,0,0,1,.54-3.76c.18-.72.48-1.38.72-2.1,0-.12.06-.35.06-.59h-.24c.12-.24.12-.42.42-.48s.29-.12.29-.3-.06-.3-.24-.3a.53.53,0,0,1-.05.24v.12c-.12-.06-.12-.12-.12-.24a.67.67,0,0,0,.17-.12c.06-.18-.05-.48.3-.3.18-.72.84-1.19.78-1.91-.24-.18-.24-.24,0-.42v.42a.37.37,0,0,0,.24-.42l.06-.06,1.55-2.69c.54-1.07,1.2-2.15,1.74-3.22a3.11,3.11,0,0,1,.89-1.26.21.21,0,0,0,.12-.06v.3a45.81,45.81,0,0,0-2.75,4.9c-.18.24-.24.48-.42.72-.35.36-.35.89-.65,1.31a3.24,3.24,0,0,0-.54,1.32,5.43,5.43,0,0,0-.6,1.37v.3a.21.21,0,0,0,.12-.06.45.45,0,0,1,.18-.18c.42.18.54-.24.54-.54v-.24c-.12,0-.12,0-.18-.06.18,0,.18,0,.18.06a2.23,2.23,0,0,0,.89-1.73c.06-.12.24-.18.42-.24,0-.18,0-.3.18-.42,0-.18,0-.35.24-.41v-.3c-.06-.18-.3-.36-.12-.48s.3.06.54.06h.06c0-.12-.06-.36.18-.36a2.92,2.92,0,0,0,.06-.72H332a4,4,0,0,1,.54-1,.51.51,0,0,0,.12-.54v-.12l.35-.24c.24-.48.54-.84.78-1.31s.24-.06.3.06.18.12.3,0,.12-.12.12-.12l.59-1c.12-.3.36-.54.48-.84s.54-.41.66-.77a2,2,0,0,0,.18-.36c.06-.36.42-.48.6-.78s.06-.6.36-.83c.11-.06.17-.3.35-.36s.18-.66.54-.9c.12-.06.18-.36.3-.6a1.44,1.44,0,0,1,.54-.83l.66-.84a6.61,6.61,0,0,0,.77-1h.06a4.16,4.16,0,0,1,.72-.95C341.93,19.38,342.4,18.66,342.94,18.13Zm19-2.33h-.3a1.24,1.24,0,0,1,.54-1C362.24,15.26,361.94,15.5,361.94,15.8ZM370,9H368.6c.06-.08.13-.15.2-.23h.85c.12,0,.24.11.36.11l.06.06C370,8.92,370,8.92,370,9Zm.72.18L370.67,9h.06Zm.71,0c-.06,0-.06,0-.06-.12h.24C371.5,9.16,371.44,9.16,371.44,9.16ZM372,9h.54a.24.24,0,0,1-.24.12C372.22,9.16,372,9.16,372,9Zm3.82-1.55a.71.71,0,0,1,.24-.66A.43.43,0,0,1,375.8,7.49Zm-2.27-3.41a17.64,17.64,0,0,1,2.27-1.73,1.12,1.12,0,0,0,.36-.42c.24-.59.78-.71,1.08-1,0-.12.48,0,.54.06.41.6.65,1,.35,1.67a28.33,28.33,0,0,1-3.87,5.82,1.72,1.72,0,0,1-.31,0,6.53,6.53,0,0,0-1.13-.12c-1.21-.11-2.37,0-3.57-.12A54.22,54.22,0,0,1,373.53,4.08ZM368,7.55c.18-.06.36-.12.36-.36a4.58,4.58,0,0,1,.83-.6c0,.18,0,.42-.18.54l-.12.18-.71.66a.21.21,0,0,0-.12.06h.06l-.06.11H368s0,0,0-.05Zm-.89,1.2h.29l-.06.05c0,.06-.06.12-.11.18H367A1.7,1.7,0,0,1,367.15,8.75ZM363,9.52v.06l-.12-.06Zm-.72,0h.06l-.06.06Zm-1.55.48V9.94l.12.06Zm-.06-.54h.6c.11,0,.11.06.17.12h-.77l-.06-.06A.06.06,0,0,1,360.69,9.46Zm-4.24.84h-1.08a.26.26,0,0,1-.06-.18.06.06,0,0,0,.06-.06h.54v.06c.24,0,.42-.06.54,0s.11.12.17.12S356.56,10.3,356.45,10.3Zm3.1-.78a1.22,1.22,0,0,1,.3-.06l.06.06c-.06.06-.06.06-.12.06h-.36C359.43,9.52,359.43,9.52,359.55,9.52Zm-.95.42a1.48,1.48,0,0,1,.71-.12c.24,0,.48.12.66.12s.12,0,.18.06a.6.6,0,0,0-.18.06h-1.43c-.06,0-.06-.06-.18-.06A.45.45,0,0,1,358.6,9.94Zm-4-.24h3.05l.06.06-.06.06a11.53,11.53,0,0,0-2,.12c-.36,0-.78-.18-.9.3h-.12l-.18-.42C354.41,9.7,354.53,9.7,354.59,9.7Zm-.83.78-.06-.12h.06Zm.3-.36h.17C354.06,10.3,354.06,10.24,354.06,10.12Zm-2-.18h1.08a1.52,1.52,0,0,1,.72-.12c.3-.12.18.12.18.24-.6,0-1.2.06-1.8.06a.12.12,0,0,0-.12.12l.12.06a5.49,5.49,0,0,1,1,.06h.12c-.12.12-.12.18-.18.18a6.52,6.52,0,0,1-1.08-.06c-.06,0-.18-.18-.18-.24S351.9,9.94,352.08,9.94Zm-1.25.12a2.25,2.25,0,0,1,.66.06h.06c-.06.12-.06.18-.18.18H351c-.24,0-.48.06-.6-.06A1.56,1.56,0,0,1,350.83,10.06Zm-.18.48h.12a.36.36,0,0,1,.24.06c.06,0,.06,0,.06.06H351c-.18,0-.24.12-.36,0s-.18,0-.24-.06A.45.45,0,0,0,350.65,10.54Zm-.9.36-.06-.06h.06Zm-1.49-.54a6.19,6.19,0,0,1,1.49,0v.12a.06.06,0,0,1-.06.06h-1.55C348.14,10.48,348.26,10.36,348.26,10.36Zm1,.42s.12.06.12.12h-1.08s-.12-.06-.12-.12ZM347.3,11v.06a.19.19,0,0,1-.12.06s0-.06-.12-.06C347.18,11.08,347.24,11.08,347.3,11Zm-2.39.53H345l-.12.06Zm-.35,0c-.18.06-.18,0-.18-.12S344.5,11.43,344.56,11.55Zm-.48.36c.12,0,.18.06.24.06s-.06.12-.06.12S344.08,12,344,12A.06.06,0,0,0,344.08,11.91Zm-.6.36c0-.06-.06-.06-.18-.06C343.48,12.15,343.48,12.21,343.48,12.27Zm-6.69,1c-.06-.06,0-.06.06-.06A.06.06,0,0,1,336.79,13.29Zm.18-.12A.3.3,0,0,1,337,13C337.09,13.17,337,13.17,337,13.17Zm.59-.18v.18c-.06,0-.06-.12-.17-.12C337.5,13.05,337.5,13,337.56,13Zm.18.3c-.12,0-.12,0-.18-.06h.24l.06.06C337.8,13.29,337.74,13.35,337.74,13.29Zm1-.3s.12,0,.12.06S338.7,13.05,338.7,13Zm1.19-.06v-.12H340Zm1.14-.72a.06.06,0,0,1-.06-.06c.06,0,.06,0,.12-.06s.06.06.06.12Zm1.67,0a.36.36,0,0,1,.24-.06v.24a.21.21,0,0,1,.06.12c.12,0,.3,0,.12.18a3.38,3.38,0,0,0-.72.24A.73.73,0,0,1,342.7,12.21ZM327.41,39.88s-.06,0-.06,0a.21.21,0,0,0-.06-.11c.06-.12.06-.18.12-.18Zm1.25-3.23v-.06h.06Zm.54-.84H329c.06,0,.06-.06.06-.18s0-.06.12-.12.06.06.06.12Zm.36-1.13h-.06l.06-.12Zm.24-.42c-.12-.12-.06-.12,0-.12Zm.06-.24L330,34C330,34,330,34,329.86,34Zm2.86-5.26c.06,0,.06-.12.06-.12S332.78,28.76,332.72,28.76Zm.54-1v-.06l.06.06ZM329.14,38.2l-.12-.12h.12Zm.36-.83v-.12h.06Zm.72-1.44v-.06c0,.06,0,.06,0,.18Zm.17-.36c-.06-.06-.06-.06-.06-.18a.21.21,0,0,0,.06-.12l.12.06C330.51,35.39,330.39,35.51,330.39,35.57Zm1.26-2.45c.18-.18.18,0,.18.06A.6.6,0,0,0,331.65,33.12Zm1.61-2.86-.06-.06h.06Zm.36-1.68c0-.18-.06-.36.18-.36C333.8,28.34,333.8,28.52,333.62,28.58Zm.24-.48V28C334,28.1,334,28.1,333.86,28.1Zm.3-.65-.06-.12h.06Zm.48,1.31h-.06l.06-.12Zm.06-2.15c0-.12.12-.12.12-.18C334.88,26.61,334.82,26.61,334.7,26.61Zm.35,1.26c-.11-.12,0-.12.06-.12A.19.19,0,0,1,335.05,27.87Zm.12-.18s0-.12.06-.12S335.23,27.69,335.17,27.69Zm.54-.9v-.06a.06.06,0,0,1,.06-.06c.12,0,.12,0,.18.06A.36.36,0,0,0,335.71,26.79Zm.48-.9-.06-.06h.06Z"/><path class="cls-1" d="M328.36,39.4s-.12.12-.18.12l.06.06h.24C328.42,39.52,328.42,39.4,328.36,39.4Z"/><path class="cls-1" d="M328.6,39.58a.07.07,0,1,0,.12,0Z"/><path class="cls-1" d="M347.54,11.67c0,.06,0,.06-.06.18S347.6,11.85,347.54,11.67Z"/><path class="cls-1" d="M341.15,10.6a.26.26,0,0,0-.06.18,12.45,12.45,0,0,0,3-.48c.12,0,.18-.06.24-.18s.06,0,.06-.06c-.54,0-1.08.24-1.62.24S341.69,10.54,341.15,10.6Z"/><path class="cls-1" d="M344.38,10.06h1.31c.12,0,.18-.12.24-.24a4.08,4.08,0,0,1-1.2.12A.38.38,0,0,0,344.38,10.06Z"/><path class="cls-1" d="M328.9,39.16l-.12.12v.3c0-.06.12-.18.18-.24A.26.26,0,0,1,328.9,39.16Z"/><path class="cls-1" d="M321.73,18.9c-.06-.18-.06-.24-.24-.24v.24Z"/><path class="cls-1" d="M362.54,10.84a.6.6,0,0,1-.06.18.06.06,0,0,0,.06.06.26.26,0,0,0,.06-.18A.06.06,0,0,1,362.54,10.84Z"/><path class="cls-1" d="M358.06,11.37c.12,0,.12-.06.12-.06l-.12-.12h-.78a.33.33,0,0,0-.3.18c-.06.06.12.18.42.18A1.37,1.37,0,0,1,358.06,11.37Z"/><path class="cls-1" d="M327.88,16.51h-.29l-.06.06h.06C327.71,16.69,327.83,16.57,327.88,16.51Z"/><path class="cls-1" d="M340.25,11h.54c.18,0,.24-.12.3-.24h-.66A1.12,1.12,0,0,0,340.25,11Z"/><path class="cls-1" d="M354.71,11.55a.12.12,0,0,1-.12-.12h-.24l.18.18A.26.26,0,0,1,354.71,11.55Z"/><path class="cls-1" d="M327.88,16.45c.06,0,.18,0,.06-.18C327.94,16.39,327.94,16.45,327.88,16.45Z"/><path class="cls-1" d="M340.61,20.87c.12.12,0,.18.18.12A.22.22,0,0,0,340.61,20.87Z"/><path class="cls-1" d="M333.62,31.51v.12l.12-.06S333.74,31.51,333.62,31.51Z"/><path class="cls-1" d="M329.26,39c.3.6-.24,1-.3,1.49a16.17,16.17,0,0,1-.72,1.85h-.06s-.06,0-.06,0a1.85,1.85,0,0,1,.06-.6.47.47,0,0,1,.18-.42.49.49,0,0,0-.24-.36c0-.24-.06-.48.24-.66v-.06c-.12-.12-.12-.24-.18-.29a.4.4,0,0,0-.12.23,1.92,1.92,0,0,0-.18.84h.24v.18l-.18.12c0-.06-.06-.06-.06-.12V41a.33.33,0,0,0-.23.18,4.44,4.44,0,0,0-.48,1.73.46.46,0,0,0-.12.3c0,.24-.06.42-.06.66-.12,0-.18.06-.18.12v1.13c.18-.06.18-.12.18-.3s.06-.65.06-1a.64.64,0,0,0,.12-.36,1.3,1.3,0,0,1,.12-.6h.12a4.82,4.82,0,0,1-.12,1.85,2.4,2.4,0,0,0-.12,1.14v.42a.21.21,0,0,0-.12.06c-.06.06-.24,0-.24-.18V45.07c-.18,0-.24.18-.24.36v1.38c-.06.12-.06.24-.24.29,0,.78.84,1.08,1,1.74.06.12.12.36.3.36a2.19,2.19,0,0,1,.65.59,2,2,0,0,0,2.09.48c.06,0,.18-.12.18-.12.6.12.84-.36,1.14-.77a.83.83,0,0,0,.18-.72.38.38,0,0,0-.48-.36,5.59,5.59,0,0,1-1.37.54c-1.2.36-1.62,0-1.62-1.14-.12-.3,0-.65-.12-1a4.54,4.54,0,0,0-.06-.9c0-.24-.06-.48-.06-.6a.68.68,0,0,1,.3-.65c.06-.06-.06-.36.18-.54a.51.51,0,0,0,.12-.36v-.18c-.12-.06-.12.12-.24.18s-.06.06-.12-.06a.44.44,0,0,1,.12-.54,1.06,1.06,0,0,0,.3-.48,4.22,4.22,0,0,1,1-2.74.49.49,0,0,0,.06-.42.19.19,0,0,1-.06-.12l.65-1.38c.36-.12.36-.42.36-.65v-.54a1.26,1.26,0,0,1-.36.24A13.07,13.07,0,0,1,329.26,39Zm-1.73,3.88v-.12C327.65,42.86,327.59,42.86,327.53,42.86Zm.18,4v-.12h.12Zm.12-4.84a.12.12,0,0,1-.12-.12v-.18l.12.06Zm.23,6.27-.12.06v-.18l.12-.12Zm0-5.2h-.12l.12-.12Z"/><path class="cls-1" d="M332.49,32.94c.18,0,.23-.06.23-.12C332.55,32.82,332.55,32.88,332.49,32.94Z"/><path class="cls-1" d="M332.72,32.71a.64.64,0,0,0,.3-.18,2.26,2.26,0,0,0,.54-.9A1.05,1.05,0,0,0,332.72,32.71Z"/><path class="cls-1" d="M333.5,13.7c0,.06-.06.06-.06.12S333.56,13.82,333.5,13.7Z"/><path class="cls-1" d="M328.48,40.35c-.06,0-.06-.12-.12-.12s0,.12.06.18S328.42,40.35,328.48,40.35Z"/><path class="cls-1" d="M327.71,39.4c0,.12,0,.12-.06.18S327.88,39.58,327.71,39.4Z"/><path class="cls-1" d="M326.81,16.21c.06,0,.24.06.36.06a.22.22,0,0,0,.24-.24h-.6Z"/><path class="cls-1" d="M337.8,12.27c.36.12.66-.12,1-.18.06,0,.12-.12.18-.18a2.6,2.6,0,0,0-.3-.06,7.08,7.08,0,0,0-1.85.54h-.06c0,.06.06.06.18.12h.59C337.62,12.45,337.74,12.27,337.8,12.27Z"/><path class="cls-1" d="M324.66,26.49a.26.26,0,0,0-.18-.06,19.81,19.81,0,0,0-2-.3H322l-2.51-.71a13.68,13.68,0,0,1-2.09-.6c-.6-.24-1.14-.54-1.73-.84-.18-.06-.18-.3,0-.42l.41-.42c-.12-.41.18-.41.48-.53s.78-.42.9-.84c-.12-.12-.12-.12,0-.24s.18-.18.24,0h.12c.83-.3,1.43-1,2.21-1.37.06,0,0-.12,0-.18s.06-.24.12-.36.42,0,.47-.24a.45.45,0,0,1,.24.12c.18.12.3,0,.36-.12s.42,0,.48-.24c-.06-.06-.12-.18-.24-.24h-.12c-.12-.06-.18-.06-.24-.18s.12,0,.12-.06h.24a1.71,1.71,0,0,0,.42-.47c.06-.06.24-.12.3-.06.3.41.6.47,1,.06.18-.18.54-.12.84-.18s.24-.18.12-.36.12-.3.18-.3c.48.12.84-.3,1.31-.24.12-.12.12-.12.24,0a6.33,6.33,0,0,1,1.14-.3h.06l-.12-.12c-.24-.12-.18-.24-.18-.42-.24,0-.48-.06-.72-.06,0-.18-.12-.24-.3-.18a1.08,1.08,0,0,1-.77.24c-.06.18-.3.18-.42.24a.91.91,0,0,1-.72.42h-.36c-.12.3-.3.18-.47.18-.06.24-.24.24-.48.24-.06.24-.24.18-.42.24a1,1,0,0,1-.9.48c-.06.24-.3.35-.6.35.06-.11.06-.29.18-.35a.71.71,0,0,0-.53.12,3.84,3.84,0,0,1-.78.23.69.69,0,0,1-.6.48.48.48,0,0,1-.48.24c-.17.36-.53.48-.89.66l.06-.06h-.12v.06c-.06,0-.12.12-.12.18a2.26,2.26,0,0,1-1,.72l-.18.11V20.7a2.68,2.68,0,0,0-.41.11,4.77,4.77,0,0,0-.84,1A4.1,4.1,0,0,0,314.2,24c-.06.6.48,1,.6,1.5a.85.85,0,0,0,.48.41l.6.42a15.36,15.36,0,0,0,3.22.66c.36,0,.54.12.9.12s.54-.12.83-.12h1.74c.12,0,.12-.06.12-.12a.12.12,0,0,0-.12-.12h-.84c-.12-.06-.3,0-.36-.06-.3-.36-.77-.3-1.19-.36-.06,0-.06-.12-.12-.18h.12a4.37,4.37,0,0,1,.89,0,2.67,2.67,0,0,0,1.38.18,3.58,3.58,0,0,1,1.31.24,2.85,2.85,0,0,0,.72,0C324.6,26.61,324.6,26.49,324.66,26.49Zm1.43-10.22c-.06,0-.06.12-.06.12S326,16.27,326.09,16.27Zm-4.84,3c-.06,0-.06,0-.12-.06C321.25,19.14,321.25,19.2,321.25,19.26Zm-1.13.24a.06.06,0,0,1-.06-.06h.06Zm.3-.3c.18-.06.18,0,.18.06A.46.46,0,0,1,320.42,19.2Zm-.24-.54c.12-.24.24-.12.42-.24-.06.24-.24.24-.42.24-.06.24-.3.24-.42.24C319.82,18.66,320,18.66,320.18,18.66Zm-.48.3c-.06,0-.06.06-.06.12s-.06-.12-.06-.12Zm-.48.24c.06.06,0,.06-.12.06S319.1,19.2,319.22,19.2Zm-.18.18c0,.06-.06.06-.06.12C318.92,19.38,319,19.38,319,19.38Zm-.54,1v-.06l.06.06Zm0-.72c.06.12,0,.12-.06.12S318.5,19.68,318.5,19.62Zm-1.07.9a1.24,1.24,0,0,1,.78-.54.91.91,0,0,1-.72.6h-.06S317.37,20.52,317.43,20.52Zm-.48.24c.12,0,0,0-.06,0Zm0,.59c.12.18,0,.18-.06.18S317,21.41,317,21.35Zm-.12-.48c0,.12-.06.12-.06.12Zm0,.72v.06C316.65,21.59,316.83,21.59,316.83,21.59Zm-.72-.18-.06.12C316.05,21.41,316.05,21.41,316.11,21.41Zm3.47,4.72c-.06,0-.12-.06-.24-.06a.12.12,0,0,0,.12-.12c.06,0,.12.12.18.12Z"/><path class="cls-1" d="M334.82,13.76c-.18.06-.48.12-.54-.17l-.48.41c-.24.06-.3,0-.36-.18h-.12a.62.62,0,0,0-.24.06c-.18.24-.36.42-.65.24a.66.66,0,0,0-.48,0,2.22,2.22,0,0,0-.84.24c-.18.06.06.06.06.18s.12.06.12.12a.89.89,0,0,0-.54.12c0,.12-.18.18-.36.12a1,1,0,0,0-.83-.12l-.06.06.06.06h.24c0,.06.06.06.18.18-.12,0-.18.06-.24.06a.89.89,0,0,1-.42-.06.46.46,0,0,0-.6,0c-.12.12-.54,0-.6.3.06,0,.24,0,.3.06h.06c-.06.06-.12.18-.12.06a.31.31,0,0,1-.24-.12,1.61,1.61,0,0,0-.59.06.47.47,0,0,0-.42.18v.12c.06.18.24.23.3.29h.77c.24.18.3.12.42-.06a1.5,1.5,0,0,1,.84,0c.06.06.24,0,.36-.05s.06-.24.06-.3a6.52,6.52,0,0,0,2.33-.48c.18-.06.3-.18.48-.06l.05-.12c.18,0,.18-.12,0-.3,0,0-.23-.06,0-.12s.54-.3.84.06c.06.18.42.18.54,0s.06-.24.06-.36a.21.21,0,0,1,.12-.18h.24a1.27,1.27,0,0,0,.42.18c.17.06.41.06.29-.24a.88.88,0,0,1,.24-.12c.24,0,.24,0,.3-.29C335.41,13.59,335.11,13.53,334.82,13.76Zm-7.11,2v-.06h.12Zm1.85-.24h-.06c.06-.06.18-.12.18-.06s.12.06.12.18S329.68,15.62,329.56,15.5Zm4.18-1.08-.12-.06h.12Z"/><path class="cls-1" d="M322.21,18.9c.06,0,.12-.06.24-.06s.06,0,.06-.12a.6.6,0,0,1-.18-.06Z"/><path class="cls-1" d="M334.58,13.47h-.18c-.06,0-.06.06-.12.12h.24A.21.21,0,0,0,334.58,13.47Z"/><path class="cls-1" d="M326,27c-.06-.06-.12-.06-.12-.18h-.18c0,.12-.06.12-.18.12a.45.45,0,0,0,.24.06C325.91,27,326,27,326,27Z"/><path class="cls-1" d="M324.42,26.91a.36.36,0,0,0,.24.06l.06-.06c-.06,0-.12,0-.24-.12C324.48,26.91,324.48,26.91,324.42,26.91Z"/><path class="cls-1" d="M345.39,36.89a1,1,0,0,0,.54-1.26A3,3,0,0,0,345.39,36.89Z"/><path class="cls-1" d="M346.59,34.86c-.48.06-.54.35-.54.77C346.53,35.39,346.59,35.21,346.59,34.86Z"/><path class="cls-1" d="M347.54,33.18c-.48.18-.53.54-.65.9A.86.86,0,0,0,347.54,33.18Z"/><path class="cls-1" d="M350,29.54a.85.85,0,0,0-.59.95A1.19,1.19,0,0,0,350,29.54Z"/><path class="cls-1" d="M363.14,32.23a.9.9,0,0,0,.24-.48,2.27,2.27,0,0,0-1.44.84h.54C362.6,32.23,363,32.35,363.14,32.23Z"/><path class="cls-1" d="M344.79,38.74v-.6a.85.85,0,0,0-.53,1.2h.18A.61.61,0,0,1,344.79,38.74Z"/><path class="cls-1" d="M346.59,36.53V36C346.23,36.29,346.23,36.29,346.59,36.53Z"/><rect class="cls-1" x="344.08" y="39.34" width="0.18" height="0.06"/><rect class="cls-1" x="346.59" y="36.53" width="0.12" height="0.06"/><rect class="cls-1" x="344.08" y="41.49" width="0.18" height="0.06"/><rect class="cls-1" x="343.78" y="41.49" width="0.06" height="0.06"/><path class="cls-1" d="M364.63,31a1.32,1.32,0,0,0-1.19.72h.89c0,.06-.06.12-.12.18s-.24.06-.36.24c.12,0,.36.06.48.06.36-.24.78-.42,1-.78h-.66Z"/><rect class="cls-1" x="362.48" y="32.59" width="0.12" height="0.12"/><path class="cls-1" d="M363.14,32.71h-.54v.17C362.66,32.76,363,32.88,363.14,32.71Z"/><path class="cls-1" d="M346.89,36v.54h.29a6.17,6.17,0,0,1,.84-.9,2,2,0,0,0,1-1.49v-.06h-.24L349,34c.06,0,.06.12.06.12a5.2,5.2,0,0,0,.59-.9.57.57,0,0,0-.23-.06,1.16,1.16,0,0,0-.6.18c-.36.18-.24.78-.6.84.06.24.18.6-.24.72l-.12.06V35h-.3A.88.88,0,0,1,346.89,36Z"/><rect class="cls-1" x="361.88" y="32.59" width="0.06" height="0.12"/><path class="cls-1" d="M345,37.48c-.24.06-.24.3-.24.66H345Z"/><path class="cls-1" d="M344.08,39.93V39.4C343.78,39.58,343.78,39.76,344.08,39.93Z"/><path class="cls-1" d="M346.23,37.31c0-.18-.12-.24-.12-.36-.06.12-.18.12-.18.18a.9.9,0,0,0-.18.65,2.1,2.1,0,0,1,.48-.3Z"/><path class="cls-1" d="M355.55,23.68a.61.61,0,0,1,.48-.83v-.12c0-.42.3-.6.71-.84v-.66a6,6,0,0,0-.71.42V21c-.42.12-.48.42-.48.9h.24a.92.92,0,0,1-.48,1c0,.24-.24.29-.42.24,0-.12.12-.24.42-.24a.77.77,0,0,1-.24-.66.81.81,0,0,0-.48.9c.06,0,.18.05.3.05a1,1,0,0,1-.6.9v.6a5.41,5.41,0,0,1,.6-.54C355.07,23.92,355.31,23.68,355.55,23.68Z"/><path class="cls-1" d="M356.86,21.89h-.12c.06.06.06.06.06.24C356.86,22,356.86,22,356.86,21.89Z"/><path class="cls-1" d="M355.79,23.68H356a.36.36,0,0,0-.06-.24C356,23.56,355.85,23.56,355.79,23.68Z"/><path class="cls-1" d="M357.88,19.74c-.18.24-.6.42-.78.72l-.36.24v.53C357.58,20.7,357.82,20.52,357.88,19.74Z"/><path class="cls-1" d="M358.54,18.9a.8.8,0,0,0-.66.84C358.48,19.68,358.54,19.26,358.54,18.9Z"/><path class="cls-1" d="M365.59,11.49v.6C365.89,11.85,365.89,11.73,365.59,11.49Z"/><polygon class="cls-1" points="354.59 23.14 354.59 23.09 354.47 23.14 354.59 23.14"/><path class="cls-1" d="M353.64,24.34a2.28,2.28,0,0,1,.65-.3v-.6C353.88,23.68,353.64,23.92,353.64,24.34Z"/><path class="cls-1" d="M356.15,20.64c0,.06,0,.23-.12.29.3-.06.54-.23.71-.23C356.57,20.46,356.33,20.22,356.15,20.64Z"/><polygon class="cls-1" points="365.59 11.49 365.59 11.2 365.29 11.2 365.59 11.49"/><path class="cls-1" d="M350.47,31.93a.42.42,0,0,0,.24-.12c.18-.06.18-.3.18-.36-.18.06-.3.06-.42.18S350.41,31.93,350.47,31.93Z"/><path class="cls-1" d="M358.06,21.35c-.06.06-.24.3-.36.3s-.18.24-.42.24l-.24.84a.84.84,0,0,0,.66-.3c.3-.12.54-.48.78-.66s.48-.42.3-.66S358.3,21.23,358.06,21.35Z"/><path class="cls-1" d="M359.07,20.22c0-.06,0-.06-.11-.06s-.18.3-.3.36a.12.12,0,0,0,.12.12C359,20.64,359.19,20.52,359.07,20.22Z"/><path class="cls-1" d="M359.37,16.75c-.3.3-.71.54-.83,1a1.46,1.46,0,0,0,.83-.48Z"/><path class="cls-1" d="M347.18,35h.36v-.6C347.18,34.62,347.3,34.86,347.18,35Z"/><path class="cls-1" d="M359.49,17.29a2.17,2.17,0,0,1-.53,1,.56.56,0,0,0-.42.47,1.24,1.24,0,0,1,.65.12.61.61,0,0,0-.23.36c-.12.3-.12.42.11.42s.54-.12.9-.24.18-.3.18-.54.3-.12.54-.12h.12c-.12-.06-.12-.24-.12-.24a1.18,1.18,0,0,1-.54-.06c0-.17.18-.17.36-.35.3,0,.42-.12.42-.18,0-.24-.24-.36-.48-.36h-.3a2.07,2.07,0,0,1,.06-.54c0-.12.12-.24.12-.42a.89.89,0,0,1-.54.12C359.73,16.93,359.73,17.23,359.49,17.29Z"/><path class="cls-1" d="M359.73,16.45c-.12,0-.24.06-.24.18h.24v.12h.06v-.12Z"/><path class="cls-1" d="M361.46,16.93h-.17c.12.12.12.12.12.3A.77.77,0,0,0,361.46,16.93Z"/><rect class="cls-1" x="350.95" y="29.9" width="0.24" height="0.6"/><polygon class="cls-1" points="26.18 87.26 29.82 87.26 22.24 100.75 13.83 87.26 17.02 87.26 17.02 85.1 0 85.1 0 87.26 4.09 87.26 14.92 104.99 14.92 116.61 10.49 116.61 10.49 118.76 27.9 118.76 27.9 116.61 23.42 116.61 23.42 103.26 32.39 87.26 36.89 87.26 36.89 85.1 26.18 85.1 26.18 87.26"/><path class="cls-1" d="M77.89,89.08a19.62,19.62,0,0,0-19.41-3.46,20.3,20.3,0,0,0-6,3.54A19.15,19.15,0,0,0,48,94.71h0a16,16,0,0,0-.18,14.19A17.94,17.94,0,0,0,52,114.39a19.81,19.81,0,0,0,13.09,5A18.78,18.78,0,0,0,72.2,118a19.77,19.77,0,0,0,6-3.78,18.68,18.68,0,0,0,4.12-5.58,15.52,15.52,0,0,0,1.54-6.76,16.08,16.08,0,0,0-1.64-7.32A17.84,17.84,0,0,0,77.89,89.08ZM55.61,102A58,58,0,0,1,56,95.56a14.82,14.82,0,0,1,1.32-4.89,7.08,7.08,0,0,1,2.78-3,9.9,9.9,0,0,1,5-1.08,9.87,9.87,0,0,1,5.25,1.17,7.26,7.26,0,0,1,2.77,3.14,14.1,14.1,0,0,1,1.16,4.8c.14,1.87.21,3.88.21,6,0,2.31-.09,4.48-.26,6.45A14.8,14.8,0,0,1,73,113a6.93,6.93,0,0,1-2.74,3.1,10,10,0,0,1-5.18,1.13,12.67,12.67,0,0,1-4.38-.68,5.64,5.64,0,0,1-2.8-2.26,12.27,12.27,0,0,1-1.69-4.63A42.51,42.51,0,0,1,55.61,102Z"/><path class="cls-1" d="M128.53,115.59c-.31.29-.67.61-1.07.94a2.05,2.05,0,0,1-2,.17c-.06,0-.25-.21-.42-.85a13.4,13.4,0,0,1-.39-2.52l-.38-4.55a10.49,10.49,0,0,0-1.08-4.19,6.62,6.62,0,0,0-2.41-2.54,11.47,11.47,0,0,0-3.44-1.32l-.72-.15a11.84,11.84,0,0,0,3.11-1.29A7.61,7.61,0,0,0,122.23,97a6.16,6.16,0,0,0,1-3.51,6.8,6.8,0,0,0-1.28-4.21,9.07,9.07,0,0,0-3.13-2.59,14,14,0,0,0-4-1.31,37.57,37.57,0,0,0-8.12-.31c-1.31,0-2.63.07-4,.07h-8v2.16h4.43v29.35H94.65v2.15H112v-2.15h-4.43V101.84H110a5.7,5.7,0,0,1,3.09.69,4.26,4.26,0,0,1,1.6,1.84,8.7,8.7,0,0,1,.73,2.85c.11,1.15.2,2.33.26,3.54,0,.84.11,1.72.22,2.66a7.09,7.09,0,0,0,1,2.86,6.34,6.34,0,0,0,2.51,2.24,9.76,9.76,0,0,0,4.49.88,13.65,13.65,0,0,0,2.31-.17,7.28,7.28,0,0,0,1.64-.49,5.29,5.29,0,0,0,1.23-.76c.32-.27.65-.56,1-.87l.62-.59L129,115.13Zm-21-28.39.36,0a9.37,9.37,0,0,1,3.73.35,3.22,3.22,0,0,1,1.51,1.12,5.21,5.21,0,0,1,.83,2,16.66,16.66,0,0,1,.28,3.25,15.59,15.59,0,0,1-.17,2.28,4,4,0,0,1-.67,1.79,3.46,3.46,0,0,1-1.54,1.19,8.13,8.13,0,0,1-3.12.48h-1.21Z"/><polygon class="cls-1" points="162.66 97.11 172.67 87.26 176.97 87.26 176.97 85.1 165.82 85.1 165.82 87.26 169.58 87.26 157.1 99.5 157.1 87.26 161.53 87.26 161.53 85.1 144.17 85.1 144.17 87.26 148.59 87.26 148.59 116.61 144.17 116.61 144.17 118.76 161.53 118.76 161.53 116.61 157.1 116.61 157.1 103.25 167.92 116.61 164.43 116.61 164.43 118.76 182.03 118.76 182.03 116.61 178.64 116.61 162.66 97.11"/><path class="cls-1" d="M220,100.69a13.87,13.87,0,0,0-3.49-1.88c-1.25-.48-2.54-.92-3.85-1.31l-3.81-1.13a18.44,18.44,0,0,1-3.16-1.23,7.07,7.07,0,0,1-2.11-1.6,3.15,3.15,0,0,1-.7-2.12,3.57,3.57,0,0,1,.44-1.68,5.13,5.13,0,0,1,1.34-1.57A7.34,7.34,0,0,1,206.94,87a9.72,9.72,0,0,1,3.15-.46,8.08,8.08,0,0,1,3.55.68,6.81,6.81,0,0,1,2.3,1.81,10.53,10.53,0,0,1,1.55,2.59c.43,1,.83,2,1.21,3.08l.19.5h1.92V85.1h-2l-.2.45c-.14.31-.23.44-.23.46a2.92,2.92,0,0,1-1.42-.18c-.48-.18-1-.38-1.65-.58s-1.36-.4-2.19-.58a13.67,13.67,0,0,0-3-.29,14,14,0,0,0-4.9.84,13,13,0,0,0-3.91,2.2,10.53,10.53,0,0,0-2.6,3.19,8.29,8.29,0,0,0-.95,3.83,9.59,9.59,0,0,0,.93,4.41,9.09,9.09,0,0,0,2.44,3,13.55,13.55,0,0,0,3.37,1.92c1.21.47,2.47.89,3.73,1.24l3.66,1a15.8,15.8,0,0,1,3,1.16,5.83,5.83,0,0,1,2,1.6,3.56,3.56,0,0,1,.68,2.28,6.41,6.41,0,0,1-.35,1.87,5.86,5.86,0,0,1-1.17,2,6.61,6.61,0,0,1-2.32,1.63,12.23,12.23,0,0,1-5.41.65,6.75,6.75,0,0,1-1.6-.24,8.65,8.65,0,0,1-1.82-.73,9.44,9.44,0,0,1-2-1.47,9.6,9.6,0,0,1-1.58-1.82,13.47,13.47,0,0,1-1.09-2,11.6,11.6,0,0,1-.66-1.78c-.15-.56-.26-1-.32-1.35l-.11-.63h-2.13v11.54h2.06l.19-.49a1.33,1.33,0,0,1,.25-.48,1.4,1.4,0,0,1,.53-.06,5.31,5.31,0,0,1,1.26.24c.67.18,1.43.37,2.29.57s1.79.39,2.78.57a16.87,16.87,0,0,0,3.1.29,16.45,16.45,0,0,0,5.67-.93A14.31,14.31,0,0,0,219.6,116a11.21,11.21,0,0,0,2.91-3.72,10.3,10.3,0,0,0,1-4.53,8.17,8.17,0,0,0-1-4.17A9.45,9.45,0,0,0,220,100.69Z"/><polygon class="cls-1" points="261.25 87.26 265.67 87.26 265.67 100.54 253.29 100.54 253.29 87.26 257.72 87.26 257.72 85.1 240.36 85.1 240.36 87.26 244.79 87.26 244.79 116.61 240.36 116.61 240.36 118.76 257.72 118.76 257.72 116.61 253.29 116.61 253.29 102.7 265.67 102.7 265.67 116.61 261.25 116.61 261.25 118.76 278.6 118.76 278.6 116.61 274.18 116.61 274.18 87.26 278.6 87.26 278.6 85.1 261.25 85.1 261.25 87.26"/><polygon class="cls-1" points="295.07 87.26 299.5 87.26 299.5 116.61 295.07 116.61 295.07 118.76 312.43 118.76 312.43 116.61 308 116.61 308 87.26 312.43 87.26 312.43 85.1 295.07 85.1 295.07 87.26"/><path class="cls-1" d="M362.78,115.59c-.31.29-.67.61-1.07.94a2.05,2.05,0,0,1-2,.17c-.06,0-.25-.21-.42-.85a13.26,13.26,0,0,1-.39-2.52l-.38-4.55a10.49,10.49,0,0,0-1.08-4.19,6.62,6.62,0,0,0-2.41-2.54,11.47,11.47,0,0,0-3.44-1.32l-.72-.15A11.84,11.84,0,0,0,354,99.29,7.71,7.71,0,0,0,356.48,97a6.16,6.16,0,0,0,1-3.51,6.8,6.8,0,0,0-1.28-4.21,9,9,0,0,0-3.13-2.59,14,14,0,0,0-4-1.31A37.57,37.57,0,0,0,340.9,85c-1.31,0-2.63.07-4,.07h-8v2.16h4.43v29.35H328.9v2.15h17.36v-2.15h-4.43V101.84h2.42a5.7,5.7,0,0,1,3.09.69,4.26,4.26,0,0,1,1.6,1.84,8.7,8.7,0,0,1,.73,2.85c.11,1.15.2,2.33.26,3.54,0,.84.11,1.72.22,2.66a7.09,7.09,0,0,0,1,2.86,6.34,6.34,0,0,0,2.51,2.24,9.73,9.73,0,0,0,4.49.88,13.65,13.65,0,0,0,2.31-.17,7.28,7.28,0,0,0,1.64-.49,5.57,5.57,0,0,0,1.24-.76c.31-.27.63-.55,1-.87l.62-.59-1.65-1.39ZM341.83,87.2l.36,0a9.33,9.33,0,0,1,3.73.35,3.22,3.22,0,0,1,1.51,1.12,5.21,5.21,0,0,1,.83,2,16.73,16.73,0,0,1,.28,3.25,15.59,15.59,0,0,1-.17,2.28A4,4,0,0,1,347.7,98a3.46,3.46,0,0,1-1.54,1.19,8.13,8.13,0,0,1-3.12.48h-1.21Z"/><path class="cls-1" d="M408.32,107.93a14.84,14.84,0,0,1-1.32,3.46,10.55,10.55,0,0,1-2.13,2.75A9.39,9.39,0,0,1,402,116a10.09,10.09,0,0,1-3.71.65h-7.13V101.84h2.46a5.74,5.74,0,0,1,2.48.47,4.72,4.72,0,0,1,1.65,1.26,6.74,6.74,0,0,1,1.1,1.93c.29.78.55,1.61.77,2.45l.14.57h2V93h-2l-.13.6a15.22,15.22,0,0,1-.82,2.64,6.56,6.56,0,0,1-1.21,1.91,4.67,4.67,0,0,1-1.76,1.16,7.68,7.68,0,0,1-2.73.42h-1.93V87.26H398a8,8,0,0,1,3.64.75,8.75,8.75,0,0,1,2.46,1.8A9.31,9.31,0,0,1,405.59,92a15.31,15.31,0,0,1,.77,1.86l.17.53h2V85.1h-30.3v2.16h4.42v29.35h-4.42v2.15h32.27V107.35h-2Z"/><path class="cls-1" d="M489,115.59c-.31.29-.67.61-1.07.94a2.05,2.05,0,0,1-2,.17,1.53,1.53,0,0,1-.42-.85,14.29,14.29,0,0,1-.39-2.52l-.38-4.55a10.49,10.49,0,0,0-1.08-4.19,6.62,6.62,0,0,0-2.41-2.54,11.47,11.47,0,0,0-3.44-1.32l-.72-.15a11.84,11.84,0,0,0,3.11-1.29A7.61,7.61,0,0,0,482.65,97a6.16,6.16,0,0,0,1-3.51,6.8,6.8,0,0,0-1.28-4.21,9,9,0,0,0-3.13-2.59,14,14,0,0,0-4-1.31,37.57,37.57,0,0,0-8.12-.31c-1.31,0-2.63.07-4,.07h-8v2.16h4.43v29.35h-4.43v2.15h17.36v-2.15H468V101.84h2.42a5.68,5.68,0,0,1,3.09.69,4.2,4.2,0,0,1,1.6,1.84,8.7,8.7,0,0,1,.73,2.85c.11,1.15.2,2.33.26,3.54,0,.84.11,1.72.22,2.66a7.24,7.24,0,0,0,1,2.86,6.34,6.34,0,0,0,2.51,2.24,9.76,9.76,0,0,0,4.49.88,13.65,13.65,0,0,0,2.31-.17,7.28,7.28,0,0,0,1.64-.49,5.29,5.29,0,0,0,1.23-.76c.32-.27.65-.56,1-.87l.62-.59-1.66-1.39ZM468,87.2l.36,0a9.35,9.35,0,0,1,3.73.35,3.22,3.22,0,0,1,1.51,1.12,5.21,5.21,0,0,1,.83,2,16.66,16.66,0,0,1,.28,3.25,15.59,15.59,0,0,1-.17,2.28,4,4,0,0,1-.67,1.79,3.46,3.46,0,0,1-1.54,1.19,8.13,8.13,0,0,1-3.12.48H468Z"/><path class="cls-1" d="M535.46,107.93a14.86,14.86,0,0,1-1.33,3.46,10.34,10.34,0,0,1-2.13,2.75,9.27,9.27,0,0,1-2.92,1.82,10.09,10.09,0,0,1-3.71.65h-7.13V101.84h2.46a5.79,5.79,0,0,1,2.49.47,4.77,4.77,0,0,1,1.64,1.26,6.52,6.52,0,0,1,1.1,1.93,23,23,0,0,1,.77,2.44l.15.58h2V93h-2l-.13.6a14.65,14.65,0,0,1-.82,2.64,6.76,6.76,0,0,1-1.2,1.91,4.75,4.75,0,0,1-1.76,1.16,7.74,7.74,0,0,1-2.74.42h-1.93V87.26h6.89a8,8,0,0,1,3.65.75A8.62,8.62,0,0,1,532.72,92a17.54,17.54,0,0,1,.78,1.86l.17.53h1.94V85.1h-30.3v2.16h4.43v29.35h-4.43v2.15h32.28V107.35h-2Z"/><path class="cls-1" d="M554.49,87.26h4.43v29.35h-4.43v2.15H571.9v-2.15h-4.48V102.42h2.46a5.74,5.74,0,0,1,2.48.47,4.74,4.74,0,0,1,1.65,1.27,6.59,6.59,0,0,1,1.1,1.92,24.91,24.91,0,0,1,.77,2.45l.15.58h2V93.54h-2l-.13.6a14.91,14.91,0,0,1-.82,2.64,6.7,6.7,0,0,1-1.2,1.9,4.67,4.67,0,0,1-1.77,1.16,7.62,7.62,0,0,1-2.73.43h-1.93v-13h6.5a9.46,9.46,0,0,1,3.09.45A6.81,6.81,0,0,1,579.24,89,8.64,8.64,0,0,1,581,91a22,22,0,0,1,1.41,2.83l.2.47h1.89V85.1h-30Z"/><polygon class="cls-1" points="601.02 87.26 605.45 87.26 605.45 116.61 601.02 116.61 601.02 118.76 618.38 118.76 618.38 116.61 613.95 116.61 613.95 87.26 618.38 87.26 618.38 85.1 601.02 85.1 601.02 87.26"/><path class="cls-1" d="M664.32,107.62a14.35,14.35,0,0,1-1.66,4.22,11,11,0,0,1-2.38,2.79,8.17,8.17,0,0,1-2.78,1.51,10,10,0,0,1-3,.47h-7.18V87.26h4.43V85.1H634.42v2.16h4.42v29.35h-4.42v2.15h32V107h-2Z"/><path class="cls-1" d="M713.64,107l-.14.58a14.35,14.35,0,0,1-1.67,4.22,10.83,10.83,0,0,1-2.38,2.79,8,8,0,0,1-2.77,1.51,10,10,0,0,1-3,.47h-7.17V87.26H701V85.1H683.6v2.16H688v29.35H683.6v2.15h32V107Z"/><path class="cls-1" d="M283.48,171.26h-.39a2.48,2.48,0,0,0-.42-.36,1.39,1.39,0,0,0-.73-.16,3,3,0,0,0-.85.14l-1,.3a11.75,11.75,0,0,1-1.32.31,9,9,0,0,1-1.62.14,9.28,9.28,0,0,1-3.21-.57,8.79,8.79,0,0,1-2.94-1.84,10.66,10.66,0,0,1-2.14-2.84,8,8,0,0,1-.86-3.81,8.89,8.89,0,0,1,.7-3.5,9.3,9.3,0,0,1,4.92-5,9.08,9.08,0,0,1,3.71-.75,6.25,6.25,0,0,1,1.44.15,10.17,10.17,0,0,1,1.12.33l.92.33a2.4,2.4,0,0,0,.81.15,1.39,1.39,0,0,0,.75-.16,3.42,3.42,0,0,0,.4-.36h.39v4.91h-.28a13.67,13.67,0,0,0-.61-1.84,5,5,0,0,0-1-1.61,4.92,4.92,0,0,0-1.66-1.13,6.46,6.46,0,0,0-2.49-.43,6.26,6.26,0,0,0-2.38.41,5.06,5.06,0,0,0-1.68,1.08,5.23,5.23,0,0,0-1.08,1.57,9.1,9.1,0,0,0-.62,1.89,13.49,13.49,0,0,0-.27,2c0,.68-.07,1.32-.07,1.92a17,17,0,0,0,.45,4.27,7,7,0,0,0,1.24,2.68,4.25,4.25,0,0,0,1.92,1.37,7.56,7.56,0,0,0,2.49.39,7.19,7.19,0,0,0,2.82-.46,4.86,4.86,0,0,0,1.73-1.22,5.41,5.41,0,0,0,1-1.69c.23-.63.43-1.26.6-1.88h.29Z"/><path class="cls-1" d="M294.44,162.5a8.06,8.06,0,0,1,.82-3.63,10.1,10.1,0,0,1,2.12-2.89,9.91,9.91,0,0,1,2.91-1.93,8.14,8.14,0,0,1,3.25-.7,8.4,8.4,0,0,1,3.36.7,9.66,9.66,0,0,1,2.91,1.93,9.39,9.39,0,0,1,2.06,2.89,8.59,8.59,0,0,1,.77,3.63,8.45,8.45,0,0,1-.71,3.36,9.58,9.58,0,0,1-1.93,2.92,9.82,9.82,0,0,1-2.89,2.06,8.32,8.32,0,0,1-3.57.79,8.67,8.67,0,0,1-3.64-.77,9.28,9.28,0,0,1-2.89-2,9.07,9.07,0,0,1-1.89-2.92A8.77,8.77,0,0,1,294.44,162.5Zm3,0a20.61,20.61,0,0,0,.32,3.85,7.63,7.63,0,0,0,1,2.75,4.59,4.59,0,0,0,1.89,1.64,7.74,7.74,0,0,0,5.68,0,4.56,4.56,0,0,0,1.9-1.64,7.45,7.45,0,0,0,1.05-2.75,20.68,20.68,0,0,0,.31-3.85,23.1,23.1,0,0,0-.23-3.27,8.56,8.56,0,0,0-.91-2.83,5.15,5.15,0,0,0-1.85-2,6.86,6.86,0,0,0-6.2,0,5.18,5.18,0,0,0-1.86,2,8.79,8.79,0,0,0-.9,2.83A21.69,21.69,0,0,0,297.44,162.5Z"/><path class="cls-1" d="M322.94,170.91h2.9V154.14h-2.9v-.35h5.89l4.83,13.2h.06l4.83-13.2h5.78v.35h-2.9v16.77h2.9v.35h-8.42v-.35h2.91V154.28h-.06l-6.25,17-6.22-16.83h-.05v16.46h2.9v.35h-6.2Z"/><path class="cls-1" d="M353.64,170.91h2.91V154.14h-2.91v-.35h5.65l.73,0h1.44a10.88,10.88,0,0,1,2.76.33,7.49,7.49,0,0,1,2.2.94,4.64,4.64,0,0,1,1.45,1.48,3.58,3.58,0,0,1,.52,1.91,3.34,3.34,0,0,1-.6,2,5.06,5.06,0,0,1-1.59,1.45,8.84,8.84,0,0,1-2.32.91,11.85,11.85,0,0,1-2.76.32,7.54,7.54,0,0,1-.94-.07c-.38,0-.72-.08-1-.13v8.09h2.9v.35h-8.42Zm5.52-8.43c.35.06.72.11,1.1.14a9.62,9.62,0,0,0,1,0,4.08,4.08,0,0,0,3-1.07,4.34,4.34,0,0,0,1.09-3.22,6.89,6.89,0,0,0-.27-2.09,2.82,2.82,0,0,0-.82-1.33,3.07,3.07,0,0,0-1.46-.7,10.38,10.38,0,0,0-2.16-.2q-.49,0-.9,0a6.17,6.17,0,0,0-.62,0Z"/><path class="cls-1" d="M375.25,170.91h2.3l7.06-17.56h.63l7.11,17.56h2.33v.35h-8.06v-.35h2.9l-2.74-6.82h-6.07L378,170.91h2.9v.35h-5.62Zm8.5-14.3-2.88,7.14h5.75Z"/><path class="cls-1" d="M403,170.91H406V154.14H403v-.35h5.6l8.84,13.37h0v-13h-2.9v-.35h6.2v.35h-2.9V171.6h-.53l-11-16.46h-.05v15.77h2.9v.35H403Z"/><path class="cls-1" d="M434.53,170.91h2.9v-7l-5.88-9.73h-2.38v-.35h8v.35h-2.61l5.23,8.63,4.94-8.63h-2.64v-.35h5.6v.35h-2.54l-5.1,9v7.82H443v.35h-8.42Z"/></g></g></svg>