<svg xmlns="http://www.w3.org/2000/svg" viewBox="0 0 223.22 332.25"><defs><style>.cls-1{opacity:0.2;}.cls-2{fill:#463026;}</style></defs><g id="Layer_2" data-name="Layer 2"><g id="Layer_1-2" data-name="Layer 1"><g class="cls-1"><path class="cls-2" d="M142.69,194c-.35-3.22-.64-6.46-1.09-9.68-1.31-9.42-2.72-18.83-4-28.26a7.32,7.32,0,0,0-2-4.21,56.47,56.47,0,0,0-8.72-7.55,39.23,39.23,0,0,0-3.74-2.13,1.46,1.46,0,0,0-1.51,0,6.16,6.16,0,0,1-.82.39,9.37,9.37,0,0,1-10.2-2.3c-1.48-1.7-2.76-3.59-4.1-5.41a.71.71,0,0,1-.06-.63,1.08,1.08,0,0,1,.7-.42c2,0,3.93.05,5.89.1.53,0,1.06.05,1.58.12a9.87,9.87,0,0,1,6.81,4.06,17.47,17.47,0,0,0,1.75,2.61,14.68,14.68,0,0,0,2.76,1.52,22,22,0,0,1,2.1,1.35,62.24,62.24,0,0,1,6.93,5.84c.32.32.62.66,1,1,.14.11.38.1.57.15a3.53,3.53,0,0,0,.13-.63,4.11,4.11,0,0,0-.12-.67c-.56-3.12-1.08-6.25-1.7-9.36-1.07-5.33-2.19-10.65-3.32-16-.28-1.33-.67-2.64-1-4a1.35,1.35,0,0,0-.79-1,8.15,8.15,0,0,1-4.33-3.8,1.22,1.22,0,0,0-1.32-.62c-1.27.14-2.55.27-3.83.31a12,12,0,0,1-8.73-3.15c-1.52-1.37-3-2.78-4.46-4.19-.2-.2-.46-.56-.4-.76.34-1.11-.36-1.87-.8-2.71A24.34,24.34,0,0,1,103,94.4c-.4-5.42-.85-10.85.16-16.26a21.19,21.19,0,0,0,.24-2.25,28.22,28.22,0,0,1,1.79-7c.45-1.37,1.07-1.65,2.43-1.36a3.33,3.33,0,0,1,.86.28c.59.29.91.06,1.32-.4a1.2,1.2,0,0,1,1.79-.23,17,17,0,0,1,1.37,1.18c2.77,2.46,5.31,5.18,8.39,7.25,2.83,1.9,5.36,4.19,8,6.26a16.8,16.8,0,0,1,5.68,8,24.27,24.27,0,0,1,1,4.18c.07.44,0,1,.28,1.29a1.93,1.93,0,0,1,.26,1.9,24.13,24.13,0,0,0-.35,2.69,17.16,17.16,0,0,1-3.64,9.14,10.2,10.2,0,0,1-.69.9,1.39,1.39,0,0,0-.24,1.66,9.57,9.57,0,0,1,.81,4,4.44,4.44,0,0,1-.39,2,3.1,3.1,0,0,0-.24,2.37c1.12,4.85,2.23,9.71,3.23,14.59,1.48,7.18,2.82,14.38,3.81,21.64.47,3.44.93,6.89,1.42,10.33.91,6.35,1.93,12.69,2.73,19.06.69,5.47,1.17,11,1.68,16.45.42,4.44.85,8.88,1.12,13.32.56,9.43,1,18.86,1.5,28.28,0,.6,0,1.21,0,1.81.05,3.55.09,7.09.14,10.64a1.17,1.17,0,0,0,.17.38,3.11,3.11,0,0,0,.52-.25,1.42,1.42,0,0,0,.29-.35,118.41,118.41,0,0,0,8.09-12.57,60,60,0,0,0,4.88-10.47c.69-2.16,1.33-4.33,2-6.51a9.18,9.18,0,0,0,.17-1.07c-.2,0-.27,0-.33,0a1.67,1.67,0,0,0-.44.11,7.07,7.07,0,0,1-5.91-.37,13.08,13.08,0,0,1-6.36-6.53c-1.61-3.41-3-6.95-4.39-10.45a2.33,2.33,0,0,1,0-.88c0-.28.5-.51.69-.33a6.45,6.45,0,0,1,.75.82,24.59,24.59,0,0,0,6.58,6.16c1.45,1,2.83,2,4.24,3l1.45,1.06a12.49,12.49,0,0,0-1.62-2.91,31.52,31.52,0,0,1-4.26-9c-.6-2.34-1.26-4.66-1.77-7a55.72,55.72,0,0,1-1-18.7,92.5,92.5,0,0,1,9.2-29.52c1.81-3.65,3.86-7.19,5.81-10.78l6.08-11.14a7.28,7.28,0,0,1,.82-1.34.84.84,0,0,1,.78-.16.88.88,0,0,1,.48.65c-.1,1.13-.24,2.26-.42,3.38a72.68,72.68,0,0,0-.87,11.51c0,2.72,0,5.44,0,8.16a127.83,127.83,0,0,0,1.35,21.68c.67,4.56,1.41,9.11,1.89,13.69,1.37,13-1.62,24.9-9.86,35.28a4.82,4.82,0,0,0-.84,1.56c-1,3.26-1.87,6.54-2.87,9.79a38,38,0,0,1-1.63,4.23c-1.9,4.29-4.34,8.29-6.65,12.37-.26.46-.6.87-.9,1.3l-4.16,5.94a2.37,2.37,0,0,0-.2.62,2.16,2.16,0,0,0,.81,0c2-1,3.93-1.92,5.87-2.94,1.47-.77,2.89-1.63,4.33-2.45,2.63-1.49,5.3-2.9,7.88-4.47,4.19-2.54,8.34-5.17,12.48-7.79a54.05,54.05,0,0,1,7.54-4.13,38,38,0,0,1,12-3.3c4.51-.39,9-.47,13.57-.44.71,0,1.66-.2,1.94.73.23.75-.45,1.22-.95,1.68q-2.34,2.13-4.71,4.23c-4.91,4.35-9.81,8.71-15,12.76a38.68,38.68,0,0,1-14.06,7.06,49.45,49.45,0,0,1-9.82,1.53c-3.31.19-6.64.19-9.95.31a68.55,68.55,0,0,1-8.6-.17c-.83-.07-1.66-.1-2.49-.1a.7.7,0,0,0-.53.28c-.05.13.11.39.24.54.29.35.61.67.93,1q4.61,4.68,9.21,9.37a100.22,100.22,0,0,0,14.13,12c1.05.74,2.07,1.52,3.09,2.3a132.39,132.39,0,0,0,16.33,11c.33.19.65.38,1,.6a.77.77,0,0,1,.28.34.61.61,0,0,1,0,.42c-.06.12-.22.29-.32.27a2.79,2.79,0,0,1-1.05-.24,113.35,113.35,0,0,1-10.36-6.52c-4-2.95-8-5.93-12-8.89a80.78,80.78,0,0,1-9.15-7.77c-3.82-3.76-7.57-7.59-11.35-11.4-.54-.53-1-1.09-1.59-1.61a4.27,4.27,0,0,0-.73-.46,2.51,2.51,0,0,0-.3.73c-.27,6.42-.51,12.83-.78,19.25-.1,2.41-.22,4.83-.41,7.24-1,12.35-2.23,24.68-3.85,37-.24,1.8-.54,3.59-.83,5.38a5.17,5.17,0,0,1-.41,1.28.56.56,0,0,1-.53.22.66.66,0,0,1-.4-.46,6.72,6.72,0,0,1,.1-1.34c.21-1.34.47-2.68.64-4,1.23-10.2,2.55-20.39,3.35-30.64.5-6.33,1-12.65,1.21-19,.12-4.15.37-8.29.54-12.44,0-.83,0-1.66,0-2.49a.41.41,0,0,0-.27-.29.43.43,0,0,0-.38.09,5.52,5.52,0,0,0-.59.69c-2.82,3.64-5.59,7.33-8.47,10.92a89.86,89.86,0,0,0-7.61,11.8,23.31,23.31,0,0,0-1.11,2.24,68.76,68.76,0,0,0-5.28,17.53,9.47,9.47,0,0,1-.45,1.74.6.6,0,0,1-.52.29c-.17,0-.44-.25-.45-.4a6.8,6.8,0,0,1,.08-1.35,67.6,67.6,0,0,1,12.31-29.9c3-4.17,6.28-8.12,9.41-12.2a15.61,15.61,0,0,0,2.08-3c-2.1-.16-4.05-.29-6-.47a35.73,35.73,0,0,1-11.35-3c-7.31-3.24-12.12-8.81-15.09-16.11a3.15,3.15,0,0,1-.2-.87.72.72,0,0,1,.74-.69,5,5,0,0,1,1.06.33l6.41,2.87a70.11,70.11,0,0,1,11.84,6.18c2,1.42,4.07,2.87,6.11,4.31,1.11.78,2.21,1.57,3.33,2.35.06,0,.23-.05.32-.1s0-.16,0-.21l-.69-.89c-2.25-2.75-4.57-5.44-6.74-8.24-2.83-3.64-5.58-7.34-8.32-11-7.18-9.72-14.25-19.53-20.91-29.61a31.2,31.2,0,0,0-6-6.8c-3.4-2.87-6.8-5.76-10.32-8.5-2-1.53-4.13-2.78-6.24-4.12-.79-.5-1.06-.39-1.28.48a8.35,8.35,0,0,1-3.35,4.7,13.13,13.13,0,0,1-9.62,2.54,32.91,32.91,0,0,1-7.65-2c-.35-.13-.77-.36-.6-.8a1.75,1.75,0,0,1,.76-.74,2.27,2.27,0,0,1,.88-.19,27.26,27.26,0,0,0,7.09-2.31c3-1.37,5.85-2.84,9.1-3.41.18,0,.45-.27.45-.42s-.21-.4-.38-.51c-.77-.48-1.54-1-2.35-1.38-2-1-4.11-1.92-6.13-2.94a75.76,75.76,0,0,0-11.6-4.53c-.78-.24-1.43-.4-2,.42a2.71,2.71,0,0,1-1.76.92c-4,1-7.65-.16-11-2.34-1.73-1.13-1.59-2.42.33-3.09,4-1.4,8-1.49,11.61,1.26a10.79,10.79,0,0,0,3.19,1.66c2.72.91,5.42,1.91,8.13,2.86.21.07.52.39.76-.16-.31-.3-.61-.62-1-.91-4.11-3.51-6.13-8.14-7-13.35a2.48,2.48,0,0,1-.07-.89,1.88,1.88,0,0,1,.44-1,.8.8,0,0,1,1,.17c1,.9,2.05,1.79,3.05,2.71A38.14,38.14,0,0,1,74.32,177c.19.49.38,1,.56,1.48A2.44,2.44,0,0,0,76,179.82c2.49,1.42,5,2.91,7.45,4.31a64.33,64.33,0,0,1,9.31,6.45c1.87,1.53,3.73,3.08,5.59,4.63l1.09.87c0-.28.11-.44.06-.54a17.51,17.51,0,0,0-.83-1.61c-3.94-6.35-7.78-12.77-11.19-19.44-2.81-5.52-5.65-11-8.44-16.56-1.63-3.24-3.19-6.51-4.75-9.79-2.88-6.07-5.77-12.15-8.59-18.26-1.39-3-2.62-6.11-3.94-9.16a6,6,0,0,0-7.61-3.56c-1.93.63-3.77,1.54-5.65,2.33A1.5,1.5,0,0,0,47.44,121a4.32,4.32,0,0,1-1.3,3c-2.65,3-5.88,4.45-9.9,3.78a17.08,17.08,0,0,1-3.05-.86c-1.63-.59-3.24-1.26-4.85-1.91a3.79,3.79,0,0,1-.81-.39c-.16-.12-.37-.38-.33-.52a1.25,1.25,0,0,1,.49-.66,3,3,0,0,1,.87-.25,9.81,9.81,0,0,0,3.86-1.82c.9-.69,1.8-1.37,2.73-2a11,11,0,0,1,4.74-2.06,8.41,8.41,0,0,1,5.3.72,3.49,3.49,0,0,0,3.62-.13,31.12,31.12,0,0,1,3.75-1.61,22.6,22.6,0,0,1,2.18-.6c.06,0,.15-.11.14-.16s0-.31-.11-.35a8.41,8.41,0,0,0-1.42-.68,17.29,17.29,0,0,0-5.55-1c-1.81,0-3.63.09-5.43.26a11.11,11.11,0,0,1-6-.83,2.63,2.63,0,0,0-2.58,0,6.45,6.45,0,0,1-4.85.51,16.3,16.3,0,0,1-2.77-1,12.42,12.42,0,0,1-6-6.29c-.94-2-1.71-4-2.51-6.07a6.11,6.11,0,0,1-.23-1.55c0-.26.43-.53.67-.44a1.41,1.41,0,0,1,.42.16c2.16,1.76,4.77,2.56,7.36,3.4.94.3,1.86.63,2.77,1A10.89,10.89,0,0,1,35,109.45c.1.29.19.57.27.87a2.12,2.12,0,0,0,1.17,1.3,9.11,9.11,0,0,0,4.83,1c1.51-.12,3-.28,4.52-.33a19.91,19.91,0,0,1,12.46,3.42,7.37,7.37,0,0,0,.95.62c.16.08.4,0,.6,0a1.68,1.68,0,0,0,0-.45c-1.19-3.5-2.4-7-3.58-10.51-2.58-7.66-4.86-15.42-6.91-23.24-.28-1.1-.56-2.19-.85-3.29a.46.46,0,0,0-.69-.3c-1.94,1.57-3.94,3.09-4.82,5.58a2.82,2.82,0,0,1-.32.59.62.62,0,0,1-1,0,1.78,1.78,0,0,1-.28-.61c-.41-2.6-1-5.2-.45-7.87a2.24,2.24,0,0,0-.11-.68c-.35.15-.63.25-.89.39a8.76,8.76,0,0,1-7,.55c-.65-.21-1.31-.39-1.95-.61a11.35,11.35,0,0,0-5.14-.48c-.53.06-1.05.13-1.57.23a5.4,5.4,0,0,1-5.92-2.82,24.05,24.05,0,0,1-1.39-2.6,11.26,11.26,0,0,0-4.85-5.22c-.72-.42-1.43-.86-2.12-1.33-2.84-2-3.45-4.66-1.76-7.7.37-.66.82-1.27,1.17-1.94a5.54,5.54,0,0,0,.41-1.27A.59.59,0,0,0,9.09,52,4,4,0,0,1,6.21,52a4.48,4.48,0,0,1-2.66-4.15,9.87,9.87,0,0,1,.15-2,4,4,0,0,0-1.11-3.54C2,41.66,1.48,41,.94,40.4a3.71,3.71,0,0,1-.5-4.24,8.08,8.08,0,0,1,1.11-1.69c.47-.59,1-1.13,1.52-1.68a5.8,5.8,0,0,0,1.61-4.12c0-.68,0-1.36-.06-2,0-1.59-.08-3.17,0-4.76.09-6.62,8.17-11.8,14.14-8.83.41.2.82.4,1.24.56a.64.64,0,0,0,.93-.34c.19-.49.3-1,.53-1.49a27.64,27.64,0,0,1,1.56-3A3.94,3.94,0,0,1,26.44,7,7.07,7.07,0,0,1,27.57,7a3.63,3.63,0,0,0,4-2A13.94,13.94,0,0,1,33.75,2.2,6.84,6.84,0,0,1,41.48.56a20,20,0,0,0,7.23,1.69l.22,0A7.05,7.05,0,0,1,54.79,6.7l.81,1.88a1.23,1.23,0,0,0,1,.77,10.77,10.77,0,0,0,4.27.08,17.18,17.18,0,0,1,2-.38,5.76,5.76,0,0,1,6.15,3.28A12.48,12.48,0,0,1,70,15.12a8.08,8.08,0,0,0,1.47,3.27,12.32,12.32,0,0,1,2.11,3.47,1.53,1.53,0,0,0,.9,1c.55.24,1.09.52,1.62.81a14.18,14.18,0,0,1,4.38,3.54c1.68,2.14,2.58,4.45,1.32,7.15a8,8,0,0,0-.31.86,5,5,0,0,0,.29,4.16,15.67,15.67,0,0,1,.71,1.42,4.94,4.94,0,0,1-2.66,6.78c-.68.32-1.42.52-2.12.8a17.23,17.23,0,0,0-2,.94,2.11,2.11,0,0,0-.89,1c-.62,1.64-1.1,3.3-.39,5.06a16.76,16.76,0,0,1,.5,1.75A4.61,4.61,0,0,1,74.13,61a7.06,7.06,0,0,1-2.81,2.58,12.89,12.89,0,0,1-3.65,1.18c-1.49.24-3,.58-4.43.91a5.7,5.7,0,0,0-2.76,1.49c-.65.64-1.24,1.32-1.85,2a.56.56,0,0,0,.1.94,7,7,0,0,1,3,3c1.23,2.68,2.36,5.4,3.5,8.12a.92.92,0,0,1-.17.8.94.94,0,0,1-.81.15,14.68,14.68,0,0,0-5.13-.79c-.68,0-1.36,0-2-.09C54.23,81,51.8,80,50.25,77.44a1.23,1.23,0,0,0-.26-.36c-.1-.07-.31-.12-.37-.06a.43.43,0,0,0-.12.38c.35,1.47.71,2.94,1.08,4.4,2.13,8.59,4.82,17,7.54,25.42,1.79,5.54,4,10.94,6.23,16.3.27.62.59,1.2.9,1.82.15-.11.25-.15.26-.2.08-.51.18-1,.21-1.54a27.44,27.44,0,0,1,3.62-12.06c1.07-1.91,2.17-3.81,3.23-5.73,1.51-2.75,3.75-4.91,5.77-7.25,0-.06.11-.13.18-.14a3.31,3.31,0,0,1,1.06-.15c.44.09.49.53.49.91,0,2-.12,3.93-.1,5.9a23,23,0,0,1-1.79,9.06c-.87,2.09-1.83,4.15-2.84,6.17a28.47,28.47,0,0,1-5.94,8c-.55.52-1.07,1.06-1.6,1.6a.89.89,0,0,0-.19,1c.2.49.4,1,.63,1.46,1.13,2.39,2.31,4.76,3.41,7.16,3.86,8.37,7.84,16.69,12.09,24.88,2.54,4.89,5.09,9.78,7.69,14.65,3.42,6.4,7.23,12.57,11.14,18.68s7.78,11.88,11.85,17.7c7.19,10.26,14.53,20.43,22.24,30.3,2.61,3.33,5.44,6.49,8.17,9.71a6,6,0,0,0,.8.8.41.41,0,0,0,.39,0,.47.47,0,0,0,.2-.36c0-.9-.06-1.81-.08-2.71-.08-4-.07-8-.23-12-.25-6.34-.63-12.67-.93-19-.29-6.11-.71-12.21-1.35-18.3a19,19,0,0,0-4.4-10.48,44.69,44.69,0,0,0-8.57-8A75,75,0,0,1,120.29,177a1.91,1.91,0,0,0-2.23-.56,12.82,12.82,0,0,1-4.89.84,55.7,55.7,0,0,1-6.32-.52,23.29,23.29,0,0,1-7.61-2.84,7.75,7.75,0,0,1-2.81-2.59c-.51-.78-.19-1.48.78-1.61a24.08,24.08,0,0,1,7-.18,36.32,36.32,0,0,1,9.6,2.6,5,5,0,0,0,2.49.73l-.53-.79c-1-1.42-2.07-2.8-3-4.26-1.09-1.72-2.08-3.5-3.1-5.27a1,1,0,0,0-1.09-.61,3.36,3.36,0,0,1-3.12-1.49,15.53,15.53,0,0,1-3.37-6.61,8.66,8.66,0,0,1-.15-2.69,1.29,1.29,0,0,1,1.95-1.14,6.46,6.46,0,0,1,1.38.78,15,15,0,0,1,5.22,7,3.85,3.85,0,0,1,.27,2.2,3.67,3.67,0,0,0,.59,3c.79,1.37,1.56,2.76,2.42,4.09a57.23,57.23,0,0,0,14.56,15.08,7.23,7.23,0,0,0,1.09.51c-.54-1.28-.95-2.34-1.43-3.36a63.4,63.4,0,0,1-5.63-22.75,13.67,13.67,0,0,1,0-1.81.77.77,0,0,1,.65-.81,1,1,0,0,1,.76.36c.68.9,1.27,1.88,1.94,2.78a34.33,34.33,0,0,1,5.63,11.3,33.29,33.29,0,0,1,1.25,13.88,13.5,13.5,0,0,1-.24,1.57,1.56,1.56,0,0,0,.69,1.76,40,40,0,0,1,6.38,6.09c1.07,1.26,2.05,2.6,3.38,4.29C142.73,195,142.74,194.47,142.69,194ZM51.84,42a4.18,4.18,0,0,0,3.45-2.22c.26-.46.51-.93.73-1.41A9.85,9.85,0,0,1,58.32,35c1.12-1,1.44-2.23.33-3.82l-1.36-1.91c0,.33,0,.54,0,.76a3.09,3.09,0,0,1-1.37,3.13c-.55.38-.85.75-.61,1.49a4.52,4.52,0,0,1-.84,4.05,8.06,8.06,0,0,1-2.86,2.52c-.53.29-1.07.55-1.61.83-.06,0-.11-.14-.17-.14a11.13,11.13,0,0,1-6.32-2.15,22.46,22.46,0,0,0-4.4-2.3A9.78,9.78,0,0,1,34,32.84a8.3,8.3,0,0,1-.72-5.51,1.12,1.12,0,0,1,.25-.62c1-.77,1.25-2,1.72-3.07a2.23,2.23,0,0,1,1.52-1.27,7.84,7.84,0,0,1,2-.28,1.39,1.39,0,0,0,1.29-.66c1.41-2,2.86-2.36,5.07-1.4a6,6,0,0,1,1,.52A13.12,13.12,0,0,0,49.47,22,6.41,6.41,0,0,1,54,26.29c.26.92,1.06,1,1.73,1.24.11,0,.43-.14.51-.29a3.88,3.88,0,0,0,.24-2.44c-.71-3.52-2.38-6.31-5.87-7.76-1.88-.77-3.7-1.71-5.56-2.55a24.55,24.55,0,0,0-2.72-1.1,3.59,3.59,0,0,0-4.07,1.19c-.34.41-.64.84-1,1.24A6.47,6.47,0,0,1,33.94,18a11.72,11.72,0,0,0-2.13.75,2.62,2.62,0,0,0-1.7,2.46,13.83,13.83,0,0,1-1.41,6.12,2,2,0,0,0,.1,2,14.86,14.86,0,0,0,1.2,1.9c.61.77,1.3,1.47,2,2.2a9,9,0,0,1,2.42,4,4,4,0,0,0,3.06,3,15.47,15.47,0,0,0,1.76.41,10.72,10.72,0,0,1,4,1.56,3.62,3.62,0,0,0,3.83.46,22.08,22.08,0,0,1,3-.87C50.64,42,51.24,42,51.84,42ZM163.62,218.9c.3-5.43.63-10.86.87-16.3.12-2.71.12-5.43.07-8.15-.16-8.91-.37-17.82-.56-26.73,0-.68-.06-1.36,0-2a1.94,1.94,0,0,1,.24-.85.69.69,0,0,1,.53-.32c.18,0,.47.24.48.39.06.75,0,1.5.06,2.26.15,5.36.33,10.72.44,16.08.11,5.06.19,10.12.16,15.18,0,3.17-.25,6.34-.39,9.51l-.54,11.54c0,.3,0,.6,0,.91a1.56,1.56,0,0,0,.15.39c.19-.07.44-.1.56-.23a15.92,15.92,0,0,0,1.84-2.29,76.71,76.71,0,0,0,4.1-7.56,44.59,44.59,0,0,0,3.6-22.59c-.5-5-1.22-9.89-1.94-14.82a134,134,0,0,1-1.46-21.45c.05-3.4,0-6.8.09-10.2.11-3,.41-6,.61-9a.54.54,0,0,0-.09-.39c-.27-.2-.4.06-.51.24a7.67,7.67,0,0,0-.45.79c-1.82,3.22-3.62,6.46-5.45,9.68a129,129,0,0,0-9.29,19.9A80.5,80.5,0,0,0,152.37,182a53.42,53.42,0,0,0,1.14,16.67,55,55,0,0,0,2.66,9.59,44.52,44.52,0,0,0,6.7,10.73,2.23,2.23,0,0,0,.57.32A1.38,1.38,0,0,0,163.62,218.9Zm.69,35.26c3.16-1,6.31-2.08,9.44-3.21,2.77-1,5.5-2.11,8.24-3.18,1.77-.68,3.52-1.38,5.29-2a2.89,2.89,0,0,1,1.1-.12c.08,0,.24.35.21.51a.86.86,0,0,1-.39.51,11.53,11.53,0,0,1-1.42.68c-2.89,1.14-5.77,2.28-8.66,3.38-3.33,1.25-6.64,2.54-10,3.67s-6.65,2-10,3c-1.29.39-2.58.8-4.19,1.3a15.69,15.69,0,0,0,1.92.26c6.55-.09,13.12.14,19.64-.84a48.12,48.12,0,0,0,9.62-2.51A31.6,31.6,0,0,0,193,251.1c5.76-4.27,11.06-9.1,16.42-13.85,1.29-1.15,2.59-2.3,3.87-3.46a.4.4,0,0,0,.12-.36.56.56,0,0,0-.34-.26,3,3,0,0,0-.67,0,116.29,116.29,0,0,0-12.66.49,34.78,34.78,0,0,0-9.81,2.59,53.91,53.91,0,0,0-8.6,4.54c-3.7,2.33-7.4,4.67-11.14,6.93s-7.67,4.52-11.51,6.76c-1,.57-2,1.09-3,1.66a12.26,12.26,0,0,0-1.21,1C158.11,256.05,161.23,255.15,164.31,254.16ZM41.07,73.25c.59-.78,1.16-1.58,1.72-2.39a5.48,5.48,0,0,1,3.5-2.66,1.3,1.3,0,0,0,.57-.34c.06,0,0-.33,0-.36-.65-.36-1.31-.72-2-1a.87.87,0,0,0-.64.1,9.65,9.65,0,0,0-.9.68,4.23,4.23,0,0,1-4.69.39,3.81,3.81,0,0,1-.78-.46,6.93,6.93,0,0,0-4-1.34c-1.2-.1-2.41-.19-3.61-.32A7.28,7.28,0,0,1,26.51,64a6.1,6.1,0,0,1-2.33-3.51c-.18-.82-.35-1.63-.49-2.45A9,9,0,0,0,22,54.09c-.73-1-1.51-1.89-2.25-2.84s-1.47-1.92-2.16-2.91a6,6,0,0,1-.83-5.61,4.21,4.21,0,0,0-.11-3.27c-.18-.4-.18-.88-.34-1.3-.06-.14-.35-.22-.54-.26a.7.7,0,0,0-.42.15,13,13,0,0,0-4.48,4.71,8.37,8.37,0,0,0-.57,6.38c.2.73.48,1.43.66,2.17a4.23,4.23,0,0,1-.56,3.47C10,55.41,9.56,56,9.2,56.71a4,4,0,0,0,1.33,5.75c.8.57,1.66,1,2.49,1.56a12.36,12.36,0,0,1,5.08,5.64,16.21,16.21,0,0,0,1.54,2.76,4,4,0,0,0,4.26,1.91c.59-.11,1.19-.21,1.79-.27a12.9,12.9,0,0,1,5.38.47c1.08.34,2.16.68,3.26,1a6.36,6.36,0,0,0,4-.28A6,6,0,0,0,41.07,73.25Zm76.75,14.36c-1.1-1.13-2.1-2.37-3.11-3.59A8.53,8.53,0,0,1,113,79c0-.45,0-.9,0-1.36a9.43,9.43,0,0,0-2.53-6.37c-.43-.52-.87-1-1.33-1.53a2.87,2.87,0,0,0-2-.94.75.75,0,0,0-.55.29,3.21,3.21,0,0,0-.37.82,29.72,29.72,0,0,0-1.71,7.92c-1.07,8.84-.69,6.12-.32,14.68a28.09,28.09,0,0,0,1.57,8.2,18,18,0,0,0,3.12,5.22,2.4,2.4,0,0,0,1.12.71,6.77,6.77,0,0,0,1.79.29,18.5,18.5,0,0,1,8.33,1.85c.14.07.37,0,.56-.07,0-.14,0-.32-.09-.43a14.41,14.41,0,0,1-2.26-9.5c.08-1.43,0-2.87,0-4.3,0-.46,0-.93.54-1.16s.92.26,1.1.88a3.13,3.13,0,0,1,.1.44,12,12,0,0,0,2.72,5.65c.61.77,1.28,1.49,1.94,2.21a.39.39,0,0,0,.39,0c.1-.06.13-.24.16-.37s0-.15,0-.23a29.42,29.42,0,0,0-2-6.12A22.53,22.53,0,0,0,117.82,87.61Zm-46-44.33c-.71-.9-.9-.88-1.79-.18a19.7,19.7,0,0,1-2.4,1.7,8,8,0,0,0-3.32,3.61c-.28.61-.57,1.23-.89,1.83a5,5,0,0,1-3,2.58l-2.17.64A5.46,5.46,0,0,0,55,56c-.45.79-.85,1.6-1.36,2.35A3.67,3.67,0,0,1,49.08,60,14.73,14.73,0,0,1,46,58.62a9,9,0,0,0-3.73-1.54,1.72,1.72,0,0,1-1-.43c-.75-.88-1.85-1-2.81-1.36a3.26,3.26,0,0,0-2.41.24c-.07,0-.08.26-.09.4a.26.26,0,0,0,.1.19,8.86,8.86,0,0,1,2.56,3.68,8.11,8.11,0,0,0,3.32,3.61c.65.39,1.32.74,2,1.1l6,3.22a12.5,12.5,0,0,0,3.58,1.39,4.44,4.44,0,0,0,4-1c.56-.5,1.12-1,1.67-1.53a9.06,9.06,0,0,1,4.33-2.34c1.18-.27,2.37-.45,3.55-.71a26,26,0,0,0,2.63-.67,6.41,6.41,0,0,0,1.62-.79c2.2-1.52,3-3.38,2.06-5.64a8,8,0,0,1-.19-5.53c.15-.51.19-1,.35-1.54A6,6,0,0,0,73,45C72.79,44.64,72.36,43.93,71.86,43.28ZM48.75,3.55a5.13,5.13,0,0,0-.67-.09A17.56,17.56,0,0,1,41.3,1.84a5.87,5.87,0,0,0-7,1.61,20.22,20.22,0,0,0-2,2.73,4.21,4.21,0,0,1-4.2,2.11l-.45,0a3.83,3.83,0,0,0-4.48,2.61c-.29.69-.55,1.4-.81,2.11-.34.92-.64,1.86-1,2.77a7.89,7.89,0,0,1-2.05,3c-.44.4-.9.8-1.34,1.21-1.87,1.7-2,3.77-1.25,6a7.4,7.4,0,0,0,.8,1.62,7.7,7.7,0,0,1,.73,7.16c-.14.35-.21.73-.32,1.09A6.07,6.07,0,0,0,19,41.38a16.15,16.15,0,0,0,2.61,2.81,59.63,59.63,0,0,1,7.32,7.07,10.74,10.74,0,0,0,2.41,2,6.3,6.3,0,0,0,5.22.72c.19-.05.49-.29.47-.41a1.13,1.13,0,0,0-.38-.71,3.65,3.65,0,0,0-1-.47,4.45,4.45,0,0,1-2.83-3,3,3,0,0,1-.12-.43,7.82,7.82,0,0,0-3.78-5.15c-1.14-.73-2.27-1.49-3.38-2.28a6.63,6.63,0,0,1-2.61-3.33,6.8,6.8,0,0,1-.27-1.1,3,3,0,0,1,1.95-3.41c.65-.31.72-.6.23-1.13s-.77-.73-1.14-1.1a3.55,3.55,0,0,1-.89-4,20.89,20.89,0,0,1,1-2.29,3.9,3.9,0,0,0,.3-2.86,1.8,1.8,0,0,1-.06-.22c-.62-2.15-.13-3.87,1.92-5a2.67,2.67,0,0,0,1.29-2.47c.15-2.59,1.09-3.64,3.58-4.19a10.51,10.51,0,0,1,1.34-.25,14.34,14.34,0,0,0,5.54-1.8c4-2.17,7.72-1.41,10.81,2,.2.22.34.53.59.67a1,1,0,0,0,.82.1c1.31-.58,2.59-1.21,3.88-1.84a.7.7,0,0,0,.34-.95c-.12-.35-.29-.69-.44-1A5.64,5.64,0,0,0,48.75,3.55ZM5.81,22.27c0,1.13,0,2.27,0,3.4,0,.53,0,1.06.09,1.58A8,8,0,0,1,3.3,34.41,8.09,8.09,0,0,0,2,36a2.85,2.85,0,0,0,.17,3.92c.47.49.9,1,1.37,1.51A5,5,0,0,1,5,46a9.87,9.87,0,0,0-.15,1.8,3.4,3.4,0,0,0,1,2.45A2.39,2.39,0,0,0,7.89,51,1.21,1.21,0,0,0,9,49.55C9,49,8.8,48.36,8.73,47.76a9.34,9.34,0,0,1,1.52-6.47,16.18,16.18,0,0,1,5.47-5A2,2,0,0,0,16.83,35a28.69,28.69,0,0,0,.67-2.85,5.71,5.71,0,0,0-.81-3.48c-.33-.6-.7-1.17-1-1.78A6.6,6.6,0,0,1,17.13,19c.65-.63,1.35-1.22,2-1.89a4.37,4.37,0,0,0,.81-1.34.82.82,0,0,0-.24-.76,8.6,8.6,0,0,0-8.27-.78C8.24,15.76,5.93,18.24,5.81,22.27Zm54.06,8.44c1,1.56,1.14,3.12-.12,4.6a1.53,1.53,0,0,0-.24,1.85,8.47,8.47,0,0,1,.66,1.93c.34,1.91-.24,3.4-2.06,4a6.92,6.92,0,0,0-3.93,3.54c-.1.2-.24.38-.35.58a6.51,6.51,0,0,1-5.25,3.5,6.18,6.18,0,0,0-3.77,1.87c-.74.74-1.58,1.4-2.34,2.13-.19.19-.43.56-.36.74a1,1,0,0,0,.74.41,8.82,8.82,0,0,1,3.52,1.46,15,15,0,0,0,2.4,1.28c1.86.73,3,.34,4-1.34a14.45,14.45,0,0,0,.77-1.39,6.81,6.81,0,0,1,4.2-3.55c.43-.14.86-.32,1.3-.42a4.85,4.85,0,0,0,3.75-3.25,1.89,1.89,0,0,0,.09-.21,9.61,9.61,0,0,1,4.44-5A8.78,8.78,0,0,0,69,42.32a2.5,2.5,0,0,0,.74-2.88,8.79,8.79,0,0,0-1.27-2.38,6.61,6.61,0,0,1-1.36-5.74,1.81,1.81,0,0,1,0-.23c.63-2.94-.55-5.14-2.82-6.9a12.55,12.55,0,0,0-6.48-2.48c-.46-.05-.75.26-.6.69a16.5,16.5,0,0,1,.68,4,11.85,11.85,0,0,0,.77,2.44ZM132.3,99.64c.49-.47.93-1,1.42-1.46a3.39,3.39,0,0,0,1.11-2.86,19.89,19.89,0,0,0-.48-3.35,24.67,24.67,0,0,0-1.23-3.4,12.26,12.26,0,0,0-3.6-4.86,106.69,106.69,0,0,0-8.7-6.87,44.29,44.29,0,0,1-5.74-4.77c-1.27-1.18-2.57-2.33-3.87-3.47a.57.57,0,0,0-.56.07.71.71,0,0,0-.16.6A2.8,2.8,0,0,0,111,70a13.3,13.3,0,0,1,2.27,3.37,9,9,0,0,1,1,3.92c0,.53,0,1.06,0,1.59a7.59,7.59,0,0,0,1.63,4.61c.84,1,1.6,2,2.52,2.9A27,27,0,0,1,126,99.79c.34,1.39.76,2.76,1.16,4.13.13.43.34.83.67,1.61A20.93,20.93,0,0,1,132.3,99.64ZM52.14,16.34a9.16,9.16,0,0,1,3.67,3.29,1.71,1.71,0,0,0,1.3.73,28.75,28.75,0,0,1,4.21.83,11.27,11.27,0,0,1,6,4.25,6.11,6.11,0,0,1,1.25,4c0,1-.17,1.95-.28,2.93a5.2,5.2,0,0,0,1.18,3.79c.37.5.87.45,1.31,0a2.56,2.56,0,0,0,.62-2.52c-.13-.51-.29-1-.47-1.51a3.54,3.54,0,0,1,.19-2.85c.3-.62.63-1.21.89-1.84a7,7,0,0,0-.86-7.27c-.31-.43-.59-.88-.92-1.29a7.3,7.3,0,0,1-1.46-3.27A10.88,10.88,0,0,0,68,13.21,4.49,4.49,0,0,0,63,10.34a6.94,6.94,0,0,0-1.11.18,9.53,9.53,0,0,1-4.71.17c-2.35-.52-4.31.34-6.23,1.44-.7.4-.8.72-.54,1.5.13.36.29.7.4.95A2.16,2.16,0,0,0,52.14,16.34ZM24.88,35.11c-.38-.16-.87.42-.95,1a4.13,4.13,0,0,0,1.18,3.31,11,11,0,0,0,1.73,1.45c1.1.79,2.26,1.51,3.37,2.29a8,8,0,0,1,3.54,5.07,3.77,3.77,0,0,0,2.86,3.17,3.18,3.18,0,0,1,2,1.77c.72,1.35,1.7,1.54,3,.61a16.33,16.33,0,0,0,2.21-1.94,7.35,7.35,0,0,1,4.71-2.42,5.28,5.28,0,0,0,4.33-2.92c.21-.4.49-.77.71-1.16A6.15,6.15,0,0,1,57,42.33a6,6,0,0,0,.82-.37A2.11,2.11,0,0,0,59,39.71a7.51,7.51,0,0,0-.37-1.54.7.7,0,0,0-.44-.45.67.67,0,0,0-.52.29c-.38.66-.65,1.37-1.06,2a13.08,13.08,0,0,1-1.52,2,4.44,4.44,0,0,1-2.86,1.23,20.61,20.61,0,0,0-5.75,1.15,3,3,0,0,1-2.83-.27,16.06,16.06,0,0,0-6.32-2.36,3.34,3.34,0,0,1-.85-.31,2.38,2.38,0,0,0-2-.13,3.4,3.4,0,0,1-3.37-.71c-1.09-.8-2.29-1.46-3.45-2.15a4,4,0,0,1-2.21-2.72C25.36,35.59,25.17,35.23,24.88,35.11ZM20,49.55c1,1.32,2.06,2.6,3.08,3.92a9.08,9.08,0,0,1,1.85,4.33c.08.59.22,1.18.34,1.78A5.65,5.65,0,0,0,30,64.18a16.71,16.71,0,0,0,2.24.27l2.49.22A7,7,0,0,1,38.31,66a6.28,6.28,0,0,0,1,.58,3.08,3.08,0,0,0,3-.12c.6-.36.67-.85.11-1.22s-.91-.54-1.35-.83a8.23,8.23,0,0,1-3.54-4c-.79-2.11-2.45-3.4-4.13-4.68a4.43,4.43,0,0,0-1.23-.56,9.4,9.4,0,0,1-3.74-2.49c-.47-.49-1-1-1.39-1.49a38.18,38.18,0,0,0-4.84-4.76c-1.09-.93-2.13-1.93-3.2-2.88-.25-.22-.48-.73-.86-.46s-.32.66-.37,1a6.23,6.23,0,0,0,.28,2.73C18.7,47.71,19.32,48.65,20,49.55Zm59.5-3.31a3.53,3.53,0,0,0,1.83-4.75,12.73,12.73,0,0,0-.75-1.64,6.2,6.2,0,0,1-.29-5.27c.13-.35.25-.71.4-1.06a4.69,4.69,0,0,0-.24-3.94A9.14,9.14,0,0,0,77.37,26a25.63,25.63,0,0,0-2.7-1.65.44.44,0,0,0-.67.37,13.39,13.39,0,0,1-1.67,4.9,2.63,2.63,0,0,0-.19,2.19c.13.43.27.86.43,1.29a3.49,3.49,0,0,1-.67,3.6c-.24.29-.52.55-.75.84s-.32.45-.27.6c.4,1.11.08,2.41,1.09,3.35A9.19,9.19,0,0,1,75,47c.11.7.41.81,1.15.56s1.28-.46,2.27-.81C78.54,46.66,79,46.49,79.51,46.24ZM32.81,11.4a14.3,14.3,0,0,0-2.65.6,2.24,2.24,0,0,0-1.71,2.15c0,.08,0,.15,0,.23a4,4,0,0,1-2.24,4.1,2.31,2.31,0,0,0-1.06,2.93,6,6,0,0,1-.58,5c-.07.13-.12.27-.18.41-.92,2.23-.86,2.67.89,4.37a4.08,4.08,0,0,1,1.51,3.6,2.15,2.15,0,0,0,1.14,2.27C29.46,38,31,39,32.53,39.94a1.75,1.75,0,0,0,.64.18c.3.07.66-.23.58-.5a11.68,11.68,0,0,0-2.44-5c-.68-.71-1.34-1.43-2-2.18A18.24,18.24,0,0,1,28,30.57a4,4,0,0,1-.27-4.28,10.57,10.57,0,0,0,1.08-4.6c.1-2.55,1-3.67,3.38-4.49a8.84,8.84,0,0,1,.88-.25,6,6,0,0,0,3.68-2.45c.22-.3.46-.6.71-.88a4.8,4.8,0,0,1,4.71-1.57,14.64,14.64,0,0,1,2.57.86c.77.31,1.48.78,2.25,1.07s1.3,1,2.21.7a13.34,13.34,0,0,0-.93-2.27c-1.72-2.67-4.07-4.29-7.38-3.8a13.69,13.69,0,0,0-2.92,1A12.44,12.44,0,0,1,32.81,11.4ZM135.3,251.69a73.14,73.14,0,0,0-15.41-8.53c-1-.41-1.94-.85-2.93-1.2-.8-.29-1.46-1-2.42-.79.35.82.63,1.69,1.06,2.47a27.27,27.27,0,0,0,17.83,13.56,33.28,33.28,0,0,0,8.72,1.25c.17-.68-.46-.68-.78-.84q-7.62-4-15.26-8c-.4-.21-.8-.42-1.2-.65a.62.62,0,0,1-.32-.75c.07-.34.49-.49.94-.29.62.27,1.23.57,1.83.88,2.87,1.52,5.73,3.06,8.59,4.57.85.45,1.72.86,2.58,1.29l.17-.44C137.57,253.41,136.45,252.53,135.3,251.69ZM70.64,118.2c.84-2.26,1.76-4.49,2.67-6.73a7.46,7.46,0,0,1,.88-1.56.88.88,0,0,1,.78-.2c.35.07.41.43.25.72a99.28,99.28,0,0,0-4.11,10c-.49,1.26-1.13,2.47-1.69,3.71a10.82,10.82,0,0,0-1.17,2.91c.5.13.73-.2,1-.45a24,24,0,0,0,4.45-6c1.22-2.34,2.33-4.74,3.36-7.17a21.64,21.64,0,0,0,1.65-8.61,6.76,6.76,0,0,0,0-.9c-.16-1.07.41-2.22-.4-3.2-.74.72-1.5,1.43-2.21,2.19a10.07,10.07,0,0,0-1.24,1.6,93.65,93.65,0,0,0-5.74,10.26,23.09,23.09,0,0,0-2,10.63A35.25,35.25,0,0,0,70.64,118.2Zm-31-81.91a25.5,25.5,0,0,1,4.61,2.39,14.33,14.33,0,0,0,3.24,1.59,5.31,5.31,0,0,0,6.71-4.06,1.22,1.22,0,0,0-.86-1.61c-1.92-.71-3.87-1.33-6-.77a2.13,2.13,0,0,1-.89.12c-2.87-.46-5.69-1-7.3-3.85A2.42,2.42,0,0,0,38.05,29c-.34-.16-.66-.37-1-.53-.74-.35-1.5-.68-2.24-1-.67.9-.29,1.89-.22,2.85a10.41,10.41,0,0,0,.32,1.48A9.29,9.29,0,0,0,39.62,36.29ZM63.1,79.54c-.74-1.82-1.53-3.61-2.26-5.42a7,7,0,0,0-3.36-3.22,2.15,2.15,0,0,0-1.08-.18,15.13,15.13,0,0,1-5.72-1.15c-.85-.36-1-.12-1,.78a13.61,13.61,0,0,0,.6,4.23c.92,3,2.87,5,6.08,5.3,2.23.24,4.48.28,6.78.41A2.59,2.59,0,0,0,63.1,79.54ZM23.3,108.66a10.38,10.38,0,0,0,6.76,3.74,4.13,4.13,0,0,0,2.63-.39.44.44,0,0,0,.12-.73c-1.11-.78-2.23-1.54-3.35-2.3-.88-.59-1.79-1.12-2.65-1.73a2.89,2.89,0,0,1-.67-.87.47.47,0,0,1,.06-.41c.08-.1.28-.21.37-.17a4.57,4.57,0,0,1,1,.47q2.47,1.59,4.93,3.2a4.88,4.88,0,0,0,.58.34c.13.06.38.08.41,0s.21-.43.14-.57a9.38,9.38,0,0,0-3.7-4.45,18.56,18.56,0,0,0-2.84-1.37c-2.32-.88-4.67-1.7-7-2.53-.12,0-.28,0-.51.09A21.23,21.23,0,0,0,23.3,108.66Zm14,18.06a9.2,9.2,0,0,0,8.22-3.89,2.71,2.71,0,0,0,.51-1,1.24,1.24,0,0,0-.13-.82c-.06-.11-.43-.14-.61-.08-1.74.52-3.45,1.09-5.19,1.62a7.16,7.16,0,0,1-1.52.29c-.13,0-.33-.25-.42-.42a.44.44,0,0,1,.14-.39c.82-.37,1.64-.74,2.48-1,1.14-.41,2.3-.75,3.44-1.15.16-.06.29-.28.39-.45s-.17-.25-.29-.3a7.93,7.93,0,0,0-7.17.55c-.72.41-1.36,1-2.05,1.41-1.31.89-2.63,1.77-3.93,2.66-.24.16-.44.36-.83.68C32.67,125.48,34.83,126.58,37.28,126.72Zm90.13,44c-.35-1.08-.27-1.78.18-1.77.83,0,.86.78,1,1.3.7,2.46,1.33,4.95,2,7.43.17.64.36,1.27.61,2.18,1.33-6.1-2.44-17.7-7.29-22.74a7.94,7.94,0,0,0,.15,3c.07,1.05.24,2.09.4,3.14s.34,2.08.56,3.12.45,1.91.71,2.85.55,2,.88,3,.72,2,1.13,3a7.62,7.62,0,0,0,1.62,3A71.25,71.25,0,0,0,127.41,170.72Zm23.3,44.85a20.24,20.24,0,0,0,2.9,5.09A10.32,10.32,0,0,0,158.1,224a10.64,10.64,0,0,0,2.64.51c.66.07,1.49-.41,1.34-.58a3.77,3.77,0,0,0-1-.79,26.38,26.38,0,0,1-5.58-4.21,2.66,2.66,0,0,1-.51-.73.47.47,0,0,1,0-.42c.16-.12.45-.26.57-.2a10.1,10.1,0,0,1,1.28.89c1.12.88,2.23,1.79,3.36,2.68a2.34,2.34,0,0,0,.6.27.51.51,0,0,0,.22,0c0-.14.08-.34,0-.42a6.94,6.94,0,0,0-1-1.19c-1.75-1.43-3.51-2.86-5.3-4.23-1.5-1.15-3.05-2.22-4.58-3.31a6.27,6.27,0,0,0-.75-.4A21,21,0,0,0,150.71,215.57ZM48.29,27.89c.11.42.07,1,.58,1.14A2.12,2.12,0,0,0,51,28.82c2.35-1.92,2.14-2.74.2-4.45a5.32,5.32,0,0,0-2.37-1.27,11.13,11.13,0,0,1-3.3-1.43,6.65,6.65,0,0,0-1.87-.77,2.09,2.09,0,0,0-2.6,1.57c-.12.43-.16.89-.26,1.33a1.93,1.93,0,0,0,.7,2c.78.69,1,1.07,1.92-.13A6.87,6.87,0,0,1,45,24.36a1,1,0,0,1,1.24.13A7,7,0,0,1,48,26.89C48.08,27.16,48.2,27.52,48.29,27.89ZM64.61,190.13c-.16.06-.26.27-.39.41a1.31,1.31,0,0,0,.34.29c3.83,1.41,7.65,1.65,11.44-.15a9.6,9.6,0,0,0,3.63-3,4.13,4.13,0,0,0,.52-1,.46.46,0,0,0-.06-.41.39.39,0,0,0-.37-.11c-.83.36-1.65.75-2.46,1.14-1.16.55-2.31,1.12-3.47,1.66a1.93,1.93,0,0,1-.87.22.63.63,0,0,1-.5-.34.66.66,0,0,1,.19-.59c.51-.32,1.06-.57,1.59-.84,1.08-.55,2.16-1.08,3.23-1.64.09,0,.15-.26.13-.38s-.22-.18-.31-.16a20.61,20.61,0,0,0-5.09,1.87c-.51.31-1.07.55-1.61.82l0,.12C68.6,188.74,66.6,189.42,64.61,190.13Zm56.18-84a14.08,14.08,0,0,0,4,4.79,4.08,4.08,0,0,0,2.69,1,.58.58,0,0,0,.53-.79c-.5-1.08-1-2.17-1.49-3.26a16.9,16.9,0,0,0-2.85-4.58c-1.09-1.23-2.06-2.58-3.09-3.86-.23-.29-.5-.53-.87-.92A11.58,11.58,0,0,0,120.79,106.15Zm-7.11,29c-.15,0-.3,0-.45,0-1.41,0-2.83.08-4.24.21-.33,0,.9,2.13,2.43,3.85,2.1,2.38,4.79,2.94,7.79,2.52a1.28,1.28,0,0,0,.43-.14c.18-.12.44-.24.49-.41s-.19-.41-.35-.49c-1.31-.58-2.63-1.13-3.94-1.7a10.1,10.1,0,0,1-1.38-.73.61.61,0,0,1-.12-.59c.07-.16.37-.37.51-.33.65.18,1.29.41,1.91.65a16.59,16.59,0,0,0,3.82,1.31A8.42,8.42,0,0,0,113.68,135.12ZM46.83,69.82a5.48,5.48,0,0,0-1.12.75c-2.4,2.36-3.92,5.12-3.68,8.61a19.34,19.34,0,0,0,.24,2c0,.11.43.27.48.23,1.53-1.54,3.07-3.07,4.54-4.67A4.25,4.25,0,0,0,48.36,73c-.18-1-.34-1.92-.44-2.48C47.63,69.78,47.18,69.62,46.83,69.82Zm21.5,98.77a39.71,39.71,0,0,0-6-6.42,2.65,2.65,0,0,0-.54-.41.56.56,0,0,0-.42,0,.42.42,0,0,0-.1.37,19.35,19.35,0,0,0,7.43,12.25c.13.1.36,0,.54.05a1.43,1.43,0,0,0-.09-.43c-.11-.19-.27-.36-.4-.54a3.21,3.21,0,0,1-.5-.74c-.07-.17,0-.56.07-.6s.64-.16.79,0c.51.44.93,1,1.41,1.46.29.29.63.53,1.25,1A23.12,23.12,0,0,0,68.33,168.59Zm44.49-60.36c-.67,0-1.35-.08-2-.11a.7.7,0,0,0-.38.1c0,.21,0,.48.12.61a17.21,17.21,0,0,0,3.78,3.18,9.29,9.29,0,0,0,3.15,1.17,17.39,17.39,0,0,0,6.27-.07,3.55,3.55,0,0,0,.71-.39C120.84,110.29,117.2,108.33,112.82,108.23Zm-.19,64.85a27.66,27.66,0,0,0-13.69-2.34,1.7,1.7,0,0,0-.45.08.55.55,0,0,0-.3.28.45.45,0,0,0,.09.39,19.49,19.49,0,0,0,2.38,1.7A25.61,25.61,0,0,0,113.58,176a2.89,2.89,0,0,0,.84-.25c.06,0,.09-.12.2-.27a35.73,35.73,0,0,0-4.79-1.38c-1.61-.39-3.24-.71-4.86-1.08a5.45,5.45,0,0,1-1.27-.44.62.62,0,0,1-.18-.58.65.65,0,0,1,.47-.37,9.29,9.29,0,0,1,1.57.23c2.35.51,4.71,1,7.41,1.64C112.71,173.17,112.68,173.1,112.63,173.08ZM44.45,171.8c.12.09.22.21.35.29a13,13,0,0,0,9.3,2,6.59,6.59,0,0,0,.87-.24.79.79,0,0,0,.29-1.42,10.26,10.26,0,0,0-2-1.41c-2.85-1.32-5.74-.84-8.2-.24C44.18,171.12,44.11,171.51,44.45,171.8ZM130.15,110a16.85,16.85,0,0,0,4.19-6.89,6,6,0,0,0,.35-1.54c0-.76.69-1.54,0-2.29-.55.48-1.15.92-1.66,1.45-.84.86-1.66,1.75-2.44,2.66a8.6,8.6,0,0,0-1.72,3.41,4.11,4.11,0,0,0,.13,2.86C129.28,110.38,129.73,110.45,130.15,110Zm-23.78,49.45a4.05,4.05,0,0,0,1,.91,1.07,1.07,0,0,0,1.26.06,1.61,1.61,0,0,0,.88-1.23,1.29,1.29,0,0,0,0-.44,13.43,13.43,0,0,0-5.38-7.26.55.55,0,0,0-.93.46c-.06,1.4.54,2.63,1,4.24C104.79,157.11,105.55,158.3,106.37,159.46ZM52.78,33a3.26,3.26,0,0,0,3.1-1.75A1.85,1.85,0,0,0,55.8,30a3.37,3.37,0,0,0-1.8-1.6.76.76,0,0,0-.63.05,14.66,14.66,0,0,0-2,1.81,12.48,12.48,0,0,0-1.11,2.08C51.23,32.58,52,32.84,52.78,33Zm77.54,79.38c-.19-.26-.5-.43-.74-.19a6.45,6.45,0,0,1-2.73,1.42.82.82,0,0,0-.28.72,6,6,0,0,0,2.91,3,1.07,1.07,0,0,0,1.53-.82,6.4,6.4,0,0,0-.47-3.71A3,3,0,0,0,130.32,112.38Zm-85-86.54c-.73,0-1,.79-1.41,1.35a2.53,2.53,0,0,0-.4,2.13c.39,1.73.41,1.77,1.86.88.19-.12.39-.23.59-.34,1.31-.76,1.43-1.13.79-2.61C46.44,26.7,46.16,25.84,45.3,25.84Zm-6.66,1.44a9.64,9.64,0,0,0,.81-3,.83.83,0,0,0-.82-.88,2.19,2.19,0,0,0-2.2.85c-.78,1.23-.49,2.2.85,2.94.33.18.67.32,1,.47C38.43,27.48,38.6,27.4,38.64,27.28Zm2.34-.1a.5.5,0,0,0-.94.23,3.25,3.25,0,0,0,.84,2.9,2,2,0,0,0,1.55.93A5.58,5.58,0,0,0,41,27.18Zm8.39,3.89a.44.44,0,0,0,0-.42c0-.11-.24-.18-.38-.2a4.41,4.41,0,0,0-3.63,1.41.51.51,0,0,0-.07.42.48.48,0,0,0,.34.24c.66,0,1.32.06,2,.09C48.29,32.07,48.84,31.59,49.37,31.07Z"/></g><path class="cls-2" d="M84.49,223.33h13V191.76L71.12,148.08H60.45v-1.54H96.34v1.54H84.61l23.46,38.73,22.17-38.73H118.39v-1.54h25.1v1.54H132.11l-22.87,40.16v35.09h13v1.54H84.49Z"/><path class="cls-2" d="M121.64,264.57h13V189.32h-13v-1.54h22.29c.93,0,1.87,0,2.81-.06s1.88-.09,2.81-.16,1.88,0,2.82-.06,1.88-.05,2.81-.05a93.08,93.08,0,0,1,12.2.71,21.09,21.09,0,0,1,9.85,4.13A17.07,17.07,0,0,1,184.74,206a18.4,18.4,0,0,1-.65,4.24,13.92,13.92,0,0,1-2.81,5.28,21,21,0,0,1-6.28,4.95,29.72,29.72,0,0,1-10.9,3v.22c1.25.15,3,.42,5.1.83a31.48,31.48,0,0,1,6.57,2,24.44,24.44,0,0,1,6.15,3.8,12.7,12.7,0,0,1,4,6.1,25.36,25.36,0,0,1,1,5q.28,2.8.47,5.77c.12,2,.23,3.89.35,5.72a25.6,25.6,0,0,0,.65,4.62,16.47,16.47,0,0,0,2.22,5.18,5.47,5.47,0,0,0,4.93,2.31,10.22,10.22,0,0,0,3.17-.55,8.09,8.09,0,0,0,2.93-1.76l1.05,1.21q-.59.44-1.35.93a10.23,10.23,0,0,1-1.93.94,15.21,15.21,0,0,1-2.87.71,27.16,27.16,0,0,1-4.17.28,23.72,23.72,0,0,1-7.8-1.1,11.66,11.66,0,0,1-5-3.25,13.44,13.44,0,0,1-2.76-5.28,40.61,40.61,0,0,1-1.23-7.32l-.82-10a19.86,19.86,0,0,0-2.35-8.58,12.52,12.52,0,0,0-4.39-4.51,13.25,13.25,0,0,0-5.22-1.7,45.44,45.44,0,0,0-4.69-.28H146.39v39.72h13v1.54H121.64Zm24.75-41.26h10.79a21.5,21.5,0,0,0,6-.77,10.54,10.54,0,0,0,4.63-2.69,12.69,12.69,0,0,0,3-5.23,27.71,27.71,0,0,0,1.06-8.36,22.31,22.31,0,0,0-1.59-9.19,12.43,12.43,0,0,0-4.1-5.22,14.06,14.06,0,0,0-5.63-2.31,34.91,34.91,0,0,0-6.16-.55c-1.4,0-2.83,0-4.28,0a31.71,31.71,0,0,0-3.69.28Z"/><path class="cls-2" d="M194.5,220.16v0a5.66,5.66,0,0,1,6-5.49,6.5,6.5,0,0,1,4.6,1.69l-.91.88a5.38,5.38,0,0,0-3.7-1.46,4.39,4.39,0,0,0-4.57,4.35v0a4.41,4.41,0,0,0,4.57,4.39,5.35,5.35,0,0,0,3.8-1.54l.88.78a6.47,6.47,0,0,1-4.72,1.86A5.59,5.59,0,0,1,194.5,220.16Z"/><path class="cls-2" d="M211,220.16v0c0-2.92,2.44-5.49,6-5.49s6,2.54,6,5.46c0,0,0,0,0,0,0,2.93-2.44,5.49-6,5.49S211,223.09,211,220.16Zm10.64,0v0a4.44,4.44,0,0,0-4.64-4.38,4.4,4.4,0,0,0-4.62,4.35v0a4.46,4.46,0,0,0,4.65,4.39A4.39,4.39,0,0,0,221.6,220.16Z"/><rect class="cls-2" x="194.28" y="229.67" width="28.94" height="1.61"/></g></g></svg>