<svg xmlns="http://www.w3.org/2000/svg" viewBox="0 0 1551.04 1654.46"><defs><style>.cls-1{fill:#c9b29c;}</style></defs><g id="Layer_2" data-name="Layer 2"><g id="Layer_1-2" data-name="Layer 1"><path class="cls-1" d="M1237.09,945.67a14.32,14.32,0,0,1,.11,3c-.61,2.8-1.32,5.57-2,8.34-2,7.62-8,12.44-15.91,12.38a4.84,4.84,0,0,0-4.23,2.14,77.85,77.85,0,0,0-13,25.19,6.5,6.5,0,0,0,0,3.42q8.6,31.83,17.32,63.64c.33,1.22.84,2.4,1.54,4.39,1.47-4.63,2.54-8.57,4-12.36s3.35-7.61,5.18-11.71c-.35-.64-.8-1.55-1.33-2.42-8.07-13.31-10.12-27.68-7.52-42.85.48-2.82,1.09-5.62,1.78-8.4.15-.62.88-1.52,1.37-1.53s1.27.73,1.62,1.33a13.92,13.92,0,0,1,1.17,2.88c4.42,13.33,6.93,27,6.28,41.06,0,.91,0,1.82,0,2.73,0,.18.28.35.63.74.53-.75,1.08-1.41,1.5-2.15,7.19-12.59,12-26,13-40.54.11-1.61.16-3-1-4.39a5,5,0,0,1-.9-2.53,24.18,24.18,0,0,1,4.06-17.07c2.07-3,4.34-2.7,5.64.73,2.24,5.9,1.65,11.78-.77,17.48a6,6,0,0,1-2.68,2.6c-1,.54-1.7,1-1.87,2.2-1,6.67-2,13.32-3,20.49,1.67-1.67,3.09-3.15,4.57-4.56,6.13-5.79,12.87-10.56,21.14-12.81a13.92,13.92,0,0,1,2.26-.59c1.42-.15,2.4.73,2,2.11a19.69,19.69,0,0,1-2.67,6,38.14,38.14,0,0,1-12,11c-5.25,2.92-10.54,5.73-16.73,6a2.4,2.4,0,0,0-2.3,1.75c-3.41,8.64-8.49,16.39-13.08,24.4a73.36,73.36,0,0,0-6.39,15.9,29.83,29.83,0,0,0,.36,18.43c4.61,13.55,9.35,27,14.08,40.56,1.46,4.17,3,8.33,4.56,12.45,3.59,9.21,7.26,18.38,10.88,27.57.67,1.69,1.25,3.42,1.86,5.13,4.28,12,10.4,23.26,15.78,34.8,10,21.37,21.4,42,33.27,62.32,3.14,5.39,6.38,10.73,9.58,16.1.13.22.3.42.43.65.43.78,1.22,1.74,0,2.29-.43.2-1.61-.55-2.07-1.15a42.93,42.93,0,0,1-3.23-4.88c-7.28-12.77-14.58-25.54-21.79-38.36-10.85-19.3-20.14-39.38-29.58-59.38-2-4.23-3.48-8.69-5.27-13-9.85-23.94-18.78-48.23-27.11-72.74s-15.73-49.59-21.9-74.89c-2.86-11.76-6.33-23.37-9-35.17-3.12-14-5.65-28.06-8.4-42.1a8.63,8.63,0,0,0-2.52-5c-2.23-2.13-2.88-5.23-2.85-8.28a3.82,3.82,0,0,0-2.38-4c-6.15-3.08-10.29-8.07-13.75-14-3.08-5.25-3.45-11-4-16.66-.56-5.33.93-10.3,3.55-15,2.93-5.21,5.92-10.4,8.68-15.7s5.42-10.95,8.1-16.44c.23-.46.43-1,.65-1.42,1.6-3.53,1.83-3.64,5.53-2.63,4.59-3.55,5-3.55,8.75,1a91.37,91.37,0,0,1,14.9,25.92c1.73,4.48,3.23,9.06,4.64,13.66a36.07,36.07,0,0,1,1,15.84c-.09.64-.4,1.58-.1,1.87,2,1.95.33,3.57-.34,5.26s-1.42,3.08-2,4.67c-2.82,7.87-8.53,12.54-16.34,14.91-1.24.38-2.49.72-4,1.13-.3,1-.66,2.12-.92,3.24a12,12,0,0,1-3.37,6.48,3.56,3.56,0,0,0-1.08,3.82c2.37,12,4.63,24,7,36,1,5.22,2.31,10.39,3.68,16.52.88-1.85,1.38-2.84,1.82-3.85,3.16-7.31,6.67-14.4,11.87-20.54a7.56,7.56,0,0,0,1.46-3.85c.84-6.76,4.2-11.68,10.32-14.6C1229.24,948.92,1233,947.46,1237.09,945.67Zm-44.18-102.53a5.17,5.17,0,0,0-3.59,3.67c-2,5.3-2.64,10.5,0,15.87a15,15,0,0,1,.61,11.42q-1.25,3.9-2.69,7.73c-3.38,8.9-3.32,17.92-1,27.82,2.1-5.2,3.49-9.74,2.9-14.67a15.56,15.56,0,0,1-.29-3.1c.06-.64.65-1.22,1-1.83.57.42,1.4.72,1.68,1.29.92,1.86,1.48,3.91,2.46,5.72a29.17,29.17,0,0,1,3.67,17.29c0,.17.24.37.54.79a33,33,0,0,1,3.93-3.59,93.91,93.91,0,0,1,8.41-4.89,7.62,7.62,0,0,0,4.3-5.6,30.87,30.87,0,0,0,.33-12.4,99.67,99.67,0,0,0-8.78-25.34c-2.12-4.31-4.75-8.37-7.06-12.59C1197.67,847.7,1195,845.68,1192.91,843.14Zm-9,71.2c-.26-2.5-.43-4.92-.78-7.32a59,59,0,0,1-.69-15.54,48.9,48.9,0,0,1,3.73-13.48c2.34-5.53,3-11,.16-16.58a14.18,14.18,0,0,1-.78-9.92c.37-1.51.89-3,1.2-4.52.09-.47-.27-1-.63-2.23-.82,1.5-1.32,2.35-1.75,3.24-2.76,5.59-5.4,11.25-8.29,16.78s-6,10.94-9,16.39c-3.78,6.82-3.63,13.92-1.66,21.2a8.22,8.22,0,0,0,5.21,5.83C1174.92,910,1179.08,912.08,1183.93,914.34Zm44.65,121-.21-1.41c-.75-5.26-1.52-10.52-2.25-15.78-.14-1-.24-2.1,1.4-2.39,1.62,2.45,1,5.27,1.54,7.86s.94,5,1.41,7.46c1-12.14-2.58-32-6-35.81A56.77,56.77,0,0,0,1228.58,1035.31ZM1192,898.94c-2.34,9.13-6.08,17.25-4,26.53,3.42-.87,4.46-3.72,5.55-6.44C1196.25,912.4,1196,905.93,1192,898.94Zm26.25,65c3.29-1.9,4.8-5.81,8.36-7.17.28.41.59.67.54.82-1.19,3.86-5.39,5.37-7.08,8.93,7.57.81,14.07-6.95,13.59-16.48C1223.07,953.54,1219.17,957,1218.26,964Zm-23.76-39.63c9.17-.41,17.5-7.27,18.79-16.16C1204.86,911,1199,916.8,1194.5,924.34Zm57.89,92.65c9.54-1.61,21-11,22.41-17.38-6.34.91-17,7.37-19.84,12.12l1.38-1c2.86-2,5.72-4.06,8.61-6.06.87-.61,1.82-1.14,2.7.57-2.15,2.38-5.06,3.88-7.6,5.81S1254.94,1015,1252.39,1017Zm-84-107.4c3.22,7.63,10.29,13.68,16.41,14.42.14-4.31-2.2-7.17-5.51-9.14S1172.57,911.57,1168.41,909.59Zm84.87,61.76a23.59,23.59,0,0,0-4.33,15.79,2.3,2.3,0,0,0,2.19,2.29c1.42.21,2.14-.64,2.6-1.81a23,23,0,0,0,1.54-9.88A10.27,10.27,0,0,0,1253.28,971.35Zm-68.49-44c-.91,2.31,0,4.48,1,6.57,1,2.33,2.72,2.54,4,.4a47.4,47.4,0,0,0,2.59-6.27Z"/><path class="cls-1" d="M495,596.3a13.64,13.64,0,0,1,.11,3c-.6,2.8-1.32,5.57-2,8.34-2,7.62-8,12.44-15.9,12.38a4.85,4.85,0,0,0-4.24,2.14,77.83,77.83,0,0,0-13,25.19,6.5,6.5,0,0,0-.05,3.42q8.6,31.83,17.32,63.64c.34,1.22.84,2.4,1.54,4.39,1.48-4.62,2.54-8.56,4-12.36s3.35-7.61,5.18-11.71c-.34-.63-.8-1.55-1.33-2.42-8.07-13.31-10.11-27.68-7.52-42.85.49-2.82,1.09-5.62,1.78-8.4.16-.62.89-1.51,1.38-1.53s1.26.74,1.62,1.33a15.12,15.12,0,0,1,1.17,2.88c4.41,13.33,6.92,27,6.27,41.07a24.72,24.72,0,0,0,0,2.72c0,.18.28.35.62.74.53-.75,1.08-1.41,1.5-2.14,7.19-12.6,12-26,13-40.55.11-1.61.16-3-1-4.38a5,5,0,0,1-.91-2.54,24.24,24.24,0,0,1,4.07-17.07c2.07-3,4.34-2.7,5.64.73,2.24,5.9,1.64,11.78-.77,17.48a6,6,0,0,1-2.69,2.6c-1,.54-1.7,1-1.87,2.21-1,6.66-2,13.31-3,20.48,1.67-1.67,3.08-3.15,4.57-4.56,6.12-5.79,12.87-10.56,21.14-12.81a14.08,14.08,0,0,1,2.25-.59c1.42-.15,2.4.73,2,2.11a19.93,19.93,0,0,1-2.67,6,38.07,38.07,0,0,1-12,11c-5.24,2.93-10.54,5.73-16.73,6a2.4,2.4,0,0,0-2.3,1.75c-3.4,8.64-8.48,16.39-13.07,24.4a72.85,72.85,0,0,0-6.39,15.9,29.75,29.75,0,0,0,.36,18.43c4.6,13.55,9.35,27,14.07,40.56,1.46,4.17,3,8.33,4.57,12.45,3.59,9.21,7.26,18.38,10.88,27.58.66,1.69,1.24,3.41,1.85,5.12,4.28,12,10.41,23.26,15.79,34.8,10,21.37,21.4,42,33.26,62.32,3.14,5.39,6.39,10.73,9.59,16.1.13.22.3.42.42.65.43.78,1.22,1.74.06,2.29-.44.2-1.61-.55-2.08-1.15a41.55,41.55,0,0,1-3.22-4.88c-7.29-12.77-14.59-25.54-21.79-38.36-10.85-19.3-20.14-39.38-29.59-59.38-2-4.23-3.48-8.69-5.26-13-9.86-23.94-18.79-48.23-27.11-72.73s-15.74-49.6-21.9-74.9c-2.87-11.76-6.33-23.37-9-35.17-3.12-14-5.64-28.06-8.4-42.1a8.66,8.66,0,0,0-2.52-5c-2.22-2.13-2.87-5.22-2.84-8.28a3.83,3.83,0,0,0-2.39-4c-6.14-3.08-10.29-8.07-13.74-14-3.08-5.25-3.45-11-4.05-16.66-.56-5.33.93-10.3,3.56-15,2.93-5.21,5.91-10.39,8.68-15.69s5.41-11,8.1-16.44c.23-.47.42-.95.64-1.43,1.61-3.53,1.83-3.64,5.54-2.63,4.59-3.55,4.94-3.55,8.75,1a91.71,91.71,0,0,1,14.89,25.92c1.74,4.48,3.24,9.06,4.64,13.66a36.27,36.27,0,0,1,1,15.85c-.09.63-.4,1.57-.11,1.86,2,1.95.34,3.57-.34,5.26s-1.41,3.08-2,4.67c-2.82,7.87-8.53,12.54-16.35,14.91-1.24.38-2.49.72-3.95,1.13-.29,1-.65,2.13-.91,3.24a12.11,12.11,0,0,1-3.37,6.48,3.58,3.58,0,0,0-1.09,3.82c2.38,12,4.64,24,7,36,1,5.22,2.3,10.39,3.68,16.52.87-1.85,1.37-2.83,1.81-3.85,3.16-7.31,6.67-14.4,11.88-20.54a7.7,7.7,0,0,0,1.46-3.85c.83-6.75,4.19-11.68,10.32-14.6C487.1,599.55,490.82,598.09,495,596.3ZM450.78,493.77a5.2,5.2,0,0,0-3.6,3.67c-2,5.3-2.64,10.5,0,15.87a14.91,14.91,0,0,1,.61,11.42c-.83,2.6-1.72,5.18-2.69,7.73-3.37,8.91-3.31,17.92-1,27.82,2.1-5.2,3.48-9.73,2.9-14.67a14.86,14.86,0,0,1-.29-3.1c.06-.64.65-1.22,1-1.83.58.42,1.4.72,1.68,1.29.92,1.86,1.48,3.91,2.47,5.72A29.17,29.17,0,0,1,455.51,565c0,.17.25.37.55.79a32.27,32.27,0,0,1,3.93-3.59,93.74,93.74,0,0,1,8.4-4.89,7.66,7.66,0,0,0,4.31-5.59,31.11,31.11,0,0,0,.32-12.41A99.42,99.42,0,0,0,464.24,514c-2.12-4.31-4.74-8.37-7.05-12.59C455.53,498.33,452.82,496.31,450.78,493.77Zm-9,71.2c-.26-2.5-.44-4.92-.79-7.32a59,59,0,0,1-.68-15.54,48.88,48.88,0,0,1,3.72-13.48c2.34-5.52,3-11,.17-16.58a14.08,14.08,0,0,1-.78-9.92c.37-1.51.88-3,1.19-4.52.1-.47-.27-1-.62-2.23-.82,1.5-1.32,2.35-1.76,3.24-2.76,5.59-5.4,11.25-8.28,16.78s-6,10.94-9,16.39c-3.79,6.82-3.64,13.92-1.67,21.2a8.24,8.24,0,0,0,5.21,5.83C432.78,560.61,437,562.71,441.8,565Zm44.64,121c-.07-.47-.14-.94-.2-1.41-.76-5.26-1.53-10.52-2.26-15.78-.14-1-.24-2.09,1.41-2.39,1.62,2.45,1,5.28,1.53,7.86s.95,5,1.42,7.46c1-12.14-2.59-32-6.06-35.81A56.77,56.77,0,0,0,486.44,685.94ZM449.88,549.57c-2.34,9.13-6.08,17.25-4,26.53,3.42-.87,4.46-3.72,5.54-6.43C454.12,563,453.89,556.56,449.88,549.57Zm26.24,65c3.3-1.91,4.8-5.82,8.37-7.17.28.41.58.67.54.82-1.19,3.85-5.39,5.36-7.08,8.92,7.56.82,14.07-6.95,13.59-16.48C480.93,604.17,477,607.64,476.12,614.61ZM452.36,575c9.17-.41,17.51-7.27,18.8-16.16C462.73,561.65,456.89,567.43,452.36,575Zm57.89,92.65c9.54-1.6,21-10.94,22.41-17.38-6.34.91-17,7.38-19.83,12.12l1.37-1c2.87-2,5.72-4.06,8.61-6.06.87-.61,1.83-1.14,2.7.58-2.15,2.37-5,3.87-7.59,5.81S512.81,665.65,510.25,667.62Zm-84-107.4c3.22,7.63,10.29,13.68,16.4,14.42.14-4.31-2.19-7.17-5.51-9.13S430.44,562.21,426.28,560.22ZM511.14,622a23.58,23.58,0,0,0-4.32,15.79,2.32,2.32,0,0,0,2.18,2.3c1.42.2,2.15-.65,2.61-1.82a23,23,0,0,0,1.54-9.88A10.35,10.35,0,0,0,511.14,622Zm-68.48-44c-.91,2.31,0,4.48,1,6.57,1,2.33,2.72,2.54,4,.4a48.18,48.18,0,0,0,2.6-6.27Z"/><path class="cls-1" d="M955.45,1596c-.62-.07-1.37-1.67-1.48-2.64a57.84,57.84,0,0,1-.16-7.45c.81-18.71,1.61-37.4,2.55-56.1,1.4-28.16,5-56.1,8.38-84,.72-5.92,2.14-11.73,3.17-17.6,5.61-32.48,12.45-64.7,20.11-96.75,7.69-32.22,16.67-64.11,27.17-95.54,4.9-14.59,9-29.47,14.2-44,6.11-17.17,12.95-34.07,19.5-51a11.23,11.23,0,0,0,.69-7.13c-1-3.81.44-7.58,2.54-10.84a4.86,4.86,0,0,0,.1-5.88c-4.51-7.49-5.61-15.67-5.33-24.36.24-7.73,3.71-14.14,6.92-20.69,3-6.12,8-10.46,14-13.7,6.68-3.62,13.41-7.19,20-11s13.27-8.12,19.88-12.21c.56-.34,1.1-.73,1.65-1.1,4.13-2.71,4.45-2.68,7.76.93,7.34-.72,7.72-.48,8.74,7a116.68,116.68,0,0,1-1.53,38c-1.17,6-2.66,12-4.27,17.87a46.09,46.09,0,0,1-9.65,17.75c-.54.62-1.51,1.42-1.39,1.94.83,3.46-2,4.07-3.92,5.44s-3.61,2.36-5.31,3.69c-8.38,6.55-17.7,7.71-27.73,5-1.59-.44-3.17-.92-5-1.44-1,.9-2.13,1.83-3.16,2.85-2.3,2.25-4.84,4.15-8,4.71-2.11.36-3,1.51-3.75,3.37-5.58,14.53-11.3,29-16.86,43.54-2.42,6.34-4.56,12.77-7.22,20.31,2.18-1.4,3.39-2.13,4.56-2.93,8.35-5.72,17-11,26.72-14.06a10,10,0,0,0,4.18-3.17c5.47-6.72,12.45-9.75,21-8.74,5,.6,10,1.52,15.7,2.41a17.33,17.33,0,0,1-1.88,3.25c-2.54,2.61-5.19,5.11-7.84,7.6-7.28,6.9-17.05,8-25.53,2.57a6.15,6.15,0,0,0-6-.56,99,99,0,0,0-31,18.34,8.13,8.13,0,0,0-2.37,3.65q-12.33,40.13-24.49,80.31c-.46,1.55-.74,3.16-1.33,5.77,4.73-4,8.55-7.49,12.7-10.61s8.75-5.93,13.51-9.1c.06-.91.19-2.2.21-3.52.33-19.79,7.87-36.66,20.94-51.25q3.67-4.08,7.63-7.83c.58-.59,2-1.06,2.52-.74s.86,1.67.85,2.54a20.36,20.36,0,0,1-.7,3.9c-4.28,17.35-10.82,33.73-21.09,48.49a33.22,33.22,0,0,0-1.82,3c-.1.2.07.55.19,1.22,1.07-.46,2.12-.8,3.07-1.3,16.28-8.71,30.51-19.85,41.47-34.89,1.21-1.66,2.23-3.15,1.91-5.38a6.47,6.47,0,0,1,.76-3.34,30.8,30.8,0,0,1,15.93-15.63c4.28-1.86,6.52,0,5.6,4.6-1.58,7.89-6.22,13.81-12.67,18.32a7.65,7.65,0,0,1-4.66,1c-1.47-.12-2.55,0-3.51,1.1-5.58,6.53-11.16,13-17.17,20,2.94-.67,5.47-1.3,8-1.81,10.53-2.09,21-2.65,31.47.54a17.85,17.85,0,0,1,2.83.87c1.63.84,2.1,2.43.7,3.63a25.63,25.63,0,0,1-6.94,4.64,48.8,48.8,0,0,1-20.4,3.64c-7.63-.4-15.23-1-22.1-4.88a3.09,3.09,0,0,0-3.65.32c-9.54,7-20.26,11.93-30.64,17.45a92.59,92.59,0,0,0-17.67,12.79,38.13,38.13,0,0,0-12.11,20.09c-4.22,17.72-8.26,35.5-12.32,53.23-1.26,5.5-2.47,11-3.53,16.54-2.38,12.33-4.64,24.72-7,37.07-.43,2.28-1,4.51-1.48,6.79-3.54,15.86-4.55,32.09-6.58,48.19-3.75,29.77-5.38,59.71-6.43,89.68-.26,8-.39,15.91-.58,23.84,0,.34,0,.67,0,1C956.88,1594.63,957.07,1596.19,955.45,1596Z"/><path class="cls-1" d="M1177.14,0c.61.07,1.37,1.67,1.47,2.64a57.72,57.72,0,0,1,.16,7.44c-.81,18.71-1.6,37.4-2.55,56.1-1.39,28.16-5,56.1-8.38,84-.71,5.91-2.14,11.72-3.17,17.59-5.6,32.48-12.44,64.7-20.1,96.75-7.7,32.23-16.67,64.11-27.18,95.54-4.9,14.59-9,29.48-14.2,44-6.1,17.16-12.94,34.06-19.49,51a11.17,11.17,0,0,0-.7,7.13c1,3.81-.43,7.58-2.53,10.84a4.85,4.85,0,0,0-.11,5.88c4.52,7.49,5.61,15.67,5.33,24.36-.24,7.73-3.71,14.14-6.92,20.69-3,6.13-8,10.46-14,13.7-6.69,3.62-13.42,7.2-20,11s-13.27,8.12-19.88,12.21c-.55.34-1.1.73-1.64,1.1-4.13,2.71-4.46,2.68-7.77-.92-7.33.72-7.72.47-8.73-7a116.33,116.33,0,0,1,1.52-38c1.17-6,2.66-12,4.27-17.88a46,46,0,0,1,9.66-17.75c.53-.61,1.5-1.42,1.39-1.94-.84-3.46,2.05-4.07,3.91-5.44s3.61-2.35,5.31-3.69c8.38-6.54,17.7-7.7,27.73-5,1.59.44,3.17.92,5,1.45,1-.91,2.13-1.84,3.17-2.86,2.29-2.25,4.84-4.15,8-4.71,2.11-.36,3-1.51,3.76-3.36,5.57-14.54,11.29-29,16.85-43.55,2.42-6.33,4.56-12.77,7.22-20.3-2.17,1.39-3.39,2.12-4.56,2.93-8.35,5.71-17,11-26.72,14.05a9.93,9.93,0,0,0-4.17,3.18c-5.48,6.71-12.45,9.74-21,8.73-5-.6-10-1.52-15.7-2.41a17.67,17.67,0,0,1,1.88-3.25c2.55-2.61,5.19-5.1,7.84-7.6,7.28-6.9,17-8,25.53-2.56a6.17,6.17,0,0,0,6,.55,99,99,0,0,0,31-18.34,8.13,8.13,0,0,0,2.37-3.65q12.33-40.12,24.5-80.31c.45-1.55.73-3.16,1.33-5.77-4.73,4-8.56,7.49-12.7,10.61s-8.75,5.93-13.52,9.1c-.06.92-.19,2.21-.2,3.52-.34,19.79-7.87,36.66-21,51.25q-3.67,4.08-7.62,7.84c-.59.58-2,1.05-2.52.74s-.86-1.67-.85-2.55a19.59,19.59,0,0,1,.69-3.9c4.28-17.35,10.82-33.73,21.09-48.49a31,31,0,0,0,1.82-3c.1-.2-.07-.55-.19-1.21-1.07.45-2.11.79-3.07,1.29-16.27,8.71-30.51,19.85-41.46,34.89-1.22,1.66-2.23,3.15-1.92,5.38a6.35,6.35,0,0,1-.76,3.34,30.73,30.73,0,0,1-15.93,15.63c-4.28,1.86-6.52,0-5.6-4.6,1.59-7.89,6.22-13.81,12.68-18.31a7.57,7.57,0,0,1,4.66-1c1.47.12,2.54,0,3.5-1.1,5.58-6.52,11.16-13,17.18-20-3,.67-5.48,1.3-8,1.81-10.52,2.09-21,2.65-31.47-.54a17.74,17.74,0,0,1-2.82-.87c-1.64-.83-2.1-2.42-.71-3.63a26,26,0,0,1,6.94-4.64,49,49,0,0,1,20.4-3.64c7.64.4,15.23,1,22.1,4.88a3.09,3.09,0,0,0,3.66-.32c9.53-7,20.26-11.93,30.63-17.44a93.46,93.46,0,0,0,17.68-12.8,38,38,0,0,0,12.1-20.09c4.22-17.72,8.26-35.49,12.33-53.23,1.25-5.5,2.47-11,3.52-16.53,2.38-12.34,4.64-24.72,7-37.08.43-2.28,1-4.51,1.48-6.78,3.54-15.87,4.56-32.1,6.59-48.2,3.74-29.76,5.38-59.7,6.42-89.68.26-8,.39-15.91.58-23.84,0-.33,0-.67,0-1C1175.71,1.39,1175.52-.17,1177.14,0Z"/><path class="cls-1" d="M267.44,1654.44c-.62-.07-1.38-1.67-1.48-2.64a57.72,57.72,0,0,1-.16-7.44c.81-18.71,1.61-37.4,2.55-56.1,1.4-28.16,5-56.1,8.38-84,.72-5.91,2.14-11.72,3.17-17.59,5.61-32.48,12.45-64.71,20.1-96.75,7.7-32.23,16.68-64.11,27.18-95.54,4.9-14.59,9-29.48,14.2-44,6.11-17.16,12.95-34.06,19.5-51a11.24,11.24,0,0,0,.69-7.13c-1-3.81.44-7.58,2.54-10.84a4.86,4.86,0,0,0,.1-5.88c-4.51-7.49-5.61-15.67-5.33-24.36.24-7.74,3.71-14.14,6.92-20.69,3-6.13,8-10.46,14-13.7,6.68-3.62,13.41-7.2,20-11s13.27-8.12,19.88-12.21c.56-.34,1.1-.73,1.65-1.1,4.13-2.71,4.45-2.68,7.76.92,7.34-.72,7.72-.47,8.74,7a116.62,116.62,0,0,1-1.53,38c-1.17,6-2.66,12-4.27,17.88a46.17,46.17,0,0,1-9.65,17.75c-.54.61-1.51,1.42-1.39,1.93.83,3.47-2.05,4.08-3.92,5.45s-3.61,2.35-5.31,3.68c-8.38,6.55-17.7,7.71-27.73,5-1.59-.44-3.17-.92-5-1.45-1,.91-2.13,1.84-3.16,2.86-2.3,2.25-4.84,4.15-8,4.71-2.11.36-3.05,1.5-3.75,3.36-5.58,14.54-11.3,29-16.86,43.55-2.42,6.33-4.56,12.77-7.22,20.3,2.18-1.39,3.39-2.12,4.56-2.93,8.35-5.71,17-11,26.72-14.05a10,10,0,0,0,4.18-3.18c5.47-6.71,12.45-9.74,21-8.73,5,.6,10,1.52,15.7,2.41a17.67,17.67,0,0,1-1.88,3.25c-2.54,2.61-5.19,5.1-7.84,7.6-7.28,6.9-17.05,8-25.53,2.56a6.17,6.17,0,0,0-6-.55,98.78,98.78,0,0,0-31,18.34,8.13,8.13,0,0,0-2.37,3.65Q325.13,1311.83,313,1352c-.46,1.55-.74,3.16-1.33,5.77,4.73-4,8.55-7.49,12.7-10.61s8.75-5.93,13.51-9.1c.06-.92.19-2.21.21-3.52.33-19.79,7.87-36.66,20.94-51.25q3.67-4.08,7.63-7.84a2.87,2.87,0,0,1,2.52-.74c.59.35.86,1.67.85,2.55a20.12,20.12,0,0,1-.7,3.89c-4.28,17.36-10.82,33.73-21.09,48.5a34.54,34.54,0,0,0-1.82,3c-.1.21.07.56.19,1.22,1.07-.45,2.12-.79,3.07-1.29,16.27-8.71,30.51-19.85,41.47-34.89,1.21-1.66,2.23-3.15,1.91-5.38a6.44,6.44,0,0,1,.76-3.34,30.76,30.76,0,0,1,15.93-15.63c4.28-1.86,6.52,0,5.6,4.6-1.58,7.89-6.22,13.81-12.67,18.31a7.59,7.59,0,0,1-4.66,1c-1.47-.12-2.55,0-3.51,1.1-5.58,6.52-11.16,13-17.17,20,2.94-.67,5.47-1.3,8-1.81,10.53-2.09,21-2.65,31.47.54a17.85,17.85,0,0,1,2.83.87c1.63.83,2.1,2.42.7,3.63a25.86,25.86,0,0,1-6.94,4.64,49,49,0,0,1-20.4,3.64c-7.63-.4-15.23-1-22.1-4.88a3.08,3.08,0,0,0-3.65.32c-9.54,7-20.26,11.93-30.64,17.44a93.07,93.07,0,0,0-17.67,12.8,38.13,38.13,0,0,0-12.11,20.09c-4.22,17.71-8.26,35.49-12.32,53.23-1.26,5.5-2.47,11-3.53,16.53-2.38,12.34-4.64,24.72-7,37.08-.43,2.28-1,4.51-1.48,6.78-3.54,15.87-4.55,32.1-6.58,48.2-3.75,29.76-5.39,59.7-6.43,89.68-.26,8-.39,15.91-.58,23.84,0,.33,0,.66,0,1C268.87,1653.07,269.06,1654.63,267.44,1654.44Z"/><path class="cls-1" d="M753.87,1197.18l2.88,1.76c3.29,2,6.63,4,9.88,6.15a61.45,61.45,0,0,0,20.61,9.17c1.41.31,3.32.13,3.64,2.22.2,1.26-1.28,2-4.14,2.08q-11.36.24-22.71.36a49.74,49.74,0,0,1-16-2.44,31,31,0,0,1-10.1-5.61c-4.22-3.44-7.1-7.64-7.94-13.12-.12-.74-.36-1.47-.61-2.47a15.58,15.58,0,0,0-2.16,1.17,172.34,172.34,0,0,0-37.67,39.37c-6,8.59-11.61,17.43-17.33,26.21-1.14,1.75-2.52,3.44-2.81,5.87.91.65,1.8,1.37,2.77,2,7.65,4.6,15.28,9.22,23,13.73a197.94,197.94,0,0,1,37.79,29c4.32,4.19,8.8,8.2,13.2,12.3a17.94,17.94,0,0,1,2,2.07,2.19,2.19,0,0,1-1.3,3.24,10.41,10.41,0,0,1-2.29.29c-18.49.27-35.25-4.65-49.69-16.56a90.2,90.2,0,0,1-21-25.41c-2.67-4.7-5-9.6-7.66-14.68-2.26,2.18-3.37,4.89-4.77,7.35-6.41,11.3-12.4,22.85-19.1,34-14.88,24.66-34.35,44.92-59.06,60a13.3,13.3,0,0,1-3.14,1.44c-.38.11-1.15-.37-1.4-.79a1.73,1.73,0,0,1,0-1.58,13.77,13.77,0,0,1,2.61-2.26c3.69-2.5,7.54-4.78,11.12-7.45a174.48,174.48,0,0,0,36.25-35.9c8.14-11,14.73-22.8,21.48-34.57,3.67-6.39,7.15-12.89,10.67-19.36,1.29-2.37,2.45-4.81,3.5-6.87-1-2.14-1.9-3.83-2.73-5.53-.5-1-.9-2.15-1.46-3.17-6.1-11.07-10.36-23-15.26-34.56a161.39,161.39,0,0,1-10.23-33.9,95.18,95.18,0,0,1,1.19-41c4.81-19,11.26-37.49,17.49-56,1.29-3.86,2.64-7.7,4-11.53.52-1.47,1.17-3.08,3-3.19s2.64,1.39,3.26,2.85c5.92,13.91,12.2,27.73,15.36,42.6a95.35,95.35,0,0,1,1.26,33.56c-2.21,15.35-4.71,30.65-7,46-1,7.1-1.85,14.23-2.71,21.35-.56,4.62-1.08,9.24-1.49,13.88-.61,6.75-1.11,13.52-1.63,20.28a5.78,5.78,0,0,0,.44,1.52,14.13,14.13,0,0,0,1.6-1.64c1.27-2,2.54-3.91,3.7-5.93a222.81,222.81,0,0,1,16.78-24.42c8.75-11.43,18.16-22.25,29.68-31.05q6.46-4.95,12.69-10.21a14.2,14.2,0,0,0,3.2-4c14.26-26.16,35.74-44,63.23-54.91,11.39-4.51,23.3-7.36,35.16-10.29,20.94-5.19,41.43-11.69,61.09-20.66,3.89-1.77,7.83-3.4,11.77-5,13.1-5.45,25.92-11.42,37.88-19.12a28.32,28.32,0,0,1,4.59-2.49,2.33,2.33,0,0,1,2,.64,2.29,2.29,0,0,1,.48,2,18.45,18.45,0,0,1-2.28,3.34c-8.37,10.69-16.82,21.32-25.13,32.06-13.8,17.87-28.8,34.62-46.14,49.12A214.88,214.88,0,0,1,848,1179.17c-15.83,9.18-33.06,14.24-51,17.3-3.44.59-6.91,1-10.36,1.51-9.14,1.41-18.19.61-27.23-.91-1.69-.29-3.4-.54-5.1-.81Zm-9.48-8.32c.64.55.89.92,1.22,1,11,3.2,22.25,5.47,33.82,5,7.57-.33,15-1.73,22.46-3.12a144.87,144.87,0,0,0,52.16-20.56,239.17,239.17,0,0,0,50-43.35c12.23-13.8,23.2-28.63,34.43-43.24.65-.84,1.15-1.81,2.41-3.81-2,.87-2.8,1.2-3.59,1.59-6.43,3.18-12.78,6.52-19.3,9.52-7.75,3.56-15.66,6.78-23.47,10.23a337.31,337.31,0,0,1-51.07,17.67c-12.56,3.31-25.19,6.47-37.55,10.43-26.65,8.53-47.54,24.89-63.16,48a48.94,48.94,0,0,0-3.08,5.59c-.38.75-1.21,1.59-.12,2.59,9.9-4,19.29-9,28.89-13.65s19.18-9.39,29-13.44c21.7-8.93,43.56-17.46,65.36-26.16,2.52-1,5-2.11,7.56-3a2.08,2.08,0,0,1,1.9.75,2.12,2.12,0,0,1-.37,2,36.14,36.14,0,0,1-5.63,2.91c-16.75,6.67-33.46,13.46-50.32,19.87C791.42,1165.07,768.16,1177.07,744.39,1188.86Zm-84-104.39c-1.76,5.17-3.22,9.37-4.64,13.59-5.68,16.89-11.4,33.76-15.93,51-4.13,15.79-3.79,31.39-.15,47.16,4,17.49,11.64,33.65,18.35,50.15.22.53.8.92,1.76,2-.18-2.43-.21-4-.41-5.49a487.48,487.48,0,0,1-4.4-53.29c-.11-4.27-.49-8.52-.63-12.78-.18-5.43-.28-10.86-.34-16.29a9.7,9.7,0,0,1,.45-3.41c.19-.51,1.15-.89,1.81-1,.34-.05,1.05.62,1.13,1.06a24.66,24.66,0,0,1,.38,4c.52,21.71,1.23,43.41,3.39,65,.68,6.72,1.62,13.41,2.44,20.11,1.4-7.1,2.24-14.2,3.11-21.3.92-7.5,1.76-15,2.85-22.49,2.28-15.53,4.94-31,7-46.56a88.42,88.42,0,0,0-4-40.75c-3.16-9.14-6.87-18.11-10.35-27.14C661.87,1087.26,661.38,1086.43,660.42,1084.47Zm13.63,194.39c1.51,8.55,15.59,27.07,26.9,35,12,8.42,25.2,12.21,40.57,12.79-1.17-1.39-1.68-2.14-2.34-2.76q-8.88-8.39-17.81-16.72c-9.56-8.94-20.5-15.91-31.8-22.38a11,11,0,0,0-2.25-.72,21.1,21.1,0,0,0,4.6,4.68c6.48,5.26,13,10.48,19.42,15.78a27.46,27.46,0,0,1,3.58,3.73c.23.28,0,1.18-.26,1.53s-1.14.7-1.47.53a19.28,19.28,0,0,1-3.37-2.19q-15.3-12.56-30.55-25.15C677.78,1281.79,676.26,1280.62,674.05,1278.86Zm101.06-64.07c-6.47-4.09-11.75-7.65-17.25-10.83-4.35-2.52-9-4.61-13.48-6.81a7.63,7.63,0,0,0-2.33-.34,30.4,30.4,0,0,0,7.21,5.08c1.87,1,3.84,1.83,5.73,2.81,1.22.64,2,2.36,1.33,2.75a5,5,0,0,1-2.65.53,6.53,6.53,0,0,1-2.14-.84c-5.48-2.51-10.83-5.21-15.35-9.3a11.14,11.14,0,0,0-2.13-1.12,12.21,12.21,0,0,0,4,9.17,28.31,28.31,0,0,0,13.42,7.73C758.92,1215.55,766.43,1215.28,775.11,1214.79Z"/><path class="cls-1" d="M757.39,283.38c-1.07-.37-2.13-.73-3.19-1.11-3.65-1.29-7.34-2.51-11-3.9a61.35,61.35,0,0,0-22.09-4.58c-1.44,0-3.27.57-4-1.4-.46-1.19.82-2.25,3.61-2.92,7.36-1.75,14.73-3.49,22.11-5.17a50,50,0,0,1,16.19-1,31.26,31.26,0,0,1,11.06,3.34c4.86,2.47,8.57,6,10.55,11.13.27.71.66,1.36,1.12,2.29a16.24,16.24,0,0,0,1.86-1.6A172.37,172.37,0,0,0,812.07,232c4-9.67,7.64-19.5,11.36-29.29.74-1.95,1.74-3.9,1.5-6.34-1-.43-2-1-3.12-1.32-8.45-2.87-16.89-5.76-25.37-8.53a197.88,197.88,0,0,1-43.09-20.27c-5.1-3.17-10.33-6.14-15.5-9.21a17.18,17.18,0,0,1-2.42-1.6A2.2,2.2,0,0,1,736,152a10.64,10.64,0,0,1,2.18-.76c18-4.2,35.43-2.95,52.07,5.62a90,90,0,0,1,26,20.36c3.62,4,6.95,8.31,10.6,12.72,1.76-2.61,2.27-5.5,3.11-8.2,3.86-12.4,7.25-25,11.45-37.25,9.3-27.26,24-51.19,45-71.14a13.55,13.55,0,0,1,2.76-2.07,1.76,1.76,0,0,1,1.53.48,1.69,1.69,0,0,1,.35,1.54A13.55,13.55,0,0,1,888.92,76c-3.07,3.23-6.36,6.28-9.28,9.64a174.61,174.61,0,0,0-27.8,42.79c-5.62,12.43-9.54,25.4-13.65,38.34-2.22,7-4.24,14.12-6.3,21.19-.76,2.59-1.38,5.22-2,7.46,1.48,1.86,2.67,3.33,3.83,4.82.72.91,1.34,1.91,2.1,2.78,8.32,9.53,15,20.24,22.26,30.53a161.29,161.29,0,0,1,17.2,31,95.19,95.19,0,0,1,7.54,40.27c-.66,19.6-3,39-5.18,58.48q-.67,6.08-1.48,12.12c-.2,1.55-.49,3.25-2.25,3.75s-2.87-.8-3.79-2.09c-8.74-12.34-17.81-24.5-24.06-38.36a95.62,95.62,0,0,1-8.36-32.53c-1.09-15.46-1.91-31-3-46.42-.49-7.16-1.21-14.3-1.88-21.44-.44-4.63-.92-9.26-1.5-13.88-.84-6.73-1.79-13.45-2.72-20.17,0-.35-.34-.66-.75-1.38a12.87,12.87,0,0,0-1.21,1.94c-.83,2.17-1.65,4.36-2.36,6.58a222.24,222.24,0,0,1-11.21,27.43c-6.12,13-13,25.6-22.4,36.65q-5.28,6.21-10.24,12.67a14.43,14.43,0,0,0-2.27,4.6c-8.37,28.6-25.56,50.61-50.12,67.09C718,366.67,706.93,372,696,377.36c-19.37,9.52-38,20.23-55.32,33.17-3.41,2.55-6.92,5-10.43,7.42-11.64,8.1-22.9,16.66-33,26.73a29.74,29.74,0,0,1-3.95,3.41,2.33,2.33,0,0,1-2.1-.2,2.28,2.28,0,0,1-.9-1.88,17.73,17.73,0,0,1,1.51-3.75c5.91-12.23,11.91-24.41,17.74-36.67,9.7-20.39,20.79-39.94,34.66-57.8a213.93,213.93,0,0,1,25-26.8c13.52-12.33,29.28-20.94,46.13-27.74,3.23-1.3,6.54-2.42,9.8-3.67,8.63-3.32,17.64-4.47,26.8-4.9,1.71-.08,3.43-.19,5.15-.29Zm11,6.12c-.74-.4-1.07-.71-1.41-.74-11.47-.78-22.9-.61-34.1,2.34-7.33,1.92-14.3,4.88-21.28,7.82A144.94,144.94,0,0,0,665,330.09a239.34,239.34,0,0,0-39.61,53c-9,16.08-16.6,32.91-24.47,49.57-.45,1-.73,2-1.53,4.24,1.74-1.28,2.47-1.77,3.16-2.32,5.61-4.47,11.11-9.09,16.84-13.4,6.82-5.13,13.86-9.95,20.75-15A339.53,339.53,0,0,1,686.32,378c11.57-5.9,23.24-11.67,34.47-18.16,24.23-14,41.17-34.43,51.52-60.36a50.88,50.88,0,0,0,1.82-6.13c.21-.81.84-1.81-.44-2.55-8.83,6-16.93,12.91-25.33,19.47s-16.74,13.25-25.51,19.31C703.55,343,684,355.93,664.54,369.06c-2.24,1.52-4.43,3.13-6.75,4.54a2.05,2.05,0,0,1-2-.34,2.09,2.09,0,0,1-.08-2.05,36.22,36.22,0,0,1,4.88-4c15-10.08,29.85-20.27,45-30.11C727.52,322.74,747.7,306.07,768.42,289.5Zm104.23,84.17c.63-5.43,1.16-9.85,1.65-14.27,2-17.71,4-35.41,4.72-53.24.69-16.32-3-31.49-9.87-46.12-7.67-16.23-18.52-30.41-28.59-45.11a11.11,11.11,0,0,0-2.14-1.57c.69,2.33,1.05,3.83,1.57,5.28a489.56,489.56,0,0,1,15.62,51.14c1,4.14,2.29,8.22,3.33,12.35,1.33,5.27,2.58,10.55,3.8,15.85a9.72,9.72,0,0,1,.28,3.43c-.08.53-.94,1.11-1.56,1.34-.33.12-1.16-.39-1.33-.8a24.31,24.31,0,0,1-1.23-3.85c-5.12-21.11-10.42-42.17-17.13-62.84-2.09-6.42-4.44-12.75-6.66-19.13.14,7.24.83,14.36,1.49,21.48.69,7.53,1.47,15,2,22.59,1.08,15.65,1.76,31.34,3.08,47a88.38,88.38,0,0,0,12.57,39c5,8.26,10.56,16.23,15.88,24.32C870.64,371.25,871.29,372,872.65,373.67ZM818,186.61c-3.29-8-21-23.14-33.73-28.52-13.49-5.69-27.22-6.58-42.36-3.88a36,36,0,0,0,2.87,2.19q10.46,6.32,21,12.56c11.24,6.7,23.41,11.19,35.83,15.11a11.29,11.29,0,0,0,2.35.23,21.16,21.16,0,0,0-5.5-3.6c-7.44-3.76-14.91-7.48-22.32-11.29a26.86,26.86,0,0,1-4.29-2.89c-.28-.22-.29-1.14-.07-1.55s1-.92,1.32-.83a19.42,19.42,0,0,1,3.76,1.43q17.61,9,35.19,18.08C813.76,184.54,815.5,185.36,818,186.61Zm-85.14,84.08c7.2,2.63,13.11,5,19.16,6.92,4.78,1.54,9.72,2.6,14.61,3.79a8,8,0,0,0,2.36-.17,30.69,30.69,0,0,0-8.12-3.43c-2-.59-4.15-1-6.21-1.53-1.32-.36-2.46-1.88-1.88-2.4a5,5,0,0,1,2.48-1.08,6.52,6.52,0,0,1,2.27.36c5.88,1.29,11.69,2.79,17,5.83a11,11,0,0,0,2.31.65,12.15,12.15,0,0,0-5.86-8.11,28.41,28.41,0,0,0-14.76-4.71C748.55,266.51,741.27,268.37,732.89,270.69Z"/><path class="cls-1" d="M175.39,930.05l2.87,1.76c3.3,2,6.64,4,9.88,6.15a61.58,61.58,0,0,0,20.62,9.17c1.41.31,3.32.13,3.64,2.22.19,1.25-1.28,2-4.14,2.08q-11.35.24-22.71.36a50,50,0,0,1-16-2.44,30.93,30.93,0,0,1-10.1-5.61c-4.23-3.44-7.11-7.64-7.95-13.12-.11-.74-.35-1.47-.6-2.47a16.13,16.13,0,0,0-2.16,1.16A172.59,172.59,0,0,0,111,968.69c-6,8.59-11.61,17.43-17.33,26.21-1.14,1.75-2.53,3.44-2.81,5.87.9.65,1.79,1.37,2.77,2,7.65,4.6,15.28,9.22,23,13.73a197.94,197.94,0,0,1,37.79,29c4.32,4.19,8.8,8.2,13.19,12.3a17.24,17.24,0,0,1,2,2.07,2.2,2.2,0,0,1-1.3,3.24,10.5,10.5,0,0,1-2.3.29c-18.49.27-35.24-4.65-49.68-16.56a90.17,90.17,0,0,1-21-25.41c-2.68-4.71-5-9.6-7.66-14.68-2.27,2.18-3.38,4.89-4.77,7.35-6.41,11.3-12.4,22.85-19.11,34-14.87,24.65-34.34,44.92-59,60a13.3,13.3,0,0,1-3.14,1.44c-.38.11-1.15-.37-1.4-.79a1.73,1.73,0,0,1,0-1.58,13.77,13.77,0,0,1,2.61-2.26c3.69-2.5,7.54-4.78,11.12-7.45a174.72,174.72,0,0,0,36.25-35.9c8.14-11,14.72-22.8,21.48-34.57,3.67-6.39,7.15-12.89,10.67-19.37,1.28-2.36,2.45-4.8,3.5-6.86-1.06-2.14-1.91-3.83-2.73-5.53-.5-1-.9-2.15-1.46-3.17-6.1-11.07-10.36-23-15.26-34.56a161.39,161.39,0,0,1-10.23-33.9,95.18,95.18,0,0,1,1.19-41c4.8-19,11.25-37.49,17.49-56,1.29-3.86,2.64-7.7,4-11.53.53-1.47,1.17-3.08,3-3.19s2.64,1.39,3.26,2.85c5.92,13.91,12.2,27.73,15.36,42.6a95.35,95.35,0,0,1,1.26,33.56c-2.22,15.35-4.71,30.65-7,46-1,7.1-1.86,14.23-2.72,21.35-.55,4.62-1.07,9.24-1.48,13.88-.61,6.75-1.11,13.52-1.63,20.28a6.05,6.05,0,0,0,.43,1.52,12.06,12.06,0,0,0,1.6-1.65c1.28-1.94,2.55-3.9,3.7-5.92a221.94,221.94,0,0,1,16.79-24.42c8.75-11.43,18.16-22.25,29.68-31q6.47-5,12.69-10.21a14.2,14.2,0,0,0,3.2-4c14.26-26.16,35.73-44,63.23-54.91,11.39-4.51,23.3-7.36,35.16-10.29,20.94-5.19,41.43-11.69,61.09-20.66,3.88-1.77,7.83-3.4,11.77-5,13.1-5.45,25.92-11.42,37.88-19.12a28.32,28.32,0,0,1,4.59-2.49,2.33,2.33,0,0,1,2,.64,2.29,2.29,0,0,1,.48,2,19,19,0,0,1-2.28,3.34c-8.37,10.69-16.82,21.32-25.13,32.06-13.8,17.87-28.8,34.61-46.14,49.12A214.88,214.88,0,0,1,269.54,912c-15.83,9.18-33.06,14.24-51,17.3-3.43.59-6.91,1-10.36,1.51-9.13,1.41-18.18.61-27.22-.91-1.7-.29-3.4-.54-5.1-.81Zm-9.48-8.32c.64.54.89.92,1.22,1,11,3.2,22.25,5.47,33.82,5,7.57-.33,15-1.74,22.46-3.12A145.12,145.12,0,0,0,275.57,904a238.86,238.86,0,0,0,50-43.35c12.24-13.8,23.21-28.63,34.44-43.24.65-.84,1.15-1.81,2.4-3.81-2,.87-2.79,1.2-3.58,1.59-6.43,3.18-12.79,6.52-19.3,9.52-7.75,3.56-15.66,6.78-23.47,10.23A337.31,337.31,0,0,1,265,852.65c-12.56,3.31-25.19,6.47-37.55,10.43-26.65,8.53-47.54,24.89-63.16,48a49.71,49.71,0,0,0-3.09,5.59c-.37.75-1.2,1.59-.11,2.59,9.9-3.95,19.29-9,28.89-13.65s19.18-9.39,29-13.44c21.69-8.94,43.56-17.46,65.36-26.16,2.51-1,5-2.11,7.56-3a2.09,2.09,0,0,1,1.9.75,2.12,2.12,0,0,1-.37,2,36.14,36.14,0,0,1-5.63,2.91c-16.75,6.67-33.47,13.46-50.32,19.87C212.94,897.94,189.68,909.94,165.91,921.73Zm-84-104.39c-1.77,5.17-3.22,9.37-4.64,13.59-5.68,16.89-11.4,33.76-15.93,51-4.14,15.79-3.79,31.39-.15,47.15,4,17.5,11.64,33.66,18.35,50.16.22.53.8.92,1.76,2-.18-2.43-.21-4-.42-5.49a487.46,487.46,0,0,1-4.39-53.29c-.11-4.27-.49-8.52-.63-12.79-.18-5.42-.28-10.85-.35-16.28A10,10,0,0,1,76,890c.18-.5,1.15-.89,1.81-1,.34,0,1,.62,1.13,1.06a24.64,24.64,0,0,1,.38,4c.52,21.72,1.22,43.42,3.39,65,.67,6.72,1.62,13.41,2.44,20.11,1.4-7.1,2.24-14.2,3.11-21.3.92-7.5,1.76-15,2.85-22.49,2.27-15.53,4.94-31,7-46.56a88.41,88.41,0,0,0-4-40.75C90.91,839,87.21,830,83.73,821,83.39,820.12,82.9,819.3,81.94,817.34Zm13.63,194.39c1.51,8.55,15.59,27.07,26.9,35,12,8.42,25.2,12.21,40.57,12.79-1.17-1.39-1.69-2.14-2.34-2.76q-8.88-8.38-17.81-16.72c-9.56-8.94-20.5-15.91-31.8-22.38a11.15,11.15,0,0,0-2.25-.72,21.1,21.1,0,0,0,4.6,4.68c6.48,5.26,13,10.48,19.42,15.78a27.46,27.46,0,0,1,3.58,3.73c.23.28,0,1.18-.27,1.53a1.68,1.68,0,0,1-1.47.53,19.58,19.58,0,0,1-3.36-2.19q-15.3-12.55-30.55-25.15C99.3,1014.66,97.77,1013.49,95.57,1011.73Zm101.06-64.07c-6.47-4.09-11.76-7.65-17.25-10.83-4.35-2.52-8.95-4.61-13.48-6.81a7.63,7.63,0,0,0-2.33-.34,30.56,30.56,0,0,0,7.2,5.08c1.87,1,3.85,1.83,5.74,2.81,1.22.64,2,2.36,1.33,2.75a5,5,0,0,1-2.65.53A6.67,6.67,0,0,1,173,940c-5.47-2.51-10.82-5.21-15.34-9.3a10.6,10.6,0,0,0-2.13-1.12c0,4.07,1.67,6.78,4,9.17A28.31,28.31,0,0,0,173,946.49C180.44,948.42,188,948.15,196.63,947.66Z"/><path class="cls-1" d="M1407.8,715.35l-2.63,2.11c-3.05,2.4-6,4.87-9.14,7.19a61.6,61.6,0,0,0-15.65,16.26c-.77,1.22-1.26,3.08-3.33,2.67-1.24-.24-1.46-1.9-.54-4.6q3.65-10.76,7.39-21.48a49.89,49.89,0,0,1,7.76-14.25,30.85,30.85,0,0,1,8.71-7.58c4.68-2.81,9.61-4.08,15-3,.74.15,1.51.17,2.53.28a15.76,15.76,0,0,0-.36-2.43,172.4,172.4,0,0,0-24.19-48.83c-6.05-8.55-12.44-16.85-18.74-25.21-1.26-1.67-2.38-3.56-4.57-4.65-.91.63-1.9,1.22-2.78,1.94-6.93,5.62-13.88,11.23-20.74,16.93a197.66,197.66,0,0,1-40.09,25.68c-5.4,2.63-10.7,5.47-16.06,8.21a17.75,17.75,0,0,1-2.63,1.2,2.2,2.2,0,0,1-2.61-2.32,11.05,11.05,0,0,1,.52-2.26c6-17.48,16.37-31.56,32.48-41.08A90.4,90.4,0,0,1,1349.23,609c5.33-.91,10.73-1.45,16.41-2.2-1.28-2.87-3.45-4.84-5.29-7-8.44-9.87-17.26-19.44-25.43-29.53-18.12-22.38-30.54-47.59-36.26-75.94a13.3,13.3,0,0,1-.28-3.44c0-.4.74-.95,1.21-1.05a1.7,1.7,0,0,1,1.49.53,14.12,14.12,0,0,1,1.24,3.22c1.1,4.32,1.93,8.73,3.22,13A174.35,174.35,0,0,0,1327,552.89c7.52,11.39,16.42,21.61,25.19,32,4.76,5.63,9.69,11.11,14.57,16.63,1.79,2,3.69,3.94,5.27,5.63,2.37-.27,4.24-.49,6.12-.68,1.16-.12,2.34-.12,3.48-.3,12.49-2,25.12-1.92,37.7-2.59a162.11,162.11,0,0,1,35.35,1.93,95.32,95.32,0,0,1,38.11,15.07c16.24,11,31.41,23.35,46.74,35.52q4.77,3.81,9.47,7.71c1.2,1,2.49,2.14,2,3.9s-2.2,2-3.78,2.09c-15.1.83-30.22,2-45.28-.06a95.42,95.42,0,0,1-32-10.24c-13.67-7.31-27.21-14.87-40.87-22.22-6.31-3.4-12.74-6.59-19.14-9.83-4.16-2.09-8.33-4.15-12.54-6.12-6.15-2.87-12.34-5.65-18.52-8.44a5.91,5.91,0,0,0-1.58-.11,12.55,12.55,0,0,0,1,2.07c1.4,1.86,2.81,3.72,4.31,5.49a222.94,222.94,0,0,1,17.25,24.1c7.76,12.12,14.74,24.65,19.09,38.48q2.45,7.77,5.28,15.41a13.92,13.92,0,0,0,2.69,4.37c19.74,22.32,29.21,48.59,30.1,78.15.36,12.25-1,24.42-2.3,36.57-2.25,21.46-3.11,42.93-1.38,64.47.34,4.26.53,8.52.73,12.78.66,14.17,1.9,28.26,5.08,42.13a29.09,29.09,0,0,1,.77,5.16,2.32,2.32,0,0,1-1.28,1.67,2.26,2.26,0,0,1-2.07-.24,18.45,18.45,0,0,1-2.37-3.27c-7.2-11.52-14.32-23.08-21.59-34.55-12.1-19.06-22.74-38.87-30.47-60.11a213.9,213.9,0,0,1-9.38-35.42c-3.24-18-2.14-35.93,1.08-53.81.62-3.43,1.44-6.83,2.12-10.26,1.78-9.06,5.61-17.31,10.12-25.28.85-1.5,1.66-3,2.49-4.52Zm11-6.08c-.73.41-1.17.52-1.37.8-6.77,9.3-12.72,19.06-16.19,30.11-2.27,7.23-3.48,14.7-4.71,22.18a145,145,0,0,0,1.57,56,239.16,239.16,0,0,0,23.74,61.74c8.81,16.2,19,31.57,28.93,47.1.58.9,1.31,1.7,2.77,3.56-.15-2.15-.18-3-.28-3.91-.8-7.13-1.78-14.24-2.37-21.39-.71-8.5-1-17-1.63-25.55a338.61,338.61,0,0,1,.77-54c1.17-12.93,2.5-25.88,3-38.85,1-28-7.21-53.18-23.66-75.75a51.64,51.64,0,0,0-4.21-4.8c-.58-.61-1.09-1.68-2.4-1,.35,10.65,1.91,21.21,3,31.81s2.3,21.23,2.76,31.87c1,23.45,1.58,46.91,2.33,70.36.09,2.71.29,5.42.25,8.13a1.62,1.62,0,0,1-3.14.5,36,36,0,0,1-.82-6.29c-.57-18-1.26-36-1.55-54.08C1425.2,761.59,1421.85,735.64,1418.85,709.27Zm126.75-43.4c-4.26-3.43-7.72-6.22-11.2-9-14-11.1-27.86-22.22-42.55-32.36-13.45-9.26-28.23-14.25-44.29-16.2-17.83-2.15-35.61-.52-53.41.18a11.07,11.07,0,0,0-2.47,1c2.34.66,3.81,1.15,5.3,1.47a489.8,489.8,0,0,1,51.61,14c4,1.35,8.17,2.44,12.23,3.76,5.17,1.67,10.3,3.44,15.43,5.22a10,10,0,0,1,3.06,1.59,2.51,2.51,0,0,1,.3,2c-.07.33-.94.77-1.38.7a25.38,25.38,0,0,1-3.92-1c-20.59-6.9-41.24-13.63-62.3-19-6.55-1.66-13.16-3-19.75-4.56,6.21,3.74,12.6,6.94,19,10.18,6.74,3.42,13.52,6.77,20.18,10.34,13.82,7.42,27.47,15.2,41.4,22.41a88.32,88.32,0,0,0,39.67,10.11c9.68.14,19.37-.29,29-.49C1542.49,666.28,1543.43,666.1,1545.6,665.87Zm-187.42-53.38c-8.55-1.5-30.76,5.44-42.1,13.36-12,8.39-20.07,19.54-25.84,33.79a34.52,34.52,0,0,0,3.38-1.26q10.92-5.49,21.8-11c11.65-6,21.94-13.86,31.86-22.28a11.23,11.23,0,0,0,1.45-1.87,21,21,0,0,0-6,2.73c-7.15,4.3-14.28,8.64-21.45,12.89a27.76,27.76,0,0,1-4.73,2.09c-.33.12-1.11-.36-1.35-.77a1.68,1.68,0,0,1,0-1.56,19,19,0,0,1,3.21-2.42q17-10.11,34-20.16C1354.15,615,1355.78,614,1358.18,612.49ZM1384,729.33c6-4.7,11.19-8.45,16-12.54,3.85-3.23,7.38-6.84,11-10.35a8,8,0,0,0,1.12-2.08,30.21,30.21,0,0,0-7.23,5c-1.59,1.41-3,3-4.6,4.44-1,.93-2.9,1.08-3,.31a5,5,0,0,1,.41-2.67,6.49,6.49,0,0,1,1.52-1.73c4.22-4.3,8.58-8.41,14-11.27a11,11,0,0,0,1.78-1.61c-3.82-1.44-7-.74-10,.64a28.45,28.45,0,0,0-11.84,10C1388.81,713.85,1386.51,721,1384,729.33Z"/><path class="cls-1" d="M1023.53,985.32c.12.42-.39,1.22-.83,1.5a1.83,1.83,0,0,1-1.69,0,13.83,13.83,0,0,1-2.41-2.77c-2.67-3.94-5.13-8.06-8-11.89a186.47,186.47,0,0,0-38.36-38.72c-11.68-8.68-24.33-15.7-36.9-22.93-6.84-3.91-13.76-7.62-20.67-11.38-2.54-1.37-5.14-2.61-7.34-3.73-2.28,1.12-4.09,2-5.91,2.9-1.11.55-2.3,1-3.39,1.56-11.82,6.53-24.51,11.06-36.9,16.3A173.3,173.3,0,0,1,825,927.09a102,102,0,0,1-43.74-1.27c-20.29-5.13-40-12-59.84-18.68-4.12-1.37-8.21-2.82-12.31-4.3-1.58-.55-3.29-1.25-3.39-3.19s1.48-2.82,3-3.47c14.85-6.32,29.62-13,45.48-16.4a101.36,101.36,0,0,1,35.84-1.35c16.4,2.36,32.73,5,49.13,7.44,7.57,1.11,15.18,2,22.78,2.9,4.95.59,9.87,1.14,14.82,1.6,7.23.63,14.43,1.17,21.66,1.74a6.92,6.92,0,0,0,1.63-.47,13.08,13.08,0,0,0-1.76-1.71c-2.07-1.37-4.17-2.72-6.32-4a240.09,240.09,0,0,1-26.1-17.91c-12.2-9.35-23.76-19.41-33.14-31.69-3.52-4.61-7.18-9.15-10.91-13.55a15.05,15.05,0,0,0-4.27-3.42c-28-15.24-47-38.17-58.64-67.53-4.82-12.16-7.86-24.88-11-37.55-5.55-22.36-12.49-44.23-22.05-65.22-1.9-4.15-3.66-8.37-5.39-12.57-5.81-14-12.18-27.68-20.42-40.45a30.13,30.13,0,0,1-2.65-4.9,2.47,2.47,0,0,1,.68-2.15,2.39,2.39,0,0,1,2.15-.52,20.88,20.88,0,0,1,3.57,2.44c11.43,8.94,22.78,17.95,34.26,26.84,19.07,14.72,36.95,30.74,52.45,49.26a231.7,231.7,0,0,1,22.28,32.16c9.8,16.9,15.22,35.3,18.48,54.42.62,3.68,1,7.39,1.61,11.07,1.5,9.74.65,19.4-1,29.07-.31,1.81-.6,3.63-.88,5.44l1,.52c.62-1,1.25-2.05,1.89-3.06,2.18-3.52,4.28-7.07,6.56-10.54,4.46-6.82,8-14,9.8-22,.33-1.5.12-3.53,2.35-3.89,1.35-.21,2.18,1.38,2.23,4.43.16,8.09.31,16.17.39,24.26A53.51,53.51,0,0,1,852.65,806a32.89,32.89,0,0,1-6,10.78c-3.68,4.51-8.17,7.59-14,8.47-.8.13-1.58.39-2.64.65a16.38,16.38,0,0,0,1.24,2.3,184.44,184.44,0,0,0,42,40.25c9.17,6.37,18.63,12.38,28,18.5,1.87,1.22,3.68,2.69,6.27,3,.7-1,1.48-1.92,2.1-3,4.9-8.17,9.85-16.3,14.67-24.52a211.15,211.15,0,0,1,30.91-40.37c4.46-4.61,8.76-9.38,13.14-14.07a17.41,17.41,0,0,1,2.2-2.18,2.37,2.37,0,0,1,3.48,1.4,11.07,11.07,0,0,1,.28,2.44c.31,19.74-5,37.65-17.67,53.07a96.53,96.53,0,0,1-27.13,22.46c-5,2.85-10.26,5.37-15.68,8.17,2.33,2.43,5.21,3.6,7.85,5.1,12.08,6.84,24.41,13.24,36.28,20.39,26.33,15.89,48,36.67,64,63.08A13.65,13.65,0,0,1,1023.53,985.32Z"/><path class="cls-1" d="M111.5,570.64c-.4.17-1.25-.27-1.57-.69a1.81,1.81,0,0,1-.15-1.68,13.53,13.53,0,0,1,2.54-2.64c3.69-3,7.57-5.83,11.14-9A186.7,186.7,0,0,0,158.59,515c7.6-12.41,13.47-25.63,19.55-38.8,3.28-7.16,6.35-14.38,9.48-21.61,1.14-2.65,2.15-5.34,3.06-7.64-1.31-2.17-2.38-3.9-3.42-5.62-.64-1.06-1.16-2.22-1.85-3.25-7.56-11.18-13.21-23.42-19.53-35.29a173.29,173.29,0,0,1-14.13-35.08A102.22,102.22,0,0,1,149.11,324c3.3-20.67,8.4-40.93,13.26-61.27,1-4.22,2.08-8.43,3.19-12.64.4-1.62.94-3.39,2.87-3.66s2.94,1.21,3.73,2.7c7.62,14.23,15.63,28.34,20.4,43.83a101.54,101.54,0,0,1,4.54,35.58c-.88,16.55-2.08,33.05-3,49.6-.44,7.63-.64,15.3-.86,22.94-.15,5-.25,9.94-.28,14.91,0,7.26.13,14.48.21,21.73a7.51,7.51,0,0,0,.61,1.59,14,14,0,0,0,1.55-1.91c1.18-2.19,2.33-4.4,3.38-6.65a240.58,240.58,0,0,1,15.5-27.59c8.23-13,17.21-25.4,28.61-35.84,4.28-3.93,8.47-8,12.52-12.08a15.2,15.2,0,0,0,3-4.56c12.67-29.21,33.81-50.23,62-64.45,11.67-5.88,24.07-10,36.41-14.29,21.78-7.52,42.94-16.4,63-27.79,4-2.26,8-4.39,12-6.5,13.42-7,26.48-14.6,38.47-23.95a29.83,29.83,0,0,1,4.64-3.07,2.47,2.47,0,0,1,2.2.48,2.41,2.41,0,0,1,.71,2.1,20.67,20.67,0,0,1-2.11,3.78c-7.88,12.18-15.85,24.29-23.68,36.52-12.95,20.31-27.3,39.55-44.37,56.64a231.12,231.12,0,0,1-30,25.06c-16,11.27-33.8,18.31-52.55,23.27-3.61.95-7.27,1.69-10.88,2.59-9.57,2.36-19.27,2.38-29,1.64-1.84-.15-3.67-.27-5.5-.39-.15.35-.3.7-.43,1,1.06.52,2.15,1.05,3.21,1.61,3.71,1.85,7.43,3.62,11.09,5.58,7.19,3.83,14.66,6.75,22.82,7.79,1.52.2,3.52-.18,4.08,2,.33,1.33-1.17,2.29-4.21,2.62-8,.88-16.08,1.75-24.13,2.55a53.56,53.56,0,0,1-17.29-1.07,32.85,32.85,0,0,1-11.27-5c-4.82-3.26-8.29-7.45-9.69-13.18-.2-.79-.53-1.54-.88-2.58a15.67,15.67,0,0,0-2.19,1.45,184.33,184.33,0,0,0-36.33,45.46c-5.53,9.7-10.67,19.66-15.93,29.52-1,2-2.35,3.91-2.43,6.52,1,.61,2,1.3,3.16,1.82,8.56,4.15,17.11,8.35,25.72,12.42a210.85,210.85,0,0,1,43,27.18c5,4,10.12,7.89,15.18,11.83a17.76,17.76,0,0,1,2.37,2,2.37,2.37,0,0,1-1.08,3.59,10.9,10.9,0,0,1-2.4.5c-19.64,2.07-37.95-1.57-54.44-12.86a96.4,96.4,0,0,1-24.8-25c-3.29-4.75-6.26-9.74-9.53-14.88-2.22,2.54-3.13,5.51-4.39,8.27-5.73,12.64-11,25.5-17.07,38-13.47,27.64-32.23,51.05-57.1,69.38A13.29,13.29,0,0,1,111.5,570.64Z"/></g></g></svg>