<svg xmlns="http://www.w3.org/2000/svg" viewBox="0 0 696.04 281.99"><defs><style>.cls-1{fill:#463026;}</style></defs><g id="Layer_2" data-name="Layer 2"><g id="Layer_1-2" data-name="Layer 1"><path class="cls-1" d="M415.68,79a1,1,0,0,1-.37-.25.94.94,0,0,0-1.22-.34,5.18,5.18,0,0,1-1,.55,6.65,6.65,0,0,0-1.21.46c-1.3.54-2.72,1.25-4.1,1.84-.25.08-.46.08-.54.25a3,3,0,0,0-1.09.67c-.21.25-.21.25-.42,0-.71.37-1.33.71-2.13,1.08a19.42,19.42,0,0,1-2.13.8,11.24,11.24,0,0,1-2.68.5c-.41.25-1,0-1.42-.13a.58.58,0,0,1-.33-.79,12.58,12.58,0,0,1,1.88-2.93.44.44,0,0,1,.38-.16c.66,0,1.33.12,1.88.12a3.14,3.14,0,0,0,1.21-.12A7.91,7.91,0,0,0,406.24,79l.58-.38c.84-.33,1.17-1.08,1.72-1.75a1.33,1.33,0,0,0,.08-1.63,3.74,3.74,0,0,0-.67-.92c0-.09-.29-.13-.46-.17s-.29,0-.38-.13a1.2,1.2,0,0,0-1.5.13c-.38.17-.88.21-1.25.38h0a15.81,15.81,0,0,0-3.8,1.43c-.33.17-.75.38-1.08.58a20.49,20.49,0,0,0-3.35,2.22c-.75.5-1.42,1-2.17,1.55a14.65,14.65,0,0,1-1.63,1.17,13.67,13.67,0,0,1-3.47,1.71,3.74,3.74,0,0,1-.84.17s-.2,0-.29-.13a.87.87,0,0,0,.09-.21,17.52,17.52,0,0,0,1.25-1.88,11.61,11.61,0,0,1,.79-1.33.35.35,0,0,1,.42-.17,1,1,0,0,0,.46.08c.17,0,.25-.08.38-.21a17.16,17.16,0,0,1,1.33-1.75,2.69,2.69,0,0,0,.59-2.26c0-.33-.42-.25-.25-.63v0c-.46,0-.75,0-1-.5a1,1,0,0,0-.34,0,3.89,3.89,0,0,0-2,.5,12.68,12.68,0,0,0-1.22.67,3.36,3.36,0,0,0-1.21.67,2.33,2.33,0,0,1-1,.67,2.21,2.21,0,0,0-1.21.71.86.86,0,0,1-.26.21,3.22,3.22,0,0,0-1.29.67l-3.68,3a4.55,4.55,0,0,0-.46.54c-.29.17-.54.21-.63.54l-2,1.76a7.51,7.51,0,0,1-1.25,1l0,.13c-.08-.13-.08-.17-.08-.21.13-.42.42-1,.54-1.51a1.48,1.48,0,0,0,.17-.75c.08-.29.54-.42.33-.79a11.66,11.66,0,0,0,.88-1.47,2.88,2.88,0,0,0,.3-.5.47.47,0,0,0-.17-.25c-.09,0-.09,0-.13.21,0-.17-.08-.21-.08-.21h-.13v.25a1.17,1.17,0,0,0,0,.29,1.27,1.27,0,0,1-.34.09,2.16,2.16,0,0,1-.63,1.08V81h-.25c0,.12,0,.33-.16.42a.41.41,0,0,1-.25.46.33.33,0,0,1-.26.37c0,.17.13.46-.29.29,0,.09,0,.25,0,.38s.13.25.17.42H375c0-.17,0-.34.26-.42v-.08a.32.32,0,0,1,.25-.34.37.37,0,0,1-.25.42c0,.13,0,.42-.13.46a.54.54,0,0,0-.13.42s0,0,0,.08a.14.14,0,0,0-.12-.08,1.5,1.5,0,0,0,0-.42h-.13a.24.24,0,0,1,0,.13c0,.08,0,.16-.13.16a.41.41,0,0,1,0-.16v-.13c-.33.13-.21.33-.29.63.08,0,.17,0,.17.08v.17c-.09,0-.09,0-.17,0V84s-.13,0-.13.08a12.29,12.29,0,0,1-.79,2.3.89.89,0,0,0,0,1.09c.25.37.54.83,1,.87a1,1,0,0,0,.42,0c.33-.21.67-.5,1-.75.13-.5.71-.5.88-.84,1.09-1,2.22-1.92,3.22-3A12,12,0,0,1,381.62,82c1.25-.92,2.34-1.84,3.59-2.8a2.49,2.49,0,0,0,.3-.38h-.38c.08-.21.29-.21.46-.21s.12-.08.21-.2v.2a6.13,6.13,0,0,0,1.88-1c0-.08.13-.12.21-.29h-.38a.18.18,0,0,0,0-.13,1,1,0,0,0-1.09.55c.09.12.13.12.13.16s0,0-.13.13v-.29c-.12,0-.25.12-.41.29a.31.31,0,0,0-.26.17.6.6,0,0,0-.41.16,9.51,9.51,0,0,0-1.42,1c-.09,0-.13.17-.26.29-.41,0-.66.42-1,.59a12.44,12.44,0,0,1-1.38,1c-1,.84-2,1.72-3.05,2.68-.13,0-.25.25-.5.21a4.67,4.67,0,0,1,1.13-1.3c1-1,2.17-1.84,3.3-2.8a16.53,16.53,0,0,1,1.84-1.42,7.06,7.06,0,0,1,1.88-1.21,16.34,16.34,0,0,1,3.13-1.8c.51-.17,1-.54,1.51-.71.08,0,.17,0,.21.12l0,.13a2.88,2.88,0,0,0-.84.46c-.25.08-.33.12-.33.33h.41v.3c.13,0,.21.12.13.25-.13.29-.54.54-.59.83a3.38,3.38,0,0,1-.62,1.3c-.8,1.21-1.72,2.42-2.6,3.72a1.35,1.35,0,0,1-.29.5A1.61,1.61,0,0,0,386.93,85a6.6,6.6,0,0,0,4-.79,5.74,5.74,0,0,1,1.09-.59,18,18,0,0,1,2-1.25,18.87,18.87,0,0,1,2.09-1.67c.33-.25.62-.47.92-.68a9.46,9.46,0,0,0-.92,1.58l-.29.55a3.37,3.37,0,0,0,0,1.84,2.7,2.7,0,0,0,.88,1.42,2.27,2.27,0,0,0,1.08.62,2.93,2.93,0,0,0,2.26.21c.17-.21.33-.21.59-.29a11.65,11.65,0,0,0,4.09-1.42c.88-.42,1.8-.84,2.72-1.21a23.07,23.07,0,0,0,2.76-1.3c0-.08.21-.08.33-.17,1-.41,2-.79,3.09-1.25a7.81,7.81,0,0,1,2-.71s.25,0,.25-.13C416.14,79.59,416,79.13,415.68,79Zm-31.93.81c-.13.08,0,0-.08,0S383.75,79.77,383.75,79.77Zm22.53-4.07c.25,0,.46,0,.5-.21s.21-.29.33-.17.34.25.21.46a.93.93,0,0,1-.12.59,2.59,2.59,0,0,1-1.05,1.25,8.9,8.9,0,0,1-2.92,1.51,13.49,13.49,0,0,1-1.42.54c-.34.08-.84.12-1.22.21v-.09a1.06,1.06,0,0,0-.54.09c-.13,0-.38.12-.5,0s.21-.38.25-.42l1.13-1.09a17.14,17.14,0,0,1,2.71-1.84A5.93,5.93,0,0,1,406.28,75.7Z"/><path class="cls-1" d="M367.78,63.59v0h-.33v.08C367.57,63.63,367.66,63.59,367.78,63.59Z"/><path class="cls-1" d="M358,66.93c-.12,0-.16,0-.16.09S358,67,358,66.93Z"/><path class="cls-1" d="M368.62,63.55c.08.16.21.08.33.08l.05,0s0,0-.05,0Z"/><path class="cls-1" d="M359.72,66.43H360v-.17C359.88,66.26,359.72,66.22,359.72,66.43Z"/><path class="cls-1" d="M366.82,63.8h.29l.09,0-.09,0C367,63.63,366.86,63.63,366.82,63.8Z"/><path class="cls-1" d="M366.32,63.55h-.38a0,0,0,0,0,0,0,0,0,0,0,1,0,0C366.11,63.63,366.19,63.71,366.32,63.55Z"/><path class="cls-1" d="M365.69,64.55s0-.08-.12,0C365.61,64.55,365.61,64.55,365.69,64.55Z"/><path class="cls-1" d="M357.54,67.18h.3V67C357.71,67,357.54,67,357.54,67.18Z"/><path class="cls-1" d="M357.5,67.18a.41.41,0,0,0-.42.34h.25Z"/><path class="cls-1" d="M362.22,66.39s.09,0,.09-.13h-.13C362.18,66.35,362.18,66.35,362.22,66.39Z"/><path class="cls-1" d="M366.53,63.88s0,.09.12,0,.05,0,.09-.12-.09.08-.17.08Z"/><polygon class="cls-1" points="365.94 64.01 365.9 64.01 365.94 64.09 365.94 64.01"/><path class="cls-1" d="M360.05,66.26h.25C360.13,66.14,360.13,66.14,360.05,66.26Z"/><path class="cls-1" d="M371,62.29l.08-.08c-.08,0-.16-.08-.21,0a.49.49,0,0,0-.25.08,7,7,0,0,1-1,.17.38.38,0,0,1,0,.13h.21A2.84,2.84,0,0,0,371,62.29Z"/><path class="cls-1" d="M372.3,62.46h-.5s-.05,0-.05,0l.05.09C372,62.59,372.17,62.63,372.3,62.46Z"/><path class="cls-1" d="M368.45,62.84v0a1.73,1.73,0,0,0,1.09-.29A1.64,1.64,0,0,0,368.45,62.84Z"/><path class="cls-1" d="M376,62l.16-.17c0-.08.09-.08.13-.12a.5.5,0,0,1-.13,0c-.46,0-.92.08-1.38.16a18.59,18.59,0,0,1-2.38.46.19.19,0,0,1,0,.13,8.71,8.71,0,0,0,1.75-.21A7.61,7.61,0,0,1,376,62Z"/><polygon class="cls-1" points="372.3 62.42 372.3 62.46 372.34 62.42 372.3 62.42"/><path class="cls-1" d="M357,67.64a.17.17,0,0,1,.12,0v-.17S357,67.56,357,67.64Z"/><path class="cls-1" d="M359.67,67.52h-.29v.17C359.51,67.69,359.67,67.69,359.67,67.52Z"/><path class="cls-1" d="M372.3,62h-.5l-.05,0s0,0,.05,0S372.17,62.21,372.3,62Z"/><polygon class="cls-1" points="356.41 69.53 356.58 69.36 356.41 69.36 356.41 69.53"/><path class="cls-1" d="M369,63.21c-.12,0-.25,0-.33.13H369l.05-.09S369,63.21,369,63.21Z"/><rect class="cls-1" x="368.58" y="63.34" width="0.04" height="0.04"/><path class="cls-1" d="M368,63.42c.05,0,.05.09.05.09h.54c0-.09,0-.09,0-.13h-.5S368.08,63.42,368,63.42Z"/><polygon class="cls-1" points="369.33 63.13 369.29 63.13 369.33 63.17 369.33 63.13"/><path class="cls-1" d="M366.7,63.51l1.67-.51s0,0,.08-.12a2.06,2.06,0,0,0-.5,0l-1.5.5c-.09,0-.09,0-.13.13A1.2,1.2,0,0,0,366.7,63.51Z"/><path class="cls-1" d="M365.32,64.17l-.09.09C365.32,64.26,365.36,64.3,365.32,64.17Z"/><path class="cls-1" d="M365.19,63.8a1.46,1.46,0,0,0-1,.33,2.06,2.06,0,0,0,1-.25Z"/><polygon class="cls-1" points="363.35 64.38 363.35 64.47 363.44 64.38 363.35 64.38"/><path class="cls-1" d="M364.1,64.13s0,0-.08,0,0,.09,0,.09S364.1,64.17,364.1,64.13Z"/><path class="cls-1" d="M363.81,64.34c-.08,0-.08,0-.08,0-.17,0-.25,0-.29.08h.29S363.73,64.34,363.81,64.34Z"/><path class="cls-1" d="M365,64.34s.05,0,.13,0,0,0,0-.08h-.12C365,64.3,365,64.34,365,64.34Z"/><path class="cls-1" d="M361.39,65.64h.29v-.13C361.56,65.51,361.43,65.47,361.39,65.64Z"/><path class="cls-1" d="M361,66a.18.18,0,0,1,0-.12S360.93,65.85,361,66Z"/><path class="cls-1" d="M363.35,64.47h-.25s-.17,0-.17.08C363.1,64.55,363.27,64.68,363.35,64.47Z"/><path class="cls-1" d="M361.05,65.39c-.16,0-.33-.09-.41.08a.53.53,0,0,0,.25,0S361.05,65.47,361.05,65.39Z"/><path class="cls-1" d="M361.1,65.8h.29v-.12C361.26,65.68,361.1,65.64,361.1,65.8Z"/><path class="cls-1" d="M362.52,64.63c0,.05,0,.05-.09.09C362.52,64.72,362.6,64.72,362.52,64.63Z"/><path class="cls-1" d="M362.43,64.76h-.21s0,0,0,.08a.5.5,0,0,1,.13,0S362.39,64.76,362.43,64.76Z"/><path class="cls-1" d="M361.68,65.05c-.12,0-.25,0-.29.17C361.47,65.22,361.64,65.22,361.68,65.05Z"/><path class="cls-1" d="M362,65c0-.08-.12-.13-.16-.08a.37.37,0,0,1-.13.12.64.64,0,0,0,.25,0Z"/><path class="cls-1" d="M362.89,64.63c-.08,0-.12,0-.08.05S362.89,64.63,362.89,64.63Z"/><path class="cls-1" d="M362.56,65.14a.24.24,0,0,0,.17,0h-.21Z"/><path class="cls-1" d="M362.93,64.55s0,.08,0,.08h0Z"/><path class="cls-1" d="M362.73,65.47h.12s-.08,0-.08-.08a.14.14,0,0,1-.09,0S362.68,65.47,362.73,65.47Z"/><path class="cls-1" d="M356.29,68.27v-.12a.15.15,0,0,0-.13.08A.5.5,0,0,1,356.29,68.27Z"/><path class="cls-1" d="M358.63,66.56a0,0,0,0,0,0,0h0Z"/><path class="cls-1" d="M358.29,66.72c.13,0,.26,0,.3-.12A.3.3,0,0,0,358.29,66.72Z"/><path class="cls-1" d="M358.67,66.51s0,0,0,0h.12Z"/><path class="cls-1" d="M355.62,68.65s0,0-.08.12h.12A.31.31,0,0,1,355.62,68.65Z"/><path class="cls-1" d="M358,66.89c.09,0,.25,0,.29-.12C358.17,66.77,358,66.77,358,66.89Z"/><rect class="cls-1" x="356.29" y="68.1" width="0.04" height="0.04"/><path class="cls-1" d="M360.55,65.51c-.08,0-.21,0-.25.13C360.43,65.68,360.55,65.68,360.55,65.51Z"/><path class="cls-1" d="M365.61,63.71h-.17c-.08,0-.21,0-.21.09h.3Z"/><path class="cls-1" d="M356.33,68.1h.08a.14.14,0,0,1,0-.08A.12.12,0,0,0,356.33,68.1Z"/><path class="cls-1" d="M365.57,64.17s0,.09,0,.09.08-.09,0-.09S365.57,64.17,365.57,64.17Z"/><path class="cls-1" d="M360.3,65.68c-.12,0-.25,0-.33.12C360.13,65.8,360.26,65.85,360.3,65.68Z"/><polygon class="cls-1" points="365.23 64.3 365.23 64.26 365.19 64.3 365.23 64.3"/><path class="cls-1" d="M360.55,66.14c0-.08,0-.13,0-.08S360.55,66.06,360.55,66.14Z"/><path class="cls-1" d="M359.67,66v0s0,0,.05,0Z"/><path class="cls-1" d="M360,65.85c-.09,0-.21,0-.25.12A.23.23,0,0,0,360,65.85Z"/><path class="cls-1" d="M358.8,66.89h.25C359,66.72,358.92,66.72,358.8,66.89Z"/><path class="cls-1" d="M359.67,66.43s-.08.08-.12.08a.17.17,0,0,0,.12,0Z"/><polygon class="cls-1" points="359.67 66.01 359.55 66.01 359.59 66.06 359.67 66.01"/><path class="cls-1" d="M361.39,65.22c-.13,0-.29-.08-.34.17C361.22,65.39,361.3,65.39,361.39,65.22Z"/><path class="cls-1" d="M365.82,79.05c0,.13,0,.3-.13.34V80c.42-.25.42-.79.76-1.17.08,0,.12-.21.12-.33a4.85,4.85,0,0,1,.29-.67,1.08,1.08,0,0,0,.05-.38.5.5,0,0,0-.26.09c-.08.17.05.37-.16.5,0,.08,0,.25-.17.29a.46.46,0,0,1-.33.46C366,78.85,366,79,365.82,79.05Z"/><path class="cls-1" d="M374.22,67c.54-.58,1-1.21,1.55-1.75a1.49,1.49,0,0,0,.29-.54c0-.59,0-.67-.46-1.05a.81.81,0,0,0-.59-.29c-.08,0-.2-.13-.29-.17s-.08-.17-.08-.29c.29.17.54,0,.83,0,.09-.25.25-.09.42-.09h.42c.13-.08.13-.08,0-.12s-.25-.13,0-.17a2.09,2.09,0,0,1,.5,0,0,0,0,0,1,0,0l0,.09-.08,0s0,.12.08.12h.42s.13-.12.17-.16-.13-.13-.13-.17.09-.13.13-.13a.73.73,0,0,1,.58.17.5.5,0,0,0,.25.13.19.19,0,0,0,.17-.13c0-.08,0-.21.13-.17s.33.13.41.09a.79.79,0,0,1,.76,0c.12,0,.2,0,.33-.21s.17-.29.38-.17a2.18,2.18,0,0,0,.46.09,3,3,0,0,0,.71-.05c.21,0,.37.13.58.17.09-.25.09-.25.21-.21h.34a3.39,3.39,0,0,1,.66,0,.14.14,0,0,1,.09,0,.14.14,0,0,1-.09,0,.66.66,0,0,0-.25.13l.17.08a1.07,1.07,0,0,1,.38.13c.12,0,.21-.13.16-.21s-.16-.21.05-.21a6.26,6.26,0,0,0,1.79-.17h0c.05.05.13.05.13.09s0,.12-.08.16a.37.37,0,0,0-.21.05s0,.08-.09.08a.14.14,0,0,1,.09,0c.21,0,.5,0,.54-.21s.21-.33.5-.21a3.67,3.67,0,0,0,.38-.12c.08,0,.21.12.29.12s.09.05.09.05,0,0-.09,0h-.21a1.58,1.58,0,0,1-.58.08c-.09,0-.17.08-.09.13a.16.16,0,0,0,.05.12h.25a.93.93,0,0,0,1-.42.36.36,0,0,1,.37-.16l.46.08a3.28,3.28,0,0,0,.92.19v.31h-.16a1,1,0,0,0-.05-.33c-.41.12-.62.5-.83.87v.13h.21c0,.17,0,.21-.21.21v-.21a.64.64,0,0,0-.63.71l.29-.21a1.76,1.76,0,0,0,.34-.12v.33a3.12,3.12,0,0,0,.58-.5c.13-.13.17-.21.3-.21a1.65,1.65,0,0,1-.05.21h-.12c-.21.46-.21.79-.5,1.09a1.19,1.19,0,0,1-.3.41c-.2.25-.37.21-.54,0a1.5,1.5,0,0,0,.25-.33,1.6,1.6,0,0,0,.09-.5,1.37,1.37,0,0,1-.38.29v-.46a1.47,1.47,0,0,0-.84,1h.21a.51.51,0,0,1,0,.21c-.08,0-.08,0-.17-.21a2.47,2.47,0,0,0-.71.88.2.2,0,0,0-.12.21.58.58,0,0,0,.37-.17v.38a2.92,2.92,0,0,1,.46-.13v.34h.21a.08.08,0,0,1,.09-.08.08.08,0,0,0,.08.08h.08a.68.68,0,0,0,.38-.63,3.4,3.4,0,0,1,1.25-.67,1.54,1.54,0,0,0,.59-.92,1.18,1.18,0,0,1,.25-.79,1.07,1.07,0,0,0,.29-.38c-.33-.12-.33-.12-.67,0l.05,0h-.05a1.36,1.36,0,0,1,.05-.42c.08-.08.29-.12.41-.2a.18.18,0,0,1,0-.14l.16,0v.11a.46.46,0,0,1,.29.08.75.75,0,0,0,.3,0,.17.17,0,0,1,0-.12l.25-.05s.17,0,.25,0a15.4,15.4,0,0,1,2.34,0l.92.06c-.21.22-.41.44-.63.65-.79.71-1.5,1.42-2.34,2.13a20.58,20.58,0,0,1-2.38,2c-.71.54-1.21,1.09-1.92,1.55a1.77,1.77,0,0,1-.71.54c-.46.29-.88.63-1.26.92a4.72,4.72,0,0,0-.79.75c-.34.34-.67,0-1.05.21a.94.94,0,0,1-.33.67.71.71,0,0,1-.13.17c-.41-.25-.41.46-.75.29v-.46c-.42.17-.67.38-.67.79-.29.13-.33.38-.5.51s-.17,0-.29.08a2,2,0,0,0,0-.21c-.38.34-.63.88-1.21,1,0,0-.09.21,0,.21.12.2-.09.5.2.62.13,0,.13.25.17.38a.15.15,0,0,1,.17.17,1.86,1.86,0,0,0,1-.38,4.47,4.47,0,0,1,1.26-.59l.42-.2a28.46,28.46,0,0,0,3.67-2.43c.76-.5,1.51-1.09,2.18-1.63.88-.67,1.71-1.29,2.55-2a23.55,23.55,0,0,0,2.17-2.09l1.09-1.21a5.18,5.18,0,0,1,1.17-1.17c.44-.41.89-.83,1.29-1.28a8.5,8.5,0,0,1,1.3.15,1,1,0,0,0,.42.13,7.73,7.73,0,0,1,1.42.21l.83.21c.76.37,1.59.41,2.34.79.09.08.21,0,.26-.08a1,1,0,0,0,.12-1c-.12-.17-.17-.46-.29-.67,0,0-.09-.17-.17-.21a6.44,6.44,0,0,0-2.63-1,6.44,6.44,0,0,1-1-.17,5.57,5.57,0,0,0-.79-.17h0a24.35,24.35,0,0,0,2.18-4.09,1.92,1.92,0,0,1,.05-.34c0-.17,0-.21-.05-.29-.66-.71-1.17-1.38-2.21-1.38a2.59,2.59,0,0,0-2.3.63,3.18,3.18,0,0,0-.67.58,4.64,4.64,0,0,1-.5.42,2.55,2.55,0,0,0-.79.59,19.54,19.54,0,0,1-1.89,1.67c-1.05,1.11-1.62,1.48-1.84,1.79h-1.46a1.14,1.14,0,0,0-.37,0,2.51,2.51,0,0,1-1,.13c-1,0-1.92,0-2.88,0a18,18,0,0,1-2.05.09c-.08,0-.08,0-.12.08a4.92,4.92,0,0,1-.8.08,3.33,3.33,0,0,0-1.29.13,17.78,17.78,0,0,0-2.6.33,5.11,5.11,0,0,0-1.54.21.33.33,0,0,0-.17.08,4.42,4.42,0,0,0,1.09,0,8.63,8.63,0,0,1,2.25-.25c.17,0,.34,0,.42,0a3,3,0,0,1,.8-.12c.33,0,.66-.21,1,0a4.63,4.63,0,0,1,1.3-.12c.46,0,.92-.08,1.38-.08a19.23,19.23,0,0,1,2.3-.09H388a3.22,3.22,0,0,0,1.13,0c.46-.12.75.17,1.13,0h.38l-.08.16c-1.79,0-3.57,0-5.31.13-.76.09-1.47,0-2.18.17s-1.5,0-2.3.13a7.29,7.29,0,0,1-1.88.25h-.21a9.17,9.17,0,0,1-1.84.25.41.41,0,0,0-.21,0s0,.08,0,.08,0,.05,0,.05h1.17v.16a1.63,1.63,0,0,0-.79.05,2.75,2.75,0,0,1-1,.12s0,.08.08.13.09.08.13.08l-.17,0a2.59,2.59,0,0,0-.58-.12c-.13-.05-.21,0-.3.12-.25,0-.46,0-.75,0,0,0,0,.09-.08.09a0,0,0,0,0,0,0l.12.08c-.08,0-.12.09-.12.09a1.75,1.75,0,0,0-.92-.13s-.08,0-.08.13.08,0,.16,0,.05,0,.05,0-.13.08-.13,0,0,0-.08-.08a2.65,2.65,0,0,0-1.3.2c-.13,0,0,.05,0,.09s0,.08,0,.08,0,0-.08,0a1.56,1.56,0,0,1-.59-.12c-.2,0-.29.08-.33.33v.13s0,0-.12-.09a.41.41,0,0,0-.38-.2h-.25v.16h.37s0,0,.05,0-.05.09-.05.09h-.37v-.13h-.17a1.71,1.71,0,0,0-.92.17.07.07,0,0,0,0,.13c.17.08.13.08,0,.12,0,.08,0,.13-.13.17.17.08.46-.09.38.29a.6.6,0,0,0,.38,0c.12-.12.29-.29.37-.29a1.57,1.57,0,0,0,.88-.17,7.81,7.81,0,0,0,1.13-.21,3.86,3.86,0,0,1,1,0h.54l-.16.21c-.17.29-.38.5-.55.75a21,21,0,0,1-1.38,2c-.71.92-1.25,1.92-1.92,2.88-.46.63-.75,1.22-1.13,1.8-.5.75-.92,1.51-1.38,2.26l-1.59,2.8c-.54,1-1.12,2.05-1.63,3.09l-.25.71a28,28,0,0,0-1.33,4,.5.5,0,0,0,0,.55s0,.12-.09.16a.32.32,0,0,0-.12.25c0,.51,0,1,0,1.51a2,2,0,0,0,.21.84h0v-.72a9.19,9.19,0,0,1,.38-2.63c.12-.5.33-1,.5-1.46,0-.09,0-.25,0-.42h-.17c.09-.17.09-.29.3-.33s.2-.09.2-.21,0-.21-.16-.21a.35.35,0,0,1,0,.17v.08c-.09,0-.09-.08-.09-.17a.55.55,0,0,0,.13-.08c0-.13,0-.34.21-.21.12-.5.58-.84.54-1.34-.17-.12-.17-.17,0-.29v.29a.25.25,0,0,0,.17-.29l0,0,1.08-1.88c.38-.76.84-1.51,1.22-2.26a2.17,2.17,0,0,1,.62-.88.14.14,0,0,0,.09,0v.21a32.49,32.49,0,0,0-1.93,3.43c-.12.16-.16.33-.29.5s-.25.62-.46.92a2.15,2.15,0,0,0-.37.92,3.59,3.59,0,0,0-.42,1v.21a.14.14,0,0,0,.08,0,.28.28,0,0,1,.13-.13c.29.13.37-.17.37-.38v-.16c-.08,0-.08,0-.12,0,.12,0,.12,0,.12,0a1.61,1.61,0,0,0,.63-1.22c0-.08.17-.12.29-.16a.29.29,0,0,1,.13-.3c0-.12,0-.25.17-.29v-.21c-.05-.12-.21-.25-.09-.33s.21,0,.38,0h0c0-.08,0-.25.13-.25a2.11,2.11,0,0,0,0-.5h.08a2.51,2.51,0,0,1,.38-.71.35.35,0,0,0,.08-.38v-.08l.25-.17c.17-.33.38-.58.54-.92s.17,0,.21,0,.13.09.21,0,.09-.08.09-.08l.41-.67c.09-.21.26-.38.34-.58s.38-.3.46-.55a1.34,1.34,0,0,0,.12-.25c0-.25.3-.33.42-.54s0-.42.25-.59.13-.21.25-.25.13-.46.38-.63c.08,0,.13-.25.21-.41a1.06,1.06,0,0,1,.37-.59l.46-.58a4.46,4.46,0,0,0,.55-.67h0a2.93,2.93,0,0,1,.5-.67C373.51,67.85,373.84,67.35,374.22,67Zm13.29-1.63h-.21a.88.88,0,0,1,.38-.71C387.72,65,387.51,65.14,387.51,65.34Zm5.64-4.76h-1l.14-.17h.59c.09,0,.17.09.25.09l.05,0C393.15,60.54,393.15,60.54,393.15,60.58Zm.51.12-.05-.08h.05Zm.5,0s0,0,0-.08h.16C394.2,60.7,394.16,60.7,394.16,60.7Zm.37-.08h.38a.17.17,0,0,1-.17.08S394.58,60.7,394.53,60.62Zm2.68-1.09a.5.5,0,0,1,.17-.46A.3.3,0,0,1,397.21,59.53Zm-1.59-2.38a11.28,11.28,0,0,1,1.59-1.21.79.79,0,0,0,.25-.29c.17-.42.54-.5.75-.71,0-.09.34,0,.38,0,.29.42.46.71.25,1.17a20.16,20.16,0,0,1-2.71,4.07.86.86,0,0,1-.22,0,4.8,4.8,0,0,0-.79-.08c-.84-.07-1.66,0-2.49-.08A37.12,37.12,0,0,1,395.62,57.15Zm-3.84,2.43c.12,0,.25-.09.25-.25a2.81,2.81,0,0,1,.58-.42c0,.12,0,.29-.12.37l-.09.13-.5.46a.14.14,0,0,0-.08,0h0s0,.05,0,.08h-.05a.06.06,0,0,1,0,0Zm-.62.83h.2l0,0s0,.08-.08.12h-.19A1.53,1.53,0,0,1,391.16,60.41Zm-2.9.55v0l-.08,0Zm-.5,0h0l0,0Zm-1.08.33v0l.08,0Zm-.05-.38h.42c.09,0,.09.05.13.09h-.55l0,0S386.59,60.91,386.63,60.91Zm-3,.59h-.76a.19.19,0,0,1,0-.13,0,0,0,0,0,0,0h.38v0c.17,0,.29,0,.38,0s.08.09.12.09S383.75,61.5,383.67,61.5Zm2.17-.54s.08-.05.21-.05l0,.05s0,0-.08,0h-.25S385.76,61,385.84,61Zm-.67.29a1,1,0,0,1,.5-.09c.17,0,.34.09.46.09s.09,0,.13,0a.5.5,0,0,0-.13,0h-1s0,0-.13,0A.35.35,0,0,1,385.17,61.25Zm-2.8-.17h2.13l0,0,0,0a7.53,7.53,0,0,0-1.42.09c-.25,0-.54-.13-.63.21h-.08l-.12-.3C382.25,61.08,382.33,61.08,382.37,61.08Zm-.58.54-.05-.08h.05Zm.2-.25h.13C382,61.5,382,61.46,382,61.37Zm-1.37-.12h.75a1,1,0,0,1,.5-.09c.21-.08.12.09.12.17-.41,0-.83,0-1.25,0a.08.08,0,0,0-.08.09l.08,0a4,4,0,0,1,.67,0h.08c-.08.08-.08.13-.12.13a3.78,3.78,0,0,1-.75-.05c-.05,0-.13-.12-.13-.16S380.49,61.25,380.62,61.25Zm-.88.08a1.68,1.68,0,0,1,.46,0h0c0,.09,0,.13-.13.13h-.25c-.16,0-.33,0-.42,0A1,1,0,0,1,379.74,61.33Zm-.13.34h.09a.24.24,0,0,1,.16,0s0,0,0,0h0c-.12,0-.16.08-.25,0a.23.23,0,0,1-.17,0A.31.31,0,0,0,379.61,61.67Zm-.62.25-.05,0H379Zm-1.05-.38a4.61,4.61,0,0,1,1.05,0v.08a0,0,0,0,1-.05.05h-1.08C377.86,61.62,377.94,61.54,377.94,61.54Zm.67.29s.08.05.08.09h-.75s-.08,0-.08-.09Zm-1.34.17v0a.12.12,0,0,1-.08,0s0,0-.09,0C377.19,62,377.23,62,377.27,62Zm-1.67.38h.08l-.08,0Zm-.25,0c-.13,0-.13,0-.13-.09S375.31,62.29,375.35,62.38Zm-.34.25c.09,0,.13,0,.17,0s0,.08,0,.08-.13-.08-.17-.08A0,0,0,0,0,375,62.63Zm-.41.25s-.05,0-.13,0C374.6,62.79,374.6,62.84,374.6,62.88Zm-4.69.71s0,0,0,0S370,63.59,369.91,63.59Zm.13-.08a.22.22,0,0,1,0-.13C370.12,63.51,370.08,63.51,370,63.51Zm.42-.13v.13s0-.09-.13-.09C370.42,63.42,370.42,63.38,370.46,63.38Zm.12.21c-.08,0-.08,0-.12,0h.17l0,0S370.58,63.63,370.58,63.59Zm.67-.21s.09,0,.09,0S371.25,63.42,371.25,63.38Zm.84,0v-.09h0Zm.79-.5s0,0,0-.05,0,0,.08,0,.05,0,.05.09Zm1.17,0c0-.05.13-.05.17-.05V63a.14.14,0,0,1,0,.09c.09,0,.21,0,.09.12a2,2,0,0,0-.51.17A.5.5,0,0,1,374.05,62.84Zm-10.7,19.35a0,0,0,0,0,0,0,.14.14,0,0,0,0-.08c0-.09,0-.13.08-.13Zm.88-2.26v0h0Zm.38-.58h-.17s0,0,0-.13,0,0,.08-.08.05,0,.05.08Zm.25-.8h0l0-.08Zm.16-.29c-.08-.08,0-.08,0-.08Zm.05-.17.08,0S365.15,78.09,365.07,78.09Zm2-3.68s0-.08,0-.08S367.11,74.41,367.07,74.41Zm.38-.66v0l0,0ZM364.56,81l-.08-.08h.08Zm.26-.59v-.08h0Zm.5-1v0s0,0,0,.12Zm.12-.25s0,0,0-.13a.14.14,0,0,0,0-.08l.09,0S365.44,79.14,365.44,79.18Zm.88-1.71c.13-.13.13,0,.13,0A.5.5,0,0,0,366.32,77.47Zm1.13-2,0,0h0Zm.25-1.17c0-.13,0-.25.12-.25C367.82,74.12,367.82,74.25,367.7,74.29Zm.17-.33v-.09C368,74,368,74,367.87,74Zm.21-.46-.05-.09h.05Zm.33.91h0l0-.08Zm0-1.5c0-.08.09-.08.09-.13C368.58,72.91,368.54,72.91,368.45,72.91Zm.25.88c-.08-.09,0-.09,0-.09A.14.14,0,0,1,368.7,73.79Zm.09-.13s0-.08,0-.08S368.83,73.66,368.79,73.66Zm.37-.62V73a0,0,0,0,1,0,0c.09,0,.09,0,.13,0S369.2,73,369.16,73Zm.34-.63,0,0h0Z"/><path class="cls-1" d="M364,81.86s-.08.08-.12.08l0,0h.16S364.06,81.86,364,81.86Z"/><path class="cls-1" d="M364.19,82a0,0,0,1,0,.08,0Z"/><path class="cls-1" d="M377.44,62.46s0,0,0,.13S377.48,62.59,377.44,62.46Z"/><path class="cls-1" d="M373,61.71a.16.16,0,0,0-.05.12A8.45,8.45,0,0,0,375,61.5c.09,0,.13,0,.17-.13s0,0,0,0c-.37,0-.75.17-1.13.17S373.34,61.67,373,61.71Z"/><path class="cls-1" d="M375.22,61.33h.92c.09,0,.13-.08.17-.17a2.68,2.68,0,0,1-.84.09A.29.29,0,0,0,375.22,61.33Z"/><path class="cls-1" d="M364.4,81.69l-.09.08V82s.09-.12.13-.17A.18.18,0,0,1,364.4,81.69Z"/><path class="cls-1" d="M359.38,67.52c0-.13,0-.17-.17-.17v.17Z"/><path class="cls-1" d="M387.93,61.88a.4.4,0,0,1,0,.12,0,0,0,0,0,0,0,.18.18,0,0,0,0-.12A0,0,0,0,1,387.93,61.88Z"/><path class="cls-1" d="M384.8,62.25c.08,0,.08,0,.08,0l-.08-.08h-.55a.24.24,0,0,0-.21.12s.09.13.3.13A.87.87,0,0,1,384.8,62.25Z"/><path class="cls-1" d="M363.69,65.85h-.21l0,0h0C363.56,66,363.65,65.89,363.69,65.85Z"/><path class="cls-1" d="M372.34,62h.38c.12,0,.16-.08.2-.17h-.46A1,1,0,0,0,372.34,62Z"/><path class="cls-1" d="M382.45,62.38c-.08,0-.08-.09-.08-.09h-.17l.13.13A.18.18,0,0,1,382.45,62.38Z"/><path class="cls-1" d="M363.69,65.8s.12,0,0-.12C363.73,65.76,363.73,65.8,363.69,65.8Z"/><path class="cls-1" d="M372.59,68.9c.08.08,0,.12.13.08A.17.17,0,0,0,372.59,68.9Z"/><path class="cls-1" d="M367.7,76.34v.08l.08,0S367.78,76.34,367.7,76.34Z"/><path class="cls-1" d="M364.65,81.56c.21.42-.17.67-.21,1s-.34.88-.5,1.29h0s0,0,0,0a1.1,1.1,0,0,1,0-.42.33.33,0,0,1,.12-.29.33.33,0,0,0-.17-.25c0-.17,0-.33.17-.46v0c-.08-.09-.08-.17-.12-.21a.26.26,0,0,0-.09.17,1.34,1.34,0,0,0-.12.58h.16v.13l-.12.08s0,0,0-.08v-.13a.22.22,0,0,0-.17.13,3,3,0,0,0-.33,1.21.28.28,0,0,0-.09.21c0,.17,0,.29,0,.46-.08,0-.13,0-.13.08v.8c.13,0,.13-.09.13-.21s0-.46,0-.67.09-.13.09-.25a.94.94,0,0,1,.08-.42h.08a3.36,3.36,0,0,1-.08,1.3,1.59,1.59,0,0,0-.08.79v.29a.14.14,0,0,0-.09,0s-.17,0-.17-.12v-.75c-.12,0-.16.12-.16.25v1c0,.08,0,.17-.17.21,0,.54.59.75.67,1.21,0,.08.08.25.21.25s.33.29.46.42a1.39,1.39,0,0,0,1.46.33s.13-.08.13-.08c.41.08.58-.25.79-.54a.59.59,0,0,0,.13-.51.28.28,0,0,0-.34-.25,3.5,3.5,0,0,1-1,.38c-.84.25-1.13,0-1.13-.79-.08-.21,0-.46-.08-.72a3.28,3.28,0,0,0,0-.62c0-.17,0-.34,0-.42a.51.51,0,0,1,.21-.46s0-.25.13-.38a.35.35,0,0,0,.08-.25V84.7c-.08,0-.08.08-.17.12s0,0-.08,0a.32.32,0,0,1,.08-.38.64.64,0,0,0,.21-.33,3,3,0,0,1,.67-1.92.32.32,0,0,0,0-.29.16.16,0,0,1,0-.09l.46-1c.25-.08.25-.29.25-.46V80a.66.66,0,0,1-.25.17A9.87,9.87,0,0,1,364.65,81.56Zm-1.21,2.72V84.2C363.52,84.28,363.48,84.28,363.44,84.28Zm.12,2.76V87h.09Zm.09-3.39a.08.08,0,0,1-.09-.08v-.13l.09,0Zm.16,4.39-.08,0V88l.08-.09Zm0-3.64h-.08l.08-.08Z"/><path class="cls-1" d="M366.91,77.34c.12,0,.16,0,.16-.08S367,77.3,366.91,77.34Z"/><path class="cls-1" d="M367.07,77.17a.42.42,0,0,0,.21-.12,1.66,1.66,0,0,0,.38-.63A.73.73,0,0,0,367.07,77.17Z"/><path class="cls-1" d="M367.62,63.88s-.05,0-.05.09S367.66,64,367.62,63.88Z"/><path class="cls-1" d="M364.1,82.52s0-.08-.08-.08,0,.08,0,.13S364.06,82.52,364.1,82.52Z"/><path class="cls-1" d="M363.56,81.86c0,.08,0,.08,0,.12S363.69,82,363.56,81.86Z"/><path class="cls-1" d="M362.93,65.64c.05,0,.17,0,.26,0a.15.15,0,0,0,.16-.17h-.42Z"/><path class="cls-1" d="M370.63,62.88c.25.08.46-.09.71-.13,0,0,.08-.08.12-.12a1.58,1.58,0,0,0-.21,0A5.22,5.22,0,0,0,370,63h0s0,0,.13.09h.42S370.58,62.88,370.63,62.88Z"/><path class="cls-1" d="M361.43,72.83a.17.17,0,0,0-.13,0,13.86,13.86,0,0,0-1.38-.2h-.33l-1.75-.51a9.75,9.75,0,0,1-1.47-.41c-.42-.17-.79-.38-1.21-.59-.13,0-.13-.21,0-.29l.29-.29c-.08-.3.13-.3.34-.38s.54-.29.62-.59c-.08-.08-.08-.08,0-.16s.13-.13.17,0h.08c.59-.21,1-.71,1.55-1,0,0,0-.09,0-.13s0-.17.08-.25.3,0,.34-.17a.31.31,0,0,1,.17.09c.12.08.21,0,.25-.09s.29,0,.33-.16a.46.46,0,0,0-.17-.17h-.08c-.08,0-.12,0-.17-.13s.09,0,.09,0h.16a1.18,1.18,0,0,0,.3-.33s.16-.09.21,0c.2.3.41.34.71,0,.12-.13.37-.09.58-.13s.17-.12.09-.25.08-.21.12-.21c.34.08.59-.21.92-.17.08-.08.08-.08.17,0a4.56,4.56,0,0,1,.79-.2h0l-.08-.09c-.17-.08-.13-.17-.13-.29-.16,0-.33,0-.5,0,0-.13-.08-.17-.21-.13a.73.73,0,0,1-.54.17c0,.12-.21.12-.29.17a.66.66,0,0,1-.5.29h-.25c-.09.21-.21.12-.34.12,0,.17-.17.17-.33.17-.05.17-.17.13-.3.17a.67.67,0,0,1-.62.33c0,.17-.21.25-.42.25,0-.08,0-.21.12-.25a.47.47,0,0,0-.37.09,3,3,0,0,1-.54.16.5.5,0,0,1-.42.34.34.34,0,0,1-.34.17c-.12.25-.37.33-.62.46l0-.05h-.09v.05s-.08.08-.08.12a1.56,1.56,0,0,1-.67.5l-.12.09v-.09c-.13,0-.25,0-.3.09a3,3,0,0,0-.58.71,2.87,2.87,0,0,0-.55,1.54c0,.42.34.71.42,1a.61.61,0,0,0,.34.29l.42.29a10.59,10.59,0,0,0,2.25.46c.25,0,.38.09.63.09s.38-.09.58-.09H360c.08,0,.08,0,.08-.08A.08.08,0,0,0,360,73h-.59c-.08-.05-.21,0-.25-.05-.21-.25-.54-.21-.84-.25,0,0,0-.08-.08-.12h.08a3.29,3.29,0,0,1,.63,0,1.94,1.94,0,0,0,1,.12,2.4,2.4,0,0,1,.92.17,2.07,2.07,0,0,0,.5,0C361.39,72.91,361.39,72.83,361.43,72.83Zm1-7.15s0,.08,0,.08S362.39,65.68,362.43,65.68Zm-3.38,2.09s0,0-.09,0S359.05,67.73,359.05,67.77Zm-.8.17s0,0,0,0h0Zm.21-.21c.13,0,.13,0,.13,0A.38.38,0,0,1,358.46,67.73Zm-.17-.38c.09-.17.17-.08.3-.17,0,.17-.17.17-.3.17,0,.17-.2.17-.29.17C358,67.35,358.17,67.35,358.29,67.35Zm-.33.21s0,0,0,.08,0-.08,0-.08Zm-.33.17s0,0-.09,0S357.54,67.73,357.63,67.73Zm-.13.12s0,0,0,.09S357.46,67.85,357.5,67.85Zm-.38.67v0l.05,0Zm0-.5c.05.08,0,.08,0,.08S357.12,68.06,357.12,68Zm-.75.63a.86.86,0,0,1,.55-.38.65.65,0,0,1-.51.42h0S356.33,68.65,356.37,68.65Zm-.33.16c.08,0,0,0,0,0Zm0,.42c.08.13,0,.13,0,.13S356,69.27,356,69.23ZM356,68.9c0,.08,0,.08,0,.08Zm0,.5v0C355.83,69.4,356,69.4,356,69.4Zm-.5-.13,0,.09C355.41,69.27,355.41,69.27,355.45,69.27Zm2.43,3.31s-.09,0-.17,0a.08.08,0,0,0,.08-.08s.09.08.13.08Z"/><path class="cls-1" d="M368.54,63.92c-.13,0-.34.09-.38-.12l-.34.29c-.16,0-.2,0-.25-.12h-.08a.5.5,0,0,0-.17,0c-.12.16-.25.29-.46.16a.47.47,0,0,0-.33,0,1.65,1.65,0,0,0-.59.17c-.12,0,.05,0,.05.13s.08,0,.08.08a.66.66,0,0,0-.38.08c0,.09-.12.13-.25.09a.66.66,0,0,0-.58-.09l0,.05,0,0H365s.05,0,.13.12c-.08,0-.13,0-.17,0a.64.64,0,0,1-.29,0,.33.33,0,0,0-.42,0c-.08.09-.37,0-.42.21,0,0,.17,0,.21,0h0s-.08.13-.08,0-.12,0-.17-.09a1.18,1.18,0,0,0-.41,0,.36.36,0,0,0-.3.13v.08c.05.13.17.17.21.21h.55c.16.13.2.09.29,0a1,1,0,0,1,.58,0c.05,0,.17,0,.25,0s.05-.17.05-.21a4.58,4.58,0,0,0,1.63-.34c.12,0,.21-.12.33,0l0-.08c.13,0,.13-.08,0-.21s-.16,0,0-.08.38-.21.59,0c0,.12.29.12.37,0s.05-.17.05-.25a.15.15,0,0,1,.08-.13h.17a.93.93,0,0,0,.29.13c.12,0,.29,0,.21-.17A.54.54,0,0,1,369,64c.16,0,.16,0,.2-.21A.93.93,0,0,0,368.54,63.92Zm-5,1.38v0h.09Zm1.3-.16h0s.12-.09.12,0,.08,0,.08.13S364.94,65.22,364.86,65.14Zm2.92-.76-.08,0h.08Z"/><path class="cls-1" d="M359.72,67.52s.08,0,.16,0,0,0,0-.09a.4.4,0,0,1-.12,0Z"/><path class="cls-1" d="M368.37,63.71h-.13s0,0-.08.09h.17A.14.14,0,0,0,368.37,63.71Z"/><path class="cls-1" d="M362.39,73.16s-.08,0-.08-.12h-.13c0,.08,0,.08-.12.08a.3.3,0,0,0,.16,0C362.31,73.2,362.35,73.16,362.39,73.16Z"/><path class="cls-1" d="M361.26,73.12a.27.27,0,0,0,.17,0l0,0s-.08,0-.17-.08C361.3,73.12,361.3,73.12,361.26,73.12Z"/><path class="cls-1" d="M375.93,80.1a.72.72,0,0,0,.38-.88A2.18,2.18,0,0,0,375.93,80.1Z"/><path class="cls-1" d="M376.77,78.68c-.33,0-.38.25-.38.54C376.73,79.05,376.77,78.93,376.77,78.68Z"/><path class="cls-1" d="M377.44,77.51c-.34.12-.38.37-.46.62A.59.59,0,0,0,377.44,77.51Z"/><path class="cls-1" d="M379.15,75a.61.61,0,0,0-.42.67A.82.82,0,0,0,379.15,75Z"/><path class="cls-1" d="M388.35,76.84a.64.64,0,0,0,.17-.34,1.61,1.61,0,0,0-1,.59h.38C388,76.84,388.22,76.92,388.35,76.84Z"/><path class="cls-1" d="M375.52,81.4V81a.58.58,0,0,0-.38.83h.13A.41.41,0,0,1,375.52,81.4Z"/><path class="cls-1" d="M376.77,79.85v-.38C376.52,79.68,376.52,79.68,376.77,79.85Z"/><rect class="cls-1" x="375.01" y="81.81" width="0.13" height="0.04"/><rect class="cls-1" x="376.77" y="79.85" width="0.08" height="0.04"/><rect class="cls-1" x="375.01" y="83.32" width="0.13" height="0.04"/><rect class="cls-1" x="374.81" y="83.32" width="0.04" height="0.04"/><path class="cls-1" d="M389.39,76a.93.93,0,0,0-.83.5h.62a.2.2,0,0,1-.08.13s-.17,0-.25.17l.33,0c.26-.17.55-.29.67-.54h-.46Z"/><rect class="cls-1" x="387.89" y="77.09" width="0.08" height="0.08"/><path class="cls-1" d="M388.35,77.17H388v.13C388,77.22,388.26,77.3,388.35,77.17Z"/><path class="cls-1" d="M377,79.47v.38h.21a5.21,5.21,0,0,1,.58-.63,1.4,1.4,0,0,0,.71-1v-.05h-.16l.12-.08s0,.08,0,.08a3.18,3.18,0,0,0,.42-.62.43.43,0,0,0-.17,0,.81.81,0,0,0-.41.12c-.25.13-.17.54-.42.59,0,.16.12.41-.17.5l-.08,0v.08h-.21A.61.61,0,0,1,377,79.47Z"/><rect class="cls-1" x="387.47" y="77.09" width="0.04" height="0.08"/><path class="cls-1" d="M375.68,80.52c-.16,0-.16.21-.16.46h.16Z"/><path class="cls-1" d="M375,82.23v-.37C374.81,82,374.81,82.11,375,82.23Z"/><path class="cls-1" d="M376.52,80.39c0-.12-.08-.16-.08-.25-.05.09-.13.09-.13.13a.62.62,0,0,0-.13.46,1.26,1.26,0,0,1,.34-.21Z"/><path class="cls-1" d="M383,70.86a.43.43,0,0,1,.33-.58v-.09c0-.29.21-.41.51-.58v-.46a2.91,2.91,0,0,0-.51.29V69c-.29.08-.33.29-.33.63h.17a.66.66,0,0,1-.34.67c0,.16-.16.21-.29.16s.08-.16.29-.16a.56.56,0,0,1-.16-.46.56.56,0,0,0-.34.62,1.65,1.65,0,0,0,.21,0,.68.68,0,0,1-.42.62v.42a4,4,0,0,1,.42-.38C382.71,71,382.87,70.86,383,70.86Z"/><path class="cls-1" d="M384,69.61h-.08s0,0,0,.17C384,69.65,384,69.65,384,69.61Z"/><path class="cls-1" d="M383.21,70.86h.16a.28.28,0,0,0,0-.17C383.33,70.78,383.25,70.78,383.21,70.86Z"/><path class="cls-1" d="M384.67,68.1c-.13.17-.42.3-.54.51l-.25.16v.38C384.46,68.77,384.63,68.65,384.67,68.1Z"/><path class="cls-1" d="M385.13,67.52a.56.56,0,0,0-.46.58C385.09,68.06,385.13,67.77,385.13,67.52Z"/><path class="cls-1" d="M390.06,62.33v.42C390.27,62.59,390.27,62.5,390.06,62.33Z"/><polygon class="cls-1" points="382.37 70.49 382.37 70.44 382.29 70.49 382.37 70.49"/><path class="cls-1" d="M381.7,71.32a1.62,1.62,0,0,1,.46-.21v-.42C381.87,70.86,381.7,71,381.7,71.32Z"/><path class="cls-1" d="M383.46,68.73s0,.17-.09.21c.21,0,.38-.17.51-.17C383.75,68.61,383.58,68.44,383.46,68.73Z"/><polygon class="cls-1" points="390.06 62.34 390.06 62.13 389.85 62.13 390.06 62.34"/><path class="cls-1" d="M379.49,76.63a.28.28,0,0,0,.16-.08c.13,0,.13-.21.13-.25s-.21,0-.29.12S379.45,76.63,379.49,76.63Z"/><path class="cls-1" d="M384.8,69.23c-.05,0-.17.21-.26.21s-.12.17-.29.17l-.17.58a.56.56,0,0,0,.46-.21c.21-.08.38-.33.55-.46s.33-.29.21-.46S385,69.15,384.8,69.23Z"/><path class="cls-1" d="M385.51,68.44s0,0-.09,0-.12.21-.21.25.09.08.09.08S385.59,68.65,385.51,68.44Z"/><path class="cls-1" d="M385.71,66c-.2.21-.5.38-.58.71a1,1,0,0,0,.58-.33Z"/><path class="cls-1" d="M377.19,78.8h.25v-.41C377.19,78.51,377.27,78.68,377.19,78.8Z"/><path class="cls-1" d="M385.8,66.39a1.53,1.53,0,0,1-.38.71c-.12,0-.29.17-.29.33a.85.85,0,0,1,.46.09.47.47,0,0,0-.17.25c-.08.21-.08.29.09.29s.37-.08.62-.17.13-.2.13-.37.21-.09.37-.09h.09a.18.18,0,0,1-.09-.16.84.84,0,0,1-.37,0c0-.13.12-.13.25-.26s.29-.08.29-.12-.17-.25-.33-.25h-.21a1.51,1.51,0,0,1,0-.38c0-.08.08-.16.08-.29A.62.62,0,0,1,386,66C386,66.14,386,66.35,385.8,66.39Z"/><path class="cls-1" d="M386,65.8c-.09,0-.17,0-.17.13H386V66h0v-.08Z"/><path class="cls-1" d="M387.18,66.14h-.13c.09.08.09.08.09.21A.49.49,0,0,0,387.18,66.14Z"/><rect class="cls-1" x="379.82" y="75.21" width="0.17" height="0.42"/><polygon class="cls-1" points="152.63 115.34 155.18 115.34 149.87 124.78 143.99 115.34 146.22 115.34 146.22 113.83 134.31 113.83 134.31 115.34 137.17 115.34 144.75 127.74 144.75 135.87 141.65 135.87 141.65 137.38 153.83 137.38 153.83 135.87 150.7 135.87 150.7 126.53 156.97 115.34 160.12 115.34 160.12 113.83 152.63 113.83 152.63 115.34"/><path class="cls-1" d="M188.8,116.61a13.53,13.53,0,0,0-4.2-2.44,13.29,13.29,0,0,0-9.38,0,14.06,14.06,0,0,0-4.23,2.48,13.08,13.08,0,0,0-3.1,3.88h0a11.17,11.17,0,0,0-.13,9.93,12.73,12.73,0,0,0,2.9,3.84,13.79,13.79,0,0,0,4.18,2.56,13.64,13.64,0,0,0,5,.94,13.21,13.21,0,0,0,5-1A13.84,13.84,0,0,0,189,134.2a13,13,0,0,0,2.87-3.9,10.78,10.78,0,0,0,1.08-4.73,11.18,11.18,0,0,0-1.15-5.12A12.32,12.32,0,0,0,188.8,116.61Zm-15.58,9.06a39.19,39.19,0,0,1,.23-4.52,10.75,10.75,0,0,1,.92-3.43,5,5,0,0,1,1.95-2.13,8.53,8.53,0,0,1,7.17.06,5.11,5.11,0,0,1,1.94,2.2,9.93,9.93,0,0,1,.81,3.35c.1,1.32.15,2.72.15,4.18,0,1.62-.06,3.14-.18,4.52a10.58,10.58,0,0,1-.85,3.45,4.88,4.88,0,0,1-1.92,2.17,7,7,0,0,1-3.62.79,8.91,8.91,0,0,1-3.06-.47,4,4,0,0,1-2-1.58,8.82,8.82,0,0,1-1.18-3.25A30.26,30.26,0,0,1,173.22,125.67Z"/><path class="cls-1" d="M224.23,135.16l-.75.66a1.18,1.18,0,0,1-.77.24,1.09,1.09,0,0,1-.63-.13,1.16,1.16,0,0,1-.29-.59,10.12,10.12,0,0,1-.27-1.76l-.27-3.19a7.33,7.33,0,0,0-.75-2.93,4.74,4.74,0,0,0-1.69-1.78,8.4,8.4,0,0,0-2.4-.92l-.51-.1a8.68,8.68,0,0,0,2.18-.9,5.44,5.44,0,0,0,1.74-1.63,4.35,4.35,0,0,0,.69-2.46,4.75,4.75,0,0,0-.9-3,6.41,6.41,0,0,0-2.18-1.81,10.11,10.11,0,0,0-2.83-.92,26.89,26.89,0,0,0-5.68-.21c-.91,0-1.84,0-2.78,0h-5.61v1.51h3.09v20.53h-3.09v1.51h12.14v-1.51h-3.1V125.54h1.69a4.06,4.06,0,0,1,2.17.48,3,3,0,0,1,1.12,1.29,6.18,6.18,0,0,1,.5,2c.08.8.14,1.63.19,2.48q0,.87.15,1.86a5,5,0,0,0,.7,2,4.39,4.39,0,0,0,1.75,1.56,6.83,6.83,0,0,0,3.15.62,9.2,9.2,0,0,0,1.61-.12,5.28,5.28,0,0,0,1.15-.34,3.55,3.55,0,0,0,.86-.53c.23-.19.45-.39.68-.61l.44-.41-1.16-1Zm-14.66-19.87.25,0a6.42,6.42,0,0,1,2.61.25,2.31,2.31,0,0,1,1.06.78,3.67,3.67,0,0,1,.58,1.43,11.57,11.57,0,0,1,.19,2.28,12.05,12.05,0,0,1-.11,1.6,3,3,0,0,1-.47,1.25,2.46,2.46,0,0,1-1.08.83,5.75,5.75,0,0,1-2.18.34h-.85Z"/><polygon class="cls-1" points="248.1 122.23 255.11 115.34 258.12 115.34 258.12 113.83 250.31 113.83 250.31 115.34 252.94 115.34 244.21 123.9 244.21 115.34 247.31 115.34 247.31 113.83 235.17 113.83 235.17 115.34 238.26 115.34 238.26 135.87 235.17 135.87 235.17 137.38 247.31 137.38 247.31 135.87 244.21 135.87 244.21 126.52 251.78 135.87 249.34 135.87 249.34 137.38 261.65 137.38 261.65 135.87 259.28 135.87 248.1 122.23"/><path class="cls-1" d="M288.23,124.73a9.8,9.8,0,0,0-2.44-1.31c-.87-.34-1.77-.64-2.69-.92l-2.66-.79a11.71,11.71,0,0,1-2.21-.86,5,5,0,0,1-1.48-1.12,2.19,2.19,0,0,1-.49-1.48,2.45,2.45,0,0,1,.31-1.18,3.51,3.51,0,0,1,.94-1.09,5,5,0,0,1,1.57-.83,7,7,0,0,1,2.2-.32,5.61,5.61,0,0,1,2.49.48,4.83,4.83,0,0,1,1.61,1.27,7.42,7.42,0,0,1,1.08,1.81c.3.71.58,1.43.85,2.15l.13.35h1.34v-7.06h-1.42l-.14.31a2.46,2.46,0,0,1-.16.32,1.91,1.91,0,0,1-1-.12c-.34-.13-.72-.27-1.16-.41s-1-.28-1.53-.41a10.46,10.46,0,0,0-5.5.39,9.37,9.37,0,0,0-2.73,1.54,7.3,7.3,0,0,0-1.82,2.23,5.83,5.83,0,0,0-.66,2.68,6.57,6.57,0,0,0,.65,3.09,6.38,6.38,0,0,0,1.7,2.08,8.93,8.93,0,0,0,2.36,1.34,25,25,0,0,0,2.61.87l2.56.71a11.87,11.87,0,0,1,2.12.81,4.26,4.26,0,0,1,1.39,1.12,2.54,2.54,0,0,1,.48,1.6,4.57,4.57,0,0,1-.25,1.31,3.9,3.9,0,0,1-.82,1.4,4.74,4.74,0,0,1-1.62,1.15,8.68,8.68,0,0,1-3.78.45,4.69,4.69,0,0,1-1.13-.17,6.12,6.12,0,0,1-1.27-.51,6.43,6.43,0,0,1-1.39-1,6.56,6.56,0,0,1-1.1-1.27,9.65,9.65,0,0,1-.77-1.38,8.8,8.8,0,0,1-.46-1.25,8.46,8.46,0,0,1-.22-.94l-.08-.44h-1.49v8.08h1.44l.13-.35a1,1,0,0,1,.18-.33.87.87,0,0,1,.37,0,3.51,3.51,0,0,1,.88.17c.47.13,1,.26,1.61.4s1.25.27,1.94.4a12.08,12.08,0,0,0,2.17.2,11.58,11.58,0,0,0,4-.65,10.16,10.16,0,0,0,3.1-1.75,8,8,0,0,0,2-2.61,7.09,7.09,0,0,0,.73-3.17,5.79,5.79,0,0,0-.69-2.92A6.89,6.89,0,0,0,288.23,124.73Z"/><polygon class="cls-1" points="317.07 115.34 320.17 115.34 320.17 124.63 311.5 124.63 311.5 115.34 314.6 115.34 314.6 113.83 302.46 113.83 302.46 115.34 305.56 115.34 305.56 135.87 302.46 135.87 302.46 137.38 314.6 137.38 314.6 135.87 311.5 135.87 311.5 126.14 320.17 126.14 320.17 135.87 317.07 135.87 317.07 137.38 329.21 137.38 329.21 135.87 326.11 135.87 326.11 115.34 329.21 115.34 329.21 113.83 317.07 113.83 317.07 115.34"/><polygon class="cls-1" points="340.73 115.34 343.83 115.34 343.83 135.87 340.73 135.87 340.73 137.38 352.88 137.38 352.88 135.87 349.78 135.87 349.78 115.34 352.88 115.34 352.88 113.83 340.73 113.83 340.73 115.34"/><path class="cls-1" d="M388.1,135.16l-.75.66a1.18,1.18,0,0,1-.77.24,1,1,0,0,1-.62-.13s-.18-.15-.3-.59a11,11,0,0,1-.27-1.76l-.27-3.19a7.17,7.17,0,0,0-.75-2.93,4.67,4.67,0,0,0-1.69-1.78,8.28,8.28,0,0,0-2.4-.92l-.5-.1a8.77,8.77,0,0,0,2.17-.9,5.44,5.44,0,0,0,1.74-1.63,4.36,4.36,0,0,0,.7-2.46,4.81,4.81,0,0,0-.9-3,6.55,6.55,0,0,0-2.19-1.81,10.11,10.11,0,0,0-2.83-.92,26.89,26.89,0,0,0-5.68-.21c-.91,0-1.84,0-2.77,0H364.4v1.51h3.1v20.53h-3.1v1.51h12.14v-1.51h-3.1V125.54h1.69a4,4,0,0,1,2.17.48,3,3,0,0,1,1.12,1.29,6.52,6.52,0,0,1,.51,2c.07.8.14,1.63.18,2.48a18.46,18.46,0,0,0,.16,1.86,4.87,4.87,0,0,0,.69,2,4.35,4.35,0,0,0,1.76,1.56,6.76,6.76,0,0,0,3.14.62,9.2,9.2,0,0,0,1.61-.12,5.28,5.28,0,0,0,1.15-.34,3.82,3.82,0,0,0,.87-.53l.68-.61.43-.41-1.16-1Zm-14.66-19.87.26,0a6.46,6.46,0,0,1,2.61.25,2.28,2.28,0,0,1,1.05.78,3.67,3.67,0,0,1,.58,1.43,11.57,11.57,0,0,1,.19,2.28,10.58,10.58,0,0,1-.11,1.6,3,3,0,0,1-.47,1.25,2.46,2.46,0,0,1-1.08.83,5.75,5.75,0,0,1-2.18.34h-.85Z"/><path class="cls-1" d="M420,129.8a10.37,10.37,0,0,1-.93,2.42,7.43,7.43,0,0,1-1.49,1.92,6.43,6.43,0,0,1-2,1.27,7.09,7.09,0,0,1-2.6.46h-5V125.54h1.73a4.19,4.19,0,0,1,1.74.32,3.35,3.35,0,0,1,1.14.89,4.78,4.78,0,0,1,.77,1.34,15.66,15.66,0,0,1,.54,1.72l.1.4h1.39V119.32h-1.4l-.09.42a10.34,10.34,0,0,1-.58,1.85,4.57,4.57,0,0,1-.84,1.33,3.22,3.22,0,0,1-1.23.81,5.28,5.28,0,0,1-1.91.3h-1.36v-8.69h4.82a5.57,5.57,0,0,1,2.55.52,5.94,5.94,0,0,1,1.72,1.26,6.06,6.06,0,0,1,1,1.5,10.86,10.86,0,0,1,.55,1.3l.12.37h1.36v-6.46h-21.2v1.51H402v20.53h-3.1v1.51h22.58v-8h-1.39Z"/><path class="cls-1" d="M476.36,135.16l-.75.66a1.16,1.16,0,0,1-.77.24,1.07,1.07,0,0,1-.62-.13s-.17-.15-.29-.59a9.24,9.24,0,0,1-.27-1.76l-.27-3.19a7.32,7.32,0,0,0-.76-2.93,4.67,4.67,0,0,0-1.69-1.78,8.28,8.28,0,0,0-2.4-.92l-.5-.1a9,9,0,0,0,2.18-.9,5.4,5.4,0,0,0,1.73-1.63,4.36,4.36,0,0,0,.7-2.46,4.75,4.75,0,0,0-.9-3,6.45,6.45,0,0,0-2.19-1.81,10,10,0,0,0-2.82-.92,27,27,0,0,0-5.69-.21c-.91,0-1.83,0-2.77,0h-5.62v1.51h3.1v20.53h-3.1v1.51h12.15v-1.51h-3.1V125.54h1.69a4,4,0,0,1,2.16.48,2.92,2.92,0,0,1,1.12,1.29,5.93,5.93,0,0,1,.51,2c.08.8.14,1.63.18,2.48,0,.58.08,1.2.16,1.86a4.89,4.89,0,0,0,.7,2A4.26,4.26,0,0,0,470,137.2a6.78,6.78,0,0,0,3.15.62,9.2,9.2,0,0,0,1.61-.12,5.18,5.18,0,0,0,1.14-.34,3.82,3.82,0,0,0,.87-.53c.22-.19.45-.39.68-.61l.43-.41-1.15-1Zm-14.65-19.87.25,0a6.46,6.46,0,0,1,2.61.25,2.28,2.28,0,0,1,1.05.78,3.67,3.67,0,0,1,.59,1.43,12.38,12.38,0,0,1,.19,2.28,10.57,10.57,0,0,1-.12,1.6,2.83,2.83,0,0,1-.47,1.25,2.4,2.4,0,0,1-1.08.83,5.71,5.71,0,0,1-2.18.34h-.84Z"/><path class="cls-1" d="M508.89,129.8a10.35,10.35,0,0,1-.92,2.42,7.43,7.43,0,0,1-1.49,1.92,6.43,6.43,0,0,1-2,1.27,7.09,7.09,0,0,1-2.6.46h-5V125.54h1.72a4.13,4.13,0,0,1,1.74.32,3.39,3.39,0,0,1,1.15.89,4.65,4.65,0,0,1,.77,1.34,17.14,17.14,0,0,1,.54,1.72l.1.4h1.39V119.32h-1.4l-.1.42a10.06,10.06,0,0,1-.57,1.85,4.79,4.79,0,0,1-.84,1.33,3.22,3.22,0,0,1-1.23.81,5.34,5.34,0,0,1-1.92.3h-1.35v-8.69h4.82a5.57,5.57,0,0,1,2.55.52,6.08,6.08,0,0,1,1.72,1.26,6.34,6.34,0,0,1,1,1.5,9.15,9.15,0,0,1,.54,1.3l.12.37H509v-6.46H487.81v1.51h3.09v20.53h-3.09v1.51h22.57v-8H509Z"/><path class="cls-1" d="M522.21,115.34h3.1v20.53h-3.1v1.51h12.18v-1.51h-3.13V126H533a4.11,4.11,0,0,1,1.73.32,3.29,3.29,0,0,1,1.15.89,4.73,4.73,0,0,1,.78,1.35c.2.55.38,1.12.53,1.71l.11.4h1.38V119.73h-1.4l-.09.42a10.05,10.05,0,0,1-.58,1.85,4.57,4.57,0,0,1-.84,1.33,3.3,3.3,0,0,1-1.23.81,5.28,5.28,0,0,1-1.91.3h-1.35v-9.1h4.55a6.38,6.38,0,0,1,2.16.32,4.54,4.54,0,0,1,1.56.89,6.21,6.21,0,0,1,1.19,1.43,16.6,16.6,0,0,1,1,2l.13.33h1.33v-6.46h-21Z"/><polygon class="cls-1" points="554.76 115.34 557.86 115.34 557.86 135.87 554.76 135.87 554.76 137.38 566.9 137.38 566.9 135.87 563.81 135.87 563.81 115.34 566.9 115.34 566.9 113.83 554.76 113.83 554.76 115.34"/><path class="cls-1" d="M599,129.58a9.61,9.61,0,0,1-1.16,2.95,7.57,7.57,0,0,1-1.67,2,5.68,5.68,0,0,1-1.94,1,6.84,6.84,0,0,1-2.08.33h-5V115.34h3.1v-1.51H578.12v1.51h3.1v20.53h-3.1v1.51h22.41v-8.21h-1.39Z"/><path class="cls-1" d="M633.55,129.17l-.1.41a10.05,10.05,0,0,1-1.17,3,7.86,7.86,0,0,1-1.66,2,5.72,5.72,0,0,1-2,1,6.84,6.84,0,0,1-2.08.33h-5V115.34h3.1v-1.51H612.53v1.51h3.09v20.53h-3.09v1.51h22.41v-8.21Z"/><path class="cls-1" d="M332.62,174.1h-.27a1.74,1.74,0,0,0-.29-.25,1,1,0,0,0-.52-.11,2.17,2.17,0,0,0-.59.09l-.73.22a9.25,9.25,0,0,1-.93.21,5.66,5.66,0,0,1-1.13.1,6.34,6.34,0,0,1-2.24-.4,6,6,0,0,1-2.06-1.29,7.29,7.29,0,0,1-1.5-2,5.64,5.64,0,0,1-.6-2.66,6.23,6.23,0,0,1,.49-2.45,6.68,6.68,0,0,1,1.37-2.06,6.61,6.61,0,0,1,2.07-1.41,6.36,6.36,0,0,1,2.6-.53,4.31,4.31,0,0,1,1,.11,4.66,4.66,0,0,1,.79.23l.64.23a1.67,1.67,0,0,0,.57.1,1,1,0,0,0,.52-.11,1.67,1.67,0,0,0,.28-.25h.28v3.43h-.2a8.75,8.75,0,0,0-.43-1.28,3.49,3.49,0,0,0-.71-1.13,3.4,3.4,0,0,0-1.16-.79,4.47,4.47,0,0,0-1.75-.3,4.36,4.36,0,0,0-1.66.29,3.32,3.32,0,0,0-1.17.75,3.67,3.67,0,0,0-.76,1.1,6,6,0,0,0-.43,1.32,9.38,9.38,0,0,0-.19,1.41c0,.47-.05.92-.05,1.34a11.88,11.88,0,0,0,.31,3,5,5,0,0,0,.87,1.87,2.93,2.93,0,0,0,1.34,1,5.38,5.38,0,0,0,1.74.28,5,5,0,0,0,2-.33,3.42,3.42,0,0,0,1.21-.85,3.78,3.78,0,0,0,.69-1.18q.24-.66.42-1.32h.2Z"/><path class="cls-1" d="M340.29,168a5.73,5.73,0,0,1,.57-2.54,7.16,7.16,0,0,1,1.49-2,7,7,0,0,1,2-1.35,5.76,5.76,0,0,1,2.26-.49,6.08,6.08,0,0,1,2.36.49,7,7,0,0,1,2,1.35,6.79,6.79,0,0,1,1.43,2A6,6,0,0,1,353,168a5.86,5.86,0,0,1-.49,2.35,6.73,6.73,0,0,1-1.36,2.05,6.87,6.87,0,0,1-2,1.44,5.86,5.86,0,0,1-2.5.55,6,6,0,0,1-2.54-.54,6.4,6.4,0,0,1-3.82-5.85Zm2.1,0a14.3,14.3,0,0,0,.22,2.7,5.38,5.38,0,0,0,.73,1.92,3.18,3.18,0,0,0,1.32,1.15,5.4,5.4,0,0,0,4,0,3.27,3.27,0,0,0,1.33-1.15,5.38,5.38,0,0,0,.73-1.92,15.18,15.18,0,0,0,.22-2.7,15.52,15.52,0,0,0-.17-2.29,6,6,0,0,0-.63-2,3.52,3.52,0,0,0-1.3-1.38,4.77,4.77,0,0,0-4.33,0,3.52,3.52,0,0,0-1.3,1.38,6,6,0,0,0-.63,2A15.52,15.52,0,0,0,342.39,168Z"/><path class="cls-1" d="M360.23,173.86h2V162.12h-2v-.24h4.12l3.38,9.23h0l3.38-9.23h4v.24h-2v11.74h2v.24H369.3v-.24h2V162.22h0l-4.38,11.9-4.35-11.78h0v11.52h2v.24h-4.33Z"/><path class="cls-1" d="M381.71,173.86h2V162.12h-2v-.24h4l.51,0h1a7.85,7.85,0,0,1,1.93.23,5.35,5.35,0,0,1,1.53.66,3.33,3.33,0,0,1,1,1,2.56,2.56,0,0,1,.36,1.34,2.34,2.34,0,0,1-.42,1.37,3.64,3.64,0,0,1-1.11,1,6.22,6.22,0,0,1-1.62.63,8.16,8.16,0,0,1-1.93.22,6,6,0,0,1-.66,0l-.71-.09v5.66h2v.24h-5.89Zm3.86-5.9c.24,0,.5.08.77.1l.71,0a2.9,2.9,0,0,0,2.11-.74,3,3,0,0,0,.76-2.26,5.05,5.05,0,0,0-.18-1.46,2,2,0,0,0-.58-.93,2.12,2.12,0,0,0-1-.49,7.32,7.32,0,0,0-1.51-.14l-.63,0-.43,0Z"/><path class="cls-1" d="M396.82,173.86h1.61l4.94-12.29h.44l5,12.29h1.63v.24h-5.63v-.24h2l-1.92-4.77h-4.25l-1.92,4.77h2v.24h-3.93Zm5.94-10-2,5h4Z"/><path class="cls-1" d="M416.27,173.86h2V162.12h-2v-.24h3.91l6.18,9.35h0v-9.11h-2v-.24h4.34v.24h-2v12.22h-.37l-7.7-11.52h0v11h2v.24h-4.33Z"/><path class="cls-1" d="M438.29,173.86h2v-4.93l-4.11-6.81h-1.67v-.24h5.6v.24h-1.83l3.66,6,3.46-6h-1.85v-.24h3.91v.24h-1.77l-3.57,6.27v5.47h2v.24h-5.89Z"/><path class="cls-1" d="M79.12,180.73c.28-2.43.6-4.86.8-7.29.59-7.13,1.1-14.28,1.71-21.41a5.46,5.46,0,0,0-.75-3.41,42.05,42.05,0,0,0-5.16-7,30.76,30.76,0,0,0-2.39-2.17,1.1,1.1,0,0,0-1.11-.27q-.33.09-.66.15A7.05,7.05,0,0,1,64.45,136c-.81-1.5-1.44-3.09-2.12-4.65a.51.51,0,0,1,.06-.47.82.82,0,0,1,.58-.2c1.44.33,2.87.69,4.31,1a11.52,11.52,0,0,1,1.14.35,7.41,7.41,0,0,1,4.33,4.1,13,13,0,0,0,.85,2.21,11.29,11.29,0,0,0,1.78,1.57,16.57,16.57,0,0,1,1.32,1.33,47.27,47.27,0,0,1,4.12,5.43c.19.29.35.59.56.86.08.1.25.13.38.2a2.93,2.93,0,0,0,.21-.44,4.26,4.26,0,0,0,0-.51c.1-2.38.23-4.77.29-7.15q.14-6.14.19-12.27c0-1,0-2-.09-3.07a1,1,0,0,0-.4-.89,6.18,6.18,0,0,1-2.56-3.51.9.9,0,0,0-.86-.67c-1-.11-1.92-.22-2.87-.41a9,9,0,0,1-5.89-3.75c-.88-1.25-1.73-2.53-2.58-3.81-.12-.17-.25-.49-.17-.62.44-.76,0-1.43-.14-2.12a18.28,18.28,0,0,1-.53-7.43c.6-4,1.15-8.1,2.79-11.91a15.27,15.27,0,0,0,.55-1.61,21.56,21.56,0,0,1,2.46-4.86c.56-.93,1.06-1,2-.59a2.45,2.45,0,0,1,.59.34c.38.31.66.2,1-.07a.9.9,0,0,1,1.36.13c.29.33.54.72.81,1.09a61.36,61.36,0,0,0,5,6.7c1.77,1.87,3.24,4,4.88,5.92a12.66,12.66,0,0,1,2.85,6.81,18.48,18.48,0,0,1,.06,3.24c0,.33-.14.73,0,1a1.47,1.47,0,0,1-.12,1.44,16.36,16.36,0,0,0-.71,1.92,12.89,12.89,0,0,1-4.17,6.11c-.23.18-.43.39-.66.55a1,1,0,0,0-.45,1.17,7.13,7.13,0,0,1-.06,3A3.2,3.2,0,0,1,84,122.9a2.32,2.32,0,0,0-.57,1.69c0,3.75,0,7.5,0,11.25-.1,5.51-.29,11-.76,16.51-.23,2.61-.46,5.21-.66,7.82-.38,4.81-.68,9.64-1.14,14.44-.39,4.13-1,8.24-1.48,12.36-.42,3.32-.83,6.65-1.37,10-1.15,7-2.37,14-3.56,21-.08.45-.17.89-.26,1.33l-1.65,7.84c0,.09,0,.2.06.31a2.86,2.86,0,0,0,.42-.1,1.39,1.39,0,0,0,.27-.21,86.67,86.67,0,0,0,8-7.9,45.32,45.32,0,0,0,5.3-6.88c.86-1.47,1.69-3,2.53-4.45a5.72,5.72,0,0,0,.3-.76,1,1,0,0,0-.24-.08,1.93,1.93,0,0,0-.34,0,5.28,5.28,0,0,1-4.28-1.25A9.79,9.79,0,0,1,80.92,200c-.62-2.77-1-5.59-1.5-8.39a1.49,1.49,0,0,1,.11-.65c0-.21.45-.3.56-.13a5.13,5.13,0,0,1,.41.72,18.43,18.43,0,0,0,3.82,5.61c.9.94,1.74,1.95,2.61,2.92l.89,1a8.94,8.94,0,0,0-.71-2.41,23.7,23.7,0,0,1-1.65-7.29c0-1.81-.15-3.63-.13-5.45A41.81,41.81,0,0,1,87.68,172,69.45,69.45,0,0,1,99.3,151.87c1.93-2.38,4-4.64,6-7s4.2-4.79,6.3-7.18a5.14,5.14,0,0,1,.83-.85.64.64,0,0,1,.6,0,.65.65,0,0,1,.23.56c-.25.81-.54,1.61-.86,2.41a54.56,54.56,0,0,0-2.53,8.31c-.46,2-.89,4-1.38,6A96.9,96.9,0,0,0,106,170.3c-.26,3.46-.46,6.92-.86,10.36-1.15,9.8-5.3,18-13.06,24.27a3.65,3.65,0,0,0-.87,1c-1.26,2.23-2.45,4.5-3.72,6.72a29.64,29.64,0,0,1-1.89,2.83c-2.1,2.84-4.56,5.38-6.92,8-.27.29-.59.54-.88.8l-4,3.68a1.94,1.94,0,0,0-.25.42,1.66,1.66,0,0,0,.6.11c1.6-.38,3.2-.77,4.79-1.2,1.21-.32,2.4-.72,3.59-1.08,2.18-.66,4.37-1.26,6.52-2,3.5-1.18,7-2.42,10.44-3.67a42.07,42.07,0,0,1,6.22-1.79,28.62,28.62,0,0,1,9.32-.45c3.38.46,6.71,1.14,10,1.91.52.12,1.25.13,1.31.86,0,.58-.54.82-1,1.07q-2.07,1.18-4.15,2.34c-4.33,2.38-8.64,4.77-13.11,6.89a28.9,28.9,0,0,1-11.48,2.87,37.39,37.39,0,0,1-7.47-.5c-2.46-.4-4.9-.95-7.35-1.41a50.17,50.17,0,0,1-6.29-1.54c-.59-.19-1.2-.34-1.81-.48a.47.47,0,0,0-.43.12c-.06.08,0,.3.08.43.16.31.34.6.52.89,1.74,2.8,3.47,5.6,5.22,8.39a76.09,76.09,0,0,0,8.38,11.17c.66.71,1.28,1.46,1.9,2.2a99.72,99.72,0,0,0,10.17,10.79c.21.19.41.39.61.59a.56.56,0,0,1,.14.3.42.42,0,0,1-.07.31c-.07.08-.21.17-.28.15a2.13,2.13,0,0,1-.74-.36,83.18,83.18,0,0,1-6.52-6.49c-2.47-2.83-4.92-5.68-7.38-8.51a60.51,60.51,0,0,1-5.44-7.21c-2.18-3.39-4.31-6.82-6.45-10.24-.31-.48-.59-1-.91-1.45A3.19,3.19,0,0,0,72,231a1.73,1.73,0,0,0-.34.49c-1.26,4.66-2.49,9.33-3.75,14-.47,1.75-1,3.51-1.49,5.24-2.76,8.91-5.7,17.76-8.92,26.51-.47,1.28-1,2.55-1.5,3.81a3.84,3.84,0,0,1-.5.88.44.44,0,0,1-.43.07.49.49,0,0,1-.22-.4,4.73,4.73,0,0,1,.3-1c.37-.95.79-1.89,1.13-2.85,2.58-7.29,5.23-14.55,7.51-22,1.41-4.56,2.84-9.11,4-13.74.77-3,1.63-6,2.44-9.05.17-.6.27-1.22.38-1.83a.29.29,0,0,0-.44-.25,4.29,4.29,0,0,0-.55.4c-2.67,2.21-5.31,4.46-8,6.63a66.61,66.61,0,0,0-7.52,7.41,18.33,18.33,0,0,0-1.19,1.45,52.18,52.18,0,0,0-6.77,12,7.22,7.22,0,0,1-.61,1.21.49.49,0,0,1-.43.13c-.13,0-.29-.26-.27-.37a4.77,4.77,0,0,1,.28-1,50.75,50.75,0,0,1,14-19.92C62,236.31,65,234,68,231.47a11.68,11.68,0,0,0,2-1.86c-1.52-.47-2.93-.88-4.33-1.33a27.1,27.1,0,0,1-7.85-4.05,21.44,21.44,0,0,1-8.42-14.31,2.58,2.58,0,0,1,0-.68.55.55,0,0,1,.66-.39,4.67,4.67,0,0,1,.72.42c1.42,1,2.82,2.11,4.24,3.17a53.36,53.36,0,0,1,7.67,6.48c1.27,1.39,2.52,2.78,3.77,4.18.69.75,1.37,1.52,2.06,2.27,0,0,.17,0,.25,0s0-.11,0-.16c-.11-.26-.23-.51-.36-.76-1.2-2.39-2.45-4.75-3.59-7.16-1.47-3.14-2.88-6.31-4.28-9.48-3.67-8.32-7.25-16.68-10.47-25.18a23.83,23.83,0,0,0-3.25-6c-2-2.67-4-5.35-6.18-7.94a53.2,53.2,0,0,0-3.9-4c-.5-.5-.72-.47-1,.14a6.26,6.26,0,0,1-3.23,2.9,10,10,0,0,1-7.49.28,25.25,25.25,0,0,1-5.27-2.77c-.24-.15-.51-.39-.31-.69a1.36,1.36,0,0,1,.68-.42,1.89,1.89,0,0,1,.67,0,20.61,20.61,0,0,0,5.59-.53,27.67,27.67,0,0,1,7.24-1c.14,0,.38-.13.4-.23a.57.57,0,0,0-.19-.45c-.49-.48-1-1-1.5-1.39-1.33-1.07-2.7-2.09-4-3.17a55.94,55.94,0,0,0-7.77-5.24c-.53-.31-1-.53-1.52,0a2,2,0,0,1-1.44.39,10.33,10.33,0,0,1-7.68-3.53c-1.08-1.11-.77-2,.75-2.21,3.2-.36,6.13.22,8.32,2.84a8.23,8.23,0,0,0,2.07,1.74c1.85,1.12,3.66,2.3,5.5,3.44.14.08.32.37.58,0-.17-.27-.35-.56-.54-.82a16.23,16.23,0,0,1-3-11,2,2,0,0,1,.1-.67,1.33,1.33,0,0,1,.48-.64c.27-.15.55.05.73.29.6.82,1.21,1.65,1.79,2.49a28.66,28.66,0,0,1,5,12.57c.05.39.11.78.16,1.18a1.81,1.81,0,0,0,.62,1.17c1.59,1.46,3.15,2.95,4.76,4.4A48.26,48.26,0,0,1,43,170q1.68,2.15,3.34,4.31l.65.82c.08-.2.16-.3.14-.38a12.17,12.17,0,0,0-.34-1.32c-1.85-5.31-3.61-10.66-5-16.11-1.16-4.52-2.34-9-3.47-13.55-.67-2.65-1.28-5.31-1.88-8-1.11-4.94-2.23-9.87-3.3-14.82-.52-2.45-.91-4.92-1.38-7.38a4.51,4.51,0,0,0-5-3.87c-1.52.15-3,.52-4.53.78a1.15,1.15,0,0,0-1.05,1,3.28,3.28,0,0,1-1.46,2,7.85,7.85,0,0,1-7.89,1.14,13.58,13.58,0,0,1-2.09-1.13c-1.11-.71-2.17-1.47-3.25-2.21a2.72,2.72,0,0,1-.53-.42c-.1-.11-.21-.34-.16-.43a1,1,0,0,1,.47-.41A2.19,2.19,0,0,1,7,110a7.57,7.57,0,0,0,3.14-.7c.77-.36,1.55-.71,2.33-1a8.25,8.25,0,0,1,3.82-.73,6.36,6.36,0,0,1,3.78,1.4,2.61,2.61,0,0,0,2.68.5,23.47,23.47,0,0,1,3-.56c.56-.08,1.13-.06,1.7-.09,0,0,.13,0,.13-.09s0-.23,0-.27a6.57,6.57,0,0,0-.93-.74,13,13,0,0,0-3.91-1.66c-1.33-.29-2.67-.53-4-.71a8.32,8.32,0,0,1-4.26-1.58,2,2,0,0,0-1.9-.42,4.91,4.91,0,0,1-3.64-.43A12.46,12.46,0,0,1,7,101.74a9.35,9.35,0,0,1-3.34-5.6c-.37-1.61-.59-3.25-.84-4.88a4.25,4.25,0,0,1,.08-1.17c0-.19.41-.32.57-.21a1.07,1.07,0,0,1,.28.19,16.34,16.34,0,0,0,4.84,3.7c.64.38,1.27.78,1.87,1.2A8.21,8.21,0,0,1,14,101l.06.68a1.52,1.52,0,0,0,.64,1.15,6.77,6.77,0,0,0,3.39,1.5c1.13.17,2.26.29,3.37.5a15,15,0,0,1,8.58,4.57,5.76,5.76,0,0,0,.6.61c.1.08.29.07.44.11a2.09,2.09,0,0,0,0-.34c-.3-2.77-.61-5.53-.9-8.3-.63-6.06-1-12.13-1.24-18.21,0-.85,0-1.7-.08-2.55a.36.36,0,0,0-.46-.34c-1.68.84-3.4,1.62-4.45,3.31a2.43,2.43,0,0,1-.34.38.46.46,0,0,1-.7-.17,1.56,1.56,0,0,1-.11-.5,16.45,16.45,0,0,1,1-5.85,2,2,0,0,0,0-.52,7.11,7.11,0,0,0-.72.14,6.55,6.55,0,0,1-5.25-.76c-.45-.25-.9-.5-1.33-.76a8.55,8.55,0,0,0-3.7-1.2c-.4,0-.79-.08-1.19-.1a4,4,0,0,1-3.88-3,15.76,15.76,0,0,1-.59-2.14,8.52,8.52,0,0,0-2.71-4.63c-.45-.43-.9-.86-1.33-1.32a4,4,0,0,1,0-5.94c.37-.43.81-.8,1.17-1.23a3.82,3.82,0,0,0,.51-.87.44.44,0,0,0-.38-.61A3,3,0,0,1,2.32,54a3.35,3.35,0,0,1-1.27-3.48,7.12,7.12,0,0,1,.45-1.47,3,3,0,0,0-.24-2.78c-.32-.53-.61-1.09-.9-1.64a2.78,2.78,0,0,1,.33-3.19,6.15,6.15,0,0,1,1.1-1.06c.44-.36.92-.66,1.39-1A4.39,4.39,0,0,0,5,36.65c.11-.5.19-1,.29-1.51.24-1.17.47-2.34.75-3.5,1.16-4.85,7.94-7.32,11.83-4.15.27.21.54.42.82.61a.47.47,0,0,0,.74-.1c.22-.33.39-.69.63-1a19.31,19.31,0,0,1,1.65-1.95,2.93,2.93,0,0,1,2.84-.75,5.49,5.49,0,0,1,.82.22,2.73,2.73,0,0,0,3.24-.78A10.46,10.46,0,0,1,30.74,22a5.12,5.12,0,0,1,5.94.07,15.22,15.22,0,0,0,5,2.43.76.76,0,0,1,.16.06,5.3,5.3,0,0,1,3.58,4.21c.09.5.19,1,.28,1.51a.94.94,0,0,0,.63.74,8.22,8.22,0,0,0,3.12.76,11.13,11.13,0,0,1,1.53.05,4.35,4.35,0,0,1,4,3.42,9.49,9.49,0,0,1,.2,2.2,6,6,0,0,0,.54,2.64,9.29,9.29,0,0,1,1,2.9,1.17,1.17,0,0,0,.5.85c.37.27.72.56,1.06.86A10.6,10.6,0,0,1,60.9,48c.88,1.85,1.16,3.69-.21,5.47-.14.18-.24.38-.36.57a3.76,3.76,0,0,0-.48,3.11c.1.38.22.77.29,1.16a3.72,3.72,0,0,1-3.07,4.54c-.55.12-1.13.14-1.69.24a11.66,11.66,0,0,0-1.66.35,1.63,1.63,0,0,0-.81.57,5,5,0,0,0-1.13,3.65,10.34,10.34,0,0,1,.08,1.36,3.45,3.45,0,0,1-1.16,2.74,5.22,5.22,0,0,1-2.48,1.43,10,10,0,0,1-2.88.26c-1.13-.06-2.27,0-3.4-.06a4.24,4.24,0,0,0-2.27.64c-.58.37-1.13.77-1.69,1.17a.42.42,0,0,0-.08.7,5.23,5.23,0,0,1,1.71,2.7c.46,2.17.84,4.35,1.23,6.54a.7.7,0,0,1-.26.56.71.71,0,0,1-.62,0,11.13,11.13,0,0,0-3.63-1.42c-.49-.13-1-.26-1.48-.41A6,6,0,0,1,30.46,80a1,1,0,0,0-.14-.31.37.37,0,0,0-.26-.11.36.36,0,0,0-.15.27c0,1.14,0,2.27.07,3.41.15,6.65.74,13.28,1.35,19.9.4,4.36,1.1,8.69,1.89,13,.09.5.23,1,.36,1.49.13-.06.2-.07.22-.11.14-.36.3-.72.41-1.1a20.61,20.61,0,0,1,4.64-8.25c1.1-1.23,2.23-2.44,3.32-3.67a33.17,33.17,0,0,1,5.43-4.38.3.3,0,0,1,.15-.07,2.4,2.4,0,0,1,.81.07c.3.13.27.46.2.75-.34,1.43-.73,2.86-1,4.31a17.36,17.36,0,0,1-2.81,6.35c-1,1.4-2,2.75-3.1,4.07a21.51,21.51,0,0,1-5.67,4.86c-.49.29-1,.61-1.44.91a.67.67,0,0,0-.31.73c.07.4.13.79.22,1.18.44,1.94.91,3.87,1.33,5.82,1.45,6.78,3,13.54,4.78,20.25,1.06,4,2.12,8,3.22,12,1.46,5.27,3.24,10.43,5.1,15.56s3.76,10,5.79,14.94c3.58,8.72,7.3,17.39,11.34,25.91,1.36,2.88,2.92,5.66,4.39,8.48a4.79,4.79,0,0,0,.46.71.29.29,0,0,0,.28.08.35.35,0,0,0,.21-.23c.14-.66.25-1.34.38-2,.61-2.95,1.27-5.89,1.81-8.85.86-4.69,1.63-9.4,2.45-14.11.79-4.53,1.49-9.08,2-13.65a14.35,14.35,0,0,0-1.49-8.42,34.08,34.08,0,0,0-5-7.31,56.36,56.36,0,0,1-6.22-7.89,1.45,1.45,0,0,0-1.55-.78,9.76,9.76,0,0,1-3.73-.19,40.59,40.59,0,0,1-4.55-1.42,17.6,17.6,0,0,1-5.12-3.34,5.8,5.8,0,0,1-1.63-2.36c-.25-.66.1-1.12.83-1.06a17.92,17.92,0,0,1,5.17,1,27.13,27.13,0,0,1,6.61,3.48,3.8,3.8,0,0,0,1.71,1c-.1-.27-.18-.47-.26-.67-.5-1.2-1.05-2.39-1.5-3.62-.52-1.44-1-2.92-1.41-4.38a.74.74,0,0,0-.69-.63,2.51,2.51,0,0,1-2-1.61,11.59,11.59,0,0,1-1.38-5.4,6.21,6.21,0,0,1,.33-2,1,1,0,0,1,1.62-.52,4.79,4.79,0,0,1,.88.8,11.3,11.3,0,0,1,2.68,6,2.84,2.84,0,0,1-.16,1.67,2.78,2.78,0,0,0-.06,2.29c.36,1.14.69,2.29,1.1,3.41a42.89,42.89,0,0,0,8.21,13.46,4.6,4.6,0,0,0,.71.56c-.19-1-.31-1.87-.5-2.7a47.94,47.94,0,0,1-.38-17.63,11.62,11.62,0,0,1,.28-1.33.59.59,0,0,1,.61-.49.71.71,0,0,1,.5.39c.35.78.63,1.59,1,2.36A26,26,0,0,1,75,160a25,25,0,0,1-1.37,10.4,10.62,10.62,0,0,1-.43,1.11,1.15,1.15,0,0,0,.21,1.4,30.05,30.05,0,0,1,3.68,5.53c.58,1.1,1.08,2.25,1.78,3.71C79,181.49,79.08,181.11,79.12,180.73ZM37.47,54.18a3.16,3.16,0,0,0,2.9-1.07,11.21,11.21,0,0,0,.77-.91,7.6,7.6,0,0,1,2.23-2.07,1.92,1.92,0,0,0,.87-2.75l-.68-1.62c0,.24-.09.4-.11.56a2.32,2.32,0,0,1-1.52,2.07c-.47.19-.75.41-.69,1A3.4,3.4,0,0,1,40,52.22a6.08,6.08,0,0,1-2.51,1.38c-.44.13-.88.23-1.32.34,0,0-.06-.12-.1-.13a8.31,8.31,0,0,1-4.29-2.62,16.46,16.46,0,0,0-2.85-2.41,7.35,7.35,0,0,1-3-4.23,6.16,6.16,0,0,1,.38-4.16.77.77,0,0,1,.28-.42c.89-.4,1.24-1.25,1.77-2a1.68,1.68,0,0,1,1.32-.69,6.38,6.38,0,0,1,1.51.13,1,1,0,0,0,1.06-.27,2.7,2.7,0,0,1,4-.19,4.24,4.24,0,0,1,.65.54A9.55,9.55,0,0,0,39,39.12,4.86,4.86,0,0,1,41.67,43c0,.72.62.89,1.06,1.2a.47.47,0,0,0,.42-.13,2.81,2.81,0,0,0,.58-1.75c.06-2.7-.7-5-3-6.66-1.25-.88-2.43-1.87-3.66-2.79a17.22,17.22,0,0,0-1.81-1.26,2.69,2.69,0,0,0-3.19.21c-.31.24-.61.51-.93.74a4.9,4.9,0,0,1-2.83,1,8.86,8.86,0,0,0-1.69.2,2,2,0,0,0-1.65,1.52,10.4,10.4,0,0,1-2,4.26,1.51,1.51,0,0,0-.25,1.46,11.23,11.23,0,0,0,.56,1.6c.32.66.71,1.29,1.08,1.93A6.78,6.78,0,0,1,25.4,48a3,3,0,0,0,1.75,2.71c.39.23.82.4,1.23.59a8.07,8.07,0,0,1,2.67,1.8,2.71,2.71,0,0,0,2.73,1,17,17,0,0,1,2.37-.13C36.59,54,37,54.11,37.47,54.18ZM90.38,202.49c1.12-3.94,2.25-7.87,3.32-11.82.54-2,1-4,1.4-6,1.35-6.56,2.66-13.14,4-19.71.1-.5.18-1,.3-1.5a1.54,1.54,0,0,1,.32-.59.51.51,0,0,1,.45-.14c.12,0,.3.24.28.36-.08.56-.22,1.11-.33,1.66-.77,4-1.52,7.93-2.32,11.88-.76,3.73-1.53,7.46-2.39,11.17-.53,2.33-1.22,4.62-1.85,6.92l-2.29,8.38a5,5,0,0,0-.15.67.83.83,0,0,0,0,.31c.15,0,.34,0,.44-.08a11.67,11.67,0,0,0,1.74-1.37,56,56,0,0,0,4.25-4.88,33.55,33.55,0,0,0,6.37-16c.44-3.72.73-7.46,1-11.2a100.49,100.49,0,0,1,2.47-16c.59-2.48,1.1-5,1.74-7.47.58-2.19,1.29-4.35,1.94-6.53,0-.1,0-.24,0-.3s-.3,0-.42.09-.31.33-.46.5c-1.86,2.07-3.72,4.15-5.59,6.21a96.19,96.19,0,0,0-10.1,13.08,60.29,60.29,0,0,0-6.34,13.38A40.22,40.22,0,0,0,86.29,186a41.59,41.59,0,0,0,.37,7.48,33.66,33.66,0,0,0,3.15,9c.07.14.24.22.37.33A1.32,1.32,0,0,0,90.38,202.49Zm-5.3,26q3.73-.33,7.45-.79c2.2-.28,4.39-.65,6.58-1,1.41-.21,2.81-.43,4.22-.62a2.07,2.07,0,0,1,.82.08.48.48,0,0,1,.08.41.71.71,0,0,1-.38.32,8.72,8.72,0,0,1-1.15.26c-2.31.36-4.61.72-6.92,1.05-2.64.38-5.29.78-7.94,1s-5.21.37-7.82.55l-3.29.26a9.67,9.67,0,0,0,1.37.5c4.82,1,9.6,2.27,14.55,2.63a36.66,36.66,0,0,0,7.48-.26,24.07,24.07,0,0,0,6.5-2c4.93-2.18,9.61-4.85,14.33-7.46l3.42-1.9a.34.34,0,0,0,.14-.25.41.41,0,0,0-.21-.24,2.62,2.62,0,0,0-.48-.13,88.19,88.19,0,0,0-9.37-1.73,26.1,26.1,0,0,0-7.64.29,40.5,40.5,0,0,0-7.06,1.91c-3.1,1.1-6.2,2.21-9.32,3.25s-6.37,2.06-9.56,3.07c-.82.26-1.64.47-2.45.73a8.39,8.39,0,0,0-1.06.56C80.22,228.85,82.65,228.7,85.08,228.48ZM24.4,75.37c.57-.47,1.12-1,1.66-1.47a4.11,4.11,0,0,1,3-1.37,1,1,0,0,0,.47-.16c.06,0,.1-.23.06-.26A14.88,14.88,0,0,0,28.3,71a.61.61,0,0,0-.48,0,6.65,6.65,0,0,0-.77.34,3.19,3.19,0,0,1-3.51-.48,2.79,2.79,0,0,1-.5-.47,5.14,5.14,0,0,0-2.73-1.64c-.86-.27-1.73-.54-2.59-.84a5.45,5.45,0,0,1-2.47-1.76,4.55,4.55,0,0,1-1.13-3c0-.63,0-1.25,0-1.88a6.82,6.82,0,0,0-.6-3.15c-.38-.83-.8-1.63-1.19-2.45s-.76-1.65-1.1-2.49A4.53,4.53,0,0,1,11.58,49,3.17,3.17,0,0,0,12,46.54c-.07-.32,0-.68,0-1,0-.11-.21-.22-.35-.28a.55.55,0,0,0-.33,0A9.79,9.79,0,0,0,7.25,48,6.32,6.32,0,0,0,5.79,52.6c0,.57.11,1.13.12,1.7a3.18,3.18,0,0,1-1,2.46c-.41.39-.82.79-1.19,1.22a3,3,0,0,0,0,4.44c.49.55,1,1,1.57,1.56a9.28,9.28,0,0,1,2.79,5,13,13,0,0,0,.68,2.28,3,3,0,0,0,2.82,2.11q.67,0,1.35.09a9.82,9.82,0,0,1,3.87,1.23c.74.43,1.48.86,2.24,1.24a4.81,4.81,0,0,0,3,.45A4.43,4.43,0,0,0,24.4,75.37Zm54,23.19c-.63-1-1.15-2.09-1.69-3.15a6.4,6.4,0,0,1-.44-4c0-.33.12-.67.2-1a7.12,7.12,0,0,0-.8-5.09c-.24-.46-.47-.91-.73-1.35a2.15,2.15,0,0,0-1.32-1,.62.62,0,0,0-.45.12,3,3,0,0,0-.4.54,22.52,22.52,0,0,0-2.57,5.54c-2.24,6.31-1.51,4.38-2.65,10.72a21.66,21.66,0,0,0-.2,6.28,13.82,13.82,0,0,0,1.43,4.35,1.84,1.84,0,0,0,.71.7,4.9,4.9,0,0,0,1.26.51,13.88,13.88,0,0,1,5.82,2.73c.09.08.28,0,.42,0a.91.91,0,0,0,0-.33,10.85,10.85,0,0,1-.09-7.35c.29-1,.47-2.1.71-3.15.08-.34.18-.68.58-.76s.64.34.67.82a1.93,1.93,0,0,1,0,.34,9,9,0,0,0,1.07,4.6c.32.67.69,1.3,1.06,1.95a.3.3,0,0,0,.28.08c.08,0,.13-.16.18-.25a.47.47,0,0,0,0-.17,21.78,21.78,0,0,0-.45-4.82A17,17,0,0,0,78.39,98.56ZM52,58.44c-.37-.78-.51-.79-1.29-.42a15.14,15.14,0,0,1-2,.85,6,6,0,0,0-3,2.1c-.31.41-.62.81-1,1.2A3.72,3.72,0,0,1,42,63.56l-1.7.12A4.12,4.12,0,0,0,37.44,65c-.46.5-.89,1-1.39,1.5a2.76,2.76,0,0,1-3.59.46,10.37,10.37,0,0,1-2-1.55A6.8,6.8,0,0,0,28,63.7a1.31,1.31,0,0,1-.68-.48c-.41-.77-1.2-1-1.84-1.47a2.42,2.42,0,0,0-1.81-.21c-.05,0-.1.17-.13.27a.23.23,0,0,0,0,.16,6.71,6.71,0,0,1,1.28,3.12,6,6,0,0,0,1.84,3.2c.41.39.85.76,1.27,1.14l3.87,3.34a9.21,9.21,0,0,0,2.39,1.61,3.32,3.32,0,0,0,3.11-.08l1.48-.85a6.84,6.84,0,0,1,3.57-1c.9,0,1.81.06,2.72.07.68,0,1.36,0,2-.06a5,5,0,0,0,1.32-.32c1.87-.75,2.73-2,2.44-3.8a6.07,6.07,0,0,1,.77-4.09c.2-.35.31-.74.52-1.07a4.56,4.56,0,0,0,.37-3.28C52.41,59.6,52.21,59,52,58.44Zm-10.42-33a3.94,3.94,0,0,0-.48-.18A13.17,13.17,0,0,1,36.34,23a4.43,4.43,0,0,0-5.4,0A17,17,0,0,0,29,24.68a3.16,3.16,0,0,1-3.43.87l-.32-.1a2.89,2.89,0,0,0-3.72,1.17c-.33.47-.64.94-.94,1.42s-.78,1.26-1.19,1.87a5.76,5.76,0,0,1-2,1.84l-1.19.66a3.89,3.89,0,0,0-1.9,4.21A6.14,6.14,0,0,0,14.65,38,5.78,5.78,0,0,1,14,43.32c-.15.23-.27.5-.41.74a4.58,4.58,0,0,0-.15,4.27,12.44,12.44,0,0,0,1.45,2.5,44.34,44.34,0,0,1,4.21,6.39,8.07,8.07,0,0,0,1.44,1.9,4.72,4.72,0,0,0,3.71,1.39c.15,0,.41-.13.41-.22a.85.85,0,0,0-.16-.59,2.58,2.58,0,0,0-.67-.51,3.38,3.38,0,0,1-1.58-2.69c0-.11,0-.23,0-.34a5.88,5.88,0,0,0-1.92-4.4c-.72-.72-1.42-1.47-2.11-2.23a5,5,0,0,1-1.36-2.88,4,4,0,0,1,0-.85,2.23,2.23,0,0,1,2-2.18c.53-.12.63-.33.35-.79s-.44-.66-.65-1a2.66,2.66,0,0,1,0-3,17.64,17.64,0,0,1,1.08-1.53,2.85,2.85,0,0,0,.69-2,1,1,0,0,0,0-.17,2.92,2.92,0,0,1,2.24-3.35,2,2,0,0,0,1.35-1.6c.54-1.88,1.4-2.49,3.32-2.49a8.61,8.61,0,0,1,1,0,10.81,10.81,0,0,0,4.37-.41c3.3-.93,5.9.24,7.6,3.26a2.78,2.78,0,0,0,.32.59.84.84,0,0,0,.59.21c1.06-.22,2.1-.47,3.15-.72a.51.51,0,0,0,.41-.63c0-.29-.1-.56-.15-.84A4.24,4.24,0,0,0,41.53,25.47ZM6.93,32.14c-.21.82-.37,1.66-.54,2.5-.08.39-.14.78-.19,1.18a6,6,0,0,1-3.12,4.81,6.45,6.45,0,0,0-1.22.93,2.15,2.15,0,0,0-.52,2.91c.27.43.49.89.76,1.33a3.79,3.79,0,0,1,.3,3.59A6.76,6.76,0,0,0,2,50.69a2.52,2.52,0,0,0,.35,2,1.82,1.82,0,0,0,1.39.89.9.9,0,0,0,1.05-.84c0-.46,0-.91.09-1.37a7,7,0,0,1,2.18-4.5,12.15,12.15,0,0,1,4.84-2.77,1.54,1.54,0,0,0,1-.79,19.14,19.14,0,0,0,1-2,4.24,4.24,0,0,0,0-2.68c-.14-.49-.32-1-.43-1.47a5,5,0,0,1,2.35-5.55c.58-.36,1.19-.68,1.74-1.06a3.48,3.48,0,0,0,.82-.85.64.64,0,0,0-.05-.6,6.46,6.46,0,0,0-5.94-1.94C9.78,27.76,7.67,29.2,6.93,32.14Zm38.29,15.1a2.68,2.68,0,0,1-.85,3.35,1.17,1.17,0,0,0-.48,1.33,6.44,6.44,0,0,1,.17,1.52c-.07,1.46-.74,2.46-2.17,2.61a5.18,5.18,0,0,0-3.47,2c-.11.12-.25.23-.36.36a4.9,4.9,0,0,1-4.43,1.71,4.62,4.62,0,0,0-3.07.75c-.67.42-1.39.77-2.07,1.18-.18.1-.41.34-.39.48s.28.36.47.43a6.47,6.47,0,0,1,2.35,1.65,12.23,12.23,0,0,0,1.55,1.33,2.14,2.14,0,0,0,3.19-.32,11.15,11.15,0,0,0,.79-.89,5.05,5.05,0,0,1,3.67-1.91,8.8,8.8,0,0,1,1-.1,3.63,3.63,0,0,0,3.29-1.77,1.34,1.34,0,0,1,.11-.14,7.18,7.18,0,0,1,4.07-2.9,6.5,6.5,0,0,0,1.41-.6,1.87,1.87,0,0,0,1-2,6.56,6.56,0,0,0-.54-2,5,5,0,0,1,0-4.44,1,1,0,0,1,.06-.16,4.9,4.9,0,0,0-.94-5.53,9.47,9.47,0,0,0-4.34-2.89c-.33-.11-.59.07-.56.41a12.45,12.45,0,0,1-.16,3,8.9,8.9,0,0,0,.17,1.92C44.81,46.06,45,46.65,45.22,47.24ZM87,109.78c.43-.27.84-.58,1.28-.84A2.56,2.56,0,0,0,89.6,107a14.31,14.31,0,0,0,.2-2.53,19.12,19.12,0,0,0-.34-2.71,9.25,9.25,0,0,0-1.84-4.16,81.59,81.59,0,0,0-5.26-6.47,32.86,32.86,0,0,1-3.42-4.45c-.74-1.08-1.5-2.13-2.28-3.19a.44.44,0,0,0-.42,0,.53.53,0,0,0-.21.42,1.93,1.93,0,0,0,.27.61,9.94,9.94,0,0,1,1.11,2.84,6.78,6.78,0,0,1,.06,3,9.72,9.72,0,0,0-.24,1.17,5.61,5.61,0,0,0,.43,3.65c.46.85.84,1.75,1.37,2.54a20.29,20.29,0,0,1,3.33,11.1c0,1.08.1,2.15.17,3.23,0,.33.12.66.23,1.29A15.58,15.58,0,0,1,87,109.78ZM41.91,35.42a6.81,6.81,0,0,1,2.15,3,1.29,1.29,0,0,0,.83.75,21.08,21.08,0,0,1,3,1.3,8.45,8.45,0,0,1,3.69,4.11,4.58,4.58,0,0,1,.26,3.15c-.2.71-.45,1.41-.69,2.1a3.91,3.91,0,0,0,.24,3c.19.43.56.48,1,.19a1.9,1.9,0,0,0,.87-1.75c0-.39,0-.79-.1-1.18A2.71,2.71,0,0,1,53.7,48c.32-.4.67-.78,1-1.2a5.27,5.27,0,0,0,.57-5.48c-.16-.36-.29-.74-.47-1.1a5.56,5.56,0,0,1-.53-2.64,8.24,8.24,0,0,0-.13-1.86,3.39,3.39,0,0,0-3.26-3,6.06,6.06,0,0,0-.85,0,7.18,7.18,0,0,1-3.49-.65,6.36,6.36,0,0,0-4.81,0c-.57.18-.7.4-.64,1a7.57,7.57,0,0,0,.14.76A1.63,1.63,0,0,0,41.91,35.42Zm-23.1,9.29c-.26-.18-.71.16-.87.61a3.06,3.06,0,0,0,.32,2.62,7.42,7.42,0,0,0,1,1.35c.68.76,1.4,1.49,2.09,2.24a6,6,0,0,1,1.77,4.3,2.86,2.86,0,0,0,1.58,2.81,2.38,2.38,0,0,1,1.13,1.62c.31,1.1,1,1.4,2.08.93a12.18,12.18,0,0,0,1.94-1.06,5.5,5.5,0,0,1,3.86-1A4,4,0,0,0,37.4,57.7c.22-.26.48-.48.71-.74a4.67,4.67,0,0,1,3.06-1.67,3.8,3.8,0,0,0,.67-.14,1.55,1.55,0,0,0,1.23-1.46,5.82,5.82,0,0,0,0-1.18.57.57,0,0,0-.25-.41.51.51,0,0,0-.43.13c-.39.42-.71.9-1.11,1.3a9.62,9.62,0,0,1-1.44,1.18,3.39,3.39,0,0,1-2.3.43A15.5,15.5,0,0,0,33.12,55a2.25,2.25,0,0,1-2-.66,12.2,12.2,0,0,0-4.24-2.78,2.34,2.34,0,0,1-.58-.36,1.79,1.79,0,0,0-1.42-.42,2.56,2.56,0,0,1-2.36-1.08C21.81,49,21,48.28,20.3,47.58a3,3,0,0,1-1.17-2.35C19.08,45.14,19,44.84,18.81,44.71Zm-6,9.79c.52,1.14,1.09,2.25,1.62,3.39a6.73,6.73,0,0,1,.64,3.48c0,.45,0,.91,0,1.36a4.25,4.25,0,0,0,2.7,4.16,12.81,12.81,0,0,0,1.61.57c.59.2,1.19.38,1.78.57a5.2,5.2,0,0,1,2.42,1.53,3.47,3.47,0,0,0,.62.59,2.3,2.3,0,0,0,2.24.41c.5-.16.63-.51.29-.87s-.58-.55-.86-.83a6.17,6.17,0,0,1-1.93-3.53,8.32,8.32,0,0,0-2.27-4.12,3.25,3.25,0,0,0-.81-.61,7.22,7.22,0,0,1-2.34-2.45c-.26-.44-.54-.87-.77-1.32A28,28,0,0,0,15,52.54c-.65-.87-1.24-1.77-1.87-2.64-.15-.21-.24-.62-.56-.48s-.34.43-.44.68a4.7,4.7,0,0,0-.24,2C12.19,52.94,12.5,53.73,12.85,54.5Zm44.22,7.38a2.66,2.66,0,0,0,2.14-3.19,8.77,8.77,0,0,0-.29-1.33,4.67,4.67,0,0,1,.66-3.91c.15-.24.3-.48.47-.71a3.55,3.55,0,0,0,.47-2.94,6.86,6.86,0,0,0-1.68-3.11A20.59,20.59,0,0,0,57.13,45a.34.34,0,0,0-.56.16,10,10,0,0,1-2,3.32,2,2,0,0,0-.5,1.58c0,.34.06.68.1,1a2.6,2.6,0,0,1-1.08,2.53c-.22.18-.48.32-.69.5s-.31.27-.3.39c.11.88-.34,1.78.25,2.64a6.93,6.93,0,0,1,1.3,4.5c0,.54.17.66.76.6s1-.12,1.79-.22A8.77,8.77,0,0,0,57.07,61.88ZM28.53,28.61a10.7,10.7,0,0,0-2,0,1.7,1.7,0,0,0-1.61,1.3c0,.05,0,.1,0,.16a3,3,0,0,1-2.32,2.64,1.76,1.76,0,0,0-1.27,2A4.5,4.5,0,0,1,20,38.28c-.07.08-.13.18-.2.27-1,1.49-1.07,1.82-.07,3.35a3,3,0,0,1,.52,2.89,1.62,1.62,0,0,0,.46,1.86c1,1,1.94,1.92,2.92,2.86a1.34,1.34,0,0,0,.44.24c.21.1.52-.06.5-.27a8.59,8.59,0,0,0-1-4.1c-.38-.63-.75-1.28-1.08-1.93a15.42,15.42,0,0,1-.69-1.56,3,3,0,0,1,.51-3.19,8.09,8.09,0,0,0,1.55-3.2,3.18,3.18,0,0,1,3.23-2.74c.22,0,.45,0,.68,0a4.5,4.5,0,0,0,3.11-1.19c.21-.18.43-.36.66-.53a3.62,3.62,0,0,1,3.72-.37,10.4,10.4,0,0,1,1.75,1.05c.51.36,1,.81,1.47,1.16s.78,1,1.51.87a10.81,10.81,0,0,0-.31-1.82c-.82-2.24-2.28-3.82-4.8-4a9.79,9.79,0,0,0-2.3.26A9.47,9.47,0,0,1,28.53,28.61ZM64.18,221.89a54.88,54.88,0,0,0-9.9-8.8c-.65-.46-1.29-.94-2-1.36s-.9-1-1.64-1a19.34,19.34,0,0,0,.37,2,20.5,20.5,0,0,0,10.86,12.89A24.93,24.93,0,0,0,68.1,228c.24-.47-.23-.58-.44-.75-3.29-2.8-6.59-5.57-9.89-8.35-.26-.22-.52-.44-.77-.67a.48.48,0,0,1-.11-.61c.11-.24.44-.28.73-.06s.82.62,1.2.95c1.86,1.59,3.7,3.19,5.56,4.77.55.47,1.12.92,1.68,1.37l.2-.29C65.57,223.53,64.89,222.7,64.18,221.89ZM38.71,113.24c1-1.52,2-3,3.07-4.5a5.33,5.33,0,0,1,.9-1,.68.68,0,0,1,.61,0,.35.35,0,0,1,.07.57,73.71,73.71,0,0,0-4.68,6.7c-.57.84-1.24,1.62-1.85,2.44a8.39,8.39,0,0,0-1.34,1.94c.34.18.57,0,.81-.16a17.67,17.67,0,0,0,4.25-3.64c1.28-1.52,2.49-3.1,3.64-4.71a16.13,16.13,0,0,0,2.63-6,3.88,3.88,0,0,0,.14-.66c.06-.81.67-1.57.24-2.42-.66.41-1.34.8-2,1.24A7.87,7.87,0,0,0,44,104a68.34,68.34,0,0,0-5.9,6.59A17.36,17.36,0,0,0,34.91,118,26.05,26.05,0,0,0,38.71,113.24ZM29.44,48a19.33,19.33,0,0,1,3,2.51,11.19,11.19,0,0,0,2.12,1.71,4,4,0,0,0,5.6-1.88A.93.93,0,0,0,39.77,49a7.26,7.26,0,0,0-4.25-1.54,1.67,1.67,0,0,1-.67-.06c-2-.81-4-1.69-4.73-4a1.85,1.85,0,0,0-.64-1c-.23-.17-.42-.38-.65-.56l-1.48-1.11c-.63.55-.52,1.34-.63,2a8.87,8.87,0,0,0,0,1.15A7,7,0,0,0,29.44,48ZM39.55,83.62c-.25-1.46-.53-2.9-.77-4.36a5.29,5.29,0,0,0-1.94-2.91,1.57,1.57,0,0,0-.76-.31,11.33,11.33,0,0,1-4-1.79c-.57-.4-.7-.24-.85.42a10.48,10.48,0,0,0-.26,3.2,5.16,5.16,0,0,0,3.59,4.89c1.6.54,3.25.94,4.91,1.42A2.43,2.43,0,0,0,39.55,83.62Zm-34,14.82a7.76,7.76,0,0,0,4.35,3.86,3,3,0,0,0,2,.14.32.32,0,0,0,.21-.51c-.69-.75-1.38-1.5-2.08-2.24-.55-.58-1.13-1.12-1.66-1.71A2.11,2.11,0,0,1,8,97.24a.37.37,0,0,1,.11-.3.34.34,0,0,1,.3-.06,4,4,0,0,1,.66.51l3.09,3.16a3.06,3.06,0,0,0,.37.35c.08.06.26.12.29.09s.23-.28.2-.4a7,7,0,0,0-2-3.87,13.28,13.28,0,0,0-1.86-1.48c-1.56-1-3.15-2-4.73-3-.08,0-.21,0-.39,0A15.91,15.91,0,0,0,5.53,98.44ZM12.82,114a6.93,6.93,0,0,0,6.67-1.5,2.11,2.11,0,0,0,.54-.65.88.88,0,0,0,0-.62c0-.09-.29-.18-.44-.17-1.35.11-2.71.24-4.07.34a5.1,5.1,0,0,1-1.17,0c-.1,0-.19-.23-.23-.38a.32.32,0,0,1,.16-.26c.67-.13,1.33-.27,2-.35.9-.12,1.81-.18,2.71-.28a.7.7,0,0,0,.36-.27s-.08-.21-.16-.27a6,6,0,0,0-5.36-.77c-.59.18-1.15.47-1.73.7l-3.33,1.3c-.2.08-.38.2-.72.37A14.52,14.52,0,0,0,12.82,114Zm58.91,47.15c-.08-.85.1-1.35.43-1.27.6.15.5.71.53,1.12.1,1.93.16,3.86.23,5.79,0,.49,0,1,.09,1.7,2-4.27,1.13-13.4-1.6-17.9a5.9,5.9,0,0,0-.4,2.26c-.12.79-.17,1.58-.22,2.38s-.09,1.58-.1,2.38,0,1.47,0,2.21.07,1.59.15,2.38.2,1.58.34,2.36a5.82,5.82,0,0,0,.7,2.46A52.41,52.41,0,0,0,71.73,161.15Zm9.72,36.76a15.28,15.28,0,0,0,1.29,4.22,7.72,7.72,0,0,0,2.75,3.18,8.73,8.73,0,0,0,1.85.81c.47.16,1.17-.06,1.08-.21a2.79,2.79,0,0,0-.62-.75,19.8,19.8,0,0,1-3.41-4,2.12,2.12,0,0,1-.25-.62.37.37,0,0,1,.1-.3c.14-.06.38-.12.45,0a7.21,7.21,0,0,1,.8.86c.68.84,1.34,1.69,2,2.52a1.5,1.5,0,0,0,.4.3.5.5,0,0,0,.16,0c0-.11.11-.24.08-.31a5.18,5.18,0,0,0-.56-1c-1-1.34-2.11-2.68-3.2-4-.91-1.09-1.87-2.13-2.81-3.19-.11-.11-.24-.2-.49-.41A15.45,15.45,0,0,0,81.45,197.91ZM37.18,43.26c0,.33-.11.72.24.93a1.56,1.56,0,0,0,1.6.2c2-1,2-1.66.88-3.23a3.9,3.9,0,0,0-1.53-1.32,8.58,8.58,0,0,1-2.18-1.6,5.19,5.19,0,0,0-1.25-.87,1.57,1.57,0,0,0-2.16.72c-.17.3-.27.63-.41.94a1.43,1.43,0,0,0,.18,1.58c.46.64.55,1,1.43.22a5,5,0,0,1,1.33-.71.72.72,0,0,1,.89.3,5.24,5.24,0,0,1,.93,2.06C37.15,42.69,37.17,43,37.18,43.26ZM22.43,165.06c-.12,0-.23.15-.35.23.07.09.11.21.2.27a10.66,10.66,0,0,0,8.43,1.77,7.19,7.19,0,0,0,3.15-1.59,3.11,3.11,0,0,0,.55-.65.37.37,0,0,0,0-.31.28.28,0,0,0-.25-.14c-.67.13-1.33.27-2,.43l-2.82.65a1.52,1.52,0,0,1-.67,0,.52.52,0,0,1-.31-.34.46.46,0,0,1,.23-.4c.43-.15.87-.25,1.31-.36.88-.22,1.77-.43,2.64-.66.08,0,.15-.17.16-.27s-.13-.16-.2-.16a15.72,15.72,0,0,0-4,.53c-.43.14-.88.23-1.33.34v.09C25.59,164.69,24,164.86,22.43,165.06Zm55.08-52.41a10.51,10.51,0,0,0,2.17,4.19A3.05,3.05,0,0,0,81.49,118a.43.43,0,0,0,.52-.49c-.19-.88-.39-1.76-.56-2.64a12.82,12.82,0,0,0-1.33-3.83c-.6-1.08-1.09-2.23-1.64-3.34-.12-.25-.28-.48-.49-.82A8.71,8.71,0,0,0,77.51,112.65Zm-10,20.11c-.11,0-.21-.08-.32-.1-1-.2-2.1-.41-3.15-.55-.25,0,.31,1.72,1.14,3.23a6.15,6.15,0,0,0,5.31,3.13.79.79,0,0,0,.34,0c.15-.05.36-.1.42-.22s-.06-.33-.17-.41c-.86-.65-1.74-1.27-2.61-1.9a7.45,7.45,0,0,1-.9-.77.51.51,0,0,1,0-.45c.08-.1.34-.21.43-.16.45.24.88.52,1.3.8a13,13,0,0,0,2.59,1.59A6.32,6.32,0,0,0,67.52,132.76ZM29.2,73.81a3.81,3.81,0,0,0-.94.36,8,8,0,0,0-4.13,5.71c-.07.51-.12,1-.15,1.52,0,.08.27.27.31.24,1.38-.87,2.77-1.74,4.11-2.68a3.15,3.15,0,0,0,1.4-2.58c0-.74.07-1.47.09-1.9C29.79,73.9,29.49,73.71,29.2,73.81Zm-.49,76a29.69,29.69,0,0,0-3.35-5.7,2.07,2.07,0,0,0-.33-.39.38.38,0,0,0-.31-.06c-.07,0-.13.16-.14.25A14.64,14.64,0,0,0,28,154.17c.08.09.26.08.39.12a.92.92,0,0,0,0-.33,3.82,3.82,0,0,0-.21-.46,3.06,3.06,0,0,1-.25-.63c0-.14.08-.41.16-.42s.49,0,.58.1c.3.41.52.87.8,1.3a11.86,11.86,0,0,0,.74,1A17.33,17.33,0,0,0,28.71,149.85Zm42.61-37c-.49-.12-1-.28-1.47-.41a.51.51,0,0,0-.29,0,.76.76,0,0,0,0,.47,12.41,12.41,0,0,0,2.25,3,6.81,6.81,0,0,0,2.12,1.38,12.82,12.82,0,0,0,4.61,1,1.91,1.91,0,0,0,.58-.17C76.87,115.71,74.52,113.67,71.32,112.87ZM60.49,160.45a20.75,20.75,0,0,0-9.66-4,1,1,0,0,0-.34,0,.48.48,0,0,0-.27.15.37.37,0,0,0,0,.31,15.34,15.34,0,0,0,1.47,1.64,19.23,19.23,0,0,0,9,4.17,2.06,2.06,0,0,0,.65,0c.05,0,.09-.07.19-.16a26.26,26.26,0,0,0-3.28-1.8c-1.12-.56-2.27-1.06-3.4-1.6a4.24,4.24,0,0,1-.86-.53.52.52,0,0,1,0-.46.49.49,0,0,1,.41-.19,8.73,8.73,0,0,1,1.11.42l5.17,2.43C60.54,160.53,60.53,160.47,60.49,160.45ZM10.65,148.28a2.78,2.78,0,0,0,.21.27,9.78,9.78,0,0,0,6.51,3,5,5,0,0,0,.67,0,.59.59,0,0,0,.45-1,7.15,7.15,0,0,0-1.26-1.37,9.11,9.11,0,0,0-6-1.53C10.57,147.74,10.45,148,10.65,148.28ZM83.75,117A12.73,12.73,0,0,0,88,112.67a4.62,4.62,0,0,0,.51-1.08c.14-.55.76-1,.37-1.68-.49.26-1,.49-1.46.79-.76.49-1.5,1-2.23,1.56a6.65,6.65,0,0,0-1.83,2.21A3.17,3.17,0,0,0,83,116.6C83.05,117.16,83.37,117.29,83.75,117ZM58.14,149.42a3.14,3.14,0,0,0,.57.83.8.8,0,0,0,.92.25,1.22,1.22,0,0,0,.85-.76.91.91,0,0,0,0-.33,10.11,10.11,0,0,0-2.75-6.21.42.42,0,0,0-.76.18,9.43,9.43,0,0,0,.07,3.29C57.37,147.43,57.73,148.44,58.14,149.42ZM39.64,47.75A2.43,2.43,0,0,0,42.2,47a1.37,1.37,0,0,0,.15-.95,2.52,2.52,0,0,0-1.06-1.47.51.51,0,0,0-.46-.06,10.42,10.42,0,0,0-1.75,1,9.7,9.7,0,0,0-1.16,1.35C38.56,47.19,39.08,47.51,39.64,47.75Zm43.84,71.06c-.1-.23-.3-.41-.51-.27a4.77,4.77,0,0,1-2.24.59.61.61,0,0,0-.32.49,4.53,4.53,0,0,0,1.65,2.66.8.8,0,0,0,1.25-.35,4.79,4.79,0,0,0,.27-2.8A1.7,1.7,0,0,0,83.48,118.81ZM35.33,41.26c-.54-.12-.89.42-1.26.76a1.91,1.91,0,0,0-.65,1.5c0,1.33,0,1.36,1.22.95l.49-.15c1.09-.34,1.24-.59,1-1.79C36,42.08,36,41.4,35.33,41.26Zm-5.13,0a7.52,7.52,0,0,0,1.1-2.1.62.62,0,0,0-.46-.78,1.62,1.62,0,0,0-1.76.26,1.39,1.39,0,0,0,.14,2.3c.21.18.44.34.65.5C30,41.33,30.15,41.31,30.2,41.23Zm1.73.3a.54.54,0,0,0-.36-.28.56.56,0,0,0-.36.3,2.39,2.39,0,0,0,.14,2.26c.21.38.41.82,1,.95A4.23,4.23,0,0,0,31.93,41.53Zm5.52,4.24a.32.32,0,0,0,.1-.3.4.4,0,0,0-.25-.2,3.27,3.27,0,0,0-2.89.43.33.33,0,0,0-.12.29.34.34,0,0,0,.2.24c.48.14,1,.26,1.48.4C36.49,46.33,37,46.07,37.45,45.77Z"/><polygon class="cls-1" points="70.57 0 70.57 85.69 71.87 84.95 71.87 1.3 694.74 1.3 694.74 230.16 108.19 230.16 108.19 231.46 696.04 231.46 696.04 0 70.57 0"/></g></g></svg>