<svg xmlns="http://www.w3.org/2000/svg" viewBox="0 0 458.2 458.2"><defs><style>.cls-1{fill:#463026;}</style></defs><g id="Layer_2" data-name="Layer 2"><g id="Layer_1-2" data-name="Layer 1"><path class="cls-1" d="M391.1,67.1a229.1,229.1,0,0,0-324,324,229.1,229.1,0,0,0,324-324Zm-1.17,322.83A227.45,227.45,0,0,1,68.27,68.27,227.45,227.45,0,0,1,389.93,389.93Z"/><path class="cls-1" d="M309.78,71.13a6.15,6.15,0,0,1-.25-.76c-.11-.75-.17-1.5-.26-2.25-.23-1.74-.43-3.49-.71-5.23-1.18-7.26-10.87-11.63-16.95-7.41-.42.29-.84.57-1.27.82a.7.7,0,0,1-1.07-.23c-.3-.51-.5-1.07-.83-1.55a30.28,30.28,0,0,0-2.2-3.05,4.39,4.39,0,0,0-4.1-1.42,8.65,8.65,0,0,0-1.23.25,4,4,0,0,1-4.67-1.52A15.85,15.85,0,0,0,273.35,46a7.59,7.59,0,0,0-8.75-.55,22.26,22.26,0,0,1-7.66,3,1.09,1.09,0,0,0-.24.07,7.73,7.73,0,0,0-5.23,4.56,177.56,177.56,0,0,0-22.37-1.48c-97.86,0-177.47,79.61-177.47,177.47S131.24,406.57,229.1,406.57,406.57,327,406.57,229.1C406.57,160.29,367.17,100.57,309.78,71.13Zm-18.9-13.37a9.53,9.53,0,0,1,8.95-2.19c3.71,1.2,6.65,3.56,7.42,8,.22,1.24.36,2.49.52,3.74.07.58.12,1.17.15,1.75A8.91,8.91,0,0,0,312,76.45a8.85,8.85,0,0,1,1.69,1.49c1.26,1.39,1.5,2.84.44,4.33-.43.62-.82,1.27-1.26,1.88A5.56,5.56,0,0,0,312,89.4a10.84,10.84,0,0,1,.46,1.95,3.79,3.79,0,0,1-.74,2.85,2.64,2.64,0,0,1-2.13,1.15A1.34,1.34,0,0,1,308.13,94c0-.67.05-1.35,0-2a10.36,10.36,0,0,0-2.71-6.87,17.88,17.88,0,0,0-6.81-4.6,2.28,2.28,0,0,1-1.43-1.28,31.26,31.26,0,0,1-1.2-3,6.39,6.39,0,0,1,.33-3.95c.26-.7.58-1.39.8-2.11a7.33,7.33,0,0,0-2.84-8.42c-.82-.59-1.68-1.12-2.45-1.75a5.13,5.13,0,0,1-1.12-1.34A1,1,0,0,1,290.88,57.76ZM266.2,120.54a13.82,13.82,0,0,1-3.7,2.1,4.89,4.89,0,0,1-4.57-.47c-.7-.46-1.39-.93-2.08-1.41a10.13,10.13,0,0,0-5.13-1.87c-1.33-.1-2.67-.11-4-.2a29.7,29.7,0,0,1-3-.32,7.21,7.21,0,0,1-1.91-.61c-2.66-1.31-3.8-3.22-3.17-5.85a8.94,8.94,0,0,0-.68-6.11c-.25-.53-.37-1.11-.64-1.63-.73-1.44-.66-2.91-.18-4.86.2-.42.56-1.27,1-2.07.63-1.1.84-1.1,1.94-.48a21.39,21.39,0,0,0,2.9,1.48,8.77,8.77,0,0,1,4.22,3.42c.42.63.83,1.27,1.28,1.87a5.48,5.48,0,0,0,3.72,2.34l2.49.36a6,6,0,0,1,4.05,2.29c.62.8,1.2,1.63,1.88,2.36a4,4,0,0,0,5.22,1.08,15.85,15.85,0,0,0,3.14-2,9.88,9.88,0,0,1,3.85-2.29,1.88,1.88,0,0,0,1.05-.63c.68-1.09,1.88-1.36,2.87-1.95a3.55,3.55,0,0,1,2.68-.12c.08,0,.13.27.16.42a.24.24,0,0,1-.08.22,10,10,0,0,0-2.21,4.45,9,9,0,0,1-3.07,4.51c-.65.53-1.32,1-2,1.52Zm.66,7.59c-.53,3.45-2.36,5.89-5.82,6.79-2.41.62-4.87,1-7.37,1.54a2.86,2.86,0,0,1-.06-.83c.52-2.11,1.1-4.21,1.61-6.32.45-1.84,1.8-3,3.16-4.07a2.48,2.48,0,0,1,1.16-.37,16.61,16.61,0,0,0,6.1-2.19c.87-.53,1.05-.28,1.2.71A15.38,15.38,0,0,1,266.86,128.13ZM227.48,89.06c-.2-.37-.39-.74-.61-1.1a5.17,5.17,0,0,1-.37-4.36,10.13,10.13,0,0,1,2.81-4.4A30.54,30.54,0,0,1,232,77a.5.5,0,0,1,.8.29,14.77,14.77,0,0,0,2.62,5.11,3,3,0,0,1,.57,2.37c-.08.5-.16,1-.27,1.49A3.85,3.85,0,0,0,237,90.06c.31.28.67.52,1,.81s.43.43.39.61c-.25,1.28.31,2.66-.65,3.86a10.2,10.2,0,0,0-2.41,6.47c0,.79-.32,1-1.17.8s-1.48-.3-2.62-.53a11.82,11.82,0,0,1-1.31-.35,3.91,3.91,0,0,1-2.78-4.92,13.27,13.27,0,0,1,.56-1.93A6.88,6.88,0,0,0,227.48,89.06Zm28.65-29.39c.83.33,1,.67.83,1.56-.08.41-.21.81-.28,1.1a2.41,2.41,0,0,1-1.24,2.16,10.25,10.25,0,0,0-3.49,4.2,1.85,1.85,0,0,1-1.31,1,31.77,31.77,0,0,0-4.48,1.59,12.44,12.44,0,0,0-5.88,5.63,6.76,6.76,0,0,0-.73,4.61c.22,1.06.5,2.12.78,3.17a5.77,5.77,0,0,1-.68,4.35c-.33.61-.88.64-1.45.17a2.82,2.82,0,0,1-1.09-2.66c.07-.58.16-1.17.28-1.74a3.93,3.93,0,0,0-.68-3.1c-.42-.63-.88-1.22-1.27-1.87a7.78,7.78,0,0,1-.23-8.12c.28-.52.51-1.06.81-1.57a8.1,8.1,0,0,0,1.07-3.82,11.91,11.91,0,0,1,.39-2.73,5,5,0,0,1,5.13-4,7.44,7.44,0,0,1,1.25,0,10.53,10.53,0,0,0,5.2-.58C251.55,58.15,253.84,58.77,256.13,59.67Zm31.21,11.45a3.74,3.74,0,0,1,.27.42c1.37,2.3,1.38,2.79-.27,4.94a4.52,4.52,0,0,0-1.08,4.19,2.4,2.4,0,0,1-.88,2.69l-4.6,3.88a2.47,2.47,0,0,1-.68.3c-.32.12-.75-.15-.71-.46a13,13,0,0,1,1.86-5.92c.64-.89,1.25-1.79,1.82-2.72a22.33,22.33,0,0,0,1.17-2.22,4.38,4.38,0,0,0-.4-4.74,11.86,11.86,0,0,1-1.92-4.87c-.53-2.79-1.68-3.88-4.44-4.39a8.28,8.28,0,0,0-1-.13A6.63,6.63,0,0,1,272,60c-.29-.29-.6-.58-.92-.85a5.32,5.32,0,0,0-5.42-1A16.16,16.16,0,0,0,263,59.54c-.79.46-1.49,1.08-2.3,1.53s-1.25,1.36-2.31,1.13a15,15,0,0,1,.66-2.64c1.45-3.22,3.78-5.37,7.49-5.36a15.27,15.27,0,0,1,3.36.63,14.09,14.09,0,0,0,6,1.13,15.89,15.89,0,0,1,3,.22,2.48,2.48,0,0,1,2.22,2.09,1,1,0,0,1,.05.25,4.47,4.47,0,0,0,3.12,4.14,2.56,2.56,0,0,1,1.65,3A6.69,6.69,0,0,0,287.34,71.12ZM241.41,83.35c0-.08,0-.16-.07-.24-1.17-3.13-.22-5.73,2-8A13.93,13.93,0,0,1,250,71.32c.5-.14.86.15.78.66a18.32,18.32,0,0,0-.11,4.5,13.3,13.3,0,0,1-.45,2.81l-1,2.22c-.83,1.87-.74,3.61.87,5a1.73,1.73,0,0,1,.57,2,9.38,9.38,0,0,0-.42,2.21c-.06,2.17.82,3.71,2.91,4.09a7.62,7.62,0,0,1,4.88,3.25c.15.21.34.38.49.58a7.23,7.23,0,0,0,6.32,3,6.84,6.84,0,0,1,4.44,1.44c.93.7,2,1.28,2.91,2,.25.18.56.55.51.75s-.44.5-.73.58a9.58,9.58,0,0,0-3.64,2.17,18.22,18.22,0,0,1-2.42,1.79c-1.93,1.11-3.21.85-4.65-.82a14.78,14.78,0,0,1-1.07-1.4,7.54,7.54,0,0,0-5.19-3.22c-.5-.08-1-.21-1.49-.25a5.36,5.36,0,0,1-4.64-3l-.14-.21a10.65,10.65,0,0,0-5.67-4.73,9.75,9.75,0,0,1-2-1,2.77,2.77,0,0,1-1.28-3,10,10,0,0,1,1-2.82A7.36,7.36,0,0,0,241.41,83.35Zm23.94-2.91a.55.55,0,0,1,.14.45.52.52,0,0,1-.33.32c-.71.16-1.44.28-2.22.42-.73-.49-1.41-.93-2.07-1.41a.48.48,0,0,1-.12-.46.62.62,0,0,1,.38-.28A4.9,4.9,0,0,1,265.35,80.44Zm-2.21-4.85c.23-.65.4-1.64,1.34-1.78s1.26.71,1.77,1.26a2.81,2.81,0,0,1,.79,2.28c-.15,2-.17,2-1.9,1.26l-.71-.28C262.87,77.71,262.68,77.33,263.14,75.59Zm.37,7.34a2.58,2.58,0,0,0,1,0c3.07-1,6.08-2,7.39-5.41A2.68,2.68,0,0,1,273,76.15c.35-.23.66-.52,1-.75.76-.5,1.53-1,2.3-1.47.87.88.62,2,.69,3.09a10.19,10.19,0,0,1-.1,1.68,10.34,10.34,0,0,1-4.46,5.67,28.72,28.72,0,0,0-4.67,3.37,15.49,15.49,0,0,1-3.3,2.27,5.9,5.9,0,0,1-8-3.38,1.37,1.37,0,0,1,.68-1.91C259.09,83.64,261.12,82.64,263.51,82.93Zm10-9c-.33.25-.69.46-1,.67-.21-.13-.41-.19-.47-.31a10.76,10.76,0,0,1-1.38-3.21.91.91,0,0,1,.76-1.1,2.42,2.42,0,0,1,2.55.58C275,71.82,274.85,72.93,273.5,74Zm-3.44,4c-.37.53-.7,1.15-1.55,1.27a6.17,6.17,0,0,1,.94-4.69c.11-.18.39-.4.56-.38a.81.81,0,0,1,.5.49A3.56,3.56,0,0,1,270.06,78Zm-1.42-4.84c-.75.88-.92,1.33-2.12.16a7.55,7.55,0,0,0-1.89-1.19,1.05,1.05,0,0,0-1.34.34,7.81,7.81,0,0,0-1.6,2.92c0,.32-.11.73-.15,1.15s.08,1.07-.46,1.34a2.31,2.31,0,0,1-2.38.12c-2.89-1.73-2.79-2.67-.93-4.85a5.92,5.92,0,0,1,2.39-1.78,12.4,12.4,0,0,0,3.39-2.1,7.12,7.12,0,0,1,1.93-1.14,2.3,2.3,0,0,1,3.1,1.3c.21.45.33,1,.5,1.42A2.14,2.14,0,0,1,268.64,73.17Zm-10.15,6.47a13.64,13.64,0,0,1,1.56,2.1c-1,.43-1.78.85-2.62,1.14a3.6,3.6,0,0,1-3.68-1.42,2,2,0,0,1-.12-1.41,3.71,3.71,0,0,1,1.72-2A.8.8,0,0,1,256,78,16.59,16.59,0,0,1,258.49,79.64ZM254,83.57a1.28,1.28,0,0,1,.91,1.54,5,5,0,0,0,1.58,4.31,8.8,8.8,0,0,0,3.54,2.3c.57.21,1.14.4,1.71.59-.6.1-1.21.22-1.82.26a4.64,4.64,0,0,1-4.15-1.89c-.36-.46-.71-.93-1-1.42a10.77,10.77,0,0,0-3-3.29c-1.4-.9-2-2.21-1-4.14.36-.73.74-1.46,1.18-2.31,0,.36.08.59.09.83A3.47,3.47,0,0,0,254,83.57Zm16.42,18.59a8.13,8.13,0,0,0-5.56-1.9,5.84,5.84,0,0,1-5.22-2.51c-.3-.4-.66-.76-1-1.16a6.9,6.9,0,0,0-4.32-2.8,5.6,5.6,0,0,1-1-.27,2.32,2.32,0,0,1-1.65-2.28,8.47,8.47,0,0,1,.15-1.74.84.84,0,0,1,.42-.57.72.72,0,0,1,.62.24c.51.66.93,1.4,1.48,2a14.83,14.83,0,0,0,2,1.89,4.88,4.88,0,0,0,3.33.88,23.28,23.28,0,0,1,6.5.34,3.29,3.29,0,0,0,3.07-.76,17.92,17.92,0,0,1,6.55-3.61,3.4,3.4,0,0,0,.88-.47,2.68,2.68,0,0,1,2.14-.46,3.77,3.77,0,0,0,3.59-1.33c1.07-1.05,2.27-2,3.44-2.91a4.46,4.46,0,0,0,2-3.34c.09-.13.24-.55.53-.73s1,.32,1.22,1a4.52,4.52,0,0,1-.77,3.82,11.29,11.29,0,0,1-1.66,1.87c-1.08,1-2.23,2-3.33,3.06a8.91,8.91,0,0,0-3.07,6.13,4.2,4.2,0,0,1-2.63,4,3.51,3.51,0,0,0-1.84,2.26c-.58,1.59-1.63,1.95-3.16,1.14A17.55,17.55,0,0,1,270.41,102.16Zm-7.53-40.83a26.47,26.47,0,0,1,2.81-1.65,4,4,0,0,1,4.66.65c.44.39.85.82,1.29,1.2a7.09,7.09,0,0,0,4.05,1.83,13.78,13.78,0,0,1,2.45.48,2.92,2.92,0,0,1,2.27,2.43,15.35,15.35,0,0,0,2.53,6.49,2.27,2.27,0,0,1,.21,2.17,15.61,15.61,0,0,1-1,2.29c-.54.94-1.19,1.82-1.8,2.72a10.06,10.06,0,0,0-2,4.82,4.49,4.49,0,0,1-2.89,3.79,19.08,19.08,0,0,1-1.87.73,12,12,0,0,0-4.11,2.35,4,4,0,0,1-4.13,1.12A22.16,22.16,0,0,0,262,92.3s.07-.1.12-.11a12.35,12.35,0,0,0,6.58-3.38,25,25,0,0,1,4.46-3.23,10.78,10.78,0,0,0,4.84-5.9,9.09,9.09,0,0,0-.1-6.15,1.13,1.13,0,0,0-.37-.65c-1.26-.68-1.69-2-2.38-3.09a2.54,2.54,0,0,0-1.87-1.16,8.32,8.32,0,0,0-2.23,0,1.55,1.55,0,0,1-1.53-.53c-1.87-1.94-3.52-2.12-5.79-.71a7.29,7.29,0,0,0-1,.73,14,14,0,0,1-3.39,2.11c-2.25,1.14-4,2.81-4.32,5.46-.15,1-1,1.24-1.7,1.64-.12.07-.5-.08-.61-.24a4.26,4.26,0,0,1-.65-2.64c.21-4,1.59-7.3,5.19-9.45C259.14,63.87,261,62.55,262.88,61.33Zm19.49,43.32a4.69,4.69,0,0,1,1.26-.81,10.48,10.48,0,0,0,3.7-3.33c.43-.62.89-1.23,1.28-1.87a42.09,42.09,0,0,1,4.55-6c1-1.2,2-2.46,3-3.68.24-.28.4-.88.87-.64.29.15.45.67.56,1.06a6.9,6.9,0,0,1,.14,3c-.57,1.11-1.1,2.25-1.71,3.34-.89,1.62-1.85,3.2-2.75,4.8a10,10,0,0,0-1.33,5c0,.67-.06,1.34-.09,2-.14,3-1.8,4.78-4.43,5.82a19.59,19.59,0,0,1-2.42.65c-.9.23-1.8.43-2.69.65a7.67,7.67,0,0,0-3.73,2,6.61,6.61,0,0,1-1,.79,3.38,3.38,0,0,1-3.35.35c-.72-.29-.87-.82-.32-1.31s.9-.74,1.35-1.13a9.12,9.12,0,0,0,3.23-5C279.11,108,280.73,106.33,282.37,104.65Zm-13.55,18.61c.2-.84.66-1.08,1.08-.92a6.2,6.2,0,0,1,1.35.64c3,2.2,5.13,5,5.43,8.86a21,21,0,0,1,.06,2.24c0,.12-.43.37-.49.33-1.93-1.44-3.87-2.87-5.74-4.39a4.73,4.73,0,0,1-1.78-4C268.77,125,268.8,123.9,268.82,123.26Zm5.69-.43a6.06,6.06,0,0,0-4.28-2.35,1.46,1.46,0,0,1-.67-.28c-.08-.06-.12-.36-.06-.4.66-.5,1.33-1,2-1.44a.92.92,0,0,1,.71,0,11.72,11.72,0,0,1,1.1.6,4.69,4.69,0,0,0,5.21-.32,4,4,0,0,0,.78-.64,7.67,7.67,0,0,1,4.2-2.11c1.3-.3,2.61-.6,3.91-.94a8.1,8.1,0,0,0,3.82-2.32,6.75,6.75,0,0,0,2-4.23q.11-1.38.15-2.76a10,10,0,0,1,1.23-4.57c.65-1.18,1.36-2.32,2-3.49s1.31-2.33,1.9-3.53a6.69,6.69,0,0,0,0-6.3,4.6,4.6,0,0,1-.4-3.6c.13-.47.05-1,.16-1.49,0-.16.34-.3.55-.37a.79.79,0,0,1,.48.1A14.29,14.29,0,0,1,305,86.83a9.3,9.3,0,0,1,1.65,6.91c-.1.84-.29,1.66-.37,2.49a4.64,4.64,0,0,0,1.18,3.72c.55.63,1.11,1.26,1.61,1.93,1.7,2.32,1.53,4.53-.53,6.52-.78.76-1.65,1.43-2.49,2.12a13.8,13.8,0,0,0-4.66,7,19.17,19.17,0,0,1-1.24,3.29,4.38,4.38,0,0,1-4.37,2.78c-.67,0-1.34,0-2,0A14.38,14.38,0,0,0,288,125c-1.13.55-2.26,1.09-3.43,1.56a7.05,7.05,0,0,1-4.45.35,6.75,6.75,0,0,1-3.3-1.7C276,124.42,275.25,123.63,274.51,122.83ZM252.35,54.9a6.27,6.27,0,0,1,4.75-5,4.89,4.89,0,0,1,.72-.21A19.61,19.61,0,0,0,265,46.83a6.53,6.53,0,0,1,7.94.63,23.86,23.86,0,0,1,2.65,2.67,4.64,4.64,0,0,0,4.94,1.65c.17,0,.33-.06.49-.11a4.26,4.26,0,0,1,5.34,2.14c.43.72.83,1.45,1.23,2.19.52,1,1,1.94,1.54,2.88a8.64,8.64,0,0,0,2.72,2.92c.56.37,1.12.73,1.67,1.11,2.33,1.57,2.83,3.82,2.34,6.4a8.7,8.7,0,0,1-.62,1.91,8.52,8.52,0,0,0,.36,8,11.72,11.72,0,0,1,.52,1.14,6.7,6.7,0,0,1-.25,6.29,17.63,17.63,0,0,1-2.41,3.51,66.36,66.36,0,0,0-6.89,9,12,12,0,0,1-2.32,2.62,7,7,0,0,1-5.61,1.64c-.22,0-.58-.24-.59-.37a1.29,1.29,0,0,1,.31-.85,3.8,3.8,0,0,1,1.05-.68A4.94,4.94,0,0,0,282,97.66a2.73,2.73,0,0,0,.06-.49,8.69,8.69,0,0,1,3.32-6.26q1.71-1.48,3.34-3a7.37,7.37,0,0,0,2.33-4.08,6.51,6.51,0,0,0,.12-1.24,3.3,3.3,0,0,0-2.69-3.43c-.77-.25-.89-.55-.43-1.21.33-.48.72-.92,1.07-1.4a3.92,3.92,0,0,0,.34-4.48,27.09,27.09,0,0,0-1.43-2.37,4.2,4.2,0,0,1-.78-3.08c0-.08,0-.17,0-.25.34-2.47-.48-4.27-2.91-5.19a2.94,2.94,0,0,1-1.82-2.49c-.58-2.82-1.78-3.82-4.6-4a12.82,12.82,0,0,0-1.51-.07,15.67,15.67,0,0,1-6.37-1.08c-4.76-1.74-8.7-.3-11.54,4a3.91,3.91,0,0,1-.54.84,1.17,1.17,0,0,1-.88.24c-1.53-.43-3-.92-4.56-1.4a.76.76,0,0,1-.53-1C252.12,55.71,252.24,55.31,252.35,54.9ZM53.29,229.1c0-96.94,78.87-175.81,175.81-175.81a174,174,0,0,1,21.78,1.43c-.16.6-.33,1.2-.48,1.81a1.38,1.38,0,0,1-1,1,12,12,0,0,1-4.68.77,21.13,21.13,0,0,0-2.26-.1,6.43,6.43,0,0,0-6.22,4.6,13.91,13.91,0,0,0-.54,3.21,9,9,0,0,1-1.08,3.83A13.49,13.49,0,0,0,232.85,74,1.72,1.72,0,0,1,232,75.2c-.57.36-1.12.75-1.65,1.15a15.64,15.64,0,0,0-4.24,4.6c-1.49,2.61-2.11,5.3-.29,8.06.18.28.31.59.47.89a5.53,5.53,0,0,1,.35,4.62c-.19.55-.4,1.1-.54,1.67a5.47,5.47,0,0,0,4,7c.8.24,1.64.34,2.45.54a18,18,0,0,1,2.41.7,2.41,2.41,0,0,1,1.13.93c.94,1.7,1.74,3.45,1.25,5.5a18.33,18.33,0,0,0-.27,2,5.13,5.13,0,0,0,1.41,4.15,7.78,7.78,0,0,0,3.49,2.37,14.23,14.23,0,0,0,4.2.71c1.67,0,3.34.17,5,.29a6.19,6.19,0,0,1,3.26,1.19c.81.59,1.58,1.25,2.35,1.89a.62.62,0,0,1,0,1.05,7.74,7.74,0,0,0-2.81,3.78c-.91,3.14-1.72,6.31-2.53,9.48a1,1,0,0,0,.32.85,1.06,1.06,0,0,0,.92,0,16.15,16.15,0,0,1,5.49-1.69c.75-.14,1.49-.27,2.22-.43,3.11-.7,5.61-2.2,6.9-5.27a1.23,1.23,0,0,1,.23-.44c.09-.09.31-.18.39-.13a.5.5,0,0,1,.19.4c-.14,1.67-.3,3.34-.47,5-1,9.76-2.55,19.44-4.18,29.11-1.08,6.37-2.58,12.65-4.21,18.9-.19.72-.45,1.42-.69,2.14-.19-.1-.3-.12-.32-.17-.17-.55-.36-1.1-.48-1.67a30.48,30.48,0,0,0-5.91-12.65c-1.49-1.92-3-3.82-4.48-5.76-2.1-2.77-4.91-4.79-7.5-7a.39.39,0,0,0-.22-.11,3.4,3.4,0,0,0-1.19,0c-.47.16-.46.66-.39,1.08.35,2.15.77,4.3,1.06,6.46a25.66,25.66,0,0,0,3.43,9.65c1.29,2.16,2.68,4.26,4.12,6.32a31.13,31.13,0,0,0,7.8,7.77c.68.49,1.34,1,2,1.5a1,1,0,0,1,.37,1.12c-.13.57-.28,1.14-.45,1.7-.86,2.8-1.76,5.6-2.59,8.41-2.89,9.82-5.92,19.59-9.26,29.26-2,5.78-4,11.56-6.07,17.32-2.72,7.58-5.91,15-9.21,22.3s-6.63,14.3-10.16,21.34c-6.23,12.43-12.65,24.77-19.53,36.85-2.32,4.08-4.92,8-7.4,12a7.25,7.25,0,0,1-.75,1,.46.46,0,0,1-.42.09.53.53,0,0,1-.28-.37c-.13-1-.22-2-.35-3-.56-4.4-1.22-8.79-1.69-13.2-.74-7-1.34-14-2-21-.67-6.75-1.2-13.52-1.47-20.3a21,21,0,0,1,3.13-12.22,50,50,0,0,1,8.12-10.2,82.85,82.85,0,0,0,10-10.91,2.12,2.12,0,0,1,2.36-1,14.35,14.35,0,0,0,5.5.13,61.82,61.82,0,0,0,6.85-1.59,25.52,25.52,0,0,0,7.89-4.35,8.57,8.57,0,0,0,2.67-3.29c.44-.94,0-1.66-1.11-1.65a26.7,26.7,0,0,0-7.7.94,40.13,40.13,0,0,0-10.12,4.4,5.64,5.64,0,0,1-2.62,1.21c.19-.39.32-.68.46-1,.87-1.72,1.81-3.4,2.6-5.16.92-2.06,1.72-4.18,2.56-6.28a1.1,1.1,0,0,1,1.09-.85c1.55,0,2.45-1,3.19-2.14a17.38,17.38,0,0,0,2.63-7.79,9.37,9.37,0,0,0-.27-3,1.44,1.44,0,0,0-2.33-.94,6.85,6.85,0,0,0-1.38,1.08,16.58,16.58,0,0,0-4.6,8.5,4.27,4.27,0,0,0,.05,2.46,4,4,0,0,1-.17,3.38c-.64,1.64-1.26,3.29-2,4.89a63.55,63.55,0,0,1-13.55,18.9,8.38,8.38,0,0,1-1.11.74c.39-1.5.66-2.73,1-3.92,2.62-8.46,3.1-17.12,2.51-25.88a16.42,16.42,0,0,0-.27-2,.86.86,0,0,0-.84-.79,1.12,1.12,0,0,0-.78.52c-.6,1.1-1.09,2.26-1.69,3.37a38.47,38.47,0,0,0-4.35,13.3,37,37,0,0,0,.87,15.45,16.26,16.26,0,0,0,.51,1.68,1.7,1.7,0,0,1-.47,2,45.38,45.38,0,0,0-6,7.72c-1,1.56-1.84,3.19-3,5.26-.11-1-.2-1.59-.22-2.16-.14-3.6-.35-7.2-.37-10.8-.08-10.56-.05-21.12-.16-31.67a8,8,0,0,1,1.48-4.94A62.78,62.78,0,0,1,194,217a45.27,45.27,0,0,1,3.77-2.94,1.62,1.62,0,0,1,1.65-.27,8.15,8.15,0,0,0,1,.29,10.38,10.38,0,0,0,10.83-4.17c1.35-2.11,2.45-4.38,3.63-6.6a.75.75,0,0,0,0-.69,1.2,1.2,0,0,0-.84-.36c-2.15.32-4.3.69-6.44,1.07a16.45,16.45,0,0,0-1.72.38,11,11,0,0,0-6.82,5.56c-.56,1-.78,2.27-1.5,3.14a15.76,15.76,0,0,1-2.79,2.12,22.39,22.39,0,0,0-2.08,1.82,67.94,67.94,0,0,0-6.66,7.52c-.3.4-.58.83-.91,1.2-.13.15-.39.17-.59.26a3,3,0,0,1-.25-.67,3.78,3.78,0,0,1,0-.75c.12-3.52.18-7,.36-10.55.32-6,.69-12.05,1.07-18.07.09-1.51.3-3,.47-4.5a1.44,1.44,0,0,1,.7-1.26A9.12,9.12,0,0,0,191,184.6a1.33,1.33,0,0,1,1.35-.89c1.42-.05,2.84-.12,4.25-.28a13.4,13.4,0,0,0,9.08-4.87c1.44-1.75,2.83-3.53,4.22-5.32.19-.24.41-.69.31-.89-.55-1.16.09-2.11.44-3.11a27,27,0,0,0,1.61-10.86c-.44-6-.81-12-2.79-17.82a20.31,20.31,0,0,1-.63-2.44,31.86,31.86,0,0,0-3.1-7.4c-.71-1.44-1.44-1.64-2.88-1.1a3.58,3.58,0,0,0-.9.44c-.6.42-1,.22-1.52-.22a1.32,1.32,0,0,0-2,0,18.9,18.9,0,0,0-1.31,1.51c-2.64,3.14-5,6.55-8,9.32-2.81,2.54-5.21,5.45-7.83,8.16a18.71,18.71,0,0,0-4.95,9.7,27.07,27.07,0,0,0-.43,4.75c0,.49.12,1.09-.11,1.46a2.13,2.13,0,0,0,0,2.13,26,26,0,0,1,.82,2.9,19.11,19.11,0,0,0,5.47,9.45c.3.28.58.61.9.87a1.52,1.52,0,0,1,.53,1.78,10.65,10.65,0,0,0-.24,4.49,4.8,4.8,0,0,0,.74,2.09,3.41,3.41,0,0,1,.65,2.56c-.45,5.51-.88,11-1.2,16.54-.46,8.11-.78,16.24-.69,24.37,0,3.85.09,7.71.11,11.56,0,7.12-.07,14.25.07,21.36.13,6.12.5,12.23.81,18.34.26,4.93.5,9.87.93,14.8.91,10.43,1.93,20.85,2.91,31.28.06.66.15,1.33.24,2l1.56,11.7a1.1,1.1,0,0,1-.13.45,3.82,3.82,0,0,1-.6-.19,1.75,1.75,0,0,1-.38-.34,130.77,130.77,0,0,1-10.91-12.49,67.3,67.3,0,0,1-7-10.71c-1.11-2.25-2.16-4.54-3.22-6.82a7.32,7.32,0,0,1-.36-1.15,1.16,1.16,0,0,1,.36-.09,2,2,0,0,1,.49.05,7.83,7.83,0,0,0,6.43-1.36,14.44,14.44,0,0,0,5.92-8.19c1.23-4,2.12-8.11,3.14-12.18a2.49,2.49,0,0,0-.08-1c-.06-.31-.64-.48-.82-.25a7,7,0,0,0-.69,1,27.14,27.14,0,0,1-6.23,7.82c-1.43,1.28-2.77,2.67-4.16,4-.48.46-1,.93-1.42,1.4a12.76,12.76,0,0,1,1.31-3.46A35.49,35.49,0,0,0,174.21,289c.28-2.66.62-5.33.8-8a61.65,61.65,0,0,0-1.94-20.68,102.07,102.07,0,0,0-14.86-30.91c-2.57-3.73-5.39-7.28-8.11-10.9s-5.64-7.5-8.47-11.25a8.56,8.56,0,0,0-1.12-1.34.93.93,0,0,0-.89,0,1,1,0,0,0-.41.8c.28,1.22.62,2.43,1,3.63A81.26,81.26,0,0,1,143,222.8c.45,3,.85,6,1.36,8.95a142.11,142.11,0,0,1,2,24c0,5.11-.08,10.23.13,15.33.6,14.53,5.8,27.07,16.52,37.13a5.33,5.33,0,0,1,1.17,1.58c1.6,3.42,3.11,6.88,4.73,10.28a43.87,43.87,0,0,0,2.47,4.38,152.76,152.76,0,0,0,9.3,12.5,16.09,16.09,0,0,0,1.2,1.29c1.84,1.95,3.69,3.89,5.52,5.85a2.71,2.71,0,0,1,.31.64,2.15,2.15,0,0,1-.89.09c-2.31-.73-4.62-1.47-6.91-2.28-1.74-.61-3.44-1.33-5.16-2-3.12-1.21-6.28-2.33-9.37-3.63-5-2.12-10-4.33-14.95-6.55a61.86,61.86,0,0,0-8.94-3.31,42.3,42.3,0,0,0-13.65-1.69c-5,.3-10,.93-15,1.7-.78.12-1.85.05-2,1.12-.13.85.69,1.27,1.31,1.68q2.92,2,5.86,3.89c6.09,4,12.17,8,18.5,11.59a43,43,0,0,0,16.58,5.48,54.94,54.94,0,0,0,11,.09c3.66-.32,7.31-.85,11-1.25a76.67,76.67,0,0,0,9.41-1.58c.9-.21,1.8-.38,2.71-.52a.75.75,0,0,1,.63.23c.08.14-.06.45-.17.63-.26.43-.56.84-.86,1.24q-4.29,5.9-8.6,11.77A111.72,111.72,0,0,1,164.71,377c-1,1-2,2-3,3-2.61,2.7-5.32,5.31-8.09,7.85C94.34,359.54,53.29,299,53.29,229.1Zm192-57.6a107.69,107.69,0,0,1,6.14,10.36c.75,1.3,1.64,2.52,2.45,3.79a12.37,12.37,0,0,1,1.76,3c-.53.22-.84-.09-1.17-.33a25.85,25.85,0,0,1-5.85-5.82c-1.71-2.37-3.32-4.83-4.84-7.32a24,24,0,0,1-3.2-9.19,6.71,6.71,0,0,1-.13-1c0-1.2-.82-2.37-.09-3.58.93.68,1.88,1.33,2.78,2a12.72,12.72,0,0,1,1.63,1.57,102,102,0,0,1,7.94,10.34,25.44,25.44,0,0,1,3.93,11.33,38.74,38.74,0,0,1-5.06-7.42c-1.29-2.34-2.65-4.64-4-6.95a7.76,7.76,0,0,0-1.22-1.58,1,1,0,0,0-.89-.09C245.07,170.8,245.07,171.21,245.28,171.5Zm-51.23,199c.5,2.63,1,5.27,1.62,7.88q2.81,12.26,6,24.42a174,174,0,0,1-46.6-14.26c.39-.36.79-.72,1.17-1.1,3.94-3.89,7.85-7.81,11.79-11.69a91.79,91.79,0,0,0,8.79-10c3.58-4.75,7.09-9.56,10.62-14.35.5-.67,1-1.37,1.49-2a4.39,4.39,0,0,1,.72-.63,2.82,2.82,0,0,1,.44.76Q192.08,360,194.05,370.46Zm5.72-133c0,1.17,0,2.34-.11,3.51s-.19,2.17-.32,3.25-.27,2.33-.48,3.48-.47,2.3-.75,3.44a8.56,8.56,0,0,1-1.31,3.53,78.68,78.68,0,0,1,.93-8.6c.21-1.24,0-2-.49-1.92-.9.15-.82,1-.9,1.59-.37,2.82-.66,5.66-1,8.48-.09.73-.19,1.46-.32,2.49-2.44-6.48-.18-19.81,4.33-26.13.54,1.15.25,2.28.33,3.36S199.78,236.31,199.77,237.48Zm24.38,6.13a.72.72,0,0,0-.58-.33,10.1,10.1,0,0,0-1.68.5c-2.5.94-5,1.9-7.87,3a5.36,5.36,0,0,1,.31-.49A30.86,30.86,0,0,1,229,241.52a1.6,1.6,0,0,1,.49,0,.66.66,0,0,1,.38.26.5.5,0,0,1,0,.45,23.62,23.62,0,0,1-2.34,2.25c-4.07,3.07-8.77,4.47-13.74,5.13a2.94,2.94,0,0,1-1-.14c-.07,0-.12-.11-.26-.26a40.52,40.52,0,0,1,5-2.29c1.71-.69,3.45-1.3,5.17-2a5.93,5.93,0,0,0,1.32-.69A.71.71,0,0,0,224.15,243.61Zm-8.64-13.55a15,15,0,0,1,4.73-8.83.62.62,0,0,1,1.1.36c.29,1.52-.17,3-.47,4.82-.51,1.09-1.16,2.53-1.86,3.93a4.94,4.94,0,0,1-.94,1.16,1.17,1.17,0,0,1-1.37.26,1.79,1.79,0,0,1-1.16-1.2A1.41,1.41,0,0,1,215.51,230.06Zm-8.78-22.42a.72.72,0,0,0-.61-.28,18.88,18.88,0,0,0-2,1,19.2,19.2,0,0,1-4,2.05,9.36,9.36,0,0,1,6.91-5.64c.17,0,.33-.09.49-.11,1.56-.17,3.12-.37,4.69-.45.36,0-.64,2.48-2,4.62-1.93,2.95-4.78,4-8.15,4a1.18,1.18,0,0,1-.49-.09c-.22-.09-.52-.19-.6-.37s.13-.48.3-.59c1.34-.85,2.7-1.66,4.05-2.5a10.09,10.09,0,0,0,1.4-1A.7.7,0,0,0,206.73,207.64Zm-3.07-32.5c.74-.12,1.47-.31,2.2-.44.15,0,.43,0,.43.05a1.1,1.1,0,0,1,0,.68,18.47,18.47,0,0,1-3.64,4.1,10.3,10.3,0,0,1-3.26,1.8,19.49,19.49,0,0,1-6.9.93,3.43,3.43,0,0,1-.84-.32C195.19,178.7,198.87,176,203.66,175.14Zm-12.74,4.92a4.44,4.44,0,0,1-2.78,1.54.65.65,0,0,1-.71-.78c.37-1.28.76-2.54,1.11-3.83a18.9,18.9,0,0,1,2.38-5.47c1-1.54,1.85-3.17,2.78-4.75.2-.35.46-.66.8-1.14a12.82,12.82,0,0,1,.08,8.51A15.61,15.61,0,0,1,190.92,180.06Zm13.72-6.56a20.5,20.5,0,0,0-8.85,3.37c-.14.1-.42,0-.63,0a1.58,1.58,0,0,1,0-.49c1.74-3.47,1.72-7.09.95-10.79-.32-1.56-.46-3.15-.7-4.72-.08-.51-.19-1-.77-1.19s-1,.44-1.07,1.15a2.74,2.74,0,0,0,0,.5,13.18,13.18,0,0,1-2.08,6.64c-.54.94-1.16,1.84-1.77,2.74a.44.44,0,0,1-.42.09c-.12,0-.18-.24-.24-.38a.7.7,0,0,1,0-.25,30.93,30.93,0,0,1,1.18-7,25.11,25.11,0,0,1,4.6-9.84c1-1.41,1.93-2.93,2.84-4.43a9.48,9.48,0,0,0,1.08-5.84c0-.5-.1-1-.18-1.49a10.49,10.49,0,0,1,1.74-7.4c.4-.64.79-1.29,1.23-1.91a3.08,3.08,0,0,1,2-1.34.84.84,0,0,1,.65.22,4.26,4.26,0,0,1,.53.84,33.15,33.15,0,0,1,3.16,8.42c2.6,9.54,1.74,6.61,2.72,16.06a31.62,31.62,0,0,1-.4,9.26,19.73,19.73,0,0,1-2.59,6.23,2.57,2.57,0,0,1-1.12,1A7,7,0,0,1,204.64,173.5Zm-5.18-40.63a14.88,14.88,0,0,0-1.94,4.06,9.93,9.93,0,0,0-.42,4.46c.1.58.18,1.16.23,1.75a8.39,8.39,0,0,1-1.05,5.32c-.76,1.2-1.42,2.47-2.29,3.59A30,30,0,0,0,187.86,168c-.15,1.58-.38,3.15-.6,4.73-.07.48-.24,1-.48,1.86a23,23,0,0,0-5.89-5.73c-.61-.44-1.17-1-1.79-1.38a3.75,3.75,0,0,1-1.68-2.95,22.48,22.48,0,0,1,0-3.76,26.59,26.59,0,0,1,.8-3.93,13.51,13.51,0,0,1,3.17-5.91,116.91,116.91,0,0,1,8.44-9,49,49,0,0,0,5.53-6.16c1.2-1.5,2.44-3,3.69-4.44a.62.62,0,0,1,.62,0,.75.75,0,0,1,.27.64A2.59,2.59,0,0,1,199.46,132.87Zm-21.24,36c.69.43,1.41.83,2.06,1.32,1.06.81,2.1,1.66,3.11,2.53a9.6,9.6,0,0,1,2.44,3.46,4.6,4.6,0,0,1,.31,3.17c-.2.82-.68,1-1.22.55a18.93,18.93,0,0,1-5.71-6.88,6.69,6.69,0,0,1-.63-1.64C178.44,170.54,177.58,169.8,178.22,168.86ZM184.94,183a4.9,4.9,0,0,1,.18-.46c.17-.32.48-.56.78-.33a7.33,7.33,0,0,0,3.23,1.11.86.86,0,0,1,.42.75,6.64,6.64,0,0,1-2.72,3.73,1.19,1.19,0,0,1-1.81-.65A7.24,7.24,0,0,1,184.94,183Zm-29.34,65.3c.7,5.9,1.36,11.82,2.1,17.72.71,5.57,1.43,11.14,2.28,16.69.53,3.47,1.29,6.92,2,10.37.81,4.2,1.64,8.39,2.45,12.58.06.33.12.67.15,1a2,2,0,0,1-.1.46c-.22-.05-.5,0-.65-.17a17.35,17.35,0,0,1-2.39-2.21,83.94,83.94,0,0,1-5.72-7.64,49.61,49.61,0,0,1-7.6-24.22c-.25-5.52-.25-11.05-.26-16.58A147.94,147.94,0,0,0,146,232.51c-.61-3.72-1.07-7.47-1.75-11.18-.6-3.29-1.42-6.55-2.13-9.82,0-.14,0-.36,0-.44.27-.26.45,0,.6.18s.42.52.62.79c2.52,3.25,5,6.51,7.55,9.74a143.82,143.82,0,0,1,13.4,20.35,88.85,88.85,0,0,1,7.84,20.37A58.61,58.61,0,0,1,173.58,281a61.29,61.29,0,0,1-1.37,11,49.06,49.06,0,0,1-5.62,12.85c-.12.19-.38.3-.58.45a1.89,1.89,0,0,1-.26-.43c-1.21-5.91-2.45-11.82-3.58-17.74-.57-3-1-5.95-1.4-8.94-1.25-9.81-2.46-19.62-3.69-29.43-.09-.75-.15-1.5-.28-2.24a2.11,2.11,0,0,0-.41-.9.75.75,0,0,0-.63-.26c-.19,0-.47.33-.46.5C155.36,246.63,155.5,247.46,155.6,248.29ZM175,302.18c-.19-.11-.53-.22-.66-.13a10.8,10.8,0,0,0-1.26,1.18c-1.09,1.15-2.16,2.33-3.25,3.48a2.41,2.41,0,0,1-.63.4.56.56,0,0,1-.23,0c0-.15-.14-.35-.08-.46a7.5,7.5,0,0,1,.94-1.47c1.69-1.85,3.38-3.7,5.13-5.5,1.46-1.49,3-2.92,4.49-4.37a8.33,8.33,0,0,1,.76-.55,22.23,22.23,0,0,1-.84,4.28,22.91,22.91,0,0,1-2.36,6.07,11.45,11.45,0,0,1-4.4,4.36,11.79,11.79,0,0,1-2.82,1c-.71.18-1.7-.22-1.56-.42a4.11,4.11,0,0,1,1-1,28.78,28.78,0,0,0,5.45-5.52,3.08,3.08,0,0,0,.44-.89A.48.48,0,0,0,175,302.18Zm-31.78,37a14.18,14.18,0,0,0,1.68.52c3.35.78,6.69,1.57,10.05,2.3,3.85.85,7.69,1.73,11.56,2.42s7.62,1.11,11.43,1.67c1.49.22,3,.46,4.82.75a16,16,0,0,1-2.07.59c-7.2,1-14.37,2.27-21.69,2.25a54.34,54.34,0,0,1-11-1.2,35.1,35.1,0,0,1-9.34-3.63c-7-3.75-13.61-8.2-20.25-12.55l-4.82-3.17a.48.48,0,0,1-.18-.38.58.58,0,0,1,.33-.34,3.49,3.49,0,0,1,.73-.14,130.79,130.79,0,0,1,14-1.51,39.11,39.11,0,0,1,11.19,1.27,60.22,60.22,0,0,1,10.17,3.59c4.44,2,8.87,3.93,13.35,5.81s9.14,3.73,13.72,5.57c1.17.47,2.36.87,3.52,1.34a12.09,12.09,0,0,1,1.5.95c-4.16-.62-7.73-1.11-11.27-1.7s-7.26-1.26-10.87-2c-3.21-.65-6.38-1.44-9.57-2.16-2-.47-4.08-1-6.13-1.38a3.4,3.4,0,0,0-1.23,0c-.09,0-.21.43-.15.6A1,1,0,0,0,143.24,339.22Zm85.86,65.69A176.92,176.92,0,0,1,203.2,403c-1.49-5.6-2.94-11.21-4.23-16.86-1.57-6.86-3.17-13.72-4.39-20.65-.8-4.54-1.75-9.05-2.6-13.58-.17-.9-.26-1.82-.36-2.73a.5.5,0,0,1,.25-.37.52.52,0,0,1,.44,0,7.87,7.87,0,0,1,.75.66c3.69,3.55,7.32,7.14,11.06,10.63a98.32,98.32,0,0,1,10.25,11.72,24.91,24.91,0,0,1,1.58,2.27,76.33,76.33,0,0,1,8.63,18.4,10.58,10.58,0,0,0,.78,1.84.7.7,0,0,0,.62.23c.18,0,.44-.34.42-.51a6.73,6.73,0,0,0-.3-1.47,74.94,74.94,0,0,0-18.34-30.83c-3.95-4.1-8.2-7.91-12.29-11.88a17.14,17.14,0,0,1-2.77-3c2.28-.52,4.4-1,6.51-1.48a39.66,39.66,0,0,0,12-5.09c7.5-4.74,11.88-11.63,14-20.11a3.65,3.65,0,0,0,.07-1,.81.81,0,0,0-.92-.65,5.7,5.7,0,0,0-1.11.54c-2.2,1.38-4.38,2.79-6.58,4.18a78.23,78.23,0,0,0-12,8.7c-2,1.89-4,3.81-6,5.71-1.1,1-2.18,2.09-3.28,3.12-.06.05-.26,0-.37-.06s-.06-.17,0-.23c.2-.37.4-.73.62-1.09,2-3.37,4.12-6.71,6.06-10.13,2.52-4.45,4.94-8.95,7.35-13.46,6.32-11.83,12.49-23.73,18.17-35.88a34.94,34.94,0,0,1,5.44-8.41c3.27-3.71,6.54-7.43,10-11,1.9-2,4.09-3.72,6.18-5.53.79-.67,1.11-.6,1.49.33a9.25,9.25,0,0,0,4.43,4.61,14.65,14.65,0,0,0,11,1.24,36.88,36.88,0,0,0,8.06-3.49c.36-.2.79-.51.52-1a2,2,0,0,0-.94-.7,3,3,0,0,0-1-.07,29.75,29.75,0,0,1-8.16-1.38c-3.45-1-6.88-2.18-10.53-2.28A.71.71,0,0,1,253,252a.87.87,0,0,1,.34-.63,28.56,28.56,0,0,1,2.35-1.89c2.07-1.43,4.2-2.77,6.26-4.21a83.3,83.3,0,0,1,12-6.85c.82-.39,1.5-.67,2.24.14a3,3,0,0,0,2.09.73c4.57.39,8.36-1.41,11.67-4.34,1.71-1.52,1.35-2.91-.86-3.33-4.66-.9-9-.35-12.55,3.25a11.78,11.78,0,0,1-3.23,2.33c-2.84,1.45-5.64,3-8.46,4.45-.22.11-.51.51-.86,0,.29-.38.57-.78.89-1.15,3.95-4.52,5.42-9.92,5.56-15.79a2.72,2.72,0,0,0-.06-1,2,2,0,0,0-.64-1c-.38-.24-.81,0-1.1.35-1,1.15-2,2.3-2.91,3.47A42.27,42.27,0,0,0,257,244.41c-.12.57-.25,1.14-.37,1.72a2.75,2.75,0,0,1-1,1.66c-2.51,2-5,4-7.49,5.94a70.92,70.92,0,0,0-9.18,8.57l-5.39,6c-.32.36-.66.72-1.05,1.14-.09-.31-.19-.46-.16-.58.2-.64.39-1.29.65-1.9,3.31-7.61,6.49-15.28,9.15-23.14,2.2-6.52,4.43-13,6.59-19.54,1.27-3.82,2.46-7.67,3.64-11.52,2.18-7.13,4.38-14.27,6.48-21.42,1-3.54,1.89-7.14,2.85-10.7a6.64,6.64,0,0,1,7.78-5.13c2.22.37,4.39,1.08,6.58,1.64a1.65,1.65,0,0,1,1.43,1.52,4.78,4.78,0,0,0,1.92,3.14c3.39,2.81,7.18,3.93,11.48,2.55a20,20,0,0,0,3.21-1.43c1.7-.91,3.35-1.92,5-2.89a3.67,3.67,0,0,0,.83-.56c.16-.15.34-.48.28-.61a1.37,1.37,0,0,0-.65-.65,2.93,2.93,0,0,0-1-.13,11,11,0,0,1-4.53-1.39c-1.1-.6-2.21-1.21-3.32-1.78a12.07,12.07,0,0,0-5.54-1.49,9.3,9.3,0,0,0-5.71,1.64,3.87,3.87,0,0,1-4,.44,34.27,34.27,0,0,0-4.37-1.16c-.81-.18-1.66-.21-2.49-.31a.3.3,0,0,1-.19-.15c0-.14,0-.35.07-.41a10.75,10.75,0,0,1,1.44-1,19.59,19.59,0,0,1,5.94-2c2-.28,4-.48,6-.59a12.32,12.32,0,0,0,6.43-1.87,2.94,2.94,0,0,1,2.84-.41,7.12,7.12,0,0,0,5.4-.22,18.87,18.87,0,0,0,2.88-1.52A13.77,13.77,0,0,0,305,158c.72-2.32,1.23-4.71,1.77-7.08a6.26,6.26,0,0,0,0-1.73c0-.29-.56-.51-.81-.38a1.52,1.52,0,0,0-.43.25c-2.1,2.28-4.83,3.58-7.54,4.91-1,.48-1.94,1-2.87,1.56a12.06,12.06,0,0,0-5.85,8.41c-.06.33-.12.66-.16,1a2.3,2.3,0,0,1-1.08,1.62,9.85,9.85,0,0,1-5.15,1.83c-1.67.12-3.35.18-5,.37a22,22,0,0,0-13.12,5.77,8.12,8.12,0,0,1-.94.82c-.17.12-.44.08-.66.11a2,2,0,0,1,0-.49c.74-4,1.51-8.08,2.24-12.12,1.59-8.83,2.84-17.71,3.83-26.63.13-1.24.26-2.49.41-3.74a.52.52,0,0,1,.71-.45c2.38,1.41,4.82,2.76,6.18,5.35a3.24,3.24,0,0,0,.45.6.69.69,0,0,0,1.06-.17,2.18,2.18,0,0,0,.21-.72c0-2.92.25-5.87-.78-8.71a2.43,2.43,0,0,1,0-.76c.41.1.74.16,1.05.27a9.61,9.61,0,0,0,7.8-.53c.68-.32,1.37-.63,2-1a12.71,12.71,0,0,1,5.57-1.36c.59,0,1.17,0,1.76,0,3,.09,4.9-1.41,6-4.05a24.43,24.43,0,0,0,1.1-3.07,12.58,12.58,0,0,1,4.49-6.52c.72-.57,1.43-1.17,2.11-1.8,2.8-2.6,3-5.67.69-8.73-.51-.66-1.1-1.26-1.6-1.94a6.08,6.08,0,0,1-.65-1.33.66.66,0,0,1,.64-.85,4.38,4.38,0,0,0,3.15-.52,5,5,0,0,0,2.25-5,11.2,11.2,0,0,0-.49-2.21A4.38,4.38,0,0,1,314,85c.53-.76,1-1.54,1.51-2.32a4.11,4.11,0,0,0-.14-4.73,9.49,9.49,0,0,0-1.49-1.68c-.61-.57-1.29-1.08-1.94-1.6a6.06,6.06,0,0,1-.71-.81c55.63,29.55,93.66,88,93.66,155.28C404.91,326,326,404.91,229.1,404.91Zm-15.77-74.17c-.14-.35-.62-.45-1.08-.16-.63.4-1.26.82-1.87,1.27-2.9,2.12-5.79,4.27-8.69,6.4-.86.63-1.75,1.22-2.62,1.83l-.26-.46c1.1-1.13,2.19-2.27,3.32-3.38a81.31,81.31,0,0,1,15.53-11.85c1-.6,2-1.24,3-1.79.83-.44,1.43-1.36,2.53-1.26a28.59,28.59,0,0,1-.77,2.89c-3.18,8.47-9.12,14.26-17.39,17.76a37.2,37.2,0,0,1-9.36,2.78c-.3-.72.4-.82.72-1.06q7.72-5.61,15.47-11.18l1.21-.9A.71.71,0,0,0,213.33,330.74Zm47.38-74.24c-.61-.27-1.26-.45-1.89-.66-1.27-.42-2.54-.84-3.81-1.28-.1,0-.2-.26-.2-.4s.22-.23.32-.22a23.24,23.24,0,0,1,5.88,1.23c.62.26,1.27.43,1.91.64l0,.14c2.3.44,4.6.86,6.9,1.32.18,0,.33.25.49.38a1.32,1.32,0,0,1-.32.38c-4,2.16-8.13,3.05-12.59,1.67A10.74,10.74,0,0,1,252.9,257a5.31,5.31,0,0,1-.73-1,.53.53,0,0,1,0-.46.4.4,0,0,1,.39-.18c1,.26,1.92.55,2.88.85,1.36.42,2.71.86,4.08,1.27a2.35,2.35,0,0,0,1,.1.72.72,0,0,0,.5-.46A.74.74,0,0,0,260.71,256.5Zm2.11-18.4c-.27-.07-.72-.08-.87.09-.49.56-.86,1.23-1.31,1.83-.28.36-.61.69-1.2,1.35a25.46,25.46,0,0,1,2.79-7.15,44.67,44.67,0,0,1,5.56-8,3.79,3.79,0,0,1,.53-.53.54.54,0,0,1,.46-.06.45.45,0,0,1,.17.38,21.5,21.5,0,0,1-6.18,14.65c-.12.12-.39.09-.58.13a1.54,1.54,0,0,1,0-.48,7.16,7.16,0,0,1,.36-.66,4,4,0,0,0,.43-.88C263.05,238.54,262.93,238.13,262.82,238.1Zm14.37-1.81a10.82,10.82,0,0,1,2-1.88c2.91-1.91,6.16-1.85,9-1.59,1,.29,1.13.7.8,1.07a3,3,0,0,1-.33.38,14.43,14.43,0,0,1-9.9,3.65,6.69,6.69,0,0,1-1-.12A.88.88,0,0,1,277.19,236.29Zm10.52-58c-1-.27-1.92-.55-2.9-.75-1.31-.26-2.64-.45-3.95-.71-.19,0-.37-.25-.5-.42s.14-.31.27-.38a8.76,8.76,0,0,1,7.95-.55c.86.33,1.65.82,2.48,1.22l4.75,2.28c.28.14.54.33,1,.62-2.39,1.57-4.59,3.13-7.26,3.68a10.25,10.25,0,0,1-9.65-2.94,3.44,3.44,0,0,1-.72-1,1.38,1.38,0,0,1,0-.92c.05-.13.45-.23.66-.2,2,.3,4,.65,5.95.95a7.63,7.63,0,0,0,1.72.07c.15,0,.32-.32.39-.53A.49.49,0,0,0,287.71,178.27Zm10.66-19.58a.49.49,0,0,0-.43-.13,6.46,6.46,0,0,0-1,.68c-1.64,1.43-3.26,2.87-4.89,4.31a4.34,4.34,0,0,1-.59.47c-.13.08-.4.15-.44.1s-.3-.44-.25-.61a10.47,10.47,0,0,1,3.34-5.47,20.85,20.85,0,0,1,2.9-2c2.41-1.34,4.85-2.62,7.29-3.9.12-.07.32,0,.57,0a23.67,23.67,0,0,1-2.85,9,11.49,11.49,0,0,1-6.82,5.19,4.48,4.48,0,0,1-3,0,.47.47,0,0,1-.24-.77c1.09-1,2.19-2.06,3.31-3.07.86-.78,1.78-1.52,2.62-2.33a3.2,3.2,0,0,0,.6-1.05A.52.52,0,0,0,298.37,158.69Z"/><path class="cls-1" d="M40.31,150.56l-.24-.22a7.3,7.3,0,0,1-1.14-1.23,2.71,2.71,0,0,1-.5-1,2.69,2.69,0,0,1,0-1,5.35,5.35,0,0,1,.4-1.21l.13-.29,11.39,5.13-.78,1.74,1,.48,3.17-7-1-.48-.79,1.76L40.54,142l.13-.29a5.91,5.91,0,0,1,.64-1.1,2.53,2.53,0,0,1,.77-.66,2.84,2.84,0,0,1,1.11-.32,7.54,7.54,0,0,1,1.68.05l.32,0,.42-.94-4-1.82-5.72,12.71,4,1.83Z"/><polygon class="cls-1" points="49.39 124.79 59.99 131.4 58.97 133.03 59.95 133.63 64.03 127.08 63.06 126.47 62.05 128.1 57.12 125.02 59.84 120.66 64.77 123.73 63.76 125.36 64.73 125.96 68.82 119.41 67.85 118.8 66.83 120.42 56.24 113.82 57.25 112.19 56.27 111.58 52.19 118.14 53.16 118.75 54.17 117.12 58.87 120.05 56.15 124.41 51.45 121.48 52.46 119.86 51.49 119.25 47.4 125.81 48.38 126.42 49.39 124.79"/><path class="cls-1" d="M65.79,100.72l9.61,8-1.22,1.47.88.74L84.12,100l-4-3.29-.68.81.21.27a6.45,6.45,0,0,1,.77,1.37,4.4,4.4,0,0,1,.32,1.44,3.73,3.73,0,0,1-.2,1.44,4.33,4.33,0,0,1-.79,1.38l-1.9,2.29-4.75-4,.61-.73a2.48,2.48,0,0,1,.8-.67,2.19,2.19,0,0,1,1.74,0,8.78,8.78,0,0,1,1,.42l.31.14.67-.81-5.35-4.44-.68.82.22.27a8.22,8.22,0,0,1,.64,1,2.77,2.77,0,0,1,.29.9,2,2,0,0,1-.1.86,3.34,3.34,0,0,1-.59,1l-.47.56-4-3.3,1.84-2.21a3.26,3.26,0,0,1,1.21-1,3.63,3.63,0,0,1,1.25-.31,4.26,4.26,0,0,1,1.09.09,5.76,5.76,0,0,1,.82.26l.29.12.67-.79L72.2,91.2,64,101.13l-.28.33.89.73Z"/><polygon class="cls-1" points="95.31 70.18 103.67 73.25 106.71 77.08 105.2 78.27 105.92 79.17 111.99 74.35 111.28 73.45 109.76 74.66 106.25 70.24 105 62.49 106.57 61.25 105.85 60.35 102.05 63.37 102.77 64.27 103.94 63.33 104.94 69.59 98.81 67.4 99.83 66.6 99.11 65.69 93.17 70.41 93.89 71.31 95.31 70.18"/><path class="cls-1" d="M121.31,62.4a8,8,0,0,0,2.8,1.14,8,8,0,0,0,1.63.16,8.84,8.84,0,0,0,1.44-.12,8.49,8.49,0,0,0,5.36-3.21,8.68,8.68,0,0,0,1.4-2.76,8.18,8.18,0,0,0,.3-3,6.8,6.8,0,0,0-.94-2.9,7.18,7.18,0,0,0-2.27-2.4,7.74,7.74,0,0,0-2.84-1.1,8.24,8.24,0,0,0-3,0,8.92,8.92,0,0,0-2.84,1.07,8.33,8.33,0,0,0-2.2,1.94,9,9,0,0,0-1.48,2.69,8.42,8.42,0,0,0-.43,3.09,7,7,0,0,0,3.12,5.4ZM125,49.55H125a3,3,0,0,1,1.67.54,6,6,0,0,1,1.47,1.5c.45.65.91,1.36,1.39,2.16s1,1.67,1.33,2.45a6.48,6.48,0,0,1,.63,2.07,2.92,2.92,0,0,1-.32,1.7,4.3,4.3,0,0,1-1.64,1.53,5.42,5.42,0,0,1-1.74.7,2.4,2.4,0,0,1-1.48-.21,5.4,5.4,0,0,1-1.62-1.32h0A19,19,0,0,1,122.84,58a25.93,25.93,0,0,1-1.3-2.46,6.42,6.42,0,0,1-.58-2.08,2.89,2.89,0,0,1,.35-1.69,4.09,4.09,0,0,1,1.57-1.47A4.37,4.37,0,0,1,125,49.55Z"/><path class="cls-1" d="M143.07,40,148,51.49l-1.76.74.44,1.07,7.11-3-.44-1.06-1.77.75-2.41-5.69.86-.37a2.36,2.36,0,0,1,1.29-.24,1.82,1.82,0,0,1,.9.44,3.49,3.49,0,0,1,.75,1c.24.43.47.88.7,1.36.15.32.33.67.54,1a3.34,3.34,0,0,0,.91,1,2.84,2.84,0,0,0,1.43.49,4.12,4.12,0,0,0,2-.42,5.49,5.49,0,0,0,.91-.47,3,3,0,0,0,.6-.49,2.43,2.43,0,0,0,.37-.53c.08-.16.16-.33.24-.52l.2-.44-1.1-.35-.16.36c-.07.17-.16.35-.26.55a.57.57,0,0,1-.33.27c-.2.09-.29.09-.32.07s-.09,0-.25-.22a6.42,6.42,0,0,1-.57-.92l-.92-1.75a4.6,4.6,0,0,0-1.17-1.53,2.9,2.9,0,0,0-1.44-.62,5.31,5.31,0,0,0-1.53,0,5.31,5.31,0,0,0,.72-.79,3.52,3.52,0,0,0,.62-1.4,2.77,2.77,0,0,0-.21-1.63,3.05,3.05,0,0,0-1.27-1.51,4.06,4.06,0,0,0-1.73-.52,6.3,6.3,0,0,0-1.86.17,10.2,10.2,0,0,0-1.72.55c-.54.23-1.07.46-1.59.71l-1.57.69-3.3,1.4.46,1.06Zm5.85-1.88a2.18,2.18,0,0,1,.65.64,6.64,6.64,0,0,1,.64,1.23,8.62,8.62,0,0,1,.33.93,1.82,1.82,0,0,1,0,.77,1.37,1.37,0,0,1-.38.69,3.62,3.62,0,0,1-1.13.69l-.38.16-2-4.78.05,0a2.64,2.64,0,0,1,.38-.18,3.35,3.35,0,0,1,1.12-.3A1.39,1.39,0,0,1,148.92,38.11Z"/><polygon class="cls-1" points="168.24 30.45 171.56 42.5 169.71 43.01 170.01 44.11 177.47 42.06 177.16 40.96 175.31 41.46 173.88 36.28 179.51 40.31 178.17 40.68 178.47 41.78 186.02 39.7 185.71 38.59 184.25 39 175.46 32.79 178.43 27.64 180.29 27.14 179.98 26.03 175.12 27.37 175.43 28.47 176.85 28.08 173.3 34.18 171.99 29.42 173.84 28.91 173.54 27.8 166.08 29.86 166.4 30.96 168.24 30.45"/><path class="cls-1" d="M196.59,30.33a5.93,5.93,0,0,0,1.59.63,16,16,0,0,0,1.68.3l1.63.22a6.69,6.69,0,0,1,1.35.3,2.56,2.56,0,0,1,.91.54,1.42,1.42,0,0,1,.4.88,2.44,2.44,0,0,1,0,.79,2.32,2.32,0,0,1-.36.89,2.81,2.81,0,0,1-.86.81,4,4,0,0,1-1.58.51l-.66.08a3,3,0,0,1-.67,0,3.74,3.74,0,0,1-.8-.2,3.86,3.86,0,0,1-.92-.5,3.82,3.82,0,0,1-.77-.66,7.32,7.32,0,0,1-.58-.76,7.21,7.21,0,0,1-.38-.71,5.55,5.55,0,0,1-.21-.55l-.12-.35-1.11.15.74,5.17,1.06-.16.07-.29c0-.1,0-.15,0-.16a.5.5,0,0,1,.17,0,1.8,1.8,0,0,1,.53,0c.3,0,.64.07,1,.1l1.23.08a7.65,7.65,0,0,0,1.36-.07,7.25,7.25,0,0,0,2.41-.75,6.33,6.33,0,0,0,1.77-1.37,4.88,4.88,0,0,0,1-1.81,4.63,4.63,0,0,0,.17-2.06,3.67,3.67,0,0,0-.7-1.77,4.27,4.27,0,0,0-1.29-1.1,6,6,0,0,0-1.64-.6q-.86-.2-1.74-.33l-1.7-.25a8.37,8.37,0,0,1-1.41-.33,3,3,0,0,1-1-.54,1.23,1.23,0,0,1-.4-.8A1.51,1.51,0,0,1,197,25a2.19,2.19,0,0,1,.46-.72,2.84,2.84,0,0,1,.86-.62,4.37,4.37,0,0,1,1.29-.38,3.38,3.38,0,0,1,1.52.08,2.69,2.69,0,0,1,1,.61,4.38,4.38,0,0,1,.81,1c.24.41.47.83.7,1.24l.15.27,1-.14-.65-4.54-1,.15-.08.27a.81.81,0,0,1-.05.15.23.23,0,0,1-.11,0,1,1,0,0,1-.4,0l-.75-.15c-.28-.05-.61-.09-1-.12a6.9,6.9,0,0,0-1.32.06,6.43,6.43,0,0,0-2.08.67A5.86,5.86,0,0,0,195.76,24a4.65,4.65,0,0,0-.94,1.56,3.76,3.76,0,0,0-.18,1.75,4.2,4.2,0,0,0,.69,1.88A4.1,4.1,0,0,0,196.59,30.33Z"/><polygon class="cls-1" points="220.3 21.55 220.44 34.03 218.52 34.06 218.55 35.21 226.27 35.12 226.25 33.97 224.34 33.99 224.28 28.19 229.42 28.13 229.49 33.94 227.57 33.95 227.58 35.1 235.31 35.02 235.3 33.87 233.38 33.9 233.24 21.4 235.16 21.38 235.15 20.23 227.42 20.32 227.43 21.47 229.34 21.45 229.41 26.98 224.26 27.04 224.2 21.5 226.12 21.48 226.1 20.34 218.37 20.42 218.4 21.57 220.3 21.55"/><polygon class="cls-1" points="253.73 35.47 251.82 35.26 253.15 22.84 255.05 23.05 255.17 21.91 247.49 21.09 247.37 22.23 249.27 22.43 247.95 34.85 246.05 34.65 245.92 35.79 253.61 36.61 253.73 35.47"/><path class="cls-1" d="M272,38.69l-1.87-.41,1.33-6,.92.2a2.4,2.4,0,0,1,1.19.55,1.69,1.69,0,0,1,.47.88,3.57,3.57,0,0,1,0,1.23c-.06.5-.13,1-.22,1.52-.06.36-.11.74-.16,1.16a3.2,3.2,0,0,0,.17,1.34,2.77,2.77,0,0,0,.88,1.23,4.35,4.35,0,0,0,1.86.81,5.61,5.61,0,0,0,1,.15h.17a2.91,2.91,0,0,0,.6-.06,2.27,2.27,0,0,0,.62-.21l.5-.28.42-.26-.71-.91-.33.2c-.16.1-.33.19-.53.29a.68.68,0,0,1-.43,0,.6.6,0,0,1-.31-.14s-.05-.06-.06-.31a5.83,5.83,0,0,1,.07-1.09l.26-2a4.61,4.61,0,0,0-.06-1.92,2.94,2.94,0,0,0-.82-1.34,4.49,4.49,0,0,0-1.27-.86,5.16,5.16,0,0,0,1.05-.23,3.47,3.47,0,0,0,1.31-.77,2.77,2.77,0,0,0,.78-1.45,3,3,0,0,0-.16-2,3.92,3.92,0,0,0-1.11-1.42,6.1,6.1,0,0,0-1.6-1,11.75,11.75,0,0,0-1.72-.55c-.57-.13-1.15-.24-1.71-.35s-1.12-.21-1.68-.34l-3.5-.77-.25,1.12,1.87.41-2.7,12.2L264.41,37l-.25,1.13,7.55,1.66ZM275,28a6.45,6.45,0,0,1-.18,1.38,7,7,0,0,1-.28.93,1.74,1.74,0,0,1-.42.65,1.34,1.34,0,0,1-.72.33,3,3,0,0,1-1.31-.09l-.41-.09,1.13-5.07h.05l.42.07a3.34,3.34,0,0,1,1.08.41,1.3,1.3,0,0,1,.49.56A2.1,2.1,0,0,1,275,28Z"/><path class="cls-1" d="M301.77,49l1.75-4.85-1-.36-.19.29a6.94,6.94,0,0,1-1,1.19,4.71,4.71,0,0,1-1.25.79,4,4,0,0,1-1.42.3,4.4,4.4,0,0,1-1.56-.28l-2.8-1,2.1-5.81.9.32a2.61,2.61,0,0,1,.9.53,2.25,2.25,0,0,1,.46.72,3,3,0,0,1,.16.91,10.54,10.54,0,0,1-.05,1.11l0,.33,1,.35L302.07,37l-1-.36-.19.29a5.76,5.76,0,0,1-.71.94,2.82,2.82,0,0,1-.74.58,1.93,1.93,0,0,1-.84.2h-.05a3.24,3.24,0,0,1-1.09-.22l-.68-.25,1.75-4.85,2.71,1a3.39,3.39,0,0,1,1.33.82,3.82,3.82,0,0,1,.71,1.05,3.54,3.54,0,0,1,.28,1.07,7.63,7.63,0,0,1,.05.85v.32l1,.36,1.43-4-12.53-4.53-.4,1.08,1.81.65-4.25,11.75-1.8-.66-.39,1.09,12.93,4.67Z"/><path class="cls-1" d="M332.91,63.8l-1.63-1,3.27-5.24.8.5a2.36,2.36,0,0,1,.94.92,1.74,1.74,0,0,1,.15,1,3.53,3.53,0,0,1-.38,1.18c-.22.45-.45.9-.71,1.35s-.36.66-.53,1a3,3,0,0,0-.3,1.32,2.8,2.8,0,0,0,.42,1.45,4.37,4.37,0,0,0,1.48,1.4,6.68,6.68,0,0,0,.91.47,3.49,3.49,0,0,0,.73.21l.35,0,.32,0,.55-.1.48-.09-.35-1.1-.38.07c-.18,0-.38.07-.61.1a.67.67,0,0,1-.41-.11.61.61,0,0,1-.24-.22.69.69,0,0,1,0-.34,6.7,6.7,0,0,1,.43-1l.91-1.76a4.69,4.69,0,0,0,.58-1.83,3,3,0,0,0-.32-1.54,4.76,4.76,0,0,0-.91-1.23,5.71,5.71,0,0,0,1.07.14,3,3,0,0,0,1.48-.3,2.75,2.75,0,0,0,1.23-1.1,3.14,3.14,0,0,0,.51-1.91,4.08,4.08,0,0,0-.57-1.71,6.21,6.21,0,0,0-1.2-1.43,11,11,0,0,0-1.44-1.1c-.5-.3-1-.61-1.49-.89s-1-.58-1.47-.89l-3-1.9-.6,1,1.62,1L328,60.71l-1.62-1-.61,1,6.55,4.1Zm6.43-9.06A7.39,7.39,0,0,1,338.7,56a7.06,7.06,0,0,1-.57.78,1.89,1.89,0,0,1-.62.48,1.41,1.41,0,0,1-.78.07,3.47,3.47,0,0,1-1.22-.52l-.35-.23,2.76-4.4.05,0c.13.06.25.13.37.2a3.45,3.45,0,0,1,.88.75,1.29,1.29,0,0,1,.28.7A2.23,2.23,0,0,1,339.34,54.74Z"/><path class="cls-1" d="M357.54,83.52l3.27-4-.81-.67-.28.2a6.44,6.44,0,0,1-1.37.78,4.57,4.57,0,0,1-1.43.33,4.15,4.15,0,0,1-1.43-.19,4.35,4.35,0,0,1-1.39-.79l-2.3-1.89,3.92-4.77.74.6a2.57,2.57,0,0,1,.68.81,2,2,0,0,1,.19.83,2.69,2.69,0,0,1-.16.91,8.69,8.69,0,0,1-.41,1l-.14.31.81.66,4.41-5.37-.81-.67-.28.21a6.19,6.19,0,0,1-1,.65,2.72,2.72,0,0,1-.89.29,1.73,1.73,0,0,1-.86-.09,3.22,3.22,0,0,1-1-.59l-.57-.46,3.28-4L362,69.5a3.26,3.26,0,0,1,1,1.21,3.56,3.56,0,0,1,.32,1.24,3.9,3.9,0,0,1-.09,1.1,5.93,5.93,0,0,1-.25.82l-.11.3.8.64,2.67-3.25L356,63.09l-.73.89,1.48,1.22-7.93,9.65-1.48-1.22-.73.88,10.62,8.74Z"/><path class="cls-1" d="M370.73,96.53l.84-.79-1.33-1.41,4.34-4,.65.7a2.52,2.52,0,0,1,.56.88,2,2,0,0,1,.08.86,2.43,2.43,0,0,1-.27.87,10.33,10.33,0,0,1-.54,1l-.18.28.71.77,5.08-4.75-.72-.77-.31.18a7.28,7.28,0,0,1-1.06.51,2.16,2.16,0,0,1-1.76,0,3.24,3.24,0,0,1-.91-.72l-.5-.53,4-3.7,1.85,2a4,4,0,0,1,.75,1.08,2.87,2.87,0,0,1,.25,1,3.72,3.72,0,0,1-.15,1.12,8.67,8.67,0,0,1-.47,1.27l-.12.26.69.73,3.08-2.87-9-9.64-.84.79L376.72,83l-9.13,8.53-1.31-1.4-.84.78Z"/><polygon class="cls-1" points="382.49 108.38 381.58 109.07 386.24 115.23 387.16 114.54 386 113.01 395.96 105.47 397.12 107 398.03 106.3 393.37 100.14 392.45 100.83 393.61 102.36 383.65 109.91 382.49 108.38"/><path class="cls-1" d="M394.45,125.25l-1-1.65-1,.59,7,11.73.23.38,4.54-2.7-.53-.91-.33.1a5.26,5.26,0,0,1-1.9.31,4.75,4.75,0,0,1-1.53-.26,3.65,3.65,0,0,1-1.15-.68,5,5,0,0,1-.81-1l-1.53-2.58,10.74-6.37,1,1.64,1-.58-3.94-6.65-1,.59,1,1.64Z"/><path class="cls-1" d="M406.41,147.31l-.75-1.76-1.06.45,5.56,12.94,4.86-2.09-.41-1-.35.06a6.31,6.31,0,0,1-1.92.06,4.36,4.36,0,0,1-1.48-.46,3.45,3.45,0,0,1-1.05-.82,4,4,0,0,1-.67-1.08L408,150.89,419.43,146l.75,1.76,1.06-.46-3.06-7.1-1.05.46.76,1.76Z"/><path class="cls-1" d="M419.39,189.6a8.61,8.61,0,0,0,0,3.16,8.9,8.9,0,0,0,.38,1.3c.15.39.3.74.45,1.07l.05.11c.14.28.26.52.36.74a2.31,2.31,0,0,1,.2.51.41.41,0,0,1,0,.2s0,.05-.11.11l-.23.17.21,1,4.92-1-.21-1.09h-.35a6.13,6.13,0,0,1-1.52-.26,4.88,4.88,0,0,1-1.36-.65,4.36,4.36,0,0,1-1.07-1,3.48,3.48,0,0,1-.59-1.42,5.33,5.33,0,0,1-.08-1.88,2.37,2.37,0,0,1,.68-1.33,5.25,5.25,0,0,1,1.77-1.07,17.74,17.74,0,0,1,3.17-.87c1-.2,1.92-.34,2.78-.43a6.2,6.2,0,0,1,2.15.12,2.87,2.87,0,0,1,1.48.89,4.12,4.12,0,0,1,.87,2,3.82,3.82,0,0,1,0,1.72,3.41,3.41,0,0,1-.63,1.28,4.83,4.83,0,0,1-1,1c-.41.3-.81.56-1.19.79l-.26.16.19,1,4.77-1-.24-1h-.36a.81.81,0,0,1-.08-.25,2.32,2.32,0,0,1,0-.55c0-.28.05-.59.07-.93s0-.71,0-1.11a6.81,6.81,0,0,0-.13-1.33,8.21,8.21,0,0,0-1.09-2.71,8.89,8.89,0,0,0-2-2.29,8.18,8.18,0,0,0-2.76-1.44,6.67,6.67,0,0,0-3.3-.13,6.78,6.78,0,0,0-2.84,1.26,8,8,0,0,0-2,2.25A8.45,8.45,0,0,0,419.39,189.6Z"/><path class="cls-1" d="M429.59,208.62a6.72,6.72,0,0,0-3,.88,7.87,7.87,0,0,0-2.3,2,8.49,8.49,0,0,0-1.44,2.71,8.62,8.62,0,0,0-.4,3.15,8.17,8.17,0,0,0,.8,3.09,8.49,8.49,0,0,0,1.81,2.51,8.11,8.11,0,0,0,2.55,1.65,6.78,6.78,0,0,0,2.58.51h.43a7,7,0,0,0,3.17-.92,7.81,7.81,0,0,0,2.29-2,8.18,8.18,0,0,0,1.36-2.72,8.66,8.66,0,0,0,.36-3,8.37,8.37,0,0,0-.72-2.84,9,9,0,0,0-1.71-2.56,8.39,8.39,0,0,0-2.55-1.79A6.59,6.59,0,0,0,429.59,208.62Zm6.73,10.08a3,3,0,0,1-1.25,1.24,6.1,6.1,0,0,1-2,.61c-.84.11-1.7.2-2.57.25a26.43,26.43,0,0,1-2.79,0,6.43,6.43,0,0,1-2.13-.38,3,3,0,0,1-1.36-1.06,4.24,4.24,0,0,1-.6-2.16,5.19,5.19,0,0,1,.17-1.87,2.34,2.34,0,0,1,.87-1.22,5.29,5.29,0,0,1,1.92-.83,18.8,18.8,0,0,1,3.26-.44,26.28,26.28,0,0,1,2.79,0,6.32,6.32,0,0,1,2.12.44,3,3,0,0,1,1.34,1.08,5.22,5.22,0,0,1,.23,4.32Z"/><polygon class="cls-1" points="437.93 237.35 436.79 237.26 436.63 239.16 424.18 238.12 424.34 236.21 423.2 236.11 422.77 241.14 423.92 241.23 424.08 239.32 434.68 240.22 422.56 243.66 422.48 244.59 433.85 249.99 423.26 249.1 423.42 247.21 422.27 247.11 421.63 254.79 422.77 254.9 422.93 252.98 435.38 254.03 435.22 255.94 436.36 256.03 436.86 250.11 428.2 245.98 437.42 243.43 437.93 237.35"/><path class="cls-1" d="M432.75,270l-12.19-2.72.41-1.87-1.11-.25-1.68,7.54,1.12.25.41-1.87,5.35,1.2-.09.4a13.1,13.1,0,0,0-.36,3,7.25,7.25,0,0,0,.36,2.3,3.87,3.87,0,0,0,1,1.62,3.34,3.34,0,0,0,1.52.8,3.71,3.71,0,0,0,.85.1,3,3,0,0,0,1.39-.34,4.66,4.66,0,0,0,1.56-1.38,7.81,7.81,0,0,0,1-1.94,15.68,15.68,0,0,0,.6-2c.16-.7.3-1.4.44-2.1s.27-1.38.43-2.07l.51-2.29-1.12-.25Zm-2.05,6.12a3.79,3.79,0,0,1-2.4.08,3,3,0,0,1-2-1.13,3.21,3.21,0,0,1-.13-2.34l.05-.21,5.77,1.29c0,.12,0,.24-.07.37A2.6,2.6,0,0,1,430.7,276.07Z"/><path class="cls-1" d="M415.68,287.1l-1.08-.39L413,291.24l1.08.39.54-1.52,3.46,3.28-1.51,4.18-4.78.41.57-1.59-1.08-.39-2.67,7.42,1.08.37.66-1.83,15.29-1.33.28,0,.38-1.06L415,288.89Zm2.11,10.38,1.17-3.24,3,2.88Z"/><polygon class="cls-1" points="416.02 319.8 404.94 314.04 405.82 312.34 404.8 311.82 402.48 316.29 403.5 316.82 404.38 315.12 413.75 319.98 399.54 322.33 399.33 322.37 398.77 323.45 410.87 329.73 409.99 331.43 411.01 331.96 413.34 327.48 412.31 326.96 411.43 328.65 404.92 325.28 415.14 323.61 415.36 323.57 417.92 318.63 416.91 318.09 416.02 319.8"/><polygon class="cls-1" points="403.23 342.46 394.34 341.92 390.33 339.13 391.42 337.56 390.48 336.9 386.05 343.26 386.99 343.92 388.1 342.33 392.73 345.55 396.16 352.61 395.02 354.25 395.96 354.91 398.74 350.92 397.79 350.27 396.93 351.5 394.18 345.8 400.68 346.13 399.94 347.19 400.88 347.85 405.21 341.62 404.27 340.97 403.23 342.46"/><polygon class="cls-1" points="24.5 206.65 28.05 206.99 27.48 212.9 28.52 213 29.09 207.09 32.56 207.43 31.92 214.03 32.97 214.13 33.73 206.31 23.57 205.32 22.8 213.22 23.85 213.33 24.5 206.65"/><path class="cls-1" d="M24.61,232.85a4.83,4.83,0,0,1-1.47-3.51,4.14,4.14,0,0,1,4.22-4.2h0a4.12,4.12,0,0,1,4.17,4.21,4.91,4.91,0,0,1-1.4,3.42l.84.84a5.87,5.87,0,0,0,1.62-4.24,5.31,5.31,0,0,0-5.26-5.51h0a5.25,5.25,0,0,0-5.25,5.45,5.82,5.82,0,0,0,1.78,4.35Z"/><path class="cls-1" d="M33.58,248.25a5.34,5.34,0,0,0-5.8-5h0a5.55,5.55,0,0,0,1.12,11s0,0,0,0A5.28,5.28,0,0,0,33.58,248.25ZM28.75,253h0a4.13,4.13,0,0,1-4.58-3.83,4.18,4.18,0,0,1,3.77-4.68h0a4.13,4.13,0,0,1,4.58,3.83A4.18,4.18,0,0,1,28.75,253Z"/><rect class="cls-1" x="29.57" y="264.44" width="1.18" height="4.32" transform="translate(-49 10.24) rotate(-10.71)"/><polygon class="cls-1" points="37.91 292.23 41.35 291.05 43.49 297.28 44.49 296.93 41.96 289.54 32.31 292.85 32.71 294.01 36.91 292.57 38.82 298.14 39.81 297.8 37.91 292.23"/><path class="cls-1" d="M49,315.41h0a2.76,2.76,0,0,0,1.49-1.59,4.48,4.48,0,0,0-.34-3.24l-1.92-4.27-9.31,4.2.51,1.11L43,310l1.27,2.8v0L42,317.32l.62,1.37L45,313.94C46,315.38,47.41,316.1,49,315.41Zm-3.61-2.8L44,309.56l3.77-1.7,1.38,3.06c.72,1.6.45,2.85-.69,3.36h0C47.2,314.83,46,314.09,45.34,312.61Z"/><rect class="cls-1" x="47.25" y="325.79" width="10.2" height="1.23" transform="translate(-150.73 65.57) rotate(-28.79)"/><polygon class="cls-1" points="62.43 335.49 66.06 341.04 66.94 340.47 62.63 333.89 54.1 339.48 58.46 346.12 59.33 345.54 55.65 339.93 58.64 337.98 61.89 342.94 62.77 342.36 59.52 337.4 62.43 335.49"/><polygon class="cls-1" points="77.96 355 71.59 360.13 73.67 349.66 72.95 348.76 65 355.16 65.75 356.09 72.27 350.84 70.15 361.56 70.76 362.33 78.71 355.93 77.96 355"/><path class="cls-1" d="M85.88,364l-7.26,7.17,2.65,2.68c2.4,2.44,5.65,2.55,7.7.53l0,0c2-2,2-5.24-.45-7.67Zm2.19,9.47,0,0C86.44,375,84,375,82,373.07l-1.79-1.81L86,365.58l1.79,1.81C89.71,369.35,89.68,371.85,88.07,373.43Z"/><polygon class="cls-1" points="100.21 377.66 93.67 385.49 99.3 390.2 99.99 389.39 95.29 385.46 101.15 378.45 100.21 377.66"/><polygon class="cls-1" points="112.52 393.73 112.47 387.45 111.25 386.59 111.39 394.23 109.06 397.53 110.07 398.25 112.41 394.94 119.65 392.53 118.48 391.71 112.52 393.73"/><path class="cls-1" d="M143.09,411.42a13.76,13.76,0,0,1-2.17,1.46l-1.18-3.24c1.66.24,2.9-.07,3.48-1.24v0a2.46,2.46,0,0,0-1.35-3.24,2.59,2.59,0,0,0-3.65.9v0a3.24,3.24,0,0,0,0,2.5c-1.76-.19-3.06.26-3.66,1.47v0c-.76,1.52,0,3.2,1.8,4.07a4.83,4.83,0,0,0,3.89.16l.8,2.23,1.13-.19-.89-2.47a14.08,14.08,0,0,0,2.55-1.6Zm-3.81-4.83v0a1.52,1.52,0,0,1,2.13-.59,1.44,1.44,0,0,1,.75,1.95v0c-.39.78-1.31,1-2.74.8C139.05,407.64,139,407.12,139.28,406.59Zm-2.44,6.71a2.06,2.06,0,0,1-1.18-2.73l0,0c.38-.77,1.32-1.23,2.83-1l1.36,3.81A3.83,3.83,0,0,1,136.84,413.3Z"/><path class="cls-1" d="M170.21,416.59c-2-.62-3.76.06-4.24,1.59v0c-.5,1.6.37,2.66,2.6,3.9,2.05,1.12,2.4,1.79,2.12,2.7v0c-.3,1-1.44,1.37-2.83.93a5.36,5.36,0,0,1-3.13-2.49l-1,.58a6.65,6.65,0,0,0,3.76,2.89c2,.64,3.88,0,4.4-1.64v0c.47-1.49-.35-2.62-2.51-3.82s-2.52-1.85-2.23-2.77v0c.28-.88,1.35-1.3,2.7-.88a5,5,0,0,1,2.67,2l.94-.63A5.87,5.87,0,0,0,170.21,416.59Z"/><path class="cls-1" d="M190.24,428a3,3,0,0,1-3.9,2.61,3.08,3.08,0,0,1-2.54-4.05l1.22-5.74-1.2-.25-1.24,5.81c-.6,2.82.88,4.71,3.51,5.27s4.75-.57,5.37-3.48l1.21-5.72-1.2-.26Z"/><path class="cls-1" d="M206.27,425.34a4.93,4.93,0,0,1,3,1.46l.81-.81a5.91,5.91,0,0,0-3.65-1.68c-2-.23-3.68.77-3.87,2.36v0c-.19,1.66.86,2.55,3.29,3.34,2.22.71,2.7,1.31,2.59,2.25v0c-.12,1-1.16,1.61-2.61,1.44a5.35,5.35,0,0,1-3.54-1.86l-.85.76a6.59,6.59,0,0,0,4.23,2.12c2.14.25,3.81-.7,4-2.44v0c.17-1.55-.84-2.5-3.19-3.27s-2.82-1.35-2.71-2.3v0C203.89,425.8,204.87,425.18,206.27,425.34Z"/><polygon class="cls-1" points="219.67 426.64 223.32 426.74 223.1 435.87 224.34 435.9 224.56 426.77 228.21 426.86 228.24 425.8 219.7 425.58 219.67 426.64"/><path class="cls-1" d="M240.86,425.31l-4.3,10.57,1.26-.08,1.12-2.77,5.91-.38,1.44,2.61,1.32-.08-5.6-9.94ZM239.35,432l2.16-5.35,2.79,5Z"/><rect class="cls-1" x="257.56" y="423.62" width="1.23" height="10.2" transform="translate(-59.34 41.89) rotate(-8.32)"/><polygon class="cls-1" points="276.57 419.93 278.41 427.9 269.9 421.47 268.78 421.73 271.07 431.67 272.24 431.4 270.36 423.25 279.08 429.82 280.03 429.6 277.74 419.66 276.57 419.93"/><path class="cls-1" d="M291.89,415.36l-1.39,11.32,1.19-.4.35-3,5.61-1.9,2.07,2.14,1.26-.43L293,415Zm.28,6.81.68-5.72,4,4.13Z"/><path class="cls-1" d="M317.87,412.87c-.58-1.27-1.82-1.48-3.14-1.28a2.47,2.47,0,0,0,.59-2.86v0a2.2,2.2,0,0,0-1.31-1.19,4.07,4.07,0,0,0-3,.35l-4.22,1.91,4.22,9.29,4.4-2c2.16-1,3.16-2.58,2.44-4.17Zm-9.52-2.66,3-1.36c1.42-.65,2.47-.4,2.88.51v0c.5,1.09-.17,2.08-1.52,2.69l-2.93,1.33Zm6.69,5.9-3.33,1.51-1.48-3.28,3.12-1.42c1.73-.78,2.9-.61,3.36.4v0C317.19,414.38,316.54,415.43,315,416.11Z"/><polygon class="cls-1" points="329.38 408.82 324.86 400.88 323.8 401.49 328.85 410.35 335.23 406.71 334.7 405.79 329.38 408.82"/><polygon class="cls-1" points="344.85 399.31 342.81 396.38 347.67 392.99 347.07 392.13 342.2 395.52 340.21 392.66 345.65 388.87 345.06 388.01 338.61 392.5 344.44 400.87 350.95 396.33 350.35 395.47 344.85 399.31"/><circle class="cls-1" cx="33.27" cy="177.17" r="4.32"/><circle class="cls-1" cx="370.19" cy="371.04" r="4.32"/></g></g></svg>