<svg xmlns="http://www.w3.org/2000/svg" viewBox="0 0 477.22 530.85"><defs><style>.cls-1{fill:#463026;}</style></defs><g id="Layer_2" data-name="Layer 2"><g id="Layer_1-2" data-name="Layer 1"><path class="cls-1" d="M230,317.82c.37-2.78.8-5.55,1.09-8.33.84-8.17,1.59-16.34,2.45-24.5a6.28,6.28,0,0,0-.77-3.93,48.73,48.73,0,0,0-5.75-8.13,34.31,34.31,0,0,0-2.7-2.55,1.27,1.27,0,0,0-1.26-.33c-.25.06-.51.11-.77.15a8.06,8.06,0,0,1-8.07-4c-.89-1.74-1.57-3.58-2.32-5.38a.62.62,0,0,1,.08-.54.93.93,0,0,1,.68-.21c1.64.41,3.27.85,4.91,1.3.43.12.87.26,1.3.42a8.52,8.52,0,0,1,4.86,4.81,15.73,15.73,0,0,0,.93,2.55,13.08,13.08,0,0,0,2,1.84,18.19,18.19,0,0,1,1.48,1.56,52.73,52.73,0,0,1,4.6,6.31c.21.34.39.69.62,1,.09.12.29.16.44.24a2.3,2.3,0,0,0,.24-.5,2.74,2.74,0,0,0,0-.58c.17-2.73.38-5.46.5-8.19.2-4.69.36-9.38.51-14.07,0-1.17,0-2.34,0-3.51a1.11,1.11,0,0,0-.44-1,7.1,7.1,0,0,1-2.85-4.08,1,1,0,0,0-1-.79c-1.09-.15-2.19-.3-3.27-.53a10.4,10.4,0,0,1-6.66-4.44c-1-1.46-1.93-2.94-2.88-4.43-.12-.2-.26-.56-.17-.72.51-.85.08-1.63-.11-2.43a21,21,0,0,1-.45-8.53c.79-4.62,1.52-9.26,3.48-13.59a16.66,16.66,0,0,0,.67-1.83,24.52,24.52,0,0,1,2.94-5.51c.66-1,1.24-1.15,2.31-.63a3.21,3.21,0,0,1,.67.4c.43.37.75.25,1.19-.05a1,1,0,0,1,1.54.17,14,14,0,0,1,.91,1.27,71.45,71.45,0,0,0,5.53,7.81c2,2.17,3.63,4.6,5.46,6.89a14.44,14.44,0,0,1,3.11,7.88,20.78,20.78,0,0,1,0,3.7c0,.39-.18.84,0,1.14a1.65,1.65,0,0,1-.17,1.65,20.51,20.51,0,0,0-.85,2.18,14.76,14.76,0,0,1-4.93,6.91c-.26.2-.49.43-.76.61a1.2,1.2,0,0,0-.55,1.34,8.06,8.06,0,0,1-.14,3.49,3.63,3.63,0,0,1-.73,1.56,2.67,2.67,0,0,0-.69,1.94c-.06,4.3-.13,8.59-.29,12.89-.24,6.31-.6,12.62-1.27,18.91-.31,3-.64,6-.93,8.94-.55,5.51-1,11-1.64,16.53-.55,4.72-1.29,9.43-2,14.13-.57,3.8-1.12,7.61-1.81,11.39-1.47,8-3,16-4.57,24-.09.51-.21,1-.33,1.53l-2.07,8.94a1,1,0,0,0,.07.36,3.72,3.72,0,0,0,.48-.11,1.66,1.66,0,0,0,.31-.23,101.91,101.91,0,0,0,9.37-8.86,51.82,51.82,0,0,0,6.24-7.77c1-1.67,2-3.36,3-5a6.5,6.5,0,0,0,.36-.86,1.45,1.45,0,0,0-.27-.11,2.38,2.38,0,0,0-.38,0,6.07,6.07,0,0,1-4.88-1.53,11.19,11.19,0,0,1-4-6.78c-.65-3.19-1-6.43-1.53-9.65a2,2,0,0,1,.14-.75c.07-.23.53-.32.65-.13a5.26,5.26,0,0,1,.46.84,21.08,21.08,0,0,0,4.24,6.51c1,1.1,1.95,2.27,2.92,3.41l1,1.19a10.14,10.14,0,0,0-.76-2.78,27.32,27.32,0,0,1-1.71-8.39c0-2.08-.1-4.17,0-6.25a48.09,48.09,0,0,1,3-15.86,79.66,79.66,0,0,1,13.79-22.83c2.26-2.69,4.71-5.23,7.08-7.84s4.92-5.39,7.39-8.08a7.26,7.26,0,0,1,1-1,.64.64,0,0,1,1,.68c-.31.93-.66,1.84-1,2.74a62,62,0,0,0-3.1,9.47c-.57,2.27-1.11,4.56-1.72,6.82A110.91,110.91,0,0,0,261,306.49c-.38,4-.69,7.92-1.23,11.86-1.54,11.21-6.49,20.52-15.53,27.52a4.15,4.15,0,0,0-1,1.14c-1.48,2.52-2.91,5.09-4.41,7.6a32.33,32.33,0,0,1-2.24,3.21,121.06,121.06,0,0,1-8.12,9c-.31.33-.68.61-1,.91l-4.71,4.12a.39.39,0,1,0,.39.61c1.85-.4,3.69-.8,5.53-1.26,1.38-.34,2.75-.77,4.13-1.16,2.51-.7,5-1.34,7.52-2.12,4-1.27,8.05-2.61,12.06-4a48.12,48.12,0,0,1,7.16-1.9,32.53,32.53,0,0,1,10.69-.3c3.87.6,7.67,1.46,11.46,2.42.6.15,1.43.18,1.48,1,0,.67-.63.93-1.14,1.21q-2.4,1.31-4.82,2.58c-5,2.63-10,5.27-15.18,7.6a33.38,33.38,0,0,1-13.24,3,43,43,0,0,1-8.54-.75c-2.81-.52-5.6-1.2-8.4-1.78a61.06,61.06,0,0,1-7.17-1.91c-.67-.23-1.36-.43-2.06-.6a.55.55,0,0,0-.5.13c-.07.09,0,.34.09.5.17.35.37.68.57,1,1.93,3.25,3.85,6.51,5.79,9.75a87.72,87.72,0,0,0,9.35,13c.73.83,1.43,1.69,2.12,2.56a115.35,115.35,0,0,0,11.4,12.6,9.13,9.13,0,0,1,.69.7.63.63,0,0,1,.16.34.5.5,0,0,1-.1.35c-.07.09-.24.2-.32.17a2.43,2.43,0,0,1-.83-.43,97.22,97.22,0,0,1-7.33-7.59c-2.76-3.3-5.5-6.62-8.26-9.92a72.56,72.56,0,0,1-6.07-8.4c-2.42-3.94-4.77-7.92-7.16-11.89-.33-.55-.65-1.13-1-1.68a4.23,4.23,0,0,0-.51-.53,2.07,2.07,0,0,0-.4.56c-1.55,5.31-3.07,10.64-4.62,15.95-.58,2-1.18,4-1.83,6-3.37,10.14-7,20.21-10.84,30.17-.57,1.46-1.19,2.9-1.81,4.34a4.36,4.36,0,0,1-.6,1,.5.5,0,0,1-.49.07.55.55,0,0,1-.24-.47,5.66,5.66,0,0,1,.36-1.1c.45-1.08.95-2.15,1.36-3.24,3.14-8.29,6.34-16.56,9.12-25,1.72-5.2,3.47-10.38,4.93-15.66.95-3.46,2-6.88,3-10.32.2-.68.34-1.38.48-2.08a.38.38,0,0,0-.16-.31.43.43,0,0,0-.35,0,4.61,4.61,0,0,0-.63.46c-3.11,2.47-6.19,5-9.34,7.4a77.9,77.9,0,0,0-8.81,8.32,19.62,19.62,0,0,0-1.38,1.64,59,59,0,0,0-8,13.6,8.25,8.25,0,0,1-.74,1.37.55.55,0,0,1-.5.14.6.6,0,0,1-.29-.44,5.5,5.5,0,0,1,.35-1.11A58.22,58.22,0,0,1,205.72,384c3.36-2.88,6.93-5.51,10.39-8.28a13.78,13.78,0,0,0,2.36-2.09c-1.73-.57-3.34-1.07-4.93-1.63a31,31,0,0,1-8.9-4.82c-5.45-4.22-8.33-9.88-9.32-16.6a2.84,2.84,0,0,1,0-.77.62.62,0,0,1,.76-.43,4.56,4.56,0,0,1,.82.49l4.78,3.73a60.13,60.13,0,0,1,8.64,7.61c1.42,1.62,2.82,3.25,4.23,4.87.77.89,1.53,1.78,2.31,2.65,0,.05.2,0,.29,0s.06-.13,0-.18c-.13-.3-.26-.6-.4-.89-1.32-2.76-2.7-5.49-3.95-8.29-1.62-3.63-3.16-7.29-4.69-11-4-9.62-7.91-19.29-11.42-29.11a27,27,0,0,0-3.58-6.91c-2.26-3.11-4.51-6.23-6.9-9.25-1.32-1.68-2.89-3.18-4.37-4.73-.56-.58-.82-.55-1.18.13a7.19,7.19,0,0,1-3.77,3.25,11.4,11.4,0,0,1-8.59.15,28.39,28.39,0,0,1-6-3.3c-.27-.18-.57-.45-.33-.79a1.51,1.51,0,0,1,.78-.47,2.28,2.28,0,0,1,.78,0,23,23,0,0,0,6.41-.47,32,32,0,0,1,8.33-1,.57.57,0,0,0,.46-.26.69.69,0,0,0-.21-.51c-.55-.56-1.09-1.13-1.68-1.63-1.5-1.26-3-2.46-4.54-3.73a65.78,65.78,0,0,0-8.78-6.19c-.6-.36-1.11-.62-1.75-.05a2.33,2.33,0,0,1-1.66.41,11.87,11.87,0,0,1-8.72-4.22c-1.21-1.3-.83-2.35.92-2.52,3.67-.34,7,.4,9.47,3.45a9.08,9.08,0,0,0,2.33,2c2.09,1.33,4.14,2.72,6.22,4.07.16.1.36.43.67,0-.2-.31-.39-.64-.61-.95-2.73-3.79-3.46-8.08-3.14-12.63a2.18,2.18,0,0,1,.12-.77,1.54,1.54,0,0,1,.58-.72c.31-.16.62.07.82.35.67,1,1.35,1.92,2,2.9a32.9,32.9,0,0,1,5.42,14.52c0,.45.11.9.16,1.36a2.05,2.05,0,0,0,.68,1.36c1.79,1.71,3.55,3.46,5.35,5.15a54.84,54.84,0,0,1,6.47,7.32c1.25,1.67,2.49,3.35,3.73,5l.73,1c.09-.23.19-.35.17-.44a13.46,13.46,0,0,0-.37-1.52c-2-6.13-3.89-12.3-5.36-18.58-1.23-5.21-2.47-10.41-3.67-15.61-.7-3.05-1.33-6.12-2-9.18-1.16-5.69-2.33-11.37-3.44-17.07-.54-2.81-.93-5.66-1.41-8.49a5.16,5.16,0,0,0-5.64-4.55c-1.75.13-3.48.52-5.21.79a1.28,1.28,0,0,0-1.22,1.07,3.74,3.74,0,0,1-1.73,2.29c-2.82,1.92-5.84,2.52-9.07,1.12a13.86,13.86,0,0,1-2.37-1.34c-1.25-.83-2.45-1.73-3.67-2.6a2.9,2.9,0,0,1-.6-.5c-.11-.13-.23-.39-.17-.5a1.12,1.12,0,0,1,.55-.45,2.45,2.45,0,0,1,.77,0,8.68,8.68,0,0,0,3.62-.73c.89-.39,1.79-.78,2.7-1.14a9.44,9.44,0,0,1,4.39-.75,7.3,7.3,0,0,1,4.3,1.7,3,3,0,0,0,3.06.63,25.11,25.11,0,0,1,3.47-.57c.64-.08,1.3,0,1.95-.06a.21.21,0,0,0,.15-.1c0-.11,0-.27,0-.32a7.88,7.88,0,0,0-1.05-.86,14.93,14.93,0,0,0-4.44-2c-1.52-.37-3.06-.67-4.6-.9a9.65,9.65,0,0,1-4.84-1.92,2.29,2.29,0,0,0-2.17-.53,5.54,5.54,0,0,1-4.16-.57,14.07,14.07,0,0,1-2.12-1.39,10.72,10.72,0,0,1-3.7-6.49c-.38-1.85-.6-3.74-.85-5.61a5.12,5.12,0,0,1,.13-1.34c0-.22.47-.36.65-.23a1,1,0,0,1,.31.22,18.82,18.82,0,0,0,5.48,4.36c.72.44,1.42.92,2.1,1.42a9.39,9.39,0,0,1,3.91,6.94c0,.26,0,.52.05.78A1.81,1.81,0,0,0,158,227a7.87,7.87,0,0,0,3.86,1.8c1.28.21,2.57.39,3.85.65a17.11,17.11,0,0,1,9.72,5.44,6.44,6.44,0,0,0,.68.7,1.27,1.27,0,0,0,.49.14,1.33,1.33,0,0,0,.07-.38c-.28-3.18-.58-6.36-.84-9.54-.58-7-.89-13.92-1-20.9,0-1,0-1.95,0-2.93,0-.28-.29-.5-.52-.39-1.94.91-3.93,1.77-5.18,3.68a2.27,2.27,0,0,1-.39.43.52.52,0,0,1-.8-.22,1.61,1.61,0,0,1-.12-.56c.2-2.27.24-4.57,1.25-6.69a1.92,1.92,0,0,0,0-.59,6.77,6.77,0,0,0-.83.14,7.52,7.52,0,0,1-6-1c-.5-.3-1-.59-1.51-.91a9.73,9.73,0,0,0-4.21-1.46c-.45-.06-.9-.1-1.36-.13a4.67,4.67,0,0,1-4.38-3.58,19,19,0,0,1-.62-2.47,9.73,9.73,0,0,0-3-5.37c-.51-.5-1-1-1.49-1.55-2-2.22-1.94-4.61.1-6.81.45-.47.95-.89,1.38-1.38a4.19,4.19,0,0,0,.61-1,.5.5,0,0,0-.43-.69,3.45,3.45,0,0,1-2.4-.64,3.87,3.87,0,0,1-1.38-4,8.59,8.59,0,0,1,.55-1.67,3.41,3.41,0,0,0-.21-3.18c-.35-.63-.67-1.27-1-1.91a3.18,3.18,0,0,1,.45-3.65,7.26,7.26,0,0,1,1.28-1.19c.51-.4,1.07-.74,1.62-1.09a5.05,5.05,0,0,0,2.2-3.12c.14-.57.23-1.15.37-1.72.3-1.33.58-2.67.93-4,1.44-5.53,9.27-8.2,13.67-4.48a10.81,10.81,0,0,0,.92.72.55.55,0,0,0,.85-.09c.26-.38.46-.8.75-1.15A23.61,23.61,0,0,1,167.9,138a3.4,3.4,0,0,1,3.27-.8,7.29,7.29,0,0,1,.94.28,3.13,3.13,0,0,0,3.73-.82,12,12,0,0,1,2.44-1.94,5.91,5.91,0,0,1,6.81.22,17.25,17.25,0,0,0,5.71,2.91,1.34,1.34,0,0,1,.18.07,6.09,6.09,0,0,1,4,4.91c.09.58.19,1.15.29,1.73a1.05,1.05,0,0,0,.7.87,9.31,9.31,0,0,0,3.56.94,14.82,14.82,0,0,1,1.76.09,5,5,0,0,1,4.47,4A11.18,11.18,0,0,1,206,153a6.88,6.88,0,0,0,.55,3,10.38,10.38,0,0,1,1.05,3.35,1.34,1.34,0,0,0,.56,1c.41.32.81.66,1.2,1a12.24,12.24,0,0,1,2.93,3.88c1,2.13,1.25,4.26-.37,6.26-.16.2-.28.43-.43.65a4.33,4.33,0,0,0-.61,3.55c.11.44.23.88.3,1.33a4.25,4.25,0,0,1-3.62,5.13c-.64.13-1.3.14-1.94.24a12.29,12.29,0,0,0-1.92.37,1.76,1.76,0,0,0-.94.63,5.71,5.71,0,0,0-1.37,4.16,13.48,13.48,0,0,1,0,1.56,4,4,0,0,1-1.39,3.11,6,6,0,0,1-2.88,1.58,11.08,11.08,0,0,1-3.3.24c-1.3-.11-2.6-.12-3.9-.15a4.89,4.89,0,0,0-2.62.68c-.67.4-1.31.85-2,1.29a.49.49,0,0,0-.11.81,6,6,0,0,1,1.9,3.14c.47,2.49.86,5,1.25,7.52a.73.73,0,0,1-.31.63.79.79,0,0,1-.7,0,12.8,12.8,0,0,0-4.13-1.72c-.57-.16-1.13-.31-1.69-.5a7,7,0,0,1-5-4.58.82.82,0,0,0-.14-.36c-.07-.08-.24-.16-.3-.13a.4.4,0,0,0-.18.3c0,1.3,0,2.61,0,3.91,0,7.63.54,15.24,1.09,22.84.36,5,1.05,10,1.86,14.94.09.57.24,1.13.37,1.71.15-.06.24-.07.26-.11.17-.42.37-.83.5-1.26a23.67,23.67,0,0,1,5.51-9.35c1.29-1.38,2.61-2.74,3.89-4.13a37.52,37.52,0,0,1,6.33-4.89.3.3,0,0,1,.17-.08,2.74,2.74,0,0,1,.92.1c.35.16.31.54.22.86-.43,1.64-.91,3.27-1.29,4.92a19.91,19.91,0,0,1-3.37,7.22c-1.15,1.57-2.39,3.1-3.65,4.59a24.55,24.55,0,0,1-6.61,5.43c-.57.33-1.12.68-1.68,1a.77.77,0,0,0-.36.83c.06.45.13.9.22,1.35.46,2.23.95,4.46,1.39,6.7,1.51,7.81,3.13,15.6,5,23.33,1.12,4.62,2.25,9.25,3.42,13.86,1.55,6.06,3.47,12,5.48,17.94s4.08,11.55,6.29,17.26c3.91,10.08,8,20.11,12.39,30,1.5,3.33,3.22,6.55,4.84,9.82a6.36,6.36,0,0,0,.51.83.37.37,0,0,0,.32.1.46.46,0,0,0,.25-.26c.17-.76.31-1.53.48-2.29.77-3.37,1.6-6.72,2.29-10.1,1.09-5.36,2.07-10.74,3.13-16.11,1-5.18,1.92-10.38,2.63-15.61a16.38,16.38,0,0,0-1.52-9.69,38.72,38.72,0,0,0-5.53-8.49,64.64,64.64,0,0,1-6.95-9.19,1.64,1.64,0,0,0-1.76-.92,11.1,11.1,0,0,1-4.26-.31,50.11,50.11,0,0,1-5.19-1.73,20.24,20.24,0,0,1-5.79-3.95,6.84,6.84,0,0,1-1.82-2.75c-.26-.76.15-1.28,1-1.19a20.91,20.91,0,0,1,5.89,1.29,30.93,30.93,0,0,1,7.5,4.16,4.4,4.4,0,0,0,1.94,1.12c-.11-.31-.19-.54-.28-.77-.55-1.39-1.16-2.77-1.63-4.19-.57-1.66-1-3.36-1.52-5.05a.85.85,0,0,0-.79-.73,2.89,2.89,0,0,1-2.3-1.9,13.33,13.33,0,0,1-1.46-6.22,6.93,6.93,0,0,1,.43-2.29,1.11,1.11,0,0,1,1.87-.55,5.44,5.44,0,0,1,1,.93,13,13,0,0,1,2.93,6.92,3.35,3.35,0,0,1-.22,1.9,3.12,3.12,0,0,0-.12,2.63c.38,1.32.73,2.64,1.18,3.94a49.51,49.51,0,0,0,9.09,15.62,7.1,7.1,0,0,0,.81.66c-.19-1.19-.31-2.16-.51-3.12a54.5,54.5,0,0,1,0-20.21,13.37,13.37,0,0,1,.35-1.52.68.68,0,0,1,.71-.55.93.93,0,0,1,.57.46c.38.9.68,1.83,1.05,2.73A29.86,29.86,0,0,1,225.79,294,28.82,28.82,0,0,1,224,305.89c-.17.42-.31.86-.52,1.27a1.34,1.34,0,0,0,.21,1.61,35.2,35.2,0,0,1,4.09,6.41c.64,1.28,1.18,2.61,2,4.3C229.87,318.7,230,318.26,230,317.82Zm-44.8-146a3.59,3.59,0,0,0,3.35-1.15q.48-.49.9-1a8.4,8.4,0,0,1,2.61-2.32,2.21,2.21,0,0,0,1.06-3.13c-.23-.6-.47-1.19-.74-1.88a6.05,6.05,0,0,0-.13.64,2.71,2.71,0,0,1-1.8,2.34c-.54.2-.87.45-.82,1.12a3.91,3.91,0,0,1-1.54,3.22,6.85,6.85,0,0,1-2.91,1.52c-.5.14-1,.24-1.52.36,0-.05-.07-.14-.12-.15a9.7,9.7,0,0,1-4.85-3.1,18.44,18.44,0,0,0-3.21-2.83,8.44,8.44,0,0,1-3.31-4.92,7.14,7.14,0,0,1,.53-4.76c.08-.18.19-.41.34-.47,1-.44,1.45-1.41,2.07-2.22a2,2,0,0,1,1.53-.76,6.7,6.7,0,0,1,1.73.19,1.2,1.2,0,0,0,1.22-.3c1.59-1.36,2.88-1.38,4.53-.12a5.67,5.67,0,0,1,.74.64,10.87,10.87,0,0,0,2.47,1.89,5.52,5.52,0,0,1,2.94,4.54c0,.82.69,1,1.19,1.4a.54.54,0,0,0,.49-.15,3.28,3.28,0,0,0,.7-2c.13-3.09-.69-5.77-3.32-7.7-1.41-1-2.74-2.2-4.12-3.29a19.86,19.86,0,0,0-2.06-1.48,3.08,3.08,0,0,0-3.65.16c-.37.27-.71.57-1.09.83a5.55,5.55,0,0,1-3.26,1.13,9.74,9.74,0,0,0-1.94.19,2.25,2.25,0,0,0-1.93,1.71,12.1,12.1,0,0,1-2.45,4.83,1.79,1.79,0,0,0-.32,1.67,12.06,12.06,0,0,0,.62,1.84c.35.77.78,1.5,1.19,2.24a7.81,7.81,0,0,1,1.19,3.88,3.47,3.47,0,0,0,1.95,3.14,14,14,0,0,0,1.39.71,9.13,9.13,0,0,1,3,2.12,3.12,3.12,0,0,0,3.11,1.17,20.64,20.64,0,0,1,2.73-.1C184.24,171.56,184.73,171.71,185.24,171.79ZM242.44,343c1.37-4.48,2.77-9,4.09-13.46.65-2.25,1.22-4.53,1.73-6.82,1.7-7.5,3.36-15,5-22.51.13-.57.24-1.15.39-1.71a1.72,1.72,0,0,1,.38-.67.58.58,0,0,1,.51-.15c.14.05.34.29.32.42-.11.64-.28,1.27-.42,1.9-1,4.52-1.92,9.05-2.93,13.57-1,4.25-1.93,8.51-3,12.74-.66,2.66-1.51,5.26-2.28,7.89q-1.41,4.77-2.83,9.56c-.07.25-.14.5-.19.75a1.18,1.18,0,0,0,0,.37c.17,0,.38,0,.51-.09a13.92,13.92,0,0,0,2-1.53,66.25,66.25,0,0,0,5-5.49,38.6,38.6,0,0,0,7.67-18.18c.59-4.26,1-8.54,1.42-12.82a115.46,115.46,0,0,1,3.19-18.27c.75-2.83,1.38-5.7,2.18-8.52.71-2.5,1.58-5,2.38-7.44a.52.52,0,0,0,0-.35c-.19-.22-.35,0-.48.1s-.36.37-.54.56c-2.19,2.33-4.36,4.67-6.56,7a111.73,111.73,0,0,0-11.88,14.76,69.52,69.52,0,0,0-7.57,15.19A45.91,45.91,0,0,0,238.14,324a48.24,48.24,0,0,0,.25,8.58,38.19,38.19,0,0,0,3.41,10.36c.07.16.26.27.41.4C242.3,343.21,242.41,343.13,242.44,343Zm-6.68,29.68c2.86-.2,5.71-.44,8.56-.74,2.53-.26,5.05-.64,7.57-1,1.61-.21,3.23-.43,4.85-.61a2.35,2.35,0,0,1,.94.12c.07,0,.13.34.07.47a.75.75,0,0,1-.43.35,10.11,10.11,0,0,1-1.33.27c-2.65.36-5.3.73-8,1.05-3,.37-6.08.77-9.13,1s-6,.3-9,.45c-1.17.06-2.33.14-3.78.23a12,12,0,0,0,1.55.6c5.51,1.28,11,2.82,16.63,3.35a42.31,42.31,0,0,0,8.57-.12A27.27,27.27,0,0,0,260.4,376c5.71-2.39,11.14-5.34,16.61-8.22l4-2.1c.08-.05.18-.19.16-.27a.46.46,0,0,0-.22-.29,2.12,2.12,0,0,0-.56-.16,100,100,0,0,0-10.7-2.2,30.18,30.18,0,0,0-8.75.15,46.6,46.6,0,0,0-8.14,2c-3.58,1.19-7.16,2.39-10.76,3.51s-7.36,2.21-11,3.3c-.93.27-1.89.49-2.82.77a10.25,10.25,0,0,0-1.23.63C230.18,373,233,372.9,235.76,372.7Zm-66-176.91c.66-.53,1.3-1.08,1.94-1.65a4.72,4.72,0,0,1,3.48-1.51,1.06,1.06,0,0,0,.54-.16.34.34,0,0,0,.08-.31c-.48-.43-1-.87-1.47-1.26a.69.69,0,0,0-.55-.05,7,7,0,0,0-.89.38,3.64,3.64,0,0,1-4-.64,2.88,2.88,0,0,1-.56-.54,5.87,5.87,0,0,0-3.09-2c-1-.33-2-.66-3-1A6.16,6.16,0,0,1,159.5,185a5.26,5.26,0,0,1-1.24-3.43c0-.71.05-1.43.1-2.15a7.75,7.75,0,0,0-.62-3.62c-.41-1-.88-1.89-1.3-2.85s-.84-1.9-1.21-2.88a5.2,5.2,0,0,1,.46-4.87,3.6,3.6,0,0,0,.58-2.76c-.07-.37,0-.78,0-1.16,0-.13-.24-.26-.4-.32a.56.56,0,0,0-.38,0,11.21,11.21,0,0,0-4.72,3,7.22,7.22,0,0,0-1.79,5.23c0,.65.1,1.3.1,1.95a3.58,3.58,0,0,1-1.18,2.79c-.48.45-1,.89-1.39,1.38a3.49,3.49,0,0,0-.07,5.09c.55.64,1.17,1.22,1.76,1.82a10.63,10.63,0,0,1,3.09,5.76,14.93,14.93,0,0,0,.72,2.64,3.42,3.42,0,0,0,3.18,2.48c.52,0,1,.07,1.56.14a11.13,11.13,0,0,1,4.4,1.5c.84.51,1.68,1,2.54,1.46a5.5,5.5,0,0,0,3.42.6A5.19,5.19,0,0,0,169.77,195.79Zm61.34,27.83c-.69-1.17-1.27-2.42-1.86-3.65a7.37,7.37,0,0,1-.41-4.59c.07-.39.16-.77.25-1.15a8.11,8.11,0,0,0-.8-5.85c-.26-.53-.52-1.06-.81-1.57a2.42,2.42,0,0,0-1.48-1.19.66.66,0,0,0-.52.13,3.19,3.19,0,0,0-.47.61,25.59,25.59,0,0,0-3.07,6.28c-2.72,7.19-1.83,5-3.29,12.23a24.1,24.1,0,0,0-.37,7.19,15.25,15.25,0,0,0,1.54,5,2,2,0,0,0,.79.82,5.84,5.84,0,0,0,1.43.62,15.81,15.81,0,0,1,6.6,3.26c.1.09.32,0,.49.06a1.23,1.23,0,0,0,0-.38,12.49,12.49,0,0,1,.06-8.42c.37-1.18.59-2.41.89-3.61.1-.38.23-.77.69-.85s.72.4.74,1a2.54,2.54,0,0,1,0,.39,10.25,10.25,0,0,0,1.11,5.3c.35.76.77,1.5,1.17,2.25a.36.36,0,0,0,.32.1c.09,0,.15-.18.21-.28a.44.44,0,0,0,0-.2,24.57,24.57,0,0,0-.4-5.53A19.45,19.45,0,0,0,231.11,223.62ZM201.74,177c-.41-.9-.57-.92-1.47-.52a16.88,16.88,0,0,1-2.35.93,6.8,6.8,0,0,0-3.52,2.34c-.37.46-.74.92-1.13,1.35a4.27,4.27,0,0,1-3.06,1.54l-2,.09a4.71,4.71,0,0,0-3.3,1.48c-.54.57-1.05,1.17-1.63,1.69a3.17,3.17,0,0,1-4.12.45,12.92,12.92,0,0,1-2.28-1.82,7.65,7.65,0,0,0-2.81-2.06,1.38,1.38,0,0,1-.76-.57c-.45-.89-1.36-1.18-2.08-1.72a2.77,2.77,0,0,0-2.07-.29c-.06,0-.12.2-.16.31a.23.23,0,0,0,0,.18,7.77,7.77,0,0,1,1.39,3.61,6.91,6.91,0,0,0,2,3.71c.46.46.94.9,1.43,1.33L178.3,193a11,11,0,0,0,2.71,1.9,3.79,3.79,0,0,0,3.57,0c.58-.3,1.15-.61,1.72-.93a7.9,7.9,0,0,1,4.11-1.08c1,0,2.08.11,3.12.14a20.3,20.3,0,0,0,2.34,0,5.66,5.66,0,0,0,1.52-.33c2.16-.82,3.18-2.21,2.89-4.3a6.94,6.94,0,0,1,1-4.67c.23-.39.37-.84.62-1.22a5.14,5.14,0,0,0,.5-3.75C202.24,178.35,202,177.67,201.74,177Zm-11.17-38a4.13,4.13,0,0,0-.55-.21,15.39,15.39,0,0,1-5.35-2.75,5.07,5.07,0,0,0-6.19-.1,19.07,19.07,0,0,0-2.25,1.87,3.61,3.61,0,0,1-3.95.91c-.12,0-.25-.07-.37-.12a3.31,3.31,0,0,0-4.29,1.26c-.38.53-.75,1.06-1.11,1.6-.47.71-.92,1.43-1.4,2.12a6.78,6.78,0,0,1-2.33,2.06c-.45.25-.92.48-1.37.73-1.92,1.05-2.47,2.75-2.29,4.79a7.26,7.26,0,0,0,.34,1.52,6.6,6.6,0,0,1-.87,6.14c-.18.27-.32.57-.48.85a5.24,5.24,0,0,0-.27,4.89,13.82,13.82,0,0,0,1.6,2.89,52.13,52.13,0,0,1,4.68,7.43,9,9,0,0,0,1.6,2.2,5.42,5.42,0,0,0,4.22,1.69c.17,0,.47-.15.48-.25a1,1,0,0,0-.17-.68,3.2,3.2,0,0,0-.76-.6,3.81,3.81,0,0,1-1.74-3.12,2.55,2.55,0,0,1,0-.39,6.73,6.73,0,0,0-2.1-5.08c-.81-.85-1.59-1.72-2.36-2.61a5.61,5.61,0,0,1-1.5-3.33,4.49,4.49,0,0,1,0-1,2.56,2.56,0,0,1,2.33-2.46c.61-.13.73-.36.42-.9s-.49-.77-.72-1.16a3.05,3.05,0,0,1,.06-3.49,19.81,19.81,0,0,1,1.28-1.73,3.29,3.29,0,0,0,.84-2.33v-.2a3.35,3.35,0,0,1,2.64-3.79,2.31,2.31,0,0,0,1.59-1.8c.65-2.14,1.66-2.82,3.86-2.77a7.65,7.65,0,0,1,1.17.06,12.33,12.33,0,0,0,5-.37c3.81-1,6.76.41,8.64,3.91a2.51,2.51,0,0,0,.36.69.9.9,0,0,0,.66.25c1.22-.22,2.43-.49,3.63-.75a.6.6,0,0,0,.49-.72c0-.32-.1-.64-.16-1A4.89,4.89,0,0,0,190.57,139Zm-39.83,6.84c-.26,1-.46,1.9-.67,2.86-.1.44-.18.89-.25,1.34a6.94,6.94,0,0,1-3.68,5.45,7.57,7.57,0,0,0-1.42,1,2.46,2.46,0,0,0-.66,3.32c.29.51.54,1,.83,1.55a4.31,4.31,0,0,1,.26,4.12,8.89,8.89,0,0,0-.5,1.48,3,3,0,0,0,.36,2.26,2.08,2.08,0,0,0,1.57,1.05,1,1,0,0,0,1.23-.94c.06-.52.06-1,.13-1.56a8,8,0,0,1,2.6-5.11,13.9,13.9,0,0,1,5.61-3.06,1.75,1.75,0,0,0,1.2-.89,20.74,20.74,0,0,0,1.15-2.25,5,5,0,0,0,.05-3.08c-.16-.57-.35-1.13-.47-1.7a5.7,5.7,0,0,1,2.82-6.31c.68-.39,1.38-.74,2-1.17a3.81,3.81,0,0,0,1-1,.69.69,0,0,0,0-.68,7.39,7.39,0,0,0-6.76-2.36C154.11,140.87,151.67,142.47,150.74,145.82ZM194.28,164a3.08,3.08,0,0,1-1,3.83,1.33,1.33,0,0,0-.59,1.5,6.92,6.92,0,0,1,.16,1.75c-.11,1.68-.91,2.81-2.55,3a5.93,5.93,0,0,0-4,2.16c-.13.14-.29.26-.42.41a5.63,5.63,0,0,1-5.11,1.85,5.39,5.39,0,0,0-3.55.78c-.77.48-1.61.86-2.4,1.31-.2.12-.47.38-.45.55s.31.41.53.5a7.53,7.53,0,0,1,2.66,1.94,12.34,12.34,0,0,0,1.74,1.57,2.46,2.46,0,0,0,3.66-.29,12.64,12.64,0,0,0,.93-1,5.85,5.85,0,0,1,4.25-2.1,11.52,11.52,0,0,1,1.17-.09,4.21,4.21,0,0,0,3.82-1.95,1,1,0,0,1,.12-.16,8.23,8.23,0,0,1,4.74-3.24,6.86,6.86,0,0,0,1.62-.65,2.14,2.14,0,0,0,1.22-2.26,7.52,7.52,0,0,0-.57-2.25,5.73,5.73,0,0,1,0-5.09c0-.06,0-.13.07-.19,1.14-2.33.6-4.42-.94-6.36a10.82,10.82,0,0,0-4.92-3.41c-.37-.13-.67.06-.64.46a14.1,14.1,0,0,1-.26,3.49,10.86,10.86,0,0,0,.15,2.21Zm46.48,72.66c.51-.3,1-.65,1.49-.93a2.94,2.94,0,0,0,1.52-2.17,16.67,16.67,0,0,0,.29-2.9,21.73,21.73,0,0,0-.33-3.11,10.58,10.58,0,0,0-2-4.81,92.51,92.51,0,0,0-5.87-7.55A36.51,36.51,0,0,1,232,210c-.82-1.25-1.67-2.48-2.54-3.71a.5.5,0,0,0-.48-.06.64.64,0,0,0-.25.48,2.15,2.15,0,0,0,.3.7,11.71,11.71,0,0,1,1.2,3.29,7.72,7.72,0,0,1,0,3.48c-.11.44-.22.89-.3,1.34a6.44,6.44,0,0,0,.42,4.19c.5,1,.92,2,1.51,2.95a23.34,23.34,0,0,1,3.56,12.8c0,1.23.06,2.47.12,3.7,0,.38.12.76.23,1.48A18,18,0,0,1,240.76,236.68Zm-50-86.29a8,8,0,0,1,2.4,3.51,1.45,1.45,0,0,0,.93.89,24.38,24.38,0,0,1,3.36,1.56,9.68,9.68,0,0,1,4.13,4.79,5.2,5.2,0,0,1,.22,3.62c-.24.81-.54,1.6-.83,2.4a4.51,4.51,0,0,0,.2,3.42c.21.49.64.56,1.11.23a2.19,2.19,0,0,0,1-2c0-.45,0-.91-.09-1.36a3.08,3.08,0,0,1,.75-2.35c.37-.45.78-.88,1.13-1.35a6,6,0,0,0,.77-6.27c-.17-.42-.31-.86-.5-1.27a6.26,6.26,0,0,1-.55-3,9.46,9.46,0,0,0-.1-2.13,3.89,3.89,0,0,0-3.68-3.45,5.29,5.29,0,0,0-1-.08,8.34,8.34,0,0,1-4-.83c-1.86-.92-3.67-.61-5.51-.08-.67.19-.82.44-.76,1.15,0,.32.1.64.14.87A1.83,1.83,0,0,0,190.77,150.39Zm-26.7,10.12c-.29-.22-.82.17-1,.68a3.5,3.5,0,0,0,.31,3,8.73,8.73,0,0,0,1.14,1.57c.77.89,1.58,1.74,2.35,2.62a6.89,6.89,0,0,1,1.93,5,3.25,3.25,0,0,0,1.74,3.25,2.7,2.7,0,0,1,1.26,1.88c.34,1.28,1.12,1.64,2.37,1.12a13.73,13.73,0,0,0,2.25-1.17,6.38,6.38,0,0,1,4.44-1.06,4.54,4.54,0,0,0,4.23-1.55c.25-.29.56-.54.83-.83a5.38,5.38,0,0,1,3.55-1.85,5,5,0,0,0,.77-.13,1.83,1.83,0,0,0,1.45-1.65,7.72,7.72,0,0,0,0-1.36.64.64,0,0,0-.28-.47.6.6,0,0,0-.5.14c-.45.47-.82,1-1.3,1.46a11.82,11.82,0,0,1-1.67,1.32,3.87,3.87,0,0,1-2.65.44,17.44,17.44,0,0,0-5-.22,2.56,2.56,0,0,1-2.32-.81,13.78,13.78,0,0,0-4.81-3.28,3.49,3.49,0,0,1-.65-.43,2,2,0,0,0-1.62-.52,2.94,2.94,0,0,1-2.68-1.29c-.75-.89-1.61-1.69-2.44-2.51a3.43,3.43,0,0,1-1.29-2.73C164.37,161,164.29,160.67,164.07,160.51ZM157,171.6c.58,1.31,1.2,2.6,1.78,3.91a7.67,7.67,0,0,1,.65,4c-.05.52-.05,1-.07,1.56a4.87,4.87,0,0,0,3,4.83,15.87,15.87,0,0,0,1.82.69l2,.7a5.87,5.87,0,0,1,2.73,1.81,5.62,5.62,0,0,0,.69.69,2.66,2.66,0,0,0,2.57.52c.58-.17.74-.58.35-1s-.65-.64-1-1a7.17,7.17,0,0,1-2.13-4.09,9.47,9.47,0,0,0-2.5-4.77,3.62,3.62,0,0,0-.92-.72,8.17,8.17,0,0,1-2.62-2.86c-.29-.51-.59-1-.85-1.54a33.55,33.55,0,0,0-3.08-5c-.72-1-1.38-2-2.09-3.07-.16-.23-.25-.71-.62-.56s-.4.49-.52.78a5.55,5.55,0,0,0-.33,2.34C156.3,169.79,156.63,170.7,157,171.6Zm50.52,9.48a3,3,0,0,0,2.52-3.6,10.19,10.19,0,0,0-.29-1.54,5.32,5.32,0,0,1,.84-4.46c.18-.27.36-.55.55-.81a4,4,0,0,0,.61-3.35,7.89,7.89,0,0,0-1.85-3.61,22.08,22.08,0,0,0-1.93-1.94.38.38,0,0,0-.63.17,11.74,11.74,0,0,1-2.41,3.76,2.29,2.29,0,0,0-.61,1.8c0,.39,0,.78.09,1.16a3,3,0,0,1-1.3,2.88c-.26.2-.55.35-.8.56s-.36.3-.35.44c.11,1-.43,2,.23,3a8,8,0,0,1,1.39,5.19c-.06.61.17.76.84.71s1.17-.12,2.07-.22A8.65,8.65,0,0,0,207.53,181.08Zm-31.94-38.8a13,13,0,0,0-2.33-.05,1.94,1.94,0,0,0-1.88,1.45,1.39,1.39,0,0,0-.06.19,3.46,3.46,0,0,1-2.72,3,2,2,0,0,0-1.5,2.24,5.18,5.18,0,0,1-1.51,4.09,2.55,2.55,0,0,0-.24.31c-1.22,1.67-1.27,2.05-.15,3.84a3.49,3.49,0,0,1,.52,3.32,1.85,1.85,0,0,0,.49,2.14c1.09,1.12,2.17,2.24,3.27,3.35a1.74,1.74,0,0,0,.5.28c.24.12.6-.06.59-.3a10,10,0,0,0-1-4.72c-.42-.74-.83-1.48-1.2-2.24a17.46,17.46,0,0,1-.74-1.8,3.42,3.42,0,0,1,.66-3.65,9.19,9.19,0,0,0,1.84-3.63c.61-2.11,1.59-2.87,3.76-3.06a5.09,5.09,0,0,1,.78,0,5.17,5.17,0,0,0,3.6-1.29,7.47,7.47,0,0,1,.77-.59,4.12,4.12,0,0,1,4.27-.35,12.44,12.44,0,0,1,2,1.25c.58.42,1.08.95,1.66,1.36s.87,1.14,1.71,1a11,11,0,0,0-.32-2.09c-.88-2.6-2.52-4.44-5.4-4.71a12.47,12.47,0,0,0-2.65.24A10.63,10.63,0,0,1,175.59,142.28ZM212,364.66a63,63,0,0,0-11.14-10.32c-.74-.54-1.45-1.11-2.21-1.61s-1-1.15-1.87-1.16a21.87,21.87,0,0,0,.38,2.29,23.55,23.55,0,0,0,12.15,15,28.1,28.1,0,0,0,7,2.84c.28-.53-.25-.66-.48-.86q-5.57-4.92-11.15-9.8c-.29-.26-.58-.52-.86-.79a.54.54,0,0,1-.12-.7c.13-.27.51-.3.84-.05s.92.73,1.36,1.12l6.26,5.6c.61.55,1.26,1.07,1.89,1.61l.24-.34C213.51,366.57,212.75,365.6,212,364.66ZM185.29,239.53c1.17-1.72,2.4-3.4,3.62-5.09a6.67,6.67,0,0,1,1.06-1.13.81.81,0,0,1,.7,0,.4.4,0,0,1,.06.66,85,85,0,0,0-5.51,7.57c-.68.95-1.46,1.83-2.18,2.75a9.83,9.83,0,0,0-1.58,2.2c.39.21.65,0,.93-.17a20.27,20.27,0,0,0,5-4.08c1.5-1.7,2.93-3.48,4.29-5.31a18.65,18.65,0,0,0,3.16-6.87,4.91,4.91,0,0,0,.17-.76c.09-.92.81-1.77.33-2.76-.77.45-1.55.89-2.3,1.38a8.52,8.52,0,0,0-1.37,1.09,80.8,80.8,0,0,0-6.92,7.41,19.9,19.9,0,0,0-3.87,8.49A30.6,30.6,0,0,0,185.29,239.53Zm-9.11-75a21.92,21.92,0,0,1,3.36,2.95,12.32,12.32,0,0,0,2.39,2,4.6,4.6,0,0,0,6.46-2,1.07,1.07,0,0,0-.39-1.53,8.33,8.33,0,0,0-4.84-1.87,1.81,1.81,0,0,1-.77-.08c-2.3-1-4.55-2-5.32-4.73a2.09,2.09,0,0,0-.72-1.13c-.25-.2-.47-.45-.72-.65L174,156.16c-.74.62-.62,1.53-.76,2.34a8.3,8.3,0,0,0,0,1.31A8,8,0,0,0,176.18,164.53Zm10.76,41.06c-.25-1.67-.54-3.34-.78-5a6.13,6.13,0,0,0-2.15-3.39,2.07,2.07,0,0,0-.87-.37,13,13,0,0,1-4.56-2.14c-.63-.48-.79-.3-1,.46a11.94,11.94,0,0,0-.37,3.66,5.91,5.91,0,0,0,4,5.69c1.81.66,3.69,1.16,5.59,1.74A2.75,2.75,0,0,0,186.94,205.59Zm-39.34,16.2a9,9,0,0,0,4.89,4.52,3.47,3.47,0,0,0,2.29.21.37.37,0,0,0,.25-.58q-1.16-1.32-2.34-2.61c-.61-.68-1.26-1.31-1.86-2a2.31,2.31,0,0,1-.38-.86.39.39,0,0,1,.14-.34.4.4,0,0,1,.34-.07,4.8,4.8,0,0,1,.74.61c1.16,1.22,2.31,2.46,3.47,3.69a3.26,3.26,0,0,0,.42.41c.09.07.3.14.33.11s.26-.32.24-.46a8.17,8.17,0,0,0-2.18-4.48,16.5,16.5,0,0,0-2.1-1.73c-1.76-1.22-3.56-2.39-5.35-3.57-.09,0-.25,0-.45,0A18.4,18.4,0,0,0,147.6,221.79Zm8,18a8,8,0,0,0,7.69-1.57,2.45,2.45,0,0,0,.63-.73,1,1,0,0,0,.06-.71c0-.11-.33-.21-.5-.2-1.55.08-3.11.2-4.67.29a6,6,0,0,1-1.34-.07c-.11,0-.22-.28-.26-.44a.37.37,0,0,1,.2-.3c.76-.14,1.52-.28,2.29-.36,1-.11,2.08-.16,3.11-.26a.74.74,0,0,0,.42-.29s-.08-.25-.18-.31a6.86,6.86,0,0,0-6.12-1c-.68.2-1.33.51-2,.76L151.07,236c-.23.09-.44.22-.83.4A16.68,16.68,0,0,0,155.59,239.8ZM222,295.21c-.08-1,.14-1.55.52-1.45.68.19.56.83.57,1.3.08,2.21.1,4.43.14,6.64,0,.57,0,1.14.06,1.95,2.37-4.84,1.6-15.33-1.42-20.55a6.85,6.85,0,0,0-.51,2.58c-.15.9-.22,1.81-.3,2.72s-.15,1.81-.18,2.72,0,1.7,0,2.54,0,1.82.11,2.73.19,1.82.33,2.72a6.58,6.58,0,0,0,.75,2.83A61.87,61.87,0,0,0,222,295.21Zm10.28,42.37a17.89,17.89,0,0,0,1.38,4.86,9,9,0,0,0,3.08,3.71,9.2,9.2,0,0,0,2.11,1c.53.19,1.33,0,1.24-.21a3.16,3.16,0,0,0-.7-.88,22.89,22.89,0,0,1-3.81-4.68,2.18,2.18,0,0,1-.27-.71.35.35,0,0,1,.12-.34c.16-.07.43-.13.52-.05a7.84,7.84,0,0,1,.89,1c.76,1,1.5,2,2.26,2.93a1.94,1.94,0,0,0,.45.35.44.44,0,0,0,.18,0c.05-.12.14-.27.1-.35a5.75,5.75,0,0,0-.62-1.21c-1.17-1.56-2.35-3.12-3.57-4.64-1-1.26-2.09-2.48-3.15-3.71a5.5,5.5,0,0,0-.55-.49A17.85,17.85,0,0,0,232.31,337.58ZM185.17,159.27c0,.38-.15.82.25,1.08a1.8,1.8,0,0,0,1.83.26c2.37-1.12,2.36-1.85,1.08-3.68a4.58,4.58,0,0,0-1.72-1.55,10,10,0,0,1-2.47-1.88,5.89,5.89,0,0,0-1.4-1,1.81,1.81,0,0,0-2.5.78c-.2.34-.32.71-.49,1.06a1.64,1.64,0,0,0,.17,1.82c.51.74.61,1.1,1.63.29a5.67,5.67,0,0,1,1.55-.79.83.83,0,0,1,1,.37,6,6,0,0,1,1,2.38C185.14,158.63,185.16,159,185.17,159.27ZM165.43,298.54c-.15,0-.28.17-.41.26.07.11.12.25.22.31a12.2,12.2,0,0,0,9.62,2.23,8.36,8.36,0,0,0,3.66-1.75,5,5,0,0,0,.64-.73.45.45,0,0,0,0-.36.36.36,0,0,0-.29-.17c-.77.14-1.53.29-2.3.45-1.08.22-2.16.47-3.25.68a1.67,1.67,0,0,1-.77,0,.53.53,0,0,1-.35-.39.56.56,0,0,1,.28-.45c.49-.17,1-.26,1.51-.38,1-.23,2-.45,3-.7.09,0,.18-.19.19-.3s-.15-.19-.23-.19a18.1,18.1,0,0,0-4.64.51c-.5.16-1,.24-1.52.36V298Zm64.35-58.78a12.08,12.08,0,0,0,2.39,4.84,3.41,3.41,0,0,0,2.05,1.4.5.5,0,0,0,.6-.55c-.19-1-.4-2-.57-3A14.44,14.44,0,0,0,232.8,238c-.66-1.26-1.19-2.58-1.79-3.87-.14-.29-.31-.55-.54-1A10,10,0,0,0,229.78,239.76Zm-11.92,22.81c-.12,0-.24-.1-.37-.13-1.2-.24-2.39-.51-3.6-.69-.27-.05.32,2,1.24,3.73a7.06,7.06,0,0,0,6,3.71,1,1,0,0,0,.39,0c.18-.06.42-.11.49-.25s-.06-.38-.19-.47c-1-.76-2-1.49-2.94-2.24a7.91,7.91,0,0,1-1-.9.52.52,0,0,1,0-.51.54.54,0,0,1,.49-.17,12.62,12.62,0,0,1,1.47.94,15.23,15.23,0,0,0,2.93,1.88A7.24,7.24,0,0,0,217.86,262.57ZM175.31,194.1a4.86,4.86,0,0,0-1.09.39,9.26,9.26,0,0,0-4.86,6.46,16.67,16.67,0,0,0-.21,1.73c0,.1.3.32.35.29,1.6-1,3.21-1.94,4.77-3a3.66,3.66,0,0,0,1.67-2.94c.05-.84.11-1.67.14-2.17C176,194.23,175.64,194,175.31,194.1ZM173,281.26a34,34,0,0,0-3.71-6.61,2,2,0,0,0-.37-.45.41.41,0,0,0-.35-.09c-.08,0-.16.18-.17.29a16.74,16.74,0,0,0,3.71,11.79c.08.1.29.1.44.15a1,1,0,0,0,0-.38,4.93,4.93,0,0,0-.22-.53,3,3,0,0,1-.27-.72c0-.16.1-.48.19-.49s.56,0,.66.13c.34.47.58,1,.88,1.51.19.31.43.58.84,1.14A20.14,20.14,0,0,0,173,281.26Zm49.7-41.4c-.56-.15-1.12-.35-1.68-.51a.57.57,0,0,0-.33,0,.89.89,0,0,0,0,.53,14.68,14.68,0,0,0,2.51,3.44,8.06,8.06,0,0,0,2.4,1.64,15.2,15.2,0,0,0,5.27,1.23,2.71,2.71,0,0,0,.67-.19C229,243.24,226.33,240.84,222.68,239.86Zm-13.52,54.28a23.86,23.86,0,0,0-11-4.77,1,1,0,0,0-.38,0,.45.45,0,0,0-.31.17.36.36,0,0,0,0,.35,18.86,18.86,0,0,0,1.64,1.92,22.11,22.11,0,0,0,10.26,5,2.73,2.73,0,0,0,.75,0s.1-.08.22-.19a30.79,30.79,0,0,0-3.72-2.14c-1.27-.66-2.58-1.26-3.86-1.91a4.75,4.75,0,0,1-1-.63.55.55,0,0,1,0-.52.54.54,0,0,1,.47-.21,8.21,8.21,0,0,1,1.27.51c1.87.91,3.73,1.84,5.87,2.9A2.69,2.69,0,0,0,209.16,294.14ZM152.32,279a1.86,1.86,0,0,0,.23.32,11.12,11.12,0,0,0,7.38,3.55,4,4,0,0,0,.78,0,.68.68,0,0,0,.54-1.13,9.4,9.4,0,0,0-1.41-1.6c-2.12-1.69-4.64-1.88-6.82-1.89C152.23,278.41,152.09,278.72,152.32,279Zm84.51-34.11a14.65,14.65,0,0,0,4.93-4.91,5.29,5.29,0,0,0,.61-1.21c.16-.64.89-1.15.46-1.93-.57.29-1.15.54-1.69.88-.88.54-1.75,1.12-2.59,1.73A7.47,7.47,0,0,0,236.4,242a3.57,3.57,0,0,0-.47,2.43C236,245.05,236.38,245.2,236.83,244.92Zm-30.11,36.53a3.58,3.58,0,0,0,.64,1,.91.91,0,0,0,1,.31,1.39,1.39,0,0,0,1-.85,1,1,0,0,0,.06-.38,11.63,11.63,0,0,0-3-7.18.47.47,0,0,0-.87.19,10.81,10.81,0,0,0,0,3.77C205.89,279.15,206.28,280.31,206.72,281.45Zm-18.84-117a2.79,2.79,0,0,0,3-.83,1.57,1.57,0,0,0,.2-1.08,2.9,2.9,0,0,0-1.18-1.71.66.66,0,0,0-.54-.08,6.5,6.5,0,0,0-3.38,2.62C186.66,163.81,187.25,164.19,187.88,164.48ZM236.48,247c-.11-.26-.33-.47-.58-.32a5.52,5.52,0,0,1-2.58.62.7.7,0,0,0-.38.56,5.11,5.11,0,0,0,1.83,3.08.93.93,0,0,0,1.45-.37,5.48,5.48,0,0,0,.36-3.2A2,2,0,0,0,236.48,247Zm-53.39-90c-.62-.15-1,.46-1.46.84a2.15,2.15,0,0,0-.78,1.71c0,1.52,0,1.56,1.38,1.11l.56-.16c1.25-.36,1.43-.65,1.2-2C183.86,157.9,183.81,157.12,183.09,156.94Zm-5.88-.16a8.23,8.23,0,0,0,1.3-2.38.71.71,0,0,0-.5-.91,1.9,1.9,0,0,0-2,.26c-.9.87-.86,1.74.11,2.64.23.22.49.41.72.6C177,156.9,177.15,156.87,177.21,156.78Zm2,.39c-.08-.15-.28-.33-.41-.33a.64.64,0,0,0-.42.34,2.76,2.76,0,0,0,.1,2.59c.24.45.46.95,1.11,1.11A4.89,4.89,0,0,0,179.19,157.17Zm6.22,5a.39.39,0,0,0,.13-.34.48.48,0,0,0-.28-.24,3.75,3.75,0,0,0-3.33.43.38.38,0,0,0-.14.33.39.39,0,0,0,.22.28c.55.17,1.1.32,1.69.49C184.3,162.78,184.86,162.49,185.41,162.16Z"/><path class="cls-1" d="M4.45,86.68a8.21,8.21,0,0,0-1.19,1.54,4,4,0,0,0-.54,1.6,4.58,4.58,0,0,0,.19,1.86,11.43,11.43,0,0,0,1,2.3l-.26.27L0,90.76,12.76,77.47,16.4,81l-.26.28a11.68,11.68,0,0,0-2.34-.91,4.81,4.81,0,0,0-1.86-.11,4.09,4.09,0,0,0-1.58.61,8.17,8.17,0,0,0-1.49,1.25l-.73.76,13.6,13.07,1.87-2,.28.26-6.7,7-.28-.27,1.88-2L5.19,85.92Z"/><path class="cls-1" d="M34.43,58.66l.24.31-2.13,1.66,5.56,7.13,6.69-5.22-5.56-7.13L37.1,57.07l-.24-.3,7.63-6,.24.31L42.6,52.79,54.19,67.66,56.32,66l.24.3-7.63,6-.23-.31,2.13-1.66L45,62.84l-6.7,5.23,5.8,7.43,2.13-1.66.24.3-7.63,6-.23-.3,2.13-1.67L29.18,63.25,27,64.91l-.23-.3Z"/><path class="cls-1" d="M75.61,31.67l2.33,4.1-.33.19a9.41,9.41,0,0,0-1-.8A5.94,5.94,0,0,0,75,34.41a5.56,5.56,0,0,0-2-.23,5.29,5.29,0,0,0-2.37.76l-4.06,2.31,4.21,7.41,1.43-.82a5.05,5.05,0,0,0,1.45-1.16,3.25,3.25,0,0,0,.68-1.33,4.36,4.36,0,0,0,.07-1.54,10.16,10.16,0,0,0-.37-1.73l.33-.19,4.24,7.45-.33.19a15.2,15.2,0,0,0-1.19-1.1,4.46,4.46,0,0,0-1.3-.77,3.53,3.53,0,0,0-1.45-.21,4.06,4.06,0,0,0-1.66.57L71,45l4.92,8.65,4.19-2.38A6.7,6.7,0,0,0,82,49.68a6.08,6.08,0,0,0,1.08-2,6.77,6.77,0,0,0,.32-2.25A9.64,9.64,0,0,0,83,43.07l.34-.18,3,5.24L70,57.42l-.19-.33,2.35-1.34L62.87,39.36,60.52,40.7l-.19-.34Z"/><path class="cls-1" d="M124.17,11.75l.11.37-2.23.66,8.5,7.51L133,9.52l-2.45.74-.11-.37,5.38-1.61.11.37-2.45.73L130.92,20.7l2.49,8.37,2.62-.78.11.37-9.29,2.77-.11-.37,2.59-.77-2.2-7.37-9.72-8.75-2.2.66-.11-.37Z"/><path class="cls-1" d="M151.84,10.45a11.28,11.28,0,0,1,2.06-3.62,12,12,0,0,1,3.19-2.61,11.24,11.24,0,0,1,3.69-1.32,11.63,11.63,0,0,1,4.07.09,11.08,11.08,0,0,1,3.8,1.46,10.2,10.2,0,0,1,3,2.78,9.33,9.33,0,0,1,1.61,4.06,9.1,9.1,0,0,1-.27,4,10.84,10.84,0,0,1-1.88,3.61,11.47,11.47,0,0,1-3.1,2.73,11.05,11.05,0,0,1-4,1.46,11.24,11.24,0,0,1-4.25-.13,11.35,11.35,0,0,1-3.8-1.57,10.58,10.58,0,0,1-2.9-2.8,8.88,8.88,0,0,1-1.52-3.8A8.84,8.84,0,0,1,151.84,10.45Zm5.48,8.25a8.07,8.07,0,0,0,1.56,2.8A4,4,0,0,0,161,22.73a8.16,8.16,0,0,0,2.88,0,6.55,6.55,0,0,0,3.25-1.28,4.76,4.76,0,0,0,1.5-2.36,9.32,9.32,0,0,0,.27-3.25c-.08-1.23-.23-2.55-.46-4s-.43-2.48-.7-3.62a9.07,9.07,0,0,0-1.22-2.93,4.88,4.88,0,0,0-2.18-1.81,6.52,6.52,0,0,0-3.53-.23,6.39,6.39,0,0,0-3.14,1.23,4.74,4.74,0,0,0-1.54,2.32,9.66,9.66,0,0,0-.35,3.24,34,34,0,0,0,.42,4A26.64,26.64,0,0,0,157.32,18.7Z"/><path class="cls-1" d="M187.05.71V.33l4.44-.12c.82,0,1.63,0,2.44-.1S195.53,0,196.35,0a14.72,14.72,0,0,1,2.43.16,8.42,8.42,0,0,1,2.36.7,5,5,0,0,1,1.78,1.4,3.64,3.64,0,0,1,.75,2.27,3.27,3.27,0,0,1-.48,1.9,4.19,4.19,0,0,1-1.33,1.32,7.57,7.57,0,0,1-1.85.81A12.28,12.28,0,0,1,198,9v.14c1,.14,1.82.28,2.58.43a6.78,6.78,0,0,1,2,.69,3.69,3.69,0,0,1,1.34,1.35,5.81,5.81,0,0,1,.66,2.35l.31,2.78a9.26,9.26,0,0,0,.29,1.62,1.36,1.36,0,0,0,.46.76,1.71,1.71,0,0,0,1.77-.17l.67-.61.3.24-.56.53a3.18,3.18,0,0,1-.64.41,4,4,0,0,1-.89.29,8.63,8.63,0,0,1-1.32.13,5.52,5.52,0,0,1-2.54-.42A3.48,3.48,0,0,1,201,18.31a3.74,3.74,0,0,1-.58-1.55c-.09-.56-.15-1.08-.18-1.58-.06-.75-.13-1.48-.22-2.19a5.6,5.6,0,0,0-.53-1.87,3,3,0,0,0-1.18-1.29,3.87,3.87,0,0,0-2.16-.44l-1.93,0,.25,10,2.7-.07v.39l-9.66.25v-.39l2.7-.07L189.76.64ZM195.44,9a5.23,5.23,0,0,0,2.08-.39,2.6,2.6,0,0,0,1.12-.92,3,3,0,0,0,.45-1.3A10.06,10.06,0,0,0,199.16,5a10.6,10.6,0,0,0-.23-2.07,3.65,3.65,0,0,0-.63-1.42,2.42,2.42,0,0,0-1.15-.81,5,5,0,0,0-1.84-.23c-.22,0-.43,0-.65,0L194,.53l.21,8.52Z"/><path class="cls-1" d="M234.87,1.74l0,.38-2.69-.31-1,8.76.24,0,9.94-7.73-2.95-.34,0-.39,5.84.68-.05.38-2.33-.27-7.25,5.66,8.68,13.49,1.81.2,0,.39-9.76-1.13.05-.38,2.63.3L231.32,11l-.23,0L230,20.54l2.68.31,0,.38L223,20.13l0-.38,2.68.31,2.16-18.74L225.22,1l.05-.38Z"/><path class="cls-1" d="M262.06,20c0,.22,0,.52,0,.89a7.08,7.08,0,0,0,.12,1.23,10.71,10.71,0,0,0,.36,1.4,6.5,6.5,0,0,0,.71,1.42,6,6,0,0,0,1,1.26,5.4,5.4,0,0,0,1.05.77,4.63,4.63,0,0,0,1,.44l.92.25a6.31,6.31,0,0,0,2.59.2,4.58,4.58,0,0,0,1.8-.69A3.86,3.86,0,0,0,272.77,26a4.23,4.23,0,0,0,.55-1.18,2.68,2.68,0,0,0-.08-1.76,4.06,4.06,0,0,0-1.05-1.41,10.47,10.47,0,0,0-1.69-1.2l-2-1.16c-.68-.4-1.34-.82-2-1.28a7.38,7.38,0,0,1-1.6-1.55,5.11,5.11,0,0,1-.91-2,5.28,5.28,0,0,1,.12-2.53A4.54,4.54,0,0,1,265.18,10a5.8,5.8,0,0,1,1.87-1.38,7.48,7.48,0,0,1,2.5-.67,8.28,8.28,0,0,1,2.86.24A7.67,7.67,0,0,1,274,8.8q.68.34,1.17.66c.33.21.62.4.86.58a2.16,2.16,0,0,0,.72.35.8.8,0,0,0,.55,0,1.42,1.42,0,0,0,.39-.37l.45.12-1.31,5.07-.37-.1c-.06-.68-.15-1.36-.25-2a7,7,0,0,0-.55-1.89,4.71,4.71,0,0,0-1.21-1.58,5.22,5.22,0,0,0-2.18-1.05,6.56,6.56,0,0,0-2.08-.23,4.94,4.94,0,0,0-1.67.4,3.62,3.62,0,0,0-1.19.83,2.65,2.65,0,0,0-.62,1.12,2.36,2.36,0,0,0,.13,1.69A4.59,4.59,0,0,0,268,13.8a11.38,11.38,0,0,0,1.76,1.26l2.07,1.25c.71.43,1.39.88,2,1.34a8.4,8.4,0,0,1,1.68,1.56,5.38,5.38,0,0,1,1,1.9,4.6,4.6,0,0,1-.05,2.38,5.88,5.88,0,0,1-1.21,2.34,6.68,6.68,0,0,1-2.14,1.64,8.26,8.26,0,0,1-2.84.76,10.28,10.28,0,0,1-5-.92c-.56-.26-1.07-.51-1.54-.75s-.89-.47-1.25-.68a3.75,3.75,0,0,0-.83-.39,1,1,0,0,0-.6,0,1.07,1.07,0,0,0-.44.41l-.45-.12,1.53-5.92Z"/><path class="cls-1" d="M307,20.12l-.15.35-2.5-1-3.46,8.35L308.73,31l3.46-8.35-2.5-1,.15-.35,8.93,3.7-.15.35-2.49-1-7.22,17.42,2.5,1-.15.36-8.93-3.7.15-.36,2.49,1,3.61-8.71-7.85-3.25-3.6,8.71,2.5,1-.15.36-8.94-3.7.15-.35,2.5,1,7.21-17.42-2.49-1,.14-.35Z"/><path class="cls-1" d="M343.85,38.45l-.19.34-2.35-1.34-9.37,16.36,2.35,1.34-.2.33-8.39-4.8.2-.34,2.34,1.35,9.38-16.36L335.27,34l.19-.33Z"/><path class="cls-1" d="M359.4,48.77l.23-.31,3.55,2.66c.66.49,1.32,1,2,1.42s1.32.94,2,1.43A14.23,14.23,0,0,1,369,55.6a8.28,8.28,0,0,1,1.41,2,5,5,0,0,1,.54,2.21,3.68,3.68,0,0,1-.81,2.24,3.31,3.31,0,0,1-1.56,1.2,4.17,4.17,0,0,1-1.86.21,7,7,0,0,1-1.95-.51A13.08,13.08,0,0,1,362.9,62l-.08.11c.67.7,1.26,1.35,1.76,1.93a6.44,6.44,0,0,1,1.12,1.77,3.65,3.65,0,0,1,.23,1.89A6.16,6.16,0,0,1,365,70l-1.48,2.37a9.7,9.7,0,0,0-.77,1.45,1.39,1.39,0,0,0-.11.88,1.35,1.35,0,0,0,.54.64,1.46,1.46,0,0,0,1,.33l.9-.07.09.37-.77.07a2.91,2.91,0,0,1-.76-.07,4,4,0,0,1-.87-.33,6.86,6.86,0,0,1-1.12-.71,5.54,5.54,0,0,1-1.74-1.9,3.44,3.44,0,0,1-.36-1.77,3.8,3.8,0,0,1,.49-1.57c.28-.49.56-.94.85-1.35.41-.63.81-1.25,1.18-1.85a6.13,6.13,0,0,0,.74-1.81,3.13,3.13,0,0,0-.13-1.74,3.89,3.89,0,0,0-1.42-1.68l-1.56-1.16-5.95,8,2.17,1.62-.23.31-7.75-5.78.23-.31,2.17,1.61,11.27-15.11Zm1.45,11.72a5.55,5.55,0,0,0,1.87,1,2.53,2.53,0,0,0,1.45,0,3.06,3.06,0,0,0,1.16-.74,10.34,10.34,0,0,0,1-1.11,10.92,10.92,0,0,0,1.1-1.77,3.8,3.8,0,0,0,.39-1.5,2.42,2.42,0,0,0-.41-1.35,4.92,4.92,0,0,0-1.31-1.32c-.17-.13-.35-.25-.53-.37l-.55-.34-5.1,6.83Z"/><path class="cls-1" d="M401.8,84.59l-3.31,3.35-.27-.26a11,11,0,0,0,.49-1.21,6,6,0,0,0,.29-1.7,5.65,5.65,0,0,0-.31-2,5.47,5.47,0,0,0-1.38-2.08L394,77.41l-6,6.06,1.17,1.16a5,5,0,0,0,1.51,1.08,3.36,3.36,0,0,0,1.47.29,4.64,4.64,0,0,0,1.5-.34,9.6,9.6,0,0,0,1.56-.84l.27.27-6,6.1-.27-.27a14,14,0,0,0,.74-1.44,4.87,4.87,0,0,0,.39-1.46,3.47,3.47,0,0,0-.2-1.45,3.89,3.89,0,0,0-1-1.44l-1.4-1.39-7,7.08,3.43,3.39a6.36,6.36,0,0,0,2,1.41,5.88,5.88,0,0,0,2.21.5,6.74,6.74,0,0,0,2.26-.3,9.79,9.79,0,0,0,2.17-1l.27.27-4.24,4.29L375.51,86.21l.27-.28,1.92,1.9L391,74.41,389,72.51l.27-.27Z"/><path class="cls-1" d="M429.55,119.34l.33-.21,2.38,3.75c.44.69.89,1.37,1.34,2s.9,1.34,1.34,2a14.21,14.21,0,0,1,1.11,2.17,8.14,8.14,0,0,1,.62,2.38,5,5,0,0,1-.29,2.25,3.63,3.63,0,0,1-1.56,1.81,3.31,3.31,0,0,1-1.88.56,4.15,4.15,0,0,1-1.81-.46,7.26,7.26,0,0,1-1.64-1.17,12.23,12.23,0,0,1-1.38-1.53L428,133c.38.9.7,1.71,1,2.44a6.2,6.2,0,0,1,.42,2.05,3.67,3.67,0,0,1-.46,1.84,6.1,6.1,0,0,1-1.68,1.78L425,142.83a10.42,10.42,0,0,0-1.24,1.08,1.1,1.1,0,0,0-.14,1.58,1.43,1.43,0,0,0,.79.64c.31.11.6.19.86.26l0,.38-.74-.21a3.61,3.61,0,0,1-.69-.33,4.65,4.65,0,0,1-.7-.62,8.56,8.56,0,0,1-.79-1.06,5.53,5.53,0,0,1-.94-2.4,3.39,3.39,0,0,1,.28-1.78,3.83,3.83,0,0,1,1-1.3c.43-.35.86-.67,1.27-1,.61-.43,1.2-.87,1.76-1.31a5.52,5.52,0,0,0,1.33-1.42,3.12,3.12,0,0,0,.51-1.67,4,4,0,0,0-.73-2.08l-1-1.64-8.41,5.33,1.45,2.28-.32.21-5.18-8.16.32-.21,1.45,2.28L431,121.62Zm-2.81,11.46a5.33,5.33,0,0,0,1.4,1.58,2.47,2.47,0,0,0,1.37.49,3,3,0,0,0,1.34-.27,10.12,10.12,0,0,0,1.29-.7,10.81,10.81,0,0,0,1.66-1.26,3.64,3.64,0,0,0,.9-1.27,2.44,2.44,0,0,0,.1-1.4,5.09,5.09,0,0,0-.75-1.7c-.12-.19-.24-.36-.37-.53l-.39-.52-7.2,4.56Z"/><path class="cls-1" d="M456.64,168.5l-4.3,1.94-.15-.35a8.81,8.81,0,0,0,.88-1,5.65,5.65,0,0,0,.89-1.48,5.44,5.44,0,0,0,.42-2,5.28,5.28,0,0,0-.53-2.43L451.92,159l-7.76,3.5.68,1.5a4.91,4.91,0,0,0,1,1.56,3.29,3.29,0,0,0,1.26.8,4.66,4.66,0,0,0,1.52.21,9.66,9.66,0,0,0,1.77-.21l.15.35-7.81,3.52-.16-.34c.43-.35.83-.71,1.21-1.08a4.45,4.45,0,0,0,.88-1.22,3.31,3.31,0,0,0,.34-1.43,3.84,3.84,0,0,0-.4-1.7l-.81-1.8-9.07,4.1,2,4.39a6.67,6.67,0,0,0,1.39,2.05,6.25,6.25,0,0,0,1.89,1.26,6.94,6.94,0,0,0,2.22.53,9.5,9.5,0,0,0,2.37-.14l.16.35-5.5,2.48-7.73-17.11.35-.16,1.11,2.46,17.19-7.76-1.11-2.46.35-.16Z"/><path class="cls-1" d="M463.43,187.73l.37-.11,4.91,16.66-4.52,1.34-.11-.37a13.89,13.89,0,0,0,1.46-1.37,5.76,5.76,0,0,0,1-1.47,4.52,4.52,0,0,0,.41-1.7,6.23,6.23,0,0,0-.29-2l-1.25-4.26-8.52,2.51.47,1.58a5.25,5.25,0,0,0,.79,1.68,3.38,3.38,0,0,0,1.15,1,4.56,4.56,0,0,0,1.48.43,10.27,10.27,0,0,0,1.77,0l.11.36-8.22,2.42-.11-.36c.47-.29.92-.59,1.34-.9a4.91,4.91,0,0,0,1-1.09,3.47,3.47,0,0,0,.53-1.37,4,4,0,0,0-.17-1.74l-.56-1.89-9.2,2.71.77,2.62-.37.11L445,193.16l.37-.1.77,2.59,18.08-5.33Z"/><path class="cls-1" d="M474.35,232.05l-.39.07-.45-2.67-18.59,3.17.46,2.67-.38.06-1.63-9.53.38-.06.45,2.66,18.59-3.17-.45-2.67.38-.06Z"/><path class="cls-1" d="M477.11,260l-.39,0-.13-2.7-18.83.95.24,4.85a6.65,6.65,0,0,0,.4,1.93,5.46,5.46,0,0,0,1.1,1.8,7.19,7.19,0,0,0,1.9,1.46,9,9,0,0,0,2.76.94l0,.38-6.22.31L457,251.3h.38l.14,2.7,18.83-1-.14-2.7.39,0Z"/><path class="cls-1" d="M476.39,297.88l-.39,0,.23-2.69-18.78-1.63-.42,4.84a6.62,6.62,0,0,0,.14,2,5.39,5.39,0,0,0,.84,1.93,7,7,0,0,0,1.68,1.71,9.09,9.09,0,0,0,2.61,1.3l0,.38-6.21-.53,1.6-18.57.39,0-.24,2.69,18.79,1.62.23-2.69.39,0Z"/><path class="cls-1" d="M456.19,364.45c.64,0,1.33-.07,2.06-.15a7.45,7.45,0,0,0,2.12-.55,5.71,5.71,0,0,0,1.86-1.27,5.86,5.86,0,0,0,1.34-2.37,6.51,6.51,0,0,0,.33-3.44,4.72,4.72,0,0,0-1.39-2.42,9.41,9.41,0,0,0-2.75-1.74c-1.13-.49-2.38-1-3.76-1.41a26.27,26.27,0,0,0-4.62-1.13,7.88,7.88,0,0,0-3.17.13,4.06,4.06,0,0,0-2.07,1.37,8.28,8.28,0,0,0-1.29,2.56,5.43,5.43,0,0,0-.27,2.43,6.5,6.5,0,0,0,.66,2.21,7.48,7.48,0,0,0,1.34,1.89A9,9,0,0,0,448.4,362l-.15.45-5.56-1.81.15-.44a1,1,0,0,0,.54-.2,1.26,1.26,0,0,0,.31-.55,3.7,3.7,0,0,0,.14-.91c0-.38,0-.82.08-1.32s.09-1,.17-1.6a9.81,9.81,0,0,1,.41-1.75,11.25,11.25,0,0,1,2-3.7,11.49,11.49,0,0,1,3.13-2.67,10.55,10.55,0,0,1,3.8-1.32,9,9,0,0,1,4.08.37,8.92,8.92,0,0,1,3.73,2.28,11.07,11.07,0,0,1,2.29,3.48,11.73,11.73,0,0,1,.88,4,10.84,10.84,0,0,1-.49,3.87,8,8,0,0,1-.7,1.62c-.27.47-.53.91-.79,1.31s-.49.77-.71,1.09a3.51,3.51,0,0,0-.45.84,1.6,1.6,0,0,0-.1.62c0,.15.14.29.37.42l-.14.45-5.35-1.74Z"/><path class="cls-1" d="M448.51,383.6a11.24,11.24,0,0,1,1.76,3.78,11.82,11.82,0,0,1,.28,4.11,11,11,0,0,1-1.06,3.77,11.76,11.76,0,0,1-2.42,3.28,11.39,11.39,0,0,1-3.39,2.25,10.31,10.31,0,0,1-4,.81,9.35,9.35,0,0,1-4.24-1,8.89,8.89,0,0,1-3.12-2.55,10.79,10.79,0,0,1-1.86-3.61,11.36,11.36,0,0,1-.43-4.12,10.88,10.88,0,0,1,1.13-4.11,11.08,11.08,0,0,1,2.56-3.39,11.3,11.3,0,0,1,3.48-2.2,10.67,10.67,0,0,1,4-.74,9.35,9.35,0,0,1,7.34,3.75Zm-9.9-.3a8.14,8.14,0,0,0-3.18-.34,3.89,3.89,0,0,0-2.26,1,8.08,8.08,0,0,0-1.66,2.35,6.51,6.51,0,0,0-.83,3.39,4.81,4.81,0,0,0,1.05,2.59,9.68,9.68,0,0,0,2.5,2.1c1,.64,2.21,1.28,3.49,1.92s2.28,1.08,3.36,1.51a8.79,8.79,0,0,0,3.1.7,4.87,4.87,0,0,0,2.73-.72,7.91,7.91,0,0,0,3-6,4.74,4.74,0,0,0-1-2.6,9.48,9.48,0,0,0-2.44-2.16,33.46,33.46,0,0,0-3.49-2A26.65,26.65,0,0,0,438.61,383.3Z"/><path class="cls-1" d="M430.06,427.69l-14.14-3.8,0,.05,8.21,12.16-4.26,6-.31-.22,1.56-2.21-15.38-10.91L404.15,431l-.32-.22,5.58-7.87.32.23-1.55,2.18,15.38,10.91,0-.05-11.51-17,.27-.38,19.9,5.21,0-.05L416.9,413l-1.56,2.21L415,415l3.4-4.79.32.22-1.57,2.21,15.39,10.91,1.56-2.21.31.22Z"/><path class="cls-1" d="M387,450.18l-.27-.26,6.67-7,.28.26-1.86,2,13.63,13,1.87-1.95.28.26-1.87,2c-.69.72-1.37,1.45-2,2.2s-1.35,1.47-2,2.19a21.38,21.38,0,0,1-2.12,1.92,10.74,10.74,0,0,1-2.51,1.51,5.92,5.92,0,0,1-2.63.47,3.8,3.8,0,0,1-2.48-1.17,3.86,3.86,0,0,1-1.08-1.8,4.88,4.88,0,0,1,0-2.38,10,10,0,0,1,1.19-2.85,17.67,17.67,0,0,1,2.52-3.24l.83-.87-6.48-6.19Zm8,5.16a5.13,5.13,0,0,0-1.73,3.35,4.81,4.81,0,0,0,1.83,3.29,6,6,0,0,0,3.32,1.84q1.59.17,3.36-1.68c.14-.16.28-.31.4-.46l.33-.42-6.88-6.58Z"/><path class="cls-1" d="M369.5,466.93,375.12,488l-.62.5-19.71-9.89-2,1.57-.24-.3,7.72-6.15.24.3-2.13,1.7,7.27,3.66,5.51-4.4-2.05-7.81-2,1.63-.24-.3,4.34-3.46.24.3Zm1.81,8.5L366,479.64l7.4,3.73Z"/><path class="cls-1" d="M344.66,508.33,329.58,502l-.05,0L336,513l2.34-1.37.19.33-5.07,3-.19-.34,2.33-1.36-9.74-16.6.68-.4,20.35,8.55.06,0-8.75-14.91-2.34,1.37-.19-.34,5.07-3,.19.33-2.33,1.37,9.55,16.26,2.33-1.37.19.34Z"/><path class="cls-1" d="M309.32,526.22l-.14-.36,2.14-.89-9.21-6.6-1.33,11,2.36-1,.15.36-5.19,2.14-.15-.36,2.37-1L301.7,518l-3.33-8.08-2.53,1-.14-.35,9-3.7.15.35-2.5,1,2.93,7.11,10.56,7.72,2.12-.87.15.36Z"/></g></g></svg>